G04 EAGLE Gerber RS-274X export*
G75*
%MOMM*%
%FSLAX34Y34*%
%LPD*%
%IN*%
%IPPOS*%
%AMOC8*
5,1,8,0,0,1.08239X$1,22.5*%
G01*
%ADD10C,0.000000*%


D10*
X0Y0D02*
X466400Y0D01*
X466400Y466400D01*
X0Y466400D01*
X0Y0D01*
X15000Y30000D02*
X15005Y30368D01*
X15018Y30736D01*
X15041Y31103D01*
X15072Y31470D01*
X15113Y31836D01*
X15162Y32201D01*
X15221Y32564D01*
X15288Y32926D01*
X15364Y33287D01*
X15450Y33645D01*
X15543Y34001D01*
X15646Y34354D01*
X15757Y34705D01*
X15877Y35053D01*
X16005Y35398D01*
X16142Y35740D01*
X16287Y36079D01*
X16440Y36413D01*
X16602Y36744D01*
X16771Y37071D01*
X16949Y37393D01*
X17134Y37712D01*
X17327Y38025D01*
X17528Y38334D01*
X17736Y38637D01*
X17952Y38935D01*
X18175Y39228D01*
X18405Y39516D01*
X18642Y39798D01*
X18886Y40073D01*
X19136Y40343D01*
X19393Y40607D01*
X19657Y40864D01*
X19927Y41114D01*
X20202Y41358D01*
X20484Y41595D01*
X20772Y41825D01*
X21065Y42048D01*
X21363Y42264D01*
X21666Y42472D01*
X21975Y42673D01*
X22288Y42866D01*
X22607Y43051D01*
X22929Y43229D01*
X23256Y43398D01*
X23587Y43560D01*
X23921Y43713D01*
X24260Y43858D01*
X24602Y43995D01*
X24947Y44123D01*
X25295Y44243D01*
X25646Y44354D01*
X25999Y44457D01*
X26355Y44550D01*
X26713Y44636D01*
X27074Y44712D01*
X27436Y44779D01*
X27799Y44838D01*
X28164Y44887D01*
X28530Y44928D01*
X28897Y44959D01*
X29264Y44982D01*
X29632Y44995D01*
X30000Y45000D01*
X30368Y44995D01*
X30736Y44982D01*
X31103Y44959D01*
X31470Y44928D01*
X31836Y44887D01*
X32201Y44838D01*
X32564Y44779D01*
X32926Y44712D01*
X33287Y44636D01*
X33645Y44550D01*
X34001Y44457D01*
X34354Y44354D01*
X34705Y44243D01*
X35053Y44123D01*
X35398Y43995D01*
X35740Y43858D01*
X36079Y43713D01*
X36413Y43560D01*
X36744Y43398D01*
X37071Y43229D01*
X37393Y43051D01*
X37712Y42866D01*
X38025Y42673D01*
X38334Y42472D01*
X38637Y42264D01*
X38935Y42048D01*
X39228Y41825D01*
X39516Y41595D01*
X39798Y41358D01*
X40073Y41114D01*
X40343Y40864D01*
X40607Y40607D01*
X40864Y40343D01*
X41114Y40073D01*
X41358Y39798D01*
X41595Y39516D01*
X41825Y39228D01*
X42048Y38935D01*
X42264Y38637D01*
X42472Y38334D01*
X42673Y38025D01*
X42866Y37712D01*
X43051Y37393D01*
X43229Y37071D01*
X43398Y36744D01*
X43560Y36413D01*
X43713Y36079D01*
X43858Y35740D01*
X43995Y35398D01*
X44123Y35053D01*
X44243Y34705D01*
X44354Y34354D01*
X44457Y34001D01*
X44550Y33645D01*
X44636Y33287D01*
X44712Y32926D01*
X44779Y32564D01*
X44838Y32201D01*
X44887Y31836D01*
X44928Y31470D01*
X44959Y31103D01*
X44982Y30736D01*
X44995Y30368D01*
X45000Y30000D01*
X44995Y29632D01*
X44982Y29264D01*
X44959Y28897D01*
X44928Y28530D01*
X44887Y28164D01*
X44838Y27799D01*
X44779Y27436D01*
X44712Y27074D01*
X44636Y26713D01*
X44550Y26355D01*
X44457Y25999D01*
X44354Y25646D01*
X44243Y25295D01*
X44123Y24947D01*
X43995Y24602D01*
X43858Y24260D01*
X43713Y23921D01*
X43560Y23587D01*
X43398Y23256D01*
X43229Y22929D01*
X43051Y22607D01*
X42866Y22288D01*
X42673Y21975D01*
X42472Y21666D01*
X42264Y21363D01*
X42048Y21065D01*
X41825Y20772D01*
X41595Y20484D01*
X41358Y20202D01*
X41114Y19927D01*
X40864Y19657D01*
X40607Y19393D01*
X40343Y19136D01*
X40073Y18886D01*
X39798Y18642D01*
X39516Y18405D01*
X39228Y18175D01*
X38935Y17952D01*
X38637Y17736D01*
X38334Y17528D01*
X38025Y17327D01*
X37712Y17134D01*
X37393Y16949D01*
X37071Y16771D01*
X36744Y16602D01*
X36413Y16440D01*
X36079Y16287D01*
X35740Y16142D01*
X35398Y16005D01*
X35053Y15877D01*
X34705Y15757D01*
X34354Y15646D01*
X34001Y15543D01*
X33645Y15450D01*
X33287Y15364D01*
X32926Y15288D01*
X32564Y15221D01*
X32201Y15162D01*
X31836Y15113D01*
X31470Y15072D01*
X31103Y15041D01*
X30736Y15018D01*
X30368Y15005D01*
X30000Y15000D01*
X29632Y15005D01*
X29264Y15018D01*
X28897Y15041D01*
X28530Y15072D01*
X28164Y15113D01*
X27799Y15162D01*
X27436Y15221D01*
X27074Y15288D01*
X26713Y15364D01*
X26355Y15450D01*
X25999Y15543D01*
X25646Y15646D01*
X25295Y15757D01*
X24947Y15877D01*
X24602Y16005D01*
X24260Y16142D01*
X23921Y16287D01*
X23587Y16440D01*
X23256Y16602D01*
X22929Y16771D01*
X22607Y16949D01*
X22288Y17134D01*
X21975Y17327D01*
X21666Y17528D01*
X21363Y17736D01*
X21065Y17952D01*
X20772Y18175D01*
X20484Y18405D01*
X20202Y18642D01*
X19927Y18886D01*
X19657Y19136D01*
X19393Y19393D01*
X19136Y19657D01*
X18886Y19927D01*
X18642Y20202D01*
X18405Y20484D01*
X18175Y20772D01*
X17952Y21065D01*
X17736Y21363D01*
X17528Y21666D01*
X17327Y21975D01*
X17134Y22288D01*
X16949Y22607D01*
X16771Y22929D01*
X16602Y23256D01*
X16440Y23587D01*
X16287Y23921D01*
X16142Y24260D01*
X16005Y24602D01*
X15877Y24947D01*
X15757Y25295D01*
X15646Y25646D01*
X15543Y25999D01*
X15450Y26355D01*
X15364Y26713D01*
X15288Y27074D01*
X15221Y27436D01*
X15162Y27799D01*
X15113Y28164D01*
X15072Y28530D01*
X15041Y28897D01*
X15018Y29264D01*
X15005Y29632D01*
X15000Y30000D01*
X421400Y30000D02*
X421405Y30368D01*
X421418Y30736D01*
X421441Y31103D01*
X421472Y31470D01*
X421513Y31836D01*
X421562Y32201D01*
X421621Y32564D01*
X421688Y32926D01*
X421764Y33287D01*
X421850Y33645D01*
X421943Y34001D01*
X422046Y34354D01*
X422157Y34705D01*
X422277Y35053D01*
X422405Y35398D01*
X422542Y35740D01*
X422687Y36079D01*
X422840Y36413D01*
X423002Y36744D01*
X423171Y37071D01*
X423349Y37393D01*
X423534Y37712D01*
X423727Y38025D01*
X423928Y38334D01*
X424136Y38637D01*
X424352Y38935D01*
X424575Y39228D01*
X424805Y39516D01*
X425042Y39798D01*
X425286Y40073D01*
X425536Y40343D01*
X425793Y40607D01*
X426057Y40864D01*
X426327Y41114D01*
X426602Y41358D01*
X426884Y41595D01*
X427172Y41825D01*
X427465Y42048D01*
X427763Y42264D01*
X428066Y42472D01*
X428375Y42673D01*
X428688Y42866D01*
X429007Y43051D01*
X429329Y43229D01*
X429656Y43398D01*
X429987Y43560D01*
X430321Y43713D01*
X430660Y43858D01*
X431002Y43995D01*
X431347Y44123D01*
X431695Y44243D01*
X432046Y44354D01*
X432399Y44457D01*
X432755Y44550D01*
X433113Y44636D01*
X433474Y44712D01*
X433836Y44779D01*
X434199Y44838D01*
X434564Y44887D01*
X434930Y44928D01*
X435297Y44959D01*
X435664Y44982D01*
X436032Y44995D01*
X436400Y45000D01*
X436768Y44995D01*
X437136Y44982D01*
X437503Y44959D01*
X437870Y44928D01*
X438236Y44887D01*
X438601Y44838D01*
X438964Y44779D01*
X439326Y44712D01*
X439687Y44636D01*
X440045Y44550D01*
X440401Y44457D01*
X440754Y44354D01*
X441105Y44243D01*
X441453Y44123D01*
X441798Y43995D01*
X442140Y43858D01*
X442479Y43713D01*
X442813Y43560D01*
X443144Y43398D01*
X443471Y43229D01*
X443793Y43051D01*
X444112Y42866D01*
X444425Y42673D01*
X444734Y42472D01*
X445037Y42264D01*
X445335Y42048D01*
X445628Y41825D01*
X445916Y41595D01*
X446198Y41358D01*
X446473Y41114D01*
X446743Y40864D01*
X447007Y40607D01*
X447264Y40343D01*
X447514Y40073D01*
X447758Y39798D01*
X447995Y39516D01*
X448225Y39228D01*
X448448Y38935D01*
X448664Y38637D01*
X448872Y38334D01*
X449073Y38025D01*
X449266Y37712D01*
X449451Y37393D01*
X449629Y37071D01*
X449798Y36744D01*
X449960Y36413D01*
X450113Y36079D01*
X450258Y35740D01*
X450395Y35398D01*
X450523Y35053D01*
X450643Y34705D01*
X450754Y34354D01*
X450857Y34001D01*
X450950Y33645D01*
X451036Y33287D01*
X451112Y32926D01*
X451179Y32564D01*
X451238Y32201D01*
X451287Y31836D01*
X451328Y31470D01*
X451359Y31103D01*
X451382Y30736D01*
X451395Y30368D01*
X451400Y30000D01*
X451395Y29632D01*
X451382Y29264D01*
X451359Y28897D01*
X451328Y28530D01*
X451287Y28164D01*
X451238Y27799D01*
X451179Y27436D01*
X451112Y27074D01*
X451036Y26713D01*
X450950Y26355D01*
X450857Y25999D01*
X450754Y25646D01*
X450643Y25295D01*
X450523Y24947D01*
X450395Y24602D01*
X450258Y24260D01*
X450113Y23921D01*
X449960Y23587D01*
X449798Y23256D01*
X449629Y22929D01*
X449451Y22607D01*
X449266Y22288D01*
X449073Y21975D01*
X448872Y21666D01*
X448664Y21363D01*
X448448Y21065D01*
X448225Y20772D01*
X447995Y20484D01*
X447758Y20202D01*
X447514Y19927D01*
X447264Y19657D01*
X447007Y19393D01*
X446743Y19136D01*
X446473Y18886D01*
X446198Y18642D01*
X445916Y18405D01*
X445628Y18175D01*
X445335Y17952D01*
X445037Y17736D01*
X444734Y17528D01*
X444425Y17327D01*
X444112Y17134D01*
X443793Y16949D01*
X443471Y16771D01*
X443144Y16602D01*
X442813Y16440D01*
X442479Y16287D01*
X442140Y16142D01*
X441798Y16005D01*
X441453Y15877D01*
X441105Y15757D01*
X440754Y15646D01*
X440401Y15543D01*
X440045Y15450D01*
X439687Y15364D01*
X439326Y15288D01*
X438964Y15221D01*
X438601Y15162D01*
X438236Y15113D01*
X437870Y15072D01*
X437503Y15041D01*
X437136Y15018D01*
X436768Y15005D01*
X436400Y15000D01*
X436032Y15005D01*
X435664Y15018D01*
X435297Y15041D01*
X434930Y15072D01*
X434564Y15113D01*
X434199Y15162D01*
X433836Y15221D01*
X433474Y15288D01*
X433113Y15364D01*
X432755Y15450D01*
X432399Y15543D01*
X432046Y15646D01*
X431695Y15757D01*
X431347Y15877D01*
X431002Y16005D01*
X430660Y16142D01*
X430321Y16287D01*
X429987Y16440D01*
X429656Y16602D01*
X429329Y16771D01*
X429007Y16949D01*
X428688Y17134D01*
X428375Y17327D01*
X428066Y17528D01*
X427763Y17736D01*
X427465Y17952D01*
X427172Y18175D01*
X426884Y18405D01*
X426602Y18642D01*
X426327Y18886D01*
X426057Y19136D01*
X425793Y19393D01*
X425536Y19657D01*
X425286Y19927D01*
X425042Y20202D01*
X424805Y20484D01*
X424575Y20772D01*
X424352Y21065D01*
X424136Y21363D01*
X423928Y21666D01*
X423727Y21975D01*
X423534Y22288D01*
X423349Y22607D01*
X423171Y22929D01*
X423002Y23256D01*
X422840Y23587D01*
X422687Y23921D01*
X422542Y24260D01*
X422405Y24602D01*
X422277Y24947D01*
X422157Y25295D01*
X422046Y25646D01*
X421943Y25999D01*
X421850Y26355D01*
X421764Y26713D01*
X421688Y27074D01*
X421621Y27436D01*
X421562Y27799D01*
X421513Y28164D01*
X421472Y28530D01*
X421441Y28897D01*
X421418Y29264D01*
X421405Y29632D01*
X421400Y30000D01*
X421400Y436400D02*
X421405Y436768D01*
X421418Y437136D01*
X421441Y437503D01*
X421472Y437870D01*
X421513Y438236D01*
X421562Y438601D01*
X421621Y438964D01*
X421688Y439326D01*
X421764Y439687D01*
X421850Y440045D01*
X421943Y440401D01*
X422046Y440754D01*
X422157Y441105D01*
X422277Y441453D01*
X422405Y441798D01*
X422542Y442140D01*
X422687Y442479D01*
X422840Y442813D01*
X423002Y443144D01*
X423171Y443471D01*
X423349Y443793D01*
X423534Y444112D01*
X423727Y444425D01*
X423928Y444734D01*
X424136Y445037D01*
X424352Y445335D01*
X424575Y445628D01*
X424805Y445916D01*
X425042Y446198D01*
X425286Y446473D01*
X425536Y446743D01*
X425793Y447007D01*
X426057Y447264D01*
X426327Y447514D01*
X426602Y447758D01*
X426884Y447995D01*
X427172Y448225D01*
X427465Y448448D01*
X427763Y448664D01*
X428066Y448872D01*
X428375Y449073D01*
X428688Y449266D01*
X429007Y449451D01*
X429329Y449629D01*
X429656Y449798D01*
X429987Y449960D01*
X430321Y450113D01*
X430660Y450258D01*
X431002Y450395D01*
X431347Y450523D01*
X431695Y450643D01*
X432046Y450754D01*
X432399Y450857D01*
X432755Y450950D01*
X433113Y451036D01*
X433474Y451112D01*
X433836Y451179D01*
X434199Y451238D01*
X434564Y451287D01*
X434930Y451328D01*
X435297Y451359D01*
X435664Y451382D01*
X436032Y451395D01*
X436400Y451400D01*
X436768Y451395D01*
X437136Y451382D01*
X437503Y451359D01*
X437870Y451328D01*
X438236Y451287D01*
X438601Y451238D01*
X438964Y451179D01*
X439326Y451112D01*
X439687Y451036D01*
X440045Y450950D01*
X440401Y450857D01*
X440754Y450754D01*
X441105Y450643D01*
X441453Y450523D01*
X441798Y450395D01*
X442140Y450258D01*
X442479Y450113D01*
X442813Y449960D01*
X443144Y449798D01*
X443471Y449629D01*
X443793Y449451D01*
X444112Y449266D01*
X444425Y449073D01*
X444734Y448872D01*
X445037Y448664D01*
X445335Y448448D01*
X445628Y448225D01*
X445916Y447995D01*
X446198Y447758D01*
X446473Y447514D01*
X446743Y447264D01*
X447007Y447007D01*
X447264Y446743D01*
X447514Y446473D01*
X447758Y446198D01*
X447995Y445916D01*
X448225Y445628D01*
X448448Y445335D01*
X448664Y445037D01*
X448872Y444734D01*
X449073Y444425D01*
X449266Y444112D01*
X449451Y443793D01*
X449629Y443471D01*
X449798Y443144D01*
X449960Y442813D01*
X450113Y442479D01*
X450258Y442140D01*
X450395Y441798D01*
X450523Y441453D01*
X450643Y441105D01*
X450754Y440754D01*
X450857Y440401D01*
X450950Y440045D01*
X451036Y439687D01*
X451112Y439326D01*
X451179Y438964D01*
X451238Y438601D01*
X451287Y438236D01*
X451328Y437870D01*
X451359Y437503D01*
X451382Y437136D01*
X451395Y436768D01*
X451400Y436400D01*
X451395Y436032D01*
X451382Y435664D01*
X451359Y435297D01*
X451328Y434930D01*
X451287Y434564D01*
X451238Y434199D01*
X451179Y433836D01*
X451112Y433474D01*
X451036Y433113D01*
X450950Y432755D01*
X450857Y432399D01*
X450754Y432046D01*
X450643Y431695D01*
X450523Y431347D01*
X450395Y431002D01*
X450258Y430660D01*
X450113Y430321D01*
X449960Y429987D01*
X449798Y429656D01*
X449629Y429329D01*
X449451Y429007D01*
X449266Y428688D01*
X449073Y428375D01*
X448872Y428066D01*
X448664Y427763D01*
X448448Y427465D01*
X448225Y427172D01*
X447995Y426884D01*
X447758Y426602D01*
X447514Y426327D01*
X447264Y426057D01*
X447007Y425793D01*
X446743Y425536D01*
X446473Y425286D01*
X446198Y425042D01*
X445916Y424805D01*
X445628Y424575D01*
X445335Y424352D01*
X445037Y424136D01*
X444734Y423928D01*
X444425Y423727D01*
X444112Y423534D01*
X443793Y423349D01*
X443471Y423171D01*
X443144Y423002D01*
X442813Y422840D01*
X442479Y422687D01*
X442140Y422542D01*
X441798Y422405D01*
X441453Y422277D01*
X441105Y422157D01*
X440754Y422046D01*
X440401Y421943D01*
X440045Y421850D01*
X439687Y421764D01*
X439326Y421688D01*
X438964Y421621D01*
X438601Y421562D01*
X438236Y421513D01*
X437870Y421472D01*
X437503Y421441D01*
X437136Y421418D01*
X436768Y421405D01*
X436400Y421400D01*
X436032Y421405D01*
X435664Y421418D01*
X435297Y421441D01*
X434930Y421472D01*
X434564Y421513D01*
X434199Y421562D01*
X433836Y421621D01*
X433474Y421688D01*
X433113Y421764D01*
X432755Y421850D01*
X432399Y421943D01*
X432046Y422046D01*
X431695Y422157D01*
X431347Y422277D01*
X431002Y422405D01*
X430660Y422542D01*
X430321Y422687D01*
X429987Y422840D01*
X429656Y423002D01*
X429329Y423171D01*
X429007Y423349D01*
X428688Y423534D01*
X428375Y423727D01*
X428066Y423928D01*
X427763Y424136D01*
X427465Y424352D01*
X427172Y424575D01*
X426884Y424805D01*
X426602Y425042D01*
X426327Y425286D01*
X426057Y425536D01*
X425793Y425793D01*
X425536Y426057D01*
X425286Y426327D01*
X425042Y426602D01*
X424805Y426884D01*
X424575Y427172D01*
X424352Y427465D01*
X424136Y427763D01*
X423928Y428066D01*
X423727Y428375D01*
X423534Y428688D01*
X423349Y429007D01*
X423171Y429329D01*
X423002Y429656D01*
X422840Y429987D01*
X422687Y430321D01*
X422542Y430660D01*
X422405Y431002D01*
X422277Y431347D01*
X422157Y431695D01*
X422046Y432046D01*
X421943Y432399D01*
X421850Y432755D01*
X421764Y433113D01*
X421688Y433474D01*
X421621Y433836D01*
X421562Y434199D01*
X421513Y434564D01*
X421472Y434930D01*
X421441Y435297D01*
X421418Y435664D01*
X421405Y436032D01*
X421400Y436400D01*
X15000Y436400D02*
X15005Y436768D01*
X15018Y437136D01*
X15041Y437503D01*
X15072Y437870D01*
X15113Y438236D01*
X15162Y438601D01*
X15221Y438964D01*
X15288Y439326D01*
X15364Y439687D01*
X15450Y440045D01*
X15543Y440401D01*
X15646Y440754D01*
X15757Y441105D01*
X15877Y441453D01*
X16005Y441798D01*
X16142Y442140D01*
X16287Y442479D01*
X16440Y442813D01*
X16602Y443144D01*
X16771Y443471D01*
X16949Y443793D01*
X17134Y444112D01*
X17327Y444425D01*
X17528Y444734D01*
X17736Y445037D01*
X17952Y445335D01*
X18175Y445628D01*
X18405Y445916D01*
X18642Y446198D01*
X18886Y446473D01*
X19136Y446743D01*
X19393Y447007D01*
X19657Y447264D01*
X19927Y447514D01*
X20202Y447758D01*
X20484Y447995D01*
X20772Y448225D01*
X21065Y448448D01*
X21363Y448664D01*
X21666Y448872D01*
X21975Y449073D01*
X22288Y449266D01*
X22607Y449451D01*
X22929Y449629D01*
X23256Y449798D01*
X23587Y449960D01*
X23921Y450113D01*
X24260Y450258D01*
X24602Y450395D01*
X24947Y450523D01*
X25295Y450643D01*
X25646Y450754D01*
X25999Y450857D01*
X26355Y450950D01*
X26713Y451036D01*
X27074Y451112D01*
X27436Y451179D01*
X27799Y451238D01*
X28164Y451287D01*
X28530Y451328D01*
X28897Y451359D01*
X29264Y451382D01*
X29632Y451395D01*
X30000Y451400D01*
X30368Y451395D01*
X30736Y451382D01*
X31103Y451359D01*
X31470Y451328D01*
X31836Y451287D01*
X32201Y451238D01*
X32564Y451179D01*
X32926Y451112D01*
X33287Y451036D01*
X33645Y450950D01*
X34001Y450857D01*
X34354Y450754D01*
X34705Y450643D01*
X35053Y450523D01*
X35398Y450395D01*
X35740Y450258D01*
X36079Y450113D01*
X36413Y449960D01*
X36744Y449798D01*
X37071Y449629D01*
X37393Y449451D01*
X37712Y449266D01*
X38025Y449073D01*
X38334Y448872D01*
X38637Y448664D01*
X38935Y448448D01*
X39228Y448225D01*
X39516Y447995D01*
X39798Y447758D01*
X40073Y447514D01*
X40343Y447264D01*
X40607Y447007D01*
X40864Y446743D01*
X41114Y446473D01*
X41358Y446198D01*
X41595Y445916D01*
X41825Y445628D01*
X42048Y445335D01*
X42264Y445037D01*
X42472Y444734D01*
X42673Y444425D01*
X42866Y444112D01*
X43051Y443793D01*
X43229Y443471D01*
X43398Y443144D01*
X43560Y442813D01*
X43713Y442479D01*
X43858Y442140D01*
X43995Y441798D01*
X44123Y441453D01*
X44243Y441105D01*
X44354Y440754D01*
X44457Y440401D01*
X44550Y440045D01*
X44636Y439687D01*
X44712Y439326D01*
X44779Y438964D01*
X44838Y438601D01*
X44887Y438236D01*
X44928Y437870D01*
X44959Y437503D01*
X44982Y437136D01*
X44995Y436768D01*
X45000Y436400D01*
X44995Y436032D01*
X44982Y435664D01*
X44959Y435297D01*
X44928Y434930D01*
X44887Y434564D01*
X44838Y434199D01*
X44779Y433836D01*
X44712Y433474D01*
X44636Y433113D01*
X44550Y432755D01*
X44457Y432399D01*
X44354Y432046D01*
X44243Y431695D01*
X44123Y431347D01*
X43995Y431002D01*
X43858Y430660D01*
X43713Y430321D01*
X43560Y429987D01*
X43398Y429656D01*
X43229Y429329D01*
X43051Y429007D01*
X42866Y428688D01*
X42673Y428375D01*
X42472Y428066D01*
X42264Y427763D01*
X42048Y427465D01*
X41825Y427172D01*
X41595Y426884D01*
X41358Y426602D01*
X41114Y426327D01*
X40864Y426057D01*
X40607Y425793D01*
X40343Y425536D01*
X40073Y425286D01*
X39798Y425042D01*
X39516Y424805D01*
X39228Y424575D01*
X38935Y424352D01*
X38637Y424136D01*
X38334Y423928D01*
X38025Y423727D01*
X37712Y423534D01*
X37393Y423349D01*
X37071Y423171D01*
X36744Y423002D01*
X36413Y422840D01*
X36079Y422687D01*
X35740Y422542D01*
X35398Y422405D01*
X35053Y422277D01*
X34705Y422157D01*
X34354Y422046D01*
X34001Y421943D01*
X33645Y421850D01*
X33287Y421764D01*
X32926Y421688D01*
X32564Y421621D01*
X32201Y421562D01*
X31836Y421513D01*
X31470Y421472D01*
X31103Y421441D01*
X30736Y421418D01*
X30368Y421405D01*
X30000Y421400D01*
X29632Y421405D01*
X29264Y421418D01*
X28897Y421441D01*
X28530Y421472D01*
X28164Y421513D01*
X27799Y421562D01*
X27436Y421621D01*
X27074Y421688D01*
X26713Y421764D01*
X26355Y421850D01*
X25999Y421943D01*
X25646Y422046D01*
X25295Y422157D01*
X24947Y422277D01*
X24602Y422405D01*
X24260Y422542D01*
X23921Y422687D01*
X23587Y422840D01*
X23256Y423002D01*
X22929Y423171D01*
X22607Y423349D01*
X22288Y423534D01*
X21975Y423727D01*
X21666Y423928D01*
X21363Y424136D01*
X21065Y424352D01*
X20772Y424575D01*
X20484Y424805D01*
X20202Y425042D01*
X19927Y425286D01*
X19657Y425536D01*
X19393Y425793D01*
X19136Y426057D01*
X18886Y426327D01*
X18642Y426602D01*
X18405Y426884D01*
X18175Y427172D01*
X17952Y427465D01*
X17736Y427763D01*
X17528Y428066D01*
X17327Y428375D01*
X17134Y428688D01*
X16949Y429007D01*
X16771Y429329D01*
X16602Y429656D01*
X16440Y429987D01*
X16287Y430321D01*
X16142Y430660D01*
X16005Y431002D01*
X15877Y431347D01*
X15757Y431695D01*
X15646Y432046D01*
X15543Y432399D01*
X15450Y432755D01*
X15364Y433113D01*
X15288Y433474D01*
X15221Y433836D01*
X15162Y434199D01*
X15113Y434564D01*
X15072Y434930D01*
X15041Y435297D01*
X15018Y435664D01*
X15005Y436032D01*
X15000Y436400D01*
X382745Y138200D02*
X382750Y138568D01*
X382763Y138936D01*
X382786Y139303D01*
X382817Y139670D01*
X382858Y140036D01*
X382907Y140401D01*
X382966Y140764D01*
X383033Y141126D01*
X383109Y141487D01*
X383195Y141845D01*
X383288Y142201D01*
X383391Y142554D01*
X383502Y142905D01*
X383622Y143253D01*
X383750Y143598D01*
X383887Y143940D01*
X384032Y144279D01*
X384185Y144613D01*
X384347Y144944D01*
X384516Y145271D01*
X384694Y145593D01*
X384879Y145912D01*
X385072Y146225D01*
X385273Y146534D01*
X385481Y146837D01*
X385697Y147135D01*
X385920Y147428D01*
X386150Y147716D01*
X386387Y147998D01*
X386631Y148273D01*
X386881Y148543D01*
X387138Y148807D01*
X387402Y149064D01*
X387672Y149314D01*
X387947Y149558D01*
X388229Y149795D01*
X388517Y150025D01*
X388810Y150248D01*
X389108Y150464D01*
X389411Y150672D01*
X389720Y150873D01*
X390033Y151066D01*
X390352Y151251D01*
X390674Y151429D01*
X391001Y151598D01*
X391332Y151760D01*
X391666Y151913D01*
X392005Y152058D01*
X392347Y152195D01*
X392692Y152323D01*
X393040Y152443D01*
X393391Y152554D01*
X393744Y152657D01*
X394100Y152750D01*
X394458Y152836D01*
X394819Y152912D01*
X395181Y152979D01*
X395544Y153038D01*
X395909Y153087D01*
X396275Y153128D01*
X396642Y153159D01*
X397009Y153182D01*
X397377Y153195D01*
X397745Y153200D01*
X398113Y153195D01*
X398481Y153182D01*
X398848Y153159D01*
X399215Y153128D01*
X399581Y153087D01*
X399946Y153038D01*
X400309Y152979D01*
X400671Y152912D01*
X401032Y152836D01*
X401390Y152750D01*
X401746Y152657D01*
X402099Y152554D01*
X402450Y152443D01*
X402798Y152323D01*
X403143Y152195D01*
X403485Y152058D01*
X403824Y151913D01*
X404158Y151760D01*
X404489Y151598D01*
X404816Y151429D01*
X405138Y151251D01*
X405457Y151066D01*
X405770Y150873D01*
X406079Y150672D01*
X406382Y150464D01*
X406680Y150248D01*
X406973Y150025D01*
X407261Y149795D01*
X407543Y149558D01*
X407818Y149314D01*
X408088Y149064D01*
X408352Y148807D01*
X408609Y148543D01*
X408859Y148273D01*
X409103Y147998D01*
X409340Y147716D01*
X409570Y147428D01*
X409793Y147135D01*
X410009Y146837D01*
X410217Y146534D01*
X410418Y146225D01*
X410611Y145912D01*
X410796Y145593D01*
X410974Y145271D01*
X411143Y144944D01*
X411305Y144613D01*
X411458Y144279D01*
X411603Y143940D01*
X411740Y143598D01*
X411868Y143253D01*
X411988Y142905D01*
X412099Y142554D01*
X412202Y142201D01*
X412295Y141845D01*
X412381Y141487D01*
X412457Y141126D01*
X412524Y140764D01*
X412583Y140401D01*
X412632Y140036D01*
X412673Y139670D01*
X412704Y139303D01*
X412727Y138936D01*
X412740Y138568D01*
X412745Y138200D01*
X412740Y137832D01*
X412727Y137464D01*
X412704Y137097D01*
X412673Y136730D01*
X412632Y136364D01*
X412583Y135999D01*
X412524Y135636D01*
X412457Y135274D01*
X412381Y134913D01*
X412295Y134555D01*
X412202Y134199D01*
X412099Y133846D01*
X411988Y133495D01*
X411868Y133147D01*
X411740Y132802D01*
X411603Y132460D01*
X411458Y132121D01*
X411305Y131787D01*
X411143Y131456D01*
X410974Y131129D01*
X410796Y130807D01*
X410611Y130488D01*
X410418Y130175D01*
X410217Y129866D01*
X410009Y129563D01*
X409793Y129265D01*
X409570Y128972D01*
X409340Y128684D01*
X409103Y128402D01*
X408859Y128127D01*
X408609Y127857D01*
X408352Y127593D01*
X408088Y127336D01*
X407818Y127086D01*
X407543Y126842D01*
X407261Y126605D01*
X406973Y126375D01*
X406680Y126152D01*
X406382Y125936D01*
X406079Y125728D01*
X405770Y125527D01*
X405457Y125334D01*
X405138Y125149D01*
X404816Y124971D01*
X404489Y124802D01*
X404158Y124640D01*
X403824Y124487D01*
X403485Y124342D01*
X403143Y124205D01*
X402798Y124077D01*
X402450Y123957D01*
X402099Y123846D01*
X401746Y123743D01*
X401390Y123650D01*
X401032Y123564D01*
X400671Y123488D01*
X400309Y123421D01*
X399946Y123362D01*
X399581Y123313D01*
X399215Y123272D01*
X398848Y123241D01*
X398481Y123218D01*
X398113Y123205D01*
X397745Y123200D01*
X397377Y123205D01*
X397009Y123218D01*
X396642Y123241D01*
X396275Y123272D01*
X395909Y123313D01*
X395544Y123362D01*
X395181Y123421D01*
X394819Y123488D01*
X394458Y123564D01*
X394100Y123650D01*
X393744Y123743D01*
X393391Y123846D01*
X393040Y123957D01*
X392692Y124077D01*
X392347Y124205D01*
X392005Y124342D01*
X391666Y124487D01*
X391332Y124640D01*
X391001Y124802D01*
X390674Y124971D01*
X390352Y125149D01*
X390033Y125334D01*
X389720Y125527D01*
X389411Y125728D01*
X389108Y125936D01*
X388810Y126152D01*
X388517Y126375D01*
X388229Y126605D01*
X387947Y126842D01*
X387672Y127086D01*
X387402Y127336D01*
X387138Y127593D01*
X386881Y127857D01*
X386631Y128127D01*
X386387Y128402D01*
X386150Y128684D01*
X385920Y128972D01*
X385697Y129265D01*
X385481Y129563D01*
X385273Y129866D01*
X385072Y130175D01*
X384879Y130488D01*
X384694Y130807D01*
X384516Y131129D01*
X384347Y131456D01*
X384185Y131787D01*
X384032Y132121D01*
X383887Y132460D01*
X383750Y132802D01*
X383622Y133147D01*
X383502Y133495D01*
X383391Y133846D01*
X383288Y134199D01*
X383195Y134555D01*
X383109Y134913D01*
X383033Y135274D01*
X382966Y135636D01*
X382907Y135999D01*
X382858Y136364D01*
X382817Y136730D01*
X382786Y137097D01*
X382763Y137464D01*
X382750Y137832D01*
X382745Y138200D01*
X53655Y138200D02*
X53660Y138568D01*
X53673Y138936D01*
X53696Y139303D01*
X53727Y139670D01*
X53768Y140036D01*
X53817Y140401D01*
X53876Y140764D01*
X53943Y141126D01*
X54019Y141487D01*
X54105Y141845D01*
X54198Y142201D01*
X54301Y142554D01*
X54412Y142905D01*
X54532Y143253D01*
X54660Y143598D01*
X54797Y143940D01*
X54942Y144279D01*
X55095Y144613D01*
X55257Y144944D01*
X55426Y145271D01*
X55604Y145593D01*
X55789Y145912D01*
X55982Y146225D01*
X56183Y146534D01*
X56391Y146837D01*
X56607Y147135D01*
X56830Y147428D01*
X57060Y147716D01*
X57297Y147998D01*
X57541Y148273D01*
X57791Y148543D01*
X58048Y148807D01*
X58312Y149064D01*
X58582Y149314D01*
X58857Y149558D01*
X59139Y149795D01*
X59427Y150025D01*
X59720Y150248D01*
X60018Y150464D01*
X60321Y150672D01*
X60630Y150873D01*
X60943Y151066D01*
X61262Y151251D01*
X61584Y151429D01*
X61911Y151598D01*
X62242Y151760D01*
X62576Y151913D01*
X62915Y152058D01*
X63257Y152195D01*
X63602Y152323D01*
X63950Y152443D01*
X64301Y152554D01*
X64654Y152657D01*
X65010Y152750D01*
X65368Y152836D01*
X65729Y152912D01*
X66091Y152979D01*
X66454Y153038D01*
X66819Y153087D01*
X67185Y153128D01*
X67552Y153159D01*
X67919Y153182D01*
X68287Y153195D01*
X68655Y153200D01*
X69023Y153195D01*
X69391Y153182D01*
X69758Y153159D01*
X70125Y153128D01*
X70491Y153087D01*
X70856Y153038D01*
X71219Y152979D01*
X71581Y152912D01*
X71942Y152836D01*
X72300Y152750D01*
X72656Y152657D01*
X73009Y152554D01*
X73360Y152443D01*
X73708Y152323D01*
X74053Y152195D01*
X74395Y152058D01*
X74734Y151913D01*
X75068Y151760D01*
X75399Y151598D01*
X75726Y151429D01*
X76048Y151251D01*
X76367Y151066D01*
X76680Y150873D01*
X76989Y150672D01*
X77292Y150464D01*
X77590Y150248D01*
X77883Y150025D01*
X78171Y149795D01*
X78453Y149558D01*
X78728Y149314D01*
X78998Y149064D01*
X79262Y148807D01*
X79519Y148543D01*
X79769Y148273D01*
X80013Y147998D01*
X80250Y147716D01*
X80480Y147428D01*
X80703Y147135D01*
X80919Y146837D01*
X81127Y146534D01*
X81328Y146225D01*
X81521Y145912D01*
X81706Y145593D01*
X81884Y145271D01*
X82053Y144944D01*
X82215Y144613D01*
X82368Y144279D01*
X82513Y143940D01*
X82650Y143598D01*
X82778Y143253D01*
X82898Y142905D01*
X83009Y142554D01*
X83112Y142201D01*
X83205Y141845D01*
X83291Y141487D01*
X83367Y141126D01*
X83434Y140764D01*
X83493Y140401D01*
X83542Y140036D01*
X83583Y139670D01*
X83614Y139303D01*
X83637Y138936D01*
X83650Y138568D01*
X83655Y138200D01*
X83650Y137832D01*
X83637Y137464D01*
X83614Y137097D01*
X83583Y136730D01*
X83542Y136364D01*
X83493Y135999D01*
X83434Y135636D01*
X83367Y135274D01*
X83291Y134913D01*
X83205Y134555D01*
X83112Y134199D01*
X83009Y133846D01*
X82898Y133495D01*
X82778Y133147D01*
X82650Y132802D01*
X82513Y132460D01*
X82368Y132121D01*
X82215Y131787D01*
X82053Y131456D01*
X81884Y131129D01*
X81706Y130807D01*
X81521Y130488D01*
X81328Y130175D01*
X81127Y129866D01*
X80919Y129563D01*
X80703Y129265D01*
X80480Y128972D01*
X80250Y128684D01*
X80013Y128402D01*
X79769Y128127D01*
X79519Y127857D01*
X79262Y127593D01*
X78998Y127336D01*
X78728Y127086D01*
X78453Y126842D01*
X78171Y126605D01*
X77883Y126375D01*
X77590Y126152D01*
X77292Y125936D01*
X76989Y125728D01*
X76680Y125527D01*
X76367Y125334D01*
X76048Y125149D01*
X75726Y124971D01*
X75399Y124802D01*
X75068Y124640D01*
X74734Y124487D01*
X74395Y124342D01*
X74053Y124205D01*
X73708Y124077D01*
X73360Y123957D01*
X73009Y123846D01*
X72656Y123743D01*
X72300Y123650D01*
X71942Y123564D01*
X71581Y123488D01*
X71219Y123421D01*
X70856Y123362D01*
X70491Y123313D01*
X70125Y123272D01*
X69758Y123241D01*
X69391Y123218D01*
X69023Y123205D01*
X68655Y123200D01*
X68287Y123205D01*
X67919Y123218D01*
X67552Y123241D01*
X67185Y123272D01*
X66819Y123313D01*
X66454Y123362D01*
X66091Y123421D01*
X65729Y123488D01*
X65368Y123564D01*
X65010Y123650D01*
X64654Y123743D01*
X64301Y123846D01*
X63950Y123957D01*
X63602Y124077D01*
X63257Y124205D01*
X62915Y124342D01*
X62576Y124487D01*
X62242Y124640D01*
X61911Y124802D01*
X61584Y124971D01*
X61262Y125149D01*
X60943Y125334D01*
X60630Y125527D01*
X60321Y125728D01*
X60018Y125936D01*
X59720Y126152D01*
X59427Y126375D01*
X59139Y126605D01*
X58857Y126842D01*
X58582Y127086D01*
X58312Y127336D01*
X58048Y127593D01*
X57791Y127857D01*
X57541Y128127D01*
X57297Y128402D01*
X57060Y128684D01*
X56830Y128972D01*
X56607Y129265D01*
X56391Y129563D01*
X56183Y129866D01*
X55982Y130175D01*
X55789Y130488D01*
X55604Y130807D01*
X55426Y131129D01*
X55257Y131456D01*
X55095Y131787D01*
X54942Y132121D01*
X54797Y132460D01*
X54660Y132802D01*
X54532Y133147D01*
X54412Y133495D01*
X54301Y133846D01*
X54198Y134199D01*
X54105Y134555D01*
X54019Y134913D01*
X53943Y135274D01*
X53876Y135636D01*
X53817Y135999D01*
X53768Y136364D01*
X53727Y136730D01*
X53696Y137097D01*
X53673Y137464D01*
X53660Y137832D01*
X53655Y138200D01*
X218200Y423200D02*
X218205Y423568D01*
X218218Y423936D01*
X218241Y424303D01*
X218272Y424670D01*
X218313Y425036D01*
X218362Y425401D01*
X218421Y425764D01*
X218488Y426126D01*
X218564Y426487D01*
X218650Y426845D01*
X218743Y427201D01*
X218846Y427554D01*
X218957Y427905D01*
X219077Y428253D01*
X219205Y428598D01*
X219342Y428940D01*
X219487Y429279D01*
X219640Y429613D01*
X219802Y429944D01*
X219971Y430271D01*
X220149Y430593D01*
X220334Y430912D01*
X220527Y431225D01*
X220728Y431534D01*
X220936Y431837D01*
X221152Y432135D01*
X221375Y432428D01*
X221605Y432716D01*
X221842Y432998D01*
X222086Y433273D01*
X222336Y433543D01*
X222593Y433807D01*
X222857Y434064D01*
X223127Y434314D01*
X223402Y434558D01*
X223684Y434795D01*
X223972Y435025D01*
X224265Y435248D01*
X224563Y435464D01*
X224866Y435672D01*
X225175Y435873D01*
X225488Y436066D01*
X225807Y436251D01*
X226129Y436429D01*
X226456Y436598D01*
X226787Y436760D01*
X227121Y436913D01*
X227460Y437058D01*
X227802Y437195D01*
X228147Y437323D01*
X228495Y437443D01*
X228846Y437554D01*
X229199Y437657D01*
X229555Y437750D01*
X229913Y437836D01*
X230274Y437912D01*
X230636Y437979D01*
X230999Y438038D01*
X231364Y438087D01*
X231730Y438128D01*
X232097Y438159D01*
X232464Y438182D01*
X232832Y438195D01*
X233200Y438200D01*
X233568Y438195D01*
X233936Y438182D01*
X234303Y438159D01*
X234670Y438128D01*
X235036Y438087D01*
X235401Y438038D01*
X235764Y437979D01*
X236126Y437912D01*
X236487Y437836D01*
X236845Y437750D01*
X237201Y437657D01*
X237554Y437554D01*
X237905Y437443D01*
X238253Y437323D01*
X238598Y437195D01*
X238940Y437058D01*
X239279Y436913D01*
X239613Y436760D01*
X239944Y436598D01*
X240271Y436429D01*
X240593Y436251D01*
X240912Y436066D01*
X241225Y435873D01*
X241534Y435672D01*
X241837Y435464D01*
X242135Y435248D01*
X242428Y435025D01*
X242716Y434795D01*
X242998Y434558D01*
X243273Y434314D01*
X243543Y434064D01*
X243807Y433807D01*
X244064Y433543D01*
X244314Y433273D01*
X244558Y432998D01*
X244795Y432716D01*
X245025Y432428D01*
X245248Y432135D01*
X245464Y431837D01*
X245672Y431534D01*
X245873Y431225D01*
X246066Y430912D01*
X246251Y430593D01*
X246429Y430271D01*
X246598Y429944D01*
X246760Y429613D01*
X246913Y429279D01*
X247058Y428940D01*
X247195Y428598D01*
X247323Y428253D01*
X247443Y427905D01*
X247554Y427554D01*
X247657Y427201D01*
X247750Y426845D01*
X247836Y426487D01*
X247912Y426126D01*
X247979Y425764D01*
X248038Y425401D01*
X248087Y425036D01*
X248128Y424670D01*
X248159Y424303D01*
X248182Y423936D01*
X248195Y423568D01*
X248200Y423200D01*
X248195Y422832D01*
X248182Y422464D01*
X248159Y422097D01*
X248128Y421730D01*
X248087Y421364D01*
X248038Y420999D01*
X247979Y420636D01*
X247912Y420274D01*
X247836Y419913D01*
X247750Y419555D01*
X247657Y419199D01*
X247554Y418846D01*
X247443Y418495D01*
X247323Y418147D01*
X247195Y417802D01*
X247058Y417460D01*
X246913Y417121D01*
X246760Y416787D01*
X246598Y416456D01*
X246429Y416129D01*
X246251Y415807D01*
X246066Y415488D01*
X245873Y415175D01*
X245672Y414866D01*
X245464Y414563D01*
X245248Y414265D01*
X245025Y413972D01*
X244795Y413684D01*
X244558Y413402D01*
X244314Y413127D01*
X244064Y412857D01*
X243807Y412593D01*
X243543Y412336D01*
X243273Y412086D01*
X242998Y411842D01*
X242716Y411605D01*
X242428Y411375D01*
X242135Y411152D01*
X241837Y410936D01*
X241534Y410728D01*
X241225Y410527D01*
X240912Y410334D01*
X240593Y410149D01*
X240271Y409971D01*
X239944Y409802D01*
X239613Y409640D01*
X239279Y409487D01*
X238940Y409342D01*
X238598Y409205D01*
X238253Y409077D01*
X237905Y408957D01*
X237554Y408846D01*
X237201Y408743D01*
X236845Y408650D01*
X236487Y408564D01*
X236126Y408488D01*
X235764Y408421D01*
X235401Y408362D01*
X235036Y408313D01*
X234670Y408272D01*
X234303Y408241D01*
X233936Y408218D01*
X233568Y408205D01*
X233200Y408200D01*
X232832Y408205D01*
X232464Y408218D01*
X232097Y408241D01*
X231730Y408272D01*
X231364Y408313D01*
X230999Y408362D01*
X230636Y408421D01*
X230274Y408488D01*
X229913Y408564D01*
X229555Y408650D01*
X229199Y408743D01*
X228846Y408846D01*
X228495Y408957D01*
X228147Y409077D01*
X227802Y409205D01*
X227460Y409342D01*
X227121Y409487D01*
X226787Y409640D01*
X226456Y409802D01*
X226129Y409971D01*
X225807Y410149D01*
X225488Y410334D01*
X225175Y410527D01*
X224866Y410728D01*
X224563Y410936D01*
X224265Y411152D01*
X223972Y411375D01*
X223684Y411605D01*
X223402Y411842D01*
X223127Y412086D01*
X222857Y412336D01*
X222593Y412593D01*
X222336Y412857D01*
X222086Y413127D01*
X221842Y413402D01*
X221605Y413684D01*
X221375Y413972D01*
X221152Y414265D01*
X220936Y414563D01*
X220728Y414866D01*
X220527Y415175D01*
X220334Y415488D01*
X220149Y415807D01*
X219971Y416129D01*
X219802Y416456D01*
X219640Y416787D01*
X219487Y417121D01*
X219342Y417460D01*
X219205Y417802D01*
X219077Y418147D01*
X218957Y418495D01*
X218846Y418846D01*
X218743Y419199D01*
X218650Y419555D01*
X218564Y419913D01*
X218488Y420274D01*
X218421Y420636D01*
X218362Y420999D01*
X218313Y421364D01*
X218272Y421730D01*
X218241Y422097D01*
X218218Y422464D01*
X218205Y422832D01*
X218200Y423200D01*
M02*
