G04 EAGLE Gerber RS-274X export*
G75*
%MOMM*%
%FSLAX34Y34*%
%LPD*%
%INTop Copper*%
%IPPOS*%
%AMOC8*
5,1,8,0,0,1.08239X$1,22.5*%
G01*
%ADD10C,0.222250*%
%ADD11C,0.317500*%
%ADD12R,0.800000X0.250000*%
%ADD13R,0.250000X0.800000*%
%ADD14R,1.550000X1.550000*%
%ADD15R,1.350000X0.600000*%
%ADD16R,2.000000X1.200000*%
%ADD17R,1.270000X0.635000*%
%ADD18C,0.203200*%
%ADD19C,0.190500*%
%ADD20R,1.524000X1.524000*%
%ADD21C,1.524000*%
%ADD22C,1.879600*%
%ADD23R,1.600000X0.300000*%
%ADD24R,1.950000X1.600000*%
%ADD25C,0.609600*%
%ADD26C,0.304800*%
%ADD27C,0.254000*%

G36*
X266313Y5095D02*
X266313Y5095D01*
X266405Y5100D01*
X266444Y5114D01*
X266484Y5121D01*
X266567Y5161D01*
X266654Y5193D01*
X266687Y5218D01*
X266724Y5236D01*
X266791Y5299D01*
X266864Y5356D01*
X266888Y5389D01*
X266918Y5418D01*
X266964Y5498D01*
X267017Y5573D01*
X267030Y5613D01*
X267050Y5648D01*
X267070Y5739D01*
X267098Y5826D01*
X267099Y5868D01*
X267108Y5908D01*
X267100Y6000D01*
X267101Y6092D01*
X267090Y6132D01*
X267086Y6173D01*
X267052Y6258D01*
X267025Y6347D01*
X267003Y6381D01*
X266987Y6420D01*
X266929Y6491D01*
X266878Y6568D01*
X266852Y6586D01*
X266820Y6626D01*
X266598Y6773D01*
X266578Y6778D01*
X266562Y6790D01*
X265976Y7032D01*
X263332Y9676D01*
X261901Y13130D01*
X261901Y16870D01*
X263332Y20324D01*
X265976Y22968D01*
X269430Y24399D01*
X273170Y24399D01*
X274642Y23789D01*
X274703Y23774D01*
X274760Y23749D01*
X274831Y23742D01*
X274900Y23725D01*
X274962Y23728D01*
X275024Y23722D01*
X275094Y23736D01*
X275166Y23740D01*
X275224Y23762D01*
X275285Y23774D01*
X275325Y23800D01*
X275415Y23833D01*
X275470Y23876D01*
X275497Y23890D01*
X275547Y23935D01*
X275584Y23964D01*
X275610Y23981D01*
X285249Y33620D01*
X287444Y35815D01*
X303120Y35815D01*
X305315Y33620D01*
X318173Y20762D01*
X318214Y20731D01*
X318250Y20693D01*
X318321Y20653D01*
X318387Y20604D01*
X318436Y20587D01*
X318480Y20562D01*
X318560Y20544D01*
X318638Y20517D01*
X318690Y20515D01*
X318740Y20504D01*
X318822Y20510D01*
X318904Y20508D01*
X318953Y20521D01*
X319005Y20525D01*
X319081Y20556D01*
X319160Y20577D01*
X319204Y20605D01*
X319252Y20624D01*
X319315Y20676D01*
X319384Y20720D01*
X319418Y20759D01*
X319458Y20792D01*
X319503Y20860D01*
X319556Y20923D01*
X319577Y20970D01*
X319605Y21013D01*
X319617Y21063D01*
X319661Y21167D01*
X319679Y21345D01*
X319689Y21390D01*
X319689Y27030D01*
X320731Y28072D01*
X324135Y28072D01*
X324237Y28087D01*
X324339Y28095D01*
X324367Y28107D01*
X324398Y28112D01*
X324490Y28156D01*
X324586Y28194D01*
X324609Y28214D01*
X324637Y28227D01*
X324712Y28297D01*
X324792Y28362D01*
X324809Y28388D01*
X324831Y28409D01*
X324882Y28498D01*
X324939Y28583D01*
X324945Y28607D01*
X324963Y28639D01*
X325021Y28899D01*
X325018Y28937D01*
X325023Y28960D01*
X325023Y52404D01*
X325008Y52506D01*
X325000Y52608D01*
X324988Y52636D01*
X324983Y52667D01*
X324939Y52759D01*
X324901Y52855D01*
X324881Y52878D01*
X324868Y52906D01*
X324798Y52981D01*
X324733Y53061D01*
X324707Y53078D01*
X324686Y53100D01*
X324597Y53151D01*
X324512Y53208D01*
X324488Y53214D01*
X324456Y53232D01*
X324196Y53290D01*
X324158Y53287D01*
X324135Y53292D01*
X323257Y53292D01*
X321564Y54985D01*
X321564Y54991D01*
X321549Y55093D01*
X321541Y55195D01*
X321529Y55223D01*
X321524Y55254D01*
X321480Y55346D01*
X321442Y55442D01*
X321422Y55465D01*
X321409Y55493D01*
X321339Y55568D01*
X321274Y55648D01*
X321248Y55665D01*
X321227Y55687D01*
X321138Y55738D01*
X321053Y55795D01*
X321029Y55801D01*
X320997Y55819D01*
X320737Y55877D01*
X320699Y55874D01*
X320676Y55879D01*
X265034Y55879D01*
X224281Y96632D01*
X224281Y121046D01*
X226178Y122943D01*
X226179Y122943D01*
X236083Y132847D01*
X236083Y132848D01*
X237980Y134745D01*
X241383Y134745D01*
X241485Y134760D01*
X241587Y134768D01*
X241615Y134780D01*
X241646Y134785D01*
X241738Y134829D01*
X241834Y134867D01*
X241857Y134887D01*
X241885Y134900D01*
X241960Y134970D01*
X242040Y135035D01*
X242057Y135061D01*
X242079Y135082D01*
X242130Y135171D01*
X242187Y135256D01*
X242193Y135280D01*
X242211Y135312D01*
X242269Y135572D01*
X242268Y135587D01*
X242269Y135592D01*
X242267Y135615D01*
X242271Y135633D01*
X242271Y135939D01*
X244004Y137672D01*
X244065Y137755D01*
X244132Y137833D01*
X244144Y137861D01*
X244162Y137886D01*
X244196Y137983D01*
X244236Y138077D01*
X244239Y138108D01*
X244249Y138137D01*
X244253Y138239D01*
X244264Y138342D01*
X244258Y138372D01*
X244259Y138403D01*
X244232Y138502D01*
X244212Y138602D01*
X244199Y138622D01*
X244189Y138659D01*
X244131Y138749D01*
X244124Y138769D01*
X244102Y138795D01*
X244046Y138883D01*
X244017Y138908D01*
X244004Y138928D01*
X242271Y140661D01*
X242271Y140967D01*
X242256Y141069D01*
X242248Y141171D01*
X242236Y141199D01*
X242231Y141230D01*
X242187Y141322D01*
X242149Y141418D01*
X242129Y141441D01*
X242116Y141469D01*
X242046Y141544D01*
X241981Y141624D01*
X241955Y141641D01*
X241934Y141663D01*
X241845Y141714D01*
X241760Y141771D01*
X241736Y141777D01*
X241704Y141795D01*
X241444Y141853D01*
X241406Y141850D01*
X241383Y141855D01*
X240997Y141855D01*
X240977Y141852D01*
X240956Y141854D01*
X240845Y141832D01*
X240734Y141815D01*
X240716Y141806D01*
X240695Y141802D01*
X240656Y141778D01*
X240495Y141700D01*
X240413Y141623D01*
X240369Y141595D01*
X238727Y139953D01*
X234729Y139953D01*
X231901Y142781D01*
X231901Y146779D01*
X234729Y149607D01*
X238727Y149607D01*
X240629Y147705D01*
X240646Y147692D01*
X240659Y147676D01*
X240753Y147614D01*
X240843Y147547D01*
X240863Y147540D01*
X240880Y147529D01*
X240925Y147519D01*
X241094Y147460D01*
X241207Y147456D01*
X241257Y147445D01*
X241383Y147445D01*
X241485Y147460D01*
X241587Y147468D01*
X241615Y147480D01*
X241646Y147485D01*
X241738Y147529D01*
X241834Y147567D01*
X241857Y147587D01*
X241885Y147600D01*
X241960Y147670D01*
X242040Y147735D01*
X242057Y147761D01*
X242079Y147782D01*
X242130Y147871D01*
X242187Y147956D01*
X242193Y147980D01*
X242211Y148012D01*
X242269Y148272D01*
X242266Y148310D01*
X242271Y148333D01*
X242271Y148639D01*
X244004Y150372D01*
X244065Y150455D01*
X244132Y150533D01*
X244144Y150561D01*
X244162Y150586D01*
X244196Y150683D01*
X244236Y150777D01*
X244239Y150808D01*
X244249Y150837D01*
X244253Y150939D01*
X244264Y151042D01*
X244258Y151072D01*
X244259Y151103D01*
X244232Y151202D01*
X244212Y151302D01*
X244199Y151322D01*
X244189Y151359D01*
X244046Y151583D01*
X244017Y151608D01*
X244004Y151628D01*
X242271Y153361D01*
X242271Y153667D01*
X242256Y153769D01*
X242248Y153871D01*
X242236Y153899D01*
X242231Y153930D01*
X242187Y154022D01*
X242149Y154118D01*
X242129Y154141D01*
X242116Y154169D01*
X242046Y154244D01*
X241981Y154324D01*
X241955Y154341D01*
X241934Y154363D01*
X241845Y154414D01*
X241760Y154471D01*
X241736Y154477D01*
X241704Y154495D01*
X241444Y154553D01*
X241406Y154550D01*
X241383Y154555D01*
X234901Y154555D01*
X234881Y154552D01*
X234860Y154554D01*
X234749Y154532D01*
X234638Y154515D01*
X234620Y154506D01*
X234599Y154502D01*
X234560Y154478D01*
X234399Y154400D01*
X234317Y154323D01*
X234273Y154295D01*
X232631Y152653D01*
X228633Y152653D01*
X225805Y155481D01*
X225805Y159479D01*
X228633Y162307D01*
X232631Y162307D01*
X234533Y160405D01*
X234550Y160392D01*
X234563Y160376D01*
X234657Y160314D01*
X234747Y160247D01*
X234767Y160240D01*
X234784Y160229D01*
X234829Y160219D01*
X234998Y160160D01*
X235111Y160156D01*
X235161Y160145D01*
X241383Y160145D01*
X241485Y160160D01*
X241587Y160168D01*
X241615Y160180D01*
X241646Y160185D01*
X241738Y160229D01*
X241834Y160267D01*
X241857Y160287D01*
X241885Y160300D01*
X241960Y160370D01*
X242040Y160435D01*
X242057Y160461D01*
X242079Y160482D01*
X242130Y160571D01*
X242187Y160656D01*
X242193Y160680D01*
X242211Y160712D01*
X242269Y160972D01*
X242266Y161010D01*
X242271Y161033D01*
X242271Y161339D01*
X244004Y163072D01*
X244065Y163155D01*
X244132Y163233D01*
X244144Y163261D01*
X244162Y163286D01*
X244196Y163383D01*
X244236Y163477D01*
X244239Y163508D01*
X244249Y163537D01*
X244253Y163639D01*
X244264Y163742D01*
X244258Y163772D01*
X244259Y163803D01*
X244232Y163902D01*
X244212Y164002D01*
X244199Y164022D01*
X244189Y164059D01*
X244046Y164283D01*
X244017Y164308D01*
X244004Y164328D01*
X242271Y166061D01*
X242271Y174039D01*
X244004Y175772D01*
X244065Y175855D01*
X244132Y175933D01*
X244144Y175961D01*
X244162Y175986D01*
X244196Y176083D01*
X244236Y176177D01*
X244239Y176208D01*
X244249Y176237D01*
X244253Y176339D01*
X244264Y176442D01*
X244258Y176472D01*
X244259Y176503D01*
X244232Y176602D01*
X244212Y176702D01*
X244199Y176722D01*
X244189Y176759D01*
X244046Y176983D01*
X244017Y177008D01*
X244004Y177028D01*
X242271Y178761D01*
X242271Y186739D01*
X243606Y188074D01*
X243657Y188143D01*
X243715Y188206D01*
X243736Y188249D01*
X243764Y188288D01*
X243792Y188369D01*
X243829Y188446D01*
X243836Y188494D01*
X243851Y188539D01*
X243854Y188625D01*
X243866Y188709D01*
X243859Y188757D01*
X243861Y188805D01*
X243838Y188887D01*
X243824Y188972D01*
X243803Y189015D01*
X243791Y189061D01*
X243745Y189133D01*
X243707Y189210D01*
X243681Y189234D01*
X243648Y189285D01*
X243445Y189457D01*
X243430Y189464D01*
X243422Y189471D01*
X242858Y189797D01*
X242207Y190448D01*
X241747Y191244D01*
X241509Y192133D01*
X241509Y193673D01*
X254591Y193673D01*
X254692Y193688D01*
X254795Y193697D01*
X254823Y193708D01*
X254854Y193713D01*
X254946Y193757D01*
X255041Y193796D01*
X255065Y193815D01*
X255093Y193828D01*
X255168Y193898D01*
X255248Y193963D01*
X255265Y193989D01*
X255287Y194010D01*
X255338Y194099D01*
X255395Y194184D01*
X255400Y194208D01*
X255419Y194240D01*
X255477Y194500D01*
X255474Y194538D01*
X255479Y194561D01*
X255479Y195451D01*
X255481Y195451D01*
X255481Y194561D01*
X255496Y194460D01*
X255505Y194357D01*
X255516Y194329D01*
X255521Y194298D01*
X255565Y194206D01*
X255604Y194111D01*
X255623Y194087D01*
X255636Y194059D01*
X255706Y193984D01*
X255771Y193904D01*
X255797Y193887D01*
X255818Y193865D01*
X255907Y193814D01*
X255992Y193757D01*
X256016Y193751D01*
X256049Y193733D01*
X256308Y193675D01*
X256346Y193678D01*
X256369Y193673D01*
X269451Y193673D01*
X269451Y192133D01*
X269213Y191244D01*
X268753Y190448D01*
X268102Y189797D01*
X267538Y189471D01*
X267471Y189418D01*
X267398Y189372D01*
X267367Y189335D01*
X267330Y189305D01*
X267282Y189234D01*
X267226Y189169D01*
X267207Y189125D01*
X267181Y189085D01*
X267156Y189003D01*
X267122Y188925D01*
X267117Y188877D01*
X267103Y188831D01*
X267103Y188746D01*
X267094Y188660D01*
X267104Y188613D01*
X267104Y188565D01*
X267130Y188484D01*
X267147Y188400D01*
X267166Y188370D01*
X267184Y188312D01*
X267335Y188093D01*
X267348Y188083D01*
X267354Y188074D01*
X268689Y186739D01*
X268689Y178761D01*
X266956Y177028D01*
X266895Y176945D01*
X266828Y176867D01*
X266816Y176839D01*
X266798Y176814D01*
X266764Y176717D01*
X266724Y176623D01*
X266721Y176592D01*
X266711Y176563D01*
X266707Y176460D01*
X266696Y176358D01*
X266702Y176328D01*
X266701Y176297D01*
X266728Y176198D01*
X266748Y176098D01*
X266761Y176077D01*
X266771Y176041D01*
X266914Y175817D01*
X266943Y175792D01*
X266956Y175772D01*
X268689Y174039D01*
X268689Y166061D01*
X266956Y164328D01*
X266895Y164245D01*
X266828Y164167D01*
X266816Y164139D01*
X266798Y164114D01*
X266764Y164017D01*
X266724Y163923D01*
X266721Y163892D01*
X266711Y163863D01*
X266707Y163760D01*
X266696Y163658D01*
X266702Y163628D01*
X266701Y163597D01*
X266728Y163498D01*
X266748Y163398D01*
X266761Y163377D01*
X266771Y163341D01*
X266914Y163117D01*
X266943Y163092D01*
X266956Y163072D01*
X268689Y161339D01*
X268689Y153361D01*
X266956Y151628D01*
X266895Y151545D01*
X266828Y151467D01*
X266816Y151439D01*
X266798Y151414D01*
X266764Y151317D01*
X266724Y151223D01*
X266721Y151192D01*
X266711Y151163D01*
X266707Y151060D01*
X266696Y150958D01*
X266702Y150928D01*
X266701Y150897D01*
X266728Y150798D01*
X266748Y150698D01*
X266761Y150677D01*
X266771Y150641D01*
X266914Y150417D01*
X266943Y150392D01*
X266956Y150372D01*
X268689Y148639D01*
X268689Y140661D01*
X266956Y138928D01*
X266928Y138890D01*
X266906Y138870D01*
X266886Y138835D01*
X266828Y138767D01*
X266816Y138739D01*
X266798Y138714D01*
X266764Y138617D01*
X266724Y138523D01*
X266721Y138492D01*
X266711Y138463D01*
X266707Y138360D01*
X266696Y138258D01*
X266702Y138228D01*
X266701Y138197D01*
X266728Y138098D01*
X266748Y137998D01*
X266761Y137977D01*
X266771Y137941D01*
X266914Y137717D01*
X266943Y137692D01*
X266956Y137672D01*
X268689Y135939D01*
X268689Y127961D01*
X266956Y126228D01*
X266895Y126145D01*
X266828Y126067D01*
X266816Y126039D01*
X266798Y126014D01*
X266764Y125917D01*
X266724Y125823D01*
X266721Y125792D01*
X266711Y125763D01*
X266707Y125660D01*
X266696Y125558D01*
X266702Y125528D01*
X266701Y125497D01*
X266728Y125398D01*
X266748Y125298D01*
X266761Y125277D01*
X266771Y125241D01*
X266914Y125017D01*
X266943Y124992D01*
X266956Y124972D01*
X268689Y123239D01*
X268689Y115261D01*
X266956Y113528D01*
X266895Y113445D01*
X266828Y113367D01*
X266816Y113339D01*
X266798Y113314D01*
X266764Y113217D01*
X266724Y113123D01*
X266721Y113092D01*
X266711Y113063D01*
X266707Y112960D01*
X266696Y112858D01*
X266702Y112828D01*
X266701Y112797D01*
X266728Y112698D01*
X266748Y112598D01*
X266761Y112577D01*
X266771Y112541D01*
X266914Y112317D01*
X266943Y112292D01*
X266956Y112272D01*
X268689Y110539D01*
X268689Y110233D01*
X268704Y110131D01*
X268712Y110029D01*
X268724Y110001D01*
X268729Y109970D01*
X268773Y109878D01*
X268811Y109782D01*
X268831Y109759D01*
X268844Y109731D01*
X268914Y109656D01*
X268979Y109576D01*
X269005Y109559D01*
X269026Y109537D01*
X269115Y109486D01*
X269200Y109429D01*
X269224Y109423D01*
X269256Y109405D01*
X269516Y109347D01*
X269554Y109350D01*
X269577Y109345D01*
X344950Y109345D01*
X372111Y82184D01*
X372111Y62611D01*
X372126Y62509D01*
X372134Y62407D01*
X372146Y62379D01*
X372151Y62348D01*
X372195Y62256D01*
X372233Y62160D01*
X372253Y62137D01*
X372266Y62109D01*
X372336Y62034D01*
X372401Y61954D01*
X372427Y61937D01*
X372448Y61915D01*
X372537Y61864D01*
X372622Y61807D01*
X372646Y61801D01*
X372678Y61783D01*
X372938Y61725D01*
X372976Y61728D01*
X372999Y61723D01*
X374930Y61723D01*
X375032Y61738D01*
X375134Y61746D01*
X375162Y61758D01*
X375193Y61763D01*
X375285Y61807D01*
X375381Y61845D01*
X375404Y61865D01*
X375432Y61878D01*
X375507Y61948D01*
X375587Y62013D01*
X375604Y62039D01*
X375626Y62060D01*
X375677Y62149D01*
X375734Y62234D01*
X375740Y62258D01*
X375758Y62290D01*
X375816Y62550D01*
X375813Y62588D01*
X375818Y62611D01*
X375818Y64151D01*
X377511Y65844D01*
X386573Y65844D01*
X388266Y64151D01*
X388266Y55089D01*
X386573Y53396D01*
X385665Y53396D01*
X385563Y53381D01*
X385461Y53373D01*
X385433Y53361D01*
X385402Y53356D01*
X385310Y53312D01*
X385214Y53274D01*
X385191Y53254D01*
X385163Y53241D01*
X385088Y53171D01*
X385008Y53106D01*
X384991Y53080D01*
X384969Y53059D01*
X384918Y52970D01*
X384861Y52885D01*
X384855Y52861D01*
X384837Y52829D01*
X384779Y52569D01*
X384782Y52531D01*
X384777Y52508D01*
X384777Y28868D01*
X384792Y28766D01*
X384800Y28664D01*
X384812Y28636D01*
X384817Y28605D01*
X384861Y28513D01*
X384899Y28417D01*
X384919Y28394D01*
X384932Y28366D01*
X385002Y28291D01*
X385067Y28211D01*
X385093Y28194D01*
X385114Y28172D01*
X385203Y28121D01*
X385288Y28064D01*
X385312Y28058D01*
X385344Y28040D01*
X385604Y27982D01*
X385642Y27985D01*
X385665Y27980D01*
X389069Y27980D01*
X390111Y26938D01*
X390111Y20255D01*
X390114Y20235D01*
X390112Y20214D01*
X390134Y20103D01*
X390151Y19993D01*
X390160Y19974D01*
X390164Y19953D01*
X390188Y19914D01*
X390266Y19753D01*
X390343Y19671D01*
X390344Y19669D01*
X390700Y19054D01*
X390873Y18408D01*
X390873Y16485D01*
X382681Y16485D01*
X382579Y16469D01*
X382477Y16461D01*
X382448Y16450D01*
X382418Y16445D01*
X382326Y16400D01*
X382230Y16362D01*
X382206Y16343D01*
X382179Y16329D01*
X382104Y16259D01*
X382024Y16194D01*
X382007Y16169D01*
X381984Y16148D01*
X381979Y16138D01*
X381946Y16174D01*
X381881Y16253D01*
X381856Y16270D01*
X381835Y16293D01*
X381746Y16344D01*
X381660Y16401D01*
X381637Y16406D01*
X381604Y16425D01*
X381344Y16483D01*
X381307Y16480D01*
X381283Y16485D01*
X373091Y16485D01*
X373091Y18408D01*
X373264Y19054D01*
X373604Y19643D01*
X373606Y19644D01*
X373622Y19657D01*
X373684Y19751D01*
X373751Y19841D01*
X373758Y19861D01*
X373769Y19879D01*
X373779Y19923D01*
X373838Y20092D01*
X373842Y20205D01*
X373853Y20255D01*
X373853Y26938D01*
X374895Y27980D01*
X378299Y27980D01*
X378401Y27995D01*
X378503Y28003D01*
X378531Y28015D01*
X378562Y28020D01*
X378654Y28064D01*
X378750Y28102D01*
X378773Y28122D01*
X378801Y28135D01*
X378876Y28205D01*
X378956Y28270D01*
X378973Y28296D01*
X378995Y28317D01*
X379046Y28406D01*
X379103Y28491D01*
X379109Y28515D01*
X379127Y28547D01*
X379185Y28807D01*
X379182Y28845D01*
X379187Y28868D01*
X379187Y52508D01*
X379172Y52610D01*
X379164Y52712D01*
X379152Y52740D01*
X379147Y52771D01*
X379103Y52863D01*
X379065Y52959D01*
X379045Y52982D01*
X379032Y53010D01*
X378962Y53085D01*
X378897Y53165D01*
X378871Y53182D01*
X378850Y53204D01*
X378761Y53255D01*
X378676Y53312D01*
X378652Y53318D01*
X378620Y53336D01*
X378360Y53394D01*
X378322Y53391D01*
X378299Y53396D01*
X377511Y53396D01*
X375818Y55089D01*
X375818Y55245D01*
X375803Y55347D01*
X375795Y55449D01*
X375783Y55477D01*
X375778Y55508D01*
X375734Y55600D01*
X375696Y55696D01*
X375676Y55719D01*
X375663Y55747D01*
X375593Y55822D01*
X375528Y55902D01*
X375502Y55919D01*
X375481Y55941D01*
X375392Y55992D01*
X375307Y56049D01*
X375283Y56055D01*
X375251Y56073D01*
X374991Y56131D01*
X374953Y56128D01*
X374930Y56133D01*
X370190Y56133D01*
X366521Y59802D01*
X366521Y79500D01*
X366518Y79521D01*
X366520Y79542D01*
X366498Y79652D01*
X366481Y79763D01*
X366472Y79782D01*
X366468Y79803D01*
X366444Y79841D01*
X366366Y80003D01*
X366289Y80085D01*
X366261Y80129D01*
X360927Y85463D01*
X360886Y85493D01*
X360850Y85531D01*
X360779Y85572D01*
X360713Y85620D01*
X360664Y85637D01*
X360620Y85663D01*
X360540Y85681D01*
X360462Y85708D01*
X360410Y85709D01*
X360360Y85721D01*
X360278Y85714D01*
X360196Y85717D01*
X360147Y85703D01*
X360095Y85699D01*
X360019Y85669D01*
X359940Y85647D01*
X359896Y85619D01*
X359848Y85600D01*
X359785Y85548D01*
X359716Y85504D01*
X359682Y85465D01*
X359642Y85432D01*
X359597Y85364D01*
X359544Y85302D01*
X359523Y85254D01*
X359495Y85211D01*
X359483Y85161D01*
X359439Y85057D01*
X359421Y84879D01*
X359411Y84835D01*
X359411Y84107D01*
X358147Y82843D01*
X358134Y82826D01*
X358118Y82813D01*
X358056Y82719D01*
X357989Y82629D01*
X357982Y82609D01*
X357971Y82592D01*
X357961Y82547D01*
X357902Y82378D01*
X357898Y82265D01*
X357887Y82215D01*
X357887Y81954D01*
X357902Y81852D01*
X357910Y81750D01*
X357922Y81722D01*
X357927Y81691D01*
X357971Y81599D01*
X358009Y81503D01*
X358029Y81480D01*
X358042Y81452D01*
X358112Y81377D01*
X358177Y81297D01*
X358203Y81280D01*
X358224Y81258D01*
X358313Y81207D01*
X358398Y81150D01*
X358422Y81144D01*
X358454Y81126D01*
X358714Y81068D01*
X358752Y81071D01*
X358775Y81066D01*
X359121Y81066D01*
X360814Y79373D01*
X360814Y70311D01*
X359121Y68618D01*
X350059Y68618D01*
X348366Y70311D01*
X348366Y79373D01*
X350059Y81066D01*
X350393Y81066D01*
X350495Y81081D01*
X350597Y81089D01*
X350625Y81101D01*
X350656Y81106D01*
X350748Y81150D01*
X350844Y81188D01*
X350867Y81208D01*
X350895Y81221D01*
X350970Y81291D01*
X351050Y81356D01*
X351067Y81382D01*
X351089Y81403D01*
X351140Y81492D01*
X351197Y81577D01*
X351203Y81601D01*
X351221Y81633D01*
X351279Y81893D01*
X351276Y81931D01*
X351281Y81954D01*
X351281Y82215D01*
X351278Y82235D01*
X351280Y82256D01*
X351258Y82367D01*
X351241Y82478D01*
X351232Y82496D01*
X351228Y82517D01*
X351204Y82556D01*
X351126Y82717D01*
X351049Y82799D01*
X351021Y82843D01*
X349757Y84107D01*
X349757Y88105D01*
X352585Y90933D01*
X353313Y90933D01*
X353363Y90940D01*
X353415Y90939D01*
X353494Y90960D01*
X353575Y90973D01*
X353622Y90995D01*
X353672Y91009D01*
X353741Y91053D01*
X353815Y91088D01*
X353852Y91123D01*
X353896Y91151D01*
X353949Y91214D01*
X354009Y91270D01*
X354035Y91314D01*
X354068Y91354D01*
X354100Y91429D01*
X354141Y91500D01*
X354152Y91551D01*
X354172Y91598D01*
X354181Y91680D01*
X354199Y91760D01*
X354194Y91811D01*
X354200Y91863D01*
X354184Y91943D01*
X354177Y92025D01*
X354158Y92073D01*
X354148Y92123D01*
X354120Y92167D01*
X354078Y92272D01*
X353965Y92411D01*
X353941Y92449D01*
X342895Y103495D01*
X342878Y103508D01*
X342864Y103524D01*
X342771Y103586D01*
X342681Y103653D01*
X342661Y103660D01*
X342643Y103671D01*
X342599Y103681D01*
X342430Y103740D01*
X342317Y103744D01*
X342266Y103755D01*
X269577Y103755D01*
X269475Y103740D01*
X269373Y103732D01*
X269345Y103720D01*
X269314Y103715D01*
X269222Y103671D01*
X269126Y103633D01*
X269103Y103613D01*
X269075Y103600D01*
X269000Y103530D01*
X268920Y103465D01*
X268903Y103439D01*
X268881Y103418D01*
X268830Y103329D01*
X268773Y103244D01*
X268767Y103220D01*
X268749Y103188D01*
X268691Y102928D01*
X268694Y102890D01*
X268689Y102867D01*
X268689Y102561D01*
X267089Y100961D01*
X243871Y100961D01*
X242271Y102561D01*
X242271Y110539D01*
X244004Y112272D01*
X244065Y112355D01*
X244132Y112433D01*
X244144Y112461D01*
X244162Y112486D01*
X244196Y112583D01*
X244236Y112677D01*
X244239Y112708D01*
X244249Y112737D01*
X244253Y112839D01*
X244264Y112942D01*
X244258Y112972D01*
X244259Y113003D01*
X244232Y113102D01*
X244212Y113202D01*
X244199Y113222D01*
X244189Y113259D01*
X244046Y113483D01*
X244017Y113508D01*
X244004Y113528D01*
X242204Y115329D01*
X242121Y115390D01*
X242043Y115456D01*
X242014Y115468D01*
X241990Y115487D01*
X241893Y115520D01*
X241798Y115561D01*
X241768Y115564D01*
X241738Y115574D01*
X241636Y115578D01*
X241534Y115588D01*
X241504Y115582D01*
X241473Y115583D01*
X241374Y115556D01*
X241273Y115536D01*
X241253Y115523D01*
X241216Y115513D01*
X240992Y115371D01*
X240968Y115342D01*
X240947Y115329D01*
X235973Y110355D01*
X235960Y110338D01*
X235944Y110324D01*
X235882Y110231D01*
X235815Y110141D01*
X235808Y110121D01*
X235797Y110103D01*
X235787Y110059D01*
X235728Y109890D01*
X235724Y109777D01*
X235713Y109726D01*
X235713Y104396D01*
X235716Y104375D01*
X235714Y104354D01*
X235736Y104244D01*
X235753Y104133D01*
X235762Y104114D01*
X235766Y104093D01*
X235790Y104055D01*
X235868Y103893D01*
X235945Y103811D01*
X235973Y103767D01*
X247023Y92717D01*
X247040Y92704D01*
X247054Y92688D01*
X247147Y92626D01*
X247237Y92559D01*
X247257Y92552D01*
X247275Y92541D01*
X247319Y92531D01*
X247488Y92472D01*
X247601Y92468D01*
X247652Y92457D01*
X334660Y92457D01*
X345695Y81422D01*
X345695Y65534D01*
X345698Y65513D01*
X345696Y65492D01*
X345718Y65382D01*
X345735Y65271D01*
X345744Y65252D01*
X345748Y65231D01*
X345772Y65193D01*
X345850Y65031D01*
X345927Y64949D01*
X345955Y64905D01*
X346919Y63942D01*
X346925Y63937D01*
X346929Y63934D01*
X347001Y63881D01*
X347080Y63814D01*
X347108Y63802D01*
X347133Y63784D01*
X347230Y63750D01*
X347324Y63710D01*
X347355Y63707D01*
X347384Y63696D01*
X347486Y63693D01*
X347589Y63682D01*
X347619Y63688D01*
X347649Y63687D01*
X347748Y63714D01*
X347849Y63734D01*
X347869Y63747D01*
X347906Y63757D01*
X348056Y63853D01*
X348073Y63861D01*
X348081Y63869D01*
X348130Y63900D01*
X348155Y63929D01*
X348175Y63942D01*
X350059Y65826D01*
X359121Y65826D01*
X360814Y64133D01*
X360814Y55071D01*
X359121Y53378D01*
X358059Y53378D01*
X357957Y53363D01*
X357855Y53355D01*
X357827Y53343D01*
X357796Y53338D01*
X357704Y53294D01*
X357608Y53256D01*
X357585Y53236D01*
X357557Y53223D01*
X357482Y53153D01*
X357402Y53088D01*
X357385Y53062D01*
X357363Y53041D01*
X357312Y52952D01*
X357255Y52867D01*
X357249Y52843D01*
X357231Y52811D01*
X357173Y52551D01*
X357176Y52513D01*
X357171Y52490D01*
X357171Y28860D01*
X357186Y28758D01*
X357194Y28656D01*
X357206Y28628D01*
X357211Y28597D01*
X357255Y28505D01*
X357293Y28409D01*
X357313Y28386D01*
X357326Y28358D01*
X357396Y28283D01*
X357461Y28203D01*
X357487Y28186D01*
X357508Y28164D01*
X357597Y28113D01*
X357682Y28056D01*
X357706Y28050D01*
X357738Y28032D01*
X357998Y27974D01*
X358036Y27977D01*
X358059Y27972D01*
X361463Y27972D01*
X362505Y26930D01*
X362505Y20247D01*
X362508Y20227D01*
X362506Y20206D01*
X362528Y20095D01*
X362545Y19985D01*
X362554Y19966D01*
X362558Y19945D01*
X362582Y19906D01*
X362660Y19745D01*
X362737Y19663D01*
X362738Y19661D01*
X363094Y19046D01*
X363267Y18400D01*
X363267Y16477D01*
X355075Y16477D01*
X354973Y16461D01*
X354871Y16453D01*
X354842Y16442D01*
X354812Y16437D01*
X354720Y16392D01*
X354624Y16354D01*
X354600Y16335D01*
X354573Y16321D01*
X354498Y16251D01*
X354418Y16186D01*
X354401Y16161D01*
X354378Y16140D01*
X354373Y16130D01*
X354340Y16166D01*
X354275Y16245D01*
X354250Y16262D01*
X354229Y16285D01*
X354140Y16336D01*
X354054Y16393D01*
X354031Y16398D01*
X353998Y16417D01*
X353738Y16475D01*
X353701Y16472D01*
X353677Y16477D01*
X345485Y16477D01*
X345485Y18400D01*
X345658Y19046D01*
X345998Y19635D01*
X346000Y19636D01*
X346016Y19649D01*
X346078Y19743D01*
X346145Y19833D01*
X346152Y19853D01*
X346163Y19871D01*
X346173Y19915D01*
X346232Y20084D01*
X346236Y20197D01*
X346247Y20247D01*
X346247Y26930D01*
X347289Y27972D01*
X350693Y27972D01*
X350795Y27987D01*
X350897Y27995D01*
X350925Y28007D01*
X350956Y28012D01*
X351048Y28056D01*
X351144Y28094D01*
X351167Y28114D01*
X351195Y28127D01*
X351270Y28197D01*
X351350Y28262D01*
X351367Y28288D01*
X351389Y28309D01*
X351440Y28398D01*
X351497Y28483D01*
X351503Y28507D01*
X351521Y28539D01*
X351579Y28799D01*
X351576Y28837D01*
X351581Y28860D01*
X351581Y52490D01*
X351566Y52592D01*
X351558Y52694D01*
X351546Y52722D01*
X351541Y52753D01*
X351497Y52845D01*
X351459Y52941D01*
X351439Y52964D01*
X351426Y52992D01*
X351356Y53067D01*
X351291Y53147D01*
X351265Y53164D01*
X351244Y53186D01*
X351155Y53237D01*
X351070Y53294D01*
X351046Y53300D01*
X351014Y53318D01*
X350754Y53376D01*
X350716Y53373D01*
X350693Y53378D01*
X350059Y53378D01*
X348366Y55071D01*
X348366Y55919D01*
X348351Y56021D01*
X348343Y56123D01*
X348331Y56151D01*
X348326Y56182D01*
X348282Y56274D01*
X348244Y56370D01*
X348224Y56393D01*
X348211Y56421D01*
X348141Y56496D01*
X348076Y56576D01*
X348050Y56593D01*
X348029Y56615D01*
X347940Y56666D01*
X347855Y56723D01*
X347831Y56729D01*
X347799Y56747D01*
X347539Y56805D01*
X347501Y56802D01*
X347478Y56807D01*
X346148Y56807D01*
X340105Y62850D01*
X340105Y78738D01*
X340102Y78759D01*
X340104Y78780D01*
X340082Y78890D01*
X340065Y79001D01*
X340056Y79020D01*
X340052Y79041D01*
X340028Y79079D01*
X339950Y79241D01*
X339873Y79323D01*
X339845Y79367D01*
X332605Y86607D01*
X332588Y86620D01*
X332574Y86636D01*
X332481Y86698D01*
X332391Y86765D01*
X332371Y86772D01*
X332353Y86783D01*
X332309Y86793D01*
X332140Y86852D01*
X332027Y86856D01*
X331976Y86867D01*
X244968Y86867D01*
X243071Y88765D01*
X231387Y100449D01*
X231346Y100479D01*
X231310Y100517D01*
X231239Y100558D01*
X231173Y100606D01*
X231124Y100623D01*
X231080Y100649D01*
X231000Y100667D01*
X230922Y100694D01*
X230870Y100695D01*
X230820Y100707D01*
X230738Y100700D01*
X230656Y100703D01*
X230607Y100689D01*
X230555Y100685D01*
X230479Y100655D01*
X230400Y100633D01*
X230356Y100605D01*
X230308Y100586D01*
X230245Y100534D01*
X230176Y100490D01*
X230142Y100451D01*
X230102Y100418D01*
X230057Y100350D01*
X230004Y100288D01*
X229983Y100240D01*
X229955Y100197D01*
X229943Y100147D01*
X229899Y100043D01*
X229881Y99865D01*
X229871Y99821D01*
X229871Y99316D01*
X229874Y99295D01*
X229872Y99274D01*
X229894Y99164D01*
X229911Y99053D01*
X229920Y99034D01*
X229924Y99013D01*
X229948Y98975D01*
X230026Y98813D01*
X230103Y98731D01*
X230131Y98687D01*
X267089Y61729D01*
X267106Y61716D01*
X267120Y61700D01*
X267213Y61638D01*
X267303Y61571D01*
X267323Y61564D01*
X267341Y61553D01*
X267385Y61543D01*
X267554Y61484D01*
X267667Y61480D01*
X267718Y61469D01*
X320676Y61469D01*
X320778Y61484D01*
X320880Y61492D01*
X320908Y61504D01*
X320939Y61509D01*
X321031Y61553D01*
X321127Y61591D01*
X321150Y61611D01*
X321178Y61624D01*
X321253Y61694D01*
X321333Y61759D01*
X321350Y61785D01*
X321372Y61806D01*
X321423Y61895D01*
X321480Y61980D01*
X321486Y62004D01*
X321504Y62036D01*
X321562Y62296D01*
X321559Y62334D01*
X321564Y62357D01*
X321564Y64047D01*
X323257Y65740D01*
X332319Y65740D01*
X334012Y64047D01*
X334012Y54985D01*
X332319Y53292D01*
X331501Y53292D01*
X331399Y53277D01*
X331297Y53269D01*
X331269Y53257D01*
X331238Y53252D01*
X331146Y53208D01*
X331050Y53170D01*
X331027Y53150D01*
X330999Y53137D01*
X330924Y53067D01*
X330844Y53002D01*
X330827Y52976D01*
X330805Y52955D01*
X330754Y52866D01*
X330697Y52781D01*
X330691Y52757D01*
X330673Y52725D01*
X330615Y52465D01*
X330618Y52427D01*
X330613Y52404D01*
X330613Y28960D01*
X330628Y28858D01*
X330636Y28756D01*
X330648Y28728D01*
X330653Y28697D01*
X330697Y28605D01*
X330735Y28509D01*
X330755Y28486D01*
X330768Y28458D01*
X330838Y28383D01*
X330903Y28303D01*
X330929Y28286D01*
X330950Y28264D01*
X331039Y28213D01*
X331124Y28156D01*
X331148Y28150D01*
X331180Y28132D01*
X331440Y28074D01*
X331478Y28077D01*
X331501Y28072D01*
X334905Y28072D01*
X335947Y27030D01*
X335947Y11078D01*
X334905Y10036D01*
X320731Y10036D01*
X319599Y11168D01*
X319567Y11250D01*
X319547Y11273D01*
X319534Y11301D01*
X319464Y11376D01*
X319399Y11456D01*
X319373Y11473D01*
X319352Y11495D01*
X319263Y11546D01*
X319178Y11603D01*
X319154Y11609D01*
X319122Y11627D01*
X318862Y11685D01*
X318824Y11682D01*
X318801Y11687D01*
X317906Y11687D01*
X300644Y28949D01*
X300627Y28962D01*
X300614Y28978D01*
X300520Y29040D01*
X300430Y29107D01*
X300410Y29114D01*
X300393Y29125D01*
X300348Y29135D01*
X300179Y29194D01*
X300066Y29198D01*
X300016Y29209D01*
X290548Y29209D01*
X290527Y29206D01*
X290506Y29208D01*
X290396Y29186D01*
X290285Y29169D01*
X290266Y29160D01*
X290246Y29156D01*
X290207Y29132D01*
X290046Y29054D01*
X289963Y28977D01*
X289920Y28949D01*
X280281Y19310D01*
X280244Y19261D01*
X280200Y19217D01*
X280166Y19154D01*
X280123Y19096D01*
X280103Y19038D01*
X280074Y18983D01*
X280060Y18913D01*
X280036Y18845D01*
X280034Y18783D01*
X280022Y18723D01*
X280030Y18675D01*
X280027Y18580D01*
X280083Y18373D01*
X280089Y18342D01*
X280699Y16870D01*
X280699Y13130D01*
X279268Y9676D01*
X276624Y7032D01*
X276038Y6790D01*
X275959Y6742D01*
X275876Y6702D01*
X275846Y6674D01*
X275811Y6652D01*
X275749Y6583D01*
X275682Y6520D01*
X275661Y6485D01*
X275634Y6454D01*
X275596Y6370D01*
X275550Y6290D01*
X275541Y6249D01*
X275524Y6212D01*
X275512Y6120D01*
X275492Y6030D01*
X275496Y5989D01*
X275490Y5948D01*
X275506Y5857D01*
X275514Y5765D01*
X275529Y5727D01*
X275536Y5686D01*
X275578Y5604D01*
X275613Y5518D01*
X275639Y5486D01*
X275658Y5450D01*
X275722Y5384D01*
X275780Y5312D01*
X275815Y5289D01*
X275843Y5260D01*
X275925Y5216D01*
X276002Y5165D01*
X276032Y5158D01*
X276077Y5133D01*
X276338Y5082D01*
X276358Y5085D01*
X276378Y5081D01*
X290333Y5081D01*
X290452Y5099D01*
X290572Y5114D01*
X290583Y5119D01*
X290595Y5121D01*
X290704Y5173D01*
X290814Y5223D01*
X290824Y5231D01*
X290835Y5236D01*
X290923Y5319D01*
X291014Y5399D01*
X291020Y5409D01*
X291029Y5418D01*
X291089Y5522D01*
X291152Y5626D01*
X291155Y5638D01*
X291161Y5648D01*
X291187Y5766D01*
X291217Y5884D01*
X291216Y5896D01*
X291219Y5908D01*
X291209Y6029D01*
X291202Y6149D01*
X291198Y6161D01*
X291197Y6173D01*
X291152Y6285D01*
X291110Y6398D01*
X291104Y6406D01*
X291098Y6420D01*
X290930Y6626D01*
X290879Y6660D01*
X290855Y6688D01*
X290081Y7250D01*
X288950Y8381D01*
X288010Y9675D01*
X287284Y11100D01*
X286789Y12621D01*
X286694Y13223D01*
X295811Y13223D01*
X295912Y13238D01*
X296015Y13246D01*
X296043Y13258D01*
X296074Y13263D01*
X296166Y13307D01*
X296261Y13345D01*
X296285Y13365D01*
X296313Y13378D01*
X296388Y13448D01*
X296468Y13513D01*
X296485Y13539D01*
X296507Y13560D01*
X296558Y13649D01*
X296615Y13734D01*
X296620Y13758D01*
X296639Y13790D01*
X296697Y14050D01*
X296694Y14088D01*
X296699Y14111D01*
X296699Y15001D01*
X296701Y15001D01*
X296701Y14111D01*
X296716Y14009D01*
X296725Y13907D01*
X296736Y13879D01*
X296741Y13848D01*
X296785Y13756D01*
X296824Y13660D01*
X296843Y13637D01*
X296856Y13609D01*
X296926Y13534D01*
X296991Y13454D01*
X297017Y13437D01*
X297038Y13415D01*
X297127Y13364D01*
X297212Y13307D01*
X297236Y13301D01*
X297269Y13283D01*
X297528Y13225D01*
X297566Y13228D01*
X297589Y13223D01*
X306706Y13223D01*
X306611Y12621D01*
X306116Y11100D01*
X305390Y9675D01*
X304450Y8381D01*
X303319Y7250D01*
X302545Y6688D01*
X302459Y6603D01*
X302371Y6520D01*
X302365Y6510D01*
X302356Y6501D01*
X302299Y6394D01*
X302239Y6290D01*
X302236Y6277D01*
X302231Y6267D01*
X302208Y6148D01*
X302181Y6030D01*
X302182Y6018D01*
X302180Y6006D01*
X302193Y5885D01*
X302203Y5765D01*
X302208Y5754D01*
X302209Y5741D01*
X302257Y5630D01*
X302302Y5518D01*
X302310Y5509D01*
X302315Y5498D01*
X302393Y5406D01*
X302470Y5312D01*
X302480Y5305D01*
X302488Y5296D01*
X302590Y5232D01*
X302691Y5165D01*
X302700Y5162D01*
X302713Y5155D01*
X302970Y5086D01*
X303032Y5089D01*
X303067Y5081D01*
X416547Y5081D01*
X416636Y5094D01*
X416726Y5099D01*
X416767Y5114D01*
X416810Y5121D01*
X416891Y5160D01*
X416975Y5191D01*
X417010Y5217D01*
X417049Y5236D01*
X417115Y5298D01*
X417187Y5353D01*
X417212Y5388D01*
X417243Y5418D01*
X417288Y5496D01*
X417340Y5569D01*
X417354Y5611D01*
X417375Y5648D01*
X417395Y5736D01*
X417423Y5822D01*
X417424Y5865D01*
X417433Y5908D01*
X417426Y5998D01*
X417427Y6088D01*
X417415Y6130D01*
X417411Y6173D01*
X417378Y6256D01*
X417353Y6343D01*
X417333Y6369D01*
X417312Y6420D01*
X417145Y6626D01*
X417127Y6638D01*
X417118Y6649D01*
X412845Y10235D01*
X407505Y19483D01*
X405651Y30000D01*
X407505Y40517D01*
X412845Y49765D01*
X421025Y56629D01*
X431061Y60282D01*
X441739Y60282D01*
X451775Y56629D01*
X459860Y49845D01*
X459871Y49838D01*
X459880Y49829D01*
X459984Y49769D01*
X460087Y49706D01*
X460099Y49703D01*
X460110Y49697D01*
X460228Y49671D01*
X460345Y49641D01*
X460357Y49642D01*
X460370Y49639D01*
X460490Y49649D01*
X460610Y49655D01*
X460622Y49660D01*
X460635Y49661D01*
X460746Y49705D01*
X460860Y49747D01*
X460870Y49755D01*
X460882Y49760D01*
X460975Y49836D01*
X461071Y49909D01*
X461078Y49919D01*
X461088Y49927D01*
X461155Y50028D01*
X461224Y50126D01*
X461228Y50138D01*
X461235Y50148D01*
X461243Y50183D01*
X461307Y50378D01*
X461309Y50477D01*
X461319Y50525D01*
X461319Y415875D01*
X461317Y415887D01*
X461319Y415900D01*
X461298Y416018D01*
X461279Y416138D01*
X461274Y416149D01*
X461272Y416162D01*
X461216Y416268D01*
X461164Y416377D01*
X461155Y416386D01*
X461149Y416397D01*
X461065Y416483D01*
X460982Y416571D01*
X460971Y416578D01*
X460962Y416587D01*
X460856Y416643D01*
X460752Y416703D01*
X460739Y416706D01*
X460728Y416712D01*
X460609Y416735D01*
X460492Y416761D01*
X460479Y416760D01*
X460467Y416762D01*
X460347Y416749D01*
X460227Y416739D01*
X460215Y416734D01*
X460203Y416733D01*
X460171Y416717D01*
X459980Y416640D01*
X459904Y416578D01*
X459860Y416555D01*
X451775Y409771D01*
X441739Y406118D01*
X431061Y406118D01*
X421025Y409771D01*
X412845Y416635D01*
X407505Y425883D01*
X405651Y436400D01*
X407505Y446917D01*
X412845Y456165D01*
X417118Y459751D01*
X417177Y459818D01*
X417243Y459880D01*
X417265Y459917D01*
X417294Y459950D01*
X417331Y460032D01*
X417375Y460110D01*
X417385Y460153D01*
X417403Y460192D01*
X417414Y460282D01*
X417433Y460370D01*
X417430Y460413D01*
X417435Y460456D01*
X417419Y460545D01*
X417412Y460635D01*
X417395Y460675D01*
X417388Y460718D01*
X417346Y460798D01*
X417313Y460882D01*
X417285Y460915D01*
X417265Y460954D01*
X417202Y461018D01*
X417145Y461088D01*
X417109Y461112D01*
X417078Y461143D01*
X416999Y461185D01*
X416924Y461235D01*
X416892Y461242D01*
X416844Y461268D01*
X416583Y461319D01*
X416561Y461316D01*
X416547Y461319D01*
X49853Y461319D01*
X49764Y461306D01*
X49674Y461301D01*
X49633Y461286D01*
X49590Y461279D01*
X49509Y461240D01*
X49425Y461209D01*
X49390Y461183D01*
X49351Y461164D01*
X49285Y461102D01*
X49213Y461047D01*
X49188Y461012D01*
X49157Y460982D01*
X49112Y460904D01*
X49060Y460831D01*
X49046Y460789D01*
X49025Y460752D01*
X49005Y460664D01*
X48977Y460578D01*
X48976Y460535D01*
X48967Y460492D01*
X48974Y460402D01*
X48973Y460312D01*
X48985Y460270D01*
X48989Y460227D01*
X49022Y460144D01*
X49047Y460057D01*
X49067Y460031D01*
X49088Y459980D01*
X49255Y459774D01*
X49273Y459762D01*
X49282Y459751D01*
X53555Y456165D01*
X58895Y446917D01*
X60749Y436400D01*
X58895Y425883D01*
X53555Y416635D01*
X45375Y409771D01*
X35339Y406118D01*
X24661Y406118D01*
X14625Y409771D01*
X6540Y416555D01*
X6529Y416562D01*
X6520Y416571D01*
X6416Y416631D01*
X6313Y416694D01*
X6301Y416697D01*
X6290Y416703D01*
X6172Y416729D01*
X6055Y416759D01*
X6043Y416758D01*
X6030Y416761D01*
X5910Y416751D01*
X5790Y416745D01*
X5778Y416740D01*
X5765Y416739D01*
X5654Y416695D01*
X5540Y416653D01*
X5530Y416645D01*
X5518Y416640D01*
X5425Y416564D01*
X5329Y416491D01*
X5322Y416481D01*
X5312Y416473D01*
X5245Y416372D01*
X5176Y416274D01*
X5172Y416262D01*
X5165Y416252D01*
X5157Y416217D01*
X5093Y416022D01*
X5091Y415923D01*
X5081Y415875D01*
X5081Y383416D01*
X5096Y383314D01*
X5104Y383212D01*
X5116Y383184D01*
X5121Y383153D01*
X5165Y383061D01*
X5203Y382965D01*
X5223Y382942D01*
X5236Y382914D01*
X5306Y382839D01*
X5371Y382759D01*
X5397Y382742D01*
X5418Y382720D01*
X5507Y382669D01*
X5592Y382612D01*
X5616Y382606D01*
X5648Y382588D01*
X5908Y382530D01*
X5946Y382533D01*
X5969Y382528D01*
X19533Y382528D01*
X20575Y381486D01*
X20575Y381257D01*
X20590Y381155D01*
X20598Y381053D01*
X20610Y381025D01*
X20615Y380994D01*
X20659Y380902D01*
X20697Y380806D01*
X20717Y380783D01*
X20730Y380755D01*
X20800Y380680D01*
X20865Y380600D01*
X20891Y380583D01*
X20912Y380561D01*
X21001Y380510D01*
X21086Y380453D01*
X21110Y380447D01*
X21142Y380429D01*
X21402Y380371D01*
X21440Y380374D01*
X21463Y380369D01*
X26416Y380369D01*
X26518Y380384D01*
X26620Y380392D01*
X26648Y380404D01*
X26679Y380409D01*
X26771Y380453D01*
X26867Y380491D01*
X26890Y380511D01*
X26918Y380524D01*
X26993Y380594D01*
X27073Y380659D01*
X27090Y380685D01*
X27112Y380706D01*
X27163Y380795D01*
X27220Y380880D01*
X27226Y380904D01*
X27244Y380936D01*
X27302Y381196D01*
X27299Y381234D01*
X27304Y381257D01*
X27304Y382105D01*
X28997Y383798D01*
X38059Y383798D01*
X39752Y382105D01*
X39752Y373637D01*
X39767Y373535D01*
X39775Y373433D01*
X39787Y373405D01*
X39792Y373374D01*
X39836Y373282D01*
X39874Y373186D01*
X39894Y373163D01*
X39907Y373135D01*
X39977Y373060D01*
X40042Y372980D01*
X40068Y372963D01*
X40089Y372941D01*
X40178Y372890D01*
X40263Y372833D01*
X40287Y372827D01*
X40319Y372809D01*
X40579Y372751D01*
X40617Y372754D01*
X40640Y372749D01*
X41656Y372749D01*
X41758Y372764D01*
X41860Y372772D01*
X41888Y372784D01*
X41919Y372789D01*
X42011Y372833D01*
X42107Y372871D01*
X42130Y372891D01*
X42158Y372904D01*
X42233Y372974D01*
X42313Y373039D01*
X42330Y373065D01*
X42352Y373086D01*
X42403Y373175D01*
X42460Y373260D01*
X42466Y373284D01*
X42484Y373316D01*
X42542Y373576D01*
X42539Y373614D01*
X42544Y373637D01*
X42544Y382105D01*
X44237Y383798D01*
X53299Y383798D01*
X55249Y381847D01*
X55332Y381786D01*
X55410Y381720D01*
X55438Y381708D01*
X55463Y381690D01*
X55560Y381656D01*
X55655Y381616D01*
X55685Y381612D01*
X55714Y381602D01*
X55817Y381599D01*
X55919Y381588D01*
X55949Y381594D01*
X55980Y381593D01*
X56079Y381620D01*
X56180Y381640D01*
X56200Y381653D01*
X56236Y381663D01*
X56461Y381806D01*
X56485Y381835D01*
X56505Y381847D01*
X56929Y382271D01*
X60927Y382271D01*
X63755Y379443D01*
X63755Y375445D01*
X62575Y374265D01*
X62544Y374224D01*
X62507Y374188D01*
X62466Y374117D01*
X62417Y374051D01*
X62400Y374002D01*
X62375Y373958D01*
X62357Y373878D01*
X62330Y373800D01*
X62328Y373748D01*
X62317Y373698D01*
X62324Y373616D01*
X62321Y373534D01*
X62334Y373485D01*
X62339Y373433D01*
X62369Y373357D01*
X62391Y373278D01*
X62418Y373234D01*
X62438Y373186D01*
X62489Y373123D01*
X62533Y373054D01*
X62573Y373020D01*
X62605Y372980D01*
X62674Y372935D01*
X62736Y372882D01*
X62783Y372861D01*
X62826Y372833D01*
X62877Y372821D01*
X62980Y372777D01*
X63159Y372759D01*
X63203Y372749D01*
X64738Y372749D01*
X93727Y343760D01*
X93727Y312418D01*
X93730Y312397D01*
X93728Y312376D01*
X93748Y312274D01*
X93753Y312211D01*
X93761Y312192D01*
X93767Y312155D01*
X93776Y312136D01*
X93780Y312116D01*
X93804Y312077D01*
X93821Y312043D01*
X93852Y311965D01*
X93868Y311945D01*
X93882Y311916D01*
X93956Y311837D01*
X93961Y311831D01*
X93987Y311790D01*
X94072Y311705D01*
X94089Y311692D01*
X94102Y311676D01*
X94196Y311614D01*
X94286Y311547D01*
X94306Y311540D01*
X94323Y311529D01*
X94368Y311519D01*
X94537Y311460D01*
X94650Y311456D01*
X94700Y311445D01*
X135595Y311445D01*
X135615Y311448D01*
X135636Y311446D01*
X135747Y311468D01*
X135858Y311485D01*
X135876Y311494D01*
X135897Y311498D01*
X135936Y311522D01*
X136097Y311600D01*
X136179Y311677D01*
X136223Y311705D01*
X137487Y312969D01*
X139274Y312969D01*
X139295Y312972D01*
X139316Y312970D01*
X139426Y312992D01*
X139537Y313009D01*
X139556Y313018D01*
X139576Y313022D01*
X139615Y313046D01*
X139776Y313124D01*
X139859Y313201D01*
X139902Y313229D01*
X178278Y351605D01*
X181390Y351605D01*
X181492Y351620D01*
X181594Y351628D01*
X181622Y351640D01*
X181653Y351645D01*
X181745Y351689D01*
X181841Y351727D01*
X181864Y351747D01*
X181892Y351760D01*
X181967Y351830D01*
X182047Y351895D01*
X182064Y351921D01*
X182086Y351942D01*
X182137Y352031D01*
X182194Y352116D01*
X182200Y352140D01*
X182218Y352172D01*
X182276Y352432D01*
X182273Y352470D01*
X182278Y352493D01*
X182278Y352833D01*
X183971Y354526D01*
X193033Y354526D01*
X194726Y352833D01*
X194726Y352357D01*
X194741Y352255D01*
X194749Y352153D01*
X194761Y352125D01*
X194766Y352094D01*
X194810Y352002D01*
X194848Y351906D01*
X194868Y351883D01*
X194881Y351855D01*
X194951Y351780D01*
X195016Y351700D01*
X195042Y351683D01*
X195063Y351661D01*
X195152Y351610D01*
X195237Y351553D01*
X195261Y351547D01*
X195293Y351529D01*
X195553Y351471D01*
X195591Y351474D01*
X195614Y351469D01*
X197832Y351469D01*
X197934Y351484D01*
X198036Y351492D01*
X198064Y351504D01*
X198095Y351509D01*
X198187Y351553D01*
X198283Y351591D01*
X198306Y351611D01*
X198334Y351624D01*
X198409Y351694D01*
X198489Y351759D01*
X198506Y351785D01*
X198528Y351806D01*
X198579Y351895D01*
X198636Y351980D01*
X198642Y352004D01*
X198660Y352036D01*
X198718Y352296D01*
X198716Y352317D01*
X198718Y352325D01*
X198717Y352342D01*
X198720Y352357D01*
X198720Y352697D01*
X200413Y354390D01*
X209475Y354390D01*
X211168Y352697D01*
X211168Y352357D01*
X211183Y352255D01*
X211191Y352153D01*
X211203Y352125D01*
X211208Y352094D01*
X211252Y352002D01*
X211290Y351906D01*
X211310Y351883D01*
X211323Y351855D01*
X211393Y351780D01*
X211458Y351700D01*
X211484Y351683D01*
X211505Y351661D01*
X211594Y351610D01*
X211679Y351553D01*
X211703Y351547D01*
X211735Y351529D01*
X211995Y351471D01*
X212033Y351474D01*
X212056Y351469D01*
X236640Y351469D01*
X264419Y323690D01*
X264419Y321405D01*
X264434Y321303D01*
X264442Y321201D01*
X264454Y321173D01*
X264459Y321142D01*
X264503Y321050D01*
X264541Y320954D01*
X264561Y320931D01*
X264574Y320903D01*
X264644Y320828D01*
X264709Y320748D01*
X264728Y320736D01*
X264728Y313976D01*
X264743Y313875D01*
X264751Y313772D01*
X264763Y313744D01*
X264767Y313714D01*
X264812Y313621D01*
X264850Y313526D01*
X264870Y313502D01*
X264883Y313474D01*
X264953Y313399D01*
X265018Y313319D01*
X265044Y313302D01*
X265064Y313280D01*
X265153Y313229D01*
X265239Y313172D01*
X265262Y313167D01*
X265295Y313148D01*
X265555Y313090D01*
X265593Y313093D01*
X265616Y313088D01*
X265718Y313103D01*
X265820Y313112D01*
X265849Y313123D01*
X265879Y313128D01*
X265971Y313173D01*
X266067Y313211D01*
X266091Y313230D01*
X266118Y313244D01*
X266193Y313314D01*
X266273Y313378D01*
X266290Y313404D01*
X266313Y313425D01*
X266363Y313514D01*
X266421Y313600D01*
X266426Y313623D01*
X266445Y313656D01*
X266502Y313915D01*
X266499Y313953D01*
X266504Y313976D01*
X266504Y320539D01*
X266523Y320540D01*
X266551Y320552D01*
X266582Y320556D01*
X266674Y320601D01*
X266770Y320639D01*
X266793Y320659D01*
X266821Y320672D01*
X266896Y320742D01*
X266976Y320807D01*
X266993Y320833D01*
X267015Y320854D01*
X267066Y320943D01*
X267123Y321028D01*
X267129Y321052D01*
X267147Y321084D01*
X267205Y321344D01*
X267202Y321382D01*
X267207Y321405D01*
X267207Y355364D01*
X318752Y406909D01*
X376700Y406909D01*
X428245Y355364D01*
X428245Y217914D01*
X427500Y217169D01*
X276372Y217169D01*
X276259Y217152D01*
X276146Y217140D01*
X276132Y217133D01*
X276109Y217129D01*
X276087Y217119D01*
X275573Y217166D01*
X275522Y217163D01*
X275492Y217169D01*
X274995Y217169D01*
X274677Y217551D01*
X274639Y217585D01*
X274622Y217611D01*
X274249Y217984D01*
X274164Y218160D01*
X274128Y218199D01*
X274113Y218227D01*
X249277Y248031D01*
X249239Y248065D01*
X249222Y248091D01*
X248871Y248442D01*
X248916Y248937D01*
X248913Y248988D01*
X248919Y249018D01*
X248919Y285059D01*
X248904Y285161D01*
X248896Y285263D01*
X248884Y285291D01*
X248879Y285322D01*
X248835Y285414D01*
X248797Y285510D01*
X248777Y285533D01*
X248764Y285561D01*
X248694Y285636D01*
X248629Y285716D01*
X248603Y285733D01*
X248582Y285755D01*
X248493Y285806D01*
X248408Y285863D01*
X248384Y285869D01*
X248352Y285887D01*
X248092Y285945D01*
X248054Y285942D01*
X248031Y285947D01*
X244877Y285947D01*
X244875Y285950D01*
X244781Y286012D01*
X244691Y286079D01*
X244672Y286086D01*
X244654Y286097D01*
X244610Y286107D01*
X244440Y286166D01*
X244328Y286170D01*
X244277Y286181D01*
X238940Y286181D01*
X238919Y286178D01*
X238898Y286180D01*
X238788Y286158D01*
X238677Y286141D01*
X238658Y286132D01*
X238637Y286128D01*
X238599Y286104D01*
X238437Y286026D01*
X238355Y285949D01*
X238311Y285921D01*
X234703Y282313D01*
X234690Y282296D01*
X234674Y282282D01*
X234612Y282189D01*
X234545Y282099D01*
X234538Y282079D01*
X234527Y282061D01*
X234517Y282017D01*
X234458Y281848D01*
X234454Y281735D01*
X234443Y281684D01*
X234443Y279179D01*
X231615Y276351D01*
X227617Y276351D01*
X226366Y277602D01*
X226325Y277633D01*
X226289Y277670D01*
X226218Y277711D01*
X226152Y277760D01*
X226103Y277777D01*
X226059Y277802D01*
X225979Y277820D01*
X225901Y277847D01*
X225849Y277849D01*
X225799Y277860D01*
X225717Y277853D01*
X225635Y277856D01*
X225586Y277843D01*
X225534Y277838D01*
X225458Y277808D01*
X225379Y277786D01*
X225335Y277759D01*
X225287Y277739D01*
X225224Y277688D01*
X225155Y277644D01*
X225121Y277604D01*
X225081Y277572D01*
X225036Y277503D01*
X224983Y277441D01*
X224962Y277394D01*
X224934Y277351D01*
X224922Y277300D01*
X224878Y277197D01*
X224860Y277018D01*
X224850Y276974D01*
X224850Y276935D01*
X223157Y275242D01*
X214095Y275242D01*
X212402Y276935D01*
X212402Y285997D01*
X214095Y287690D01*
X223157Y287690D01*
X224850Y285997D01*
X224850Y285382D01*
X224857Y285331D01*
X224856Y285280D01*
X224877Y285200D01*
X224890Y285119D01*
X224912Y285073D01*
X224926Y285023D01*
X224970Y284954D01*
X225005Y284880D01*
X225040Y284842D01*
X225068Y284799D01*
X225131Y284746D01*
X225187Y284686D01*
X225231Y284660D01*
X225271Y284627D01*
X225346Y284594D01*
X225417Y284554D01*
X225468Y284543D01*
X225515Y284522D01*
X225597Y284514D01*
X225677Y284496D01*
X225728Y284500D01*
X225780Y284495D01*
X225860Y284511D01*
X225942Y284518D01*
X225990Y284537D01*
X226040Y284547D01*
X226084Y284575D01*
X226189Y284617D01*
X226328Y284730D01*
X226366Y284754D01*
X227617Y286005D01*
X230122Y286005D01*
X230143Y286008D01*
X230164Y286006D01*
X230275Y286028D01*
X230385Y286045D01*
X230404Y286054D01*
X230425Y286058D01*
X230463Y286082D01*
X230625Y286160D01*
X230707Y286237D01*
X230751Y286265D01*
X233651Y289165D01*
X233681Y289206D01*
X233719Y289242D01*
X233760Y289313D01*
X233808Y289379D01*
X233825Y289428D01*
X233851Y289472D01*
X233869Y289552D01*
X233896Y289630D01*
X233897Y289682D01*
X233909Y289732D01*
X233902Y289814D01*
X233905Y289896D01*
X233891Y289945D01*
X233887Y289997D01*
X233857Y290073D01*
X233835Y290152D01*
X233807Y290196D01*
X233788Y290244D01*
X233736Y290307D01*
X233692Y290376D01*
X233653Y290410D01*
X233620Y290450D01*
X233552Y290495D01*
X233490Y290548D01*
X233442Y290569D01*
X233399Y290597D01*
X233349Y290609D01*
X233245Y290653D01*
X233067Y290671D01*
X233023Y290681D01*
X172066Y290681D01*
X172045Y290678D01*
X172024Y290680D01*
X171913Y290658D01*
X171803Y290641D01*
X171784Y290632D01*
X171763Y290628D01*
X171725Y290604D01*
X171563Y290526D01*
X171481Y290449D01*
X171437Y290421D01*
X168261Y287245D01*
X168261Y287244D01*
X166364Y285347D01*
X94569Y285347D01*
X94548Y285344D01*
X94528Y285346D01*
X94417Y285324D01*
X94306Y285307D01*
X94288Y285298D01*
X94267Y285294D01*
X94228Y285270D01*
X94067Y285192D01*
X93985Y285115D01*
X93941Y285087D01*
X93225Y284371D01*
X93212Y284354D01*
X93196Y284341D01*
X93133Y284247D01*
X93067Y284157D01*
X93060Y284137D01*
X93049Y284120D01*
X93039Y284075D01*
X92980Y283906D01*
X92976Y283793D01*
X92965Y283743D01*
X92965Y188724D01*
X92968Y188703D01*
X92966Y188682D01*
X92988Y188572D01*
X93005Y188461D01*
X93014Y188442D01*
X93018Y188421D01*
X93042Y188383D01*
X93120Y188221D01*
X93197Y188139D01*
X93225Y188095D01*
X139155Y142165D01*
X139196Y142135D01*
X139232Y142097D01*
X139303Y142056D01*
X139369Y142008D01*
X139418Y141991D01*
X139462Y141965D01*
X139542Y141947D01*
X139620Y141920D01*
X139672Y141919D01*
X139722Y141907D01*
X139804Y141914D01*
X139886Y141911D01*
X139935Y141925D01*
X139987Y141929D01*
X140063Y141959D01*
X140142Y141981D01*
X140186Y142009D01*
X140234Y142028D01*
X140297Y142080D01*
X140366Y142124D01*
X140400Y142163D01*
X140440Y142196D01*
X140485Y142264D01*
X140538Y142326D01*
X140559Y142374D01*
X140587Y142417D01*
X140599Y142467D01*
X140643Y142571D01*
X140661Y142749D01*
X140671Y142793D01*
X140671Y148639D01*
X142404Y150372D01*
X142465Y150455D01*
X142532Y150533D01*
X142544Y150561D01*
X142562Y150586D01*
X142596Y150683D01*
X142636Y150777D01*
X142639Y150808D01*
X142649Y150837D01*
X142653Y150940D01*
X142664Y151042D01*
X142658Y151072D01*
X142659Y151103D01*
X142632Y151202D01*
X142612Y151302D01*
X142599Y151323D01*
X142589Y151359D01*
X142446Y151583D01*
X142417Y151608D01*
X142404Y151628D01*
X140671Y153361D01*
X140671Y161339D01*
X142404Y163072D01*
X142465Y163155D01*
X142532Y163233D01*
X142544Y163261D01*
X142562Y163286D01*
X142596Y163383D01*
X142636Y163477D01*
X142639Y163508D01*
X142649Y163537D01*
X142653Y163640D01*
X142664Y163742D01*
X142658Y163772D01*
X142659Y163803D01*
X142632Y163902D01*
X142612Y164002D01*
X142599Y164023D01*
X142589Y164059D01*
X142446Y164283D01*
X142417Y164308D01*
X142404Y164328D01*
X140671Y166061D01*
X140671Y174039D01*
X142404Y175772D01*
X142465Y175855D01*
X142532Y175933D01*
X142544Y175961D01*
X142562Y175986D01*
X142596Y176083D01*
X142636Y176177D01*
X142639Y176208D01*
X142649Y176237D01*
X142653Y176340D01*
X142664Y176442D01*
X142658Y176472D01*
X142659Y176503D01*
X142632Y176602D01*
X142612Y176702D01*
X142599Y176723D01*
X142589Y176759D01*
X142446Y176983D01*
X142417Y177008D01*
X142404Y177028D01*
X140671Y178761D01*
X140671Y186739D01*
X142404Y188472D01*
X142465Y188555D01*
X142532Y188633D01*
X142544Y188661D01*
X142562Y188686D01*
X142596Y188783D01*
X142636Y188877D01*
X142639Y188908D01*
X142649Y188937D01*
X142653Y189040D01*
X142664Y189142D01*
X142658Y189172D01*
X142659Y189203D01*
X142632Y189302D01*
X142612Y189402D01*
X142599Y189423D01*
X142589Y189459D01*
X142446Y189683D01*
X142417Y189708D01*
X142404Y189728D01*
X140671Y191461D01*
X140671Y199439D01*
X142271Y201039D01*
X165489Y201039D01*
X167089Y199439D01*
X167089Y191461D01*
X165356Y189728D01*
X165295Y189645D01*
X165228Y189567D01*
X165216Y189539D01*
X165198Y189514D01*
X165164Y189417D01*
X165124Y189323D01*
X165121Y189292D01*
X165111Y189263D01*
X165107Y189161D01*
X165096Y189058D01*
X165102Y189028D01*
X165101Y188997D01*
X165128Y188898D01*
X165148Y188798D01*
X165161Y188778D01*
X165171Y188741D01*
X165314Y188517D01*
X165343Y188492D01*
X165356Y188472D01*
X167089Y186739D01*
X167089Y178761D01*
X165356Y177028D01*
X165295Y176945D01*
X165228Y176867D01*
X165216Y176839D01*
X165198Y176814D01*
X165164Y176717D01*
X165124Y176623D01*
X165121Y176592D01*
X165111Y176563D01*
X165107Y176461D01*
X165096Y176358D01*
X165102Y176328D01*
X165101Y176297D01*
X165128Y176198D01*
X165148Y176098D01*
X165161Y176078D01*
X165171Y176041D01*
X165314Y175817D01*
X165343Y175792D01*
X165356Y175772D01*
X167089Y174039D01*
X167089Y166061D01*
X165356Y164328D01*
X165295Y164245D01*
X165228Y164167D01*
X165216Y164139D01*
X165198Y164114D01*
X165164Y164017D01*
X165124Y163923D01*
X165121Y163892D01*
X165111Y163863D01*
X165107Y163761D01*
X165096Y163658D01*
X165102Y163628D01*
X165101Y163597D01*
X165128Y163498D01*
X165148Y163398D01*
X165161Y163378D01*
X165171Y163341D01*
X165314Y163117D01*
X165343Y163092D01*
X165356Y163072D01*
X167089Y161339D01*
X167089Y153361D01*
X165356Y151628D01*
X165295Y151545D01*
X165228Y151467D01*
X165216Y151439D01*
X165198Y151414D01*
X165164Y151317D01*
X165124Y151223D01*
X165121Y151192D01*
X165111Y151163D01*
X165107Y151061D01*
X165096Y150958D01*
X165102Y150928D01*
X165101Y150897D01*
X165128Y150798D01*
X165148Y150698D01*
X165161Y150678D01*
X165171Y150641D01*
X165314Y150417D01*
X165343Y150392D01*
X165356Y150372D01*
X167089Y148639D01*
X167089Y140661D01*
X165356Y138928D01*
X165328Y138890D01*
X165305Y138870D01*
X165286Y138835D01*
X165228Y138767D01*
X165216Y138739D01*
X165198Y138714D01*
X165164Y138617D01*
X165124Y138523D01*
X165121Y138492D01*
X165111Y138463D01*
X165107Y138361D01*
X165096Y138258D01*
X165102Y138228D01*
X165101Y138197D01*
X165128Y138098D01*
X165148Y137998D01*
X165161Y137978D01*
X165171Y137941D01*
X165314Y137717D01*
X165343Y137692D01*
X165356Y137672D01*
X167089Y135939D01*
X167089Y134158D01*
X167092Y134137D01*
X167090Y134116D01*
X167112Y134005D01*
X167129Y133895D01*
X167138Y133876D01*
X167142Y133855D01*
X167166Y133817D01*
X167244Y133655D01*
X167321Y133573D01*
X167349Y133529D01*
X181363Y119515D01*
X181404Y119485D01*
X181440Y119447D01*
X181511Y119406D01*
X181577Y119358D01*
X181626Y119341D01*
X181670Y119315D01*
X181750Y119297D01*
X181828Y119270D01*
X181880Y119269D01*
X181930Y119257D01*
X182012Y119264D01*
X182094Y119261D01*
X182143Y119275D01*
X182195Y119279D01*
X182271Y119309D01*
X182350Y119331D01*
X182394Y119359D01*
X182442Y119378D01*
X182505Y119430D01*
X182574Y119474D01*
X182608Y119513D01*
X182648Y119546D01*
X182693Y119614D01*
X182746Y119676D01*
X182767Y119724D01*
X182795Y119767D01*
X182807Y119817D01*
X182851Y119921D01*
X182869Y120099D01*
X182879Y120143D01*
X182879Y121125D01*
X185707Y123953D01*
X189705Y123953D01*
X192533Y121125D01*
X192533Y118620D01*
X192536Y118599D01*
X192534Y118578D01*
X192556Y118468D01*
X192573Y118357D01*
X192582Y118338D01*
X192586Y118317D01*
X192610Y118279D01*
X192688Y118117D01*
X192765Y118035D01*
X192793Y117991D01*
X248695Y62090D01*
X248695Y24609D01*
X248704Y24548D01*
X248703Y24486D01*
X248717Y24441D01*
X248718Y24418D01*
X248727Y24398D01*
X248735Y24346D01*
X248762Y24290D01*
X248779Y24231D01*
X248815Y24177D01*
X248817Y24172D01*
X248821Y24167D01*
X248850Y24107D01*
X248893Y24062D01*
X248927Y24010D01*
X248966Y23982D01*
X249032Y23913D01*
X249218Y23806D01*
X249243Y23788D01*
X251224Y22968D01*
X253868Y20324D01*
X255299Y16870D01*
X255299Y13130D01*
X253868Y9676D01*
X251224Y7032D01*
X250638Y6790D01*
X250559Y6742D01*
X250476Y6702D01*
X250446Y6674D01*
X250411Y6652D01*
X250349Y6583D01*
X250282Y6520D01*
X250261Y6485D01*
X250234Y6454D01*
X250196Y6370D01*
X250150Y6290D01*
X250141Y6249D01*
X250124Y6212D01*
X250112Y6120D01*
X250092Y6030D01*
X250096Y5989D01*
X250090Y5948D01*
X250106Y5857D01*
X250114Y5765D01*
X250129Y5727D01*
X250136Y5686D01*
X250178Y5604D01*
X250213Y5518D01*
X250239Y5486D01*
X250258Y5450D01*
X250322Y5384D01*
X250380Y5312D01*
X250415Y5289D01*
X250443Y5260D01*
X250525Y5216D01*
X250602Y5165D01*
X250632Y5158D01*
X250677Y5133D01*
X250938Y5082D01*
X250958Y5085D01*
X250978Y5081D01*
X266222Y5081D01*
X266313Y5095D01*
G37*
G36*
X159770Y5088D02*
X159770Y5088D01*
X159822Y5087D01*
X159901Y5108D01*
X159982Y5121D01*
X160029Y5143D01*
X160078Y5157D01*
X160148Y5201D01*
X160221Y5236D01*
X160259Y5272D01*
X160303Y5299D01*
X160356Y5362D01*
X160416Y5418D01*
X160441Y5463D01*
X160475Y5502D01*
X160507Y5577D01*
X160548Y5648D01*
X160559Y5699D01*
X160579Y5746D01*
X160588Y5828D01*
X160606Y5908D01*
X160601Y5959D01*
X160607Y6011D01*
X160591Y6091D01*
X160584Y6173D01*
X160565Y6221D01*
X160555Y6271D01*
X160527Y6315D01*
X160485Y6420D01*
X160372Y6559D01*
X160347Y6597D01*
X160301Y6643D01*
X160301Y23357D01*
X161343Y24399D01*
X178057Y24399D01*
X179099Y23357D01*
X179099Y6643D01*
X179053Y6597D01*
X179022Y6556D01*
X178984Y6520D01*
X178943Y6449D01*
X178895Y6383D01*
X178878Y6334D01*
X178852Y6290D01*
X178834Y6210D01*
X178807Y6132D01*
X178806Y6080D01*
X178794Y6030D01*
X178801Y5948D01*
X178798Y5866D01*
X178812Y5817D01*
X178816Y5765D01*
X178847Y5689D01*
X178868Y5610D01*
X178896Y5566D01*
X178915Y5518D01*
X178967Y5455D01*
X179011Y5386D01*
X179050Y5352D01*
X179083Y5312D01*
X179151Y5267D01*
X179213Y5214D01*
X179261Y5193D01*
X179304Y5165D01*
X179354Y5153D01*
X179458Y5109D01*
X179636Y5091D01*
X179681Y5081D01*
X190022Y5081D01*
X190113Y5095D01*
X190205Y5100D01*
X190244Y5114D01*
X190284Y5121D01*
X190367Y5161D01*
X190454Y5193D01*
X190487Y5218D01*
X190524Y5236D01*
X190591Y5299D01*
X190664Y5356D01*
X190688Y5389D01*
X190718Y5418D01*
X190764Y5498D01*
X190817Y5573D01*
X190830Y5613D01*
X190850Y5648D01*
X190870Y5739D01*
X190898Y5826D01*
X190899Y5868D01*
X190908Y5908D01*
X190900Y6000D01*
X190901Y6092D01*
X190890Y6132D01*
X190886Y6173D01*
X190852Y6258D01*
X190825Y6347D01*
X190803Y6381D01*
X190787Y6420D01*
X190729Y6491D01*
X190678Y6568D01*
X190652Y6586D01*
X190620Y6626D01*
X190398Y6773D01*
X190378Y6778D01*
X190362Y6790D01*
X189776Y7032D01*
X187132Y9676D01*
X185701Y13130D01*
X185701Y16870D01*
X187132Y20324D01*
X189776Y22968D01*
X193230Y24399D01*
X196970Y24399D01*
X200424Y22968D01*
X203068Y20324D01*
X204499Y16870D01*
X204499Y13130D01*
X203068Y9676D01*
X200424Y7032D01*
X199838Y6790D01*
X199759Y6742D01*
X199676Y6702D01*
X199646Y6674D01*
X199611Y6652D01*
X199549Y6583D01*
X199482Y6520D01*
X199461Y6485D01*
X199434Y6454D01*
X199396Y6370D01*
X199350Y6290D01*
X199341Y6249D01*
X199324Y6212D01*
X199312Y6120D01*
X199292Y6030D01*
X199296Y5989D01*
X199290Y5948D01*
X199306Y5857D01*
X199314Y5765D01*
X199329Y5727D01*
X199336Y5686D01*
X199378Y5604D01*
X199413Y5518D01*
X199439Y5486D01*
X199458Y5450D01*
X199522Y5384D01*
X199580Y5312D01*
X199615Y5289D01*
X199643Y5260D01*
X199725Y5216D01*
X199802Y5165D01*
X199832Y5158D01*
X199877Y5133D01*
X200138Y5082D01*
X200158Y5085D01*
X200178Y5081D01*
X215422Y5081D01*
X215513Y5095D01*
X215605Y5100D01*
X215644Y5114D01*
X215684Y5121D01*
X215767Y5161D01*
X215854Y5193D01*
X215887Y5218D01*
X215924Y5236D01*
X215991Y5299D01*
X216064Y5356D01*
X216088Y5389D01*
X216118Y5418D01*
X216164Y5498D01*
X216217Y5573D01*
X216230Y5613D01*
X216250Y5648D01*
X216270Y5739D01*
X216298Y5826D01*
X216299Y5868D01*
X216308Y5908D01*
X216300Y6000D01*
X216301Y6092D01*
X216290Y6132D01*
X216286Y6173D01*
X216252Y6258D01*
X216225Y6347D01*
X216203Y6381D01*
X216187Y6420D01*
X216129Y6491D01*
X216078Y6568D01*
X216052Y6586D01*
X216020Y6626D01*
X215798Y6773D01*
X215778Y6778D01*
X215762Y6790D01*
X215176Y7032D01*
X212532Y9676D01*
X211101Y13130D01*
X211101Y16870D01*
X212532Y20324D01*
X215176Y22968D01*
X217157Y23788D01*
X217210Y23820D01*
X217268Y23843D01*
X217323Y23889D01*
X217385Y23926D01*
X217426Y23972D01*
X217474Y24011D01*
X217514Y24071D01*
X217561Y24124D01*
X217587Y24181D01*
X217621Y24232D01*
X217631Y24277D01*
X217645Y24302D01*
X217649Y24316D01*
X217671Y24366D01*
X217687Y24489D01*
X217703Y24561D01*
X217701Y24589D01*
X217705Y24609D01*
X217705Y74900D01*
X217702Y74921D01*
X217704Y74942D01*
X217682Y75052D01*
X217665Y75163D01*
X217656Y75182D01*
X217652Y75203D01*
X217628Y75241D01*
X217550Y75403D01*
X217473Y75485D01*
X217445Y75529D01*
X166679Y126295D01*
X166596Y126356D01*
X166518Y126422D01*
X166490Y126434D01*
X166465Y126453D01*
X166368Y126486D01*
X166274Y126527D01*
X166243Y126530D01*
X166214Y126540D01*
X166111Y126544D01*
X166009Y126554D01*
X165979Y126548D01*
X165948Y126549D01*
X165849Y126522D01*
X165748Y126502D01*
X165728Y126489D01*
X165692Y126479D01*
X165467Y126337D01*
X165443Y126308D01*
X165423Y126295D01*
X165356Y126228D01*
X165295Y126146D01*
X165228Y126067D01*
X165216Y126039D01*
X165198Y126014D01*
X165164Y125917D01*
X165124Y125823D01*
X165121Y125792D01*
X165111Y125763D01*
X165107Y125661D01*
X165096Y125558D01*
X165102Y125528D01*
X165101Y125498D01*
X165128Y125399D01*
X165148Y125298D01*
X165161Y125278D01*
X165171Y125241D01*
X165314Y125017D01*
X165343Y124992D01*
X165356Y124972D01*
X167089Y123239D01*
X167089Y115261D01*
X165356Y113528D01*
X165295Y113445D01*
X165228Y113367D01*
X165216Y113339D01*
X165198Y113314D01*
X165164Y113217D01*
X165124Y113123D01*
X165121Y113092D01*
X165111Y113063D01*
X165107Y112961D01*
X165096Y112858D01*
X165102Y112828D01*
X165101Y112797D01*
X165128Y112698D01*
X165148Y112598D01*
X165161Y112578D01*
X165171Y112541D01*
X165314Y112317D01*
X165343Y112292D01*
X165356Y112272D01*
X167089Y110539D01*
X167089Y102561D01*
X165489Y100961D01*
X142271Y100961D01*
X140562Y102671D01*
X140549Y102704D01*
X140529Y102727D01*
X140516Y102755D01*
X140446Y102830D01*
X140381Y102910D01*
X140355Y102927D01*
X140334Y102949D01*
X140245Y103000D01*
X140160Y103057D01*
X140136Y103063D01*
X140104Y103081D01*
X139844Y103139D01*
X139806Y103136D01*
X139783Y103141D01*
X130662Y103141D01*
X130560Y103126D01*
X130458Y103118D01*
X130430Y103106D01*
X130399Y103101D01*
X130307Y103057D01*
X130211Y103019D01*
X130188Y102999D01*
X130160Y102986D01*
X130085Y102916D01*
X130005Y102851D01*
X129988Y102825D01*
X129966Y102804D01*
X129915Y102715D01*
X129858Y102630D01*
X129852Y102606D01*
X129834Y102574D01*
X129776Y102314D01*
X129779Y102276D01*
X129774Y102253D01*
X129774Y101913D01*
X128081Y100220D01*
X122365Y100220D01*
X122344Y100217D01*
X122323Y100219D01*
X122213Y100197D01*
X122102Y100180D01*
X122083Y100171D01*
X122063Y100167D01*
X122024Y100143D01*
X121863Y100065D01*
X121780Y99988D01*
X121737Y99960D01*
X121483Y99706D01*
X121452Y99665D01*
X121414Y99629D01*
X121374Y99558D01*
X121325Y99492D01*
X121308Y99443D01*
X121283Y99399D01*
X121265Y99319D01*
X121238Y99241D01*
X121236Y99189D01*
X121225Y99139D01*
X121231Y99057D01*
X121229Y98975D01*
X121242Y98926D01*
X121246Y98874D01*
X121277Y98798D01*
X121298Y98719D01*
X121326Y98675D01*
X121345Y98627D01*
X121397Y98564D01*
X121441Y98495D01*
X121480Y98461D01*
X121513Y98421D01*
X121581Y98376D01*
X121644Y98323D01*
X121691Y98302D01*
X121734Y98274D01*
X121773Y98265D01*
X121773Y92093D01*
X121788Y91992D01*
X121797Y91889D01*
X121808Y91861D01*
X121813Y91830D01*
X121857Y91738D01*
X121896Y91643D01*
X121915Y91619D01*
X121928Y91591D01*
X121998Y91516D01*
X122063Y91436D01*
X122089Y91419D01*
X122110Y91397D01*
X122199Y91346D01*
X122284Y91289D01*
X122308Y91284D01*
X122340Y91265D01*
X122600Y91207D01*
X122638Y91210D01*
X122661Y91205D01*
X123551Y91205D01*
X123551Y91203D01*
X122661Y91203D01*
X122560Y91188D01*
X122457Y91179D01*
X122429Y91168D01*
X122398Y91163D01*
X122306Y91119D01*
X122211Y91080D01*
X122187Y91061D01*
X122159Y91048D01*
X122084Y90978D01*
X122004Y90913D01*
X121987Y90887D01*
X121965Y90866D01*
X121914Y90777D01*
X121857Y90692D01*
X121851Y90668D01*
X121833Y90635D01*
X121775Y90376D01*
X121778Y90338D01*
X121773Y90315D01*
X121773Y84218D01*
X119735Y84218D01*
X118807Y84467D01*
X117974Y84948D01*
X117294Y85628D01*
X116974Y86182D01*
X116953Y86209D01*
X116938Y86240D01*
X116870Y86312D01*
X116808Y86389D01*
X116780Y86409D01*
X116756Y86434D01*
X116670Y86483D01*
X116588Y86539D01*
X116555Y86549D01*
X116526Y86566D01*
X116429Y86587D01*
X116334Y86616D01*
X116300Y86616D01*
X116266Y86624D01*
X116167Y86616D01*
X116068Y86615D01*
X116036Y86605D01*
X116001Y86602D01*
X115909Y86565D01*
X115815Y86536D01*
X115787Y86516D01*
X115754Y86503D01*
X115677Y86441D01*
X115596Y86384D01*
X115575Y86357D01*
X115548Y86335D01*
X115493Y86253D01*
X115432Y86175D01*
X115420Y86143D01*
X115401Y86114D01*
X115389Y86063D01*
X115337Y85927D01*
X115328Y85789D01*
X115317Y85738D01*
X115317Y81746D01*
X115320Y81725D01*
X115318Y81704D01*
X115340Y81594D01*
X115357Y81483D01*
X115366Y81464D01*
X115370Y81444D01*
X115394Y81405D01*
X115472Y81244D01*
X115549Y81161D01*
X115577Y81118D01*
X136236Y60459D01*
X136253Y60446D01*
X136266Y60430D01*
X136360Y60368D01*
X136450Y60301D01*
X136470Y60294D01*
X136487Y60283D01*
X136532Y60273D01*
X136701Y60214D01*
X136814Y60210D01*
X136864Y60199D01*
X203627Y60199D01*
X203647Y60202D01*
X203668Y60200D01*
X203779Y60222D01*
X203890Y60239D01*
X203908Y60248D01*
X203929Y60252D01*
X203968Y60276D01*
X204129Y60354D01*
X204211Y60431D01*
X204255Y60459D01*
X205519Y61723D01*
X209517Y61723D01*
X212345Y58895D01*
X212345Y54897D01*
X209517Y52069D01*
X205519Y52069D01*
X204255Y53333D01*
X204238Y53346D01*
X204225Y53362D01*
X204131Y53424D01*
X204041Y53491D01*
X204021Y53498D01*
X204004Y53509D01*
X203959Y53519D01*
X203790Y53578D01*
X203677Y53582D01*
X203627Y53593D01*
X133760Y53593D01*
X108711Y78642D01*
X108711Y96276D01*
X117066Y104631D01*
X117079Y104648D01*
X117095Y104661D01*
X117157Y104755D01*
X117224Y104845D01*
X117231Y104865D01*
X117242Y104882D01*
X117252Y104927D01*
X117311Y105096D01*
X117315Y105209D01*
X117326Y105259D01*
X117326Y110975D01*
X119019Y112668D01*
X119359Y112668D01*
X119461Y112683D01*
X119563Y112691D01*
X119591Y112703D01*
X119622Y112708D01*
X119714Y112752D01*
X119810Y112790D01*
X119833Y112810D01*
X119861Y112823D01*
X119936Y112893D01*
X120016Y112958D01*
X120033Y112984D01*
X120055Y113005D01*
X120106Y113094D01*
X120163Y113179D01*
X120169Y113203D01*
X120187Y113235D01*
X120245Y113495D01*
X120242Y113533D01*
X120247Y113556D01*
X120247Y137593D01*
X120244Y137614D01*
X120246Y137635D01*
X120224Y137745D01*
X120207Y137856D01*
X120198Y137875D01*
X120194Y137896D01*
X120170Y137934D01*
X120092Y138096D01*
X120015Y138178D01*
X119987Y138221D01*
X72541Y185667D01*
X72525Y185680D01*
X72511Y185696D01*
X72418Y185758D01*
X72328Y185825D01*
X72308Y185832D01*
X72290Y185843D01*
X72246Y185853D01*
X72076Y185912D01*
X71964Y185916D01*
X71913Y185927D01*
X54512Y185927D01*
X35559Y204880D01*
X35559Y303882D01*
X43157Y311480D01*
X43186Y311485D01*
X43205Y311494D01*
X43226Y311498D01*
X43264Y311522D01*
X43425Y311600D01*
X43508Y311677D01*
X43551Y311705D01*
X43822Y311975D01*
X43883Y312058D01*
X43949Y312136D01*
X43961Y312164D01*
X43979Y312189D01*
X44013Y312286D01*
X44053Y312380D01*
X44057Y312411D01*
X44067Y312440D01*
X44070Y312543D01*
X44081Y312645D01*
X44075Y312675D01*
X44076Y312706D01*
X44049Y312805D01*
X44029Y312906D01*
X44016Y312926D01*
X44006Y312962D01*
X43863Y313187D01*
X43834Y313211D01*
X43822Y313231D01*
X43471Y313582D01*
X43136Y314161D01*
X42963Y314807D01*
X42963Y316643D01*
X51643Y316643D01*
X51744Y316658D01*
X51847Y316666D01*
X51875Y316678D01*
X51906Y316682D01*
X51998Y316727D01*
X52093Y316765D01*
X52117Y316785D01*
X52145Y316798D01*
X52220Y316868D01*
X52251Y316894D01*
X52267Y316874D01*
X52293Y316857D01*
X52314Y316835D01*
X52403Y316784D01*
X52488Y316727D01*
X52512Y316721D01*
X52545Y316703D01*
X52804Y316645D01*
X52842Y316648D01*
X52865Y316643D01*
X61545Y316643D01*
X61545Y314807D01*
X61372Y314161D01*
X61037Y313582D01*
X60686Y313231D01*
X60626Y313149D01*
X60559Y313070D01*
X60547Y313042D01*
X60529Y313017D01*
X60495Y312920D01*
X60455Y312826D01*
X60451Y312795D01*
X60441Y312766D01*
X60438Y312664D01*
X60427Y312562D01*
X60433Y312531D01*
X60432Y312501D01*
X60459Y312402D01*
X60479Y312301D01*
X60492Y312281D01*
X60502Y312244D01*
X60645Y312020D01*
X60674Y311995D01*
X60686Y311975D01*
X60957Y311705D01*
X60973Y311692D01*
X60987Y311676D01*
X61080Y311614D01*
X61171Y311547D01*
X61190Y311540D01*
X61208Y311529D01*
X61252Y311519D01*
X61422Y311460D01*
X61534Y311456D01*
X61585Y311445D01*
X86148Y311445D01*
X86169Y311448D01*
X86190Y311446D01*
X86300Y311468D01*
X86411Y311485D01*
X86430Y311494D01*
X86450Y311498D01*
X86489Y311522D01*
X86650Y311600D01*
X86733Y311677D01*
X86776Y311705D01*
X86861Y311790D01*
X86874Y311807D01*
X86890Y311820D01*
X86907Y311845D01*
X86927Y311864D01*
X86965Y311931D01*
X87019Y312004D01*
X87026Y312024D01*
X87037Y312041D01*
X87043Y312068D01*
X87059Y312095D01*
X87073Y312160D01*
X87106Y312255D01*
X87108Y312318D01*
X87116Y312354D01*
X87114Y312385D01*
X87121Y312418D01*
X87121Y340656D01*
X87118Y340677D01*
X87120Y340698D01*
X87098Y340808D01*
X87081Y340919D01*
X87072Y340938D01*
X87068Y340958D01*
X87044Y340997D01*
X86966Y341158D01*
X86889Y341241D01*
X86861Y341284D01*
X65271Y362874D01*
X65230Y362905D01*
X65194Y362943D01*
X65123Y362983D01*
X65057Y363032D01*
X65008Y363049D01*
X64964Y363074D01*
X64884Y363092D01*
X64806Y363119D01*
X64754Y363121D01*
X64704Y363132D01*
X64622Y363126D01*
X64540Y363128D01*
X64491Y363115D01*
X64439Y363111D01*
X64363Y363080D01*
X64284Y363059D01*
X64240Y363031D01*
X64192Y363012D01*
X64129Y362960D01*
X64060Y362916D01*
X64026Y362877D01*
X63986Y362844D01*
X63941Y362776D01*
X63888Y362713D01*
X63867Y362666D01*
X63839Y362623D01*
X63827Y362573D01*
X63783Y362469D01*
X63765Y362291D01*
X63755Y362246D01*
X63755Y359189D01*
X60927Y356361D01*
X56929Y356361D01*
X56375Y356915D01*
X56293Y356975D01*
X56214Y357042D01*
X56186Y357054D01*
X56161Y357072D01*
X56064Y357106D01*
X55970Y357146D01*
X55939Y357150D01*
X55910Y357160D01*
X55808Y357163D01*
X55706Y357174D01*
X55675Y357168D01*
X55645Y357169D01*
X55546Y357142D01*
X55445Y357122D01*
X55425Y357109D01*
X55388Y357099D01*
X55164Y356956D01*
X55139Y356927D01*
X55119Y356915D01*
X53299Y355094D01*
X44237Y355094D01*
X42544Y356787D01*
X42544Y365255D01*
X42529Y365357D01*
X42521Y365459D01*
X42509Y365487D01*
X42504Y365518D01*
X42460Y365610D01*
X42422Y365706D01*
X42402Y365729D01*
X42389Y365757D01*
X42319Y365832D01*
X42254Y365912D01*
X42228Y365929D01*
X42207Y365951D01*
X42118Y366002D01*
X42033Y366059D01*
X42009Y366065D01*
X41977Y366083D01*
X41717Y366141D01*
X41679Y366138D01*
X41656Y366143D01*
X40640Y366143D01*
X40538Y366128D01*
X40436Y366120D01*
X40408Y366108D01*
X40377Y366103D01*
X40285Y366059D01*
X40189Y366021D01*
X40166Y366001D01*
X40138Y365988D01*
X40063Y365918D01*
X39983Y365853D01*
X39966Y365827D01*
X39944Y365806D01*
X39893Y365717D01*
X39836Y365632D01*
X39830Y365608D01*
X39812Y365576D01*
X39754Y365316D01*
X39757Y365278D01*
X39752Y365255D01*
X39752Y356787D01*
X38059Y355094D01*
X28997Y355094D01*
X27304Y356787D01*
X27304Y357635D01*
X27289Y357737D01*
X27281Y357839D01*
X27269Y357867D01*
X27264Y357898D01*
X27220Y357990D01*
X27182Y358086D01*
X27162Y358109D01*
X27149Y358137D01*
X27079Y358212D01*
X27014Y358292D01*
X26988Y358309D01*
X26967Y358331D01*
X26878Y358382D01*
X26793Y358439D01*
X26769Y358445D01*
X26737Y358463D01*
X26477Y358521D01*
X26439Y358518D01*
X26416Y358523D01*
X21463Y358523D01*
X21361Y358508D01*
X21259Y358500D01*
X21231Y358488D01*
X21200Y358483D01*
X21108Y358439D01*
X21012Y358401D01*
X20989Y358381D01*
X20961Y358368D01*
X20886Y358298D01*
X20806Y358233D01*
X20789Y358207D01*
X20767Y358186D01*
X20716Y358097D01*
X20659Y358012D01*
X20653Y357988D01*
X20635Y357956D01*
X20577Y357696D01*
X20580Y357658D01*
X20575Y357635D01*
X20575Y357406D01*
X19533Y356364D01*
X5969Y356364D01*
X5867Y356349D01*
X5765Y356341D01*
X5737Y356329D01*
X5706Y356324D01*
X5614Y356280D01*
X5518Y356242D01*
X5495Y356222D01*
X5467Y356209D01*
X5392Y356139D01*
X5312Y356074D01*
X5295Y356048D01*
X5273Y356027D01*
X5222Y355938D01*
X5165Y355853D01*
X5159Y355829D01*
X5141Y355797D01*
X5083Y355537D01*
X5086Y355499D01*
X5081Y355476D01*
X5081Y340571D01*
X5096Y340469D01*
X5104Y340367D01*
X5116Y340339D01*
X5121Y340308D01*
X5165Y340216D01*
X5203Y340120D01*
X5223Y340097D01*
X5236Y340069D01*
X5306Y339994D01*
X5371Y339914D01*
X5397Y339897D01*
X5418Y339875D01*
X5507Y339824D01*
X5592Y339767D01*
X5616Y339761D01*
X5648Y339743D01*
X5908Y339685D01*
X5946Y339688D01*
X5969Y339683D01*
X13727Y339683D01*
X13727Y332031D01*
X13742Y331930D01*
X13751Y331827D01*
X13762Y331799D01*
X13767Y331768D01*
X13811Y331676D01*
X13850Y331581D01*
X13869Y331557D01*
X13882Y331529D01*
X13952Y331454D01*
X14017Y331374D01*
X14043Y331357D01*
X14064Y331335D01*
X14153Y331284D01*
X14238Y331227D01*
X14262Y331222D01*
X14294Y331203D01*
X14554Y331145D01*
X14592Y331148D01*
X14615Y331143D01*
X15505Y331143D01*
X15505Y331141D01*
X14615Y331141D01*
X14514Y331126D01*
X14411Y331117D01*
X14383Y331106D01*
X14352Y331101D01*
X14260Y331057D01*
X14165Y331018D01*
X14141Y330999D01*
X14113Y330986D01*
X14038Y330916D01*
X13958Y330851D01*
X13941Y330825D01*
X13919Y330804D01*
X13868Y330715D01*
X13811Y330630D01*
X13805Y330606D01*
X13787Y330573D01*
X13729Y330314D01*
X13732Y330276D01*
X13727Y330253D01*
X13727Y322601D01*
X5969Y322601D01*
X5867Y322586D01*
X5765Y322578D01*
X5737Y322566D01*
X5706Y322561D01*
X5614Y322517D01*
X5518Y322479D01*
X5495Y322459D01*
X5467Y322446D01*
X5392Y322376D01*
X5312Y322311D01*
X5295Y322285D01*
X5273Y322264D01*
X5222Y322175D01*
X5165Y322090D01*
X5159Y322066D01*
X5141Y322034D01*
X5083Y321774D01*
X5086Y321736D01*
X5081Y321713D01*
X5081Y284571D01*
X5096Y284469D01*
X5104Y284367D01*
X5116Y284339D01*
X5121Y284308D01*
X5165Y284216D01*
X5203Y284120D01*
X5223Y284097D01*
X5236Y284069D01*
X5306Y283994D01*
X5371Y283914D01*
X5397Y283897D01*
X5418Y283875D01*
X5507Y283824D01*
X5592Y283767D01*
X5616Y283761D01*
X5648Y283743D01*
X5908Y283685D01*
X5946Y283688D01*
X5969Y283683D01*
X13727Y283683D01*
X13727Y276031D01*
X13742Y275930D01*
X13751Y275827D01*
X13762Y275799D01*
X13767Y275768D01*
X13811Y275676D01*
X13850Y275581D01*
X13869Y275557D01*
X13882Y275529D01*
X13952Y275454D01*
X14017Y275374D01*
X14043Y275357D01*
X14064Y275335D01*
X14153Y275284D01*
X14238Y275227D01*
X14262Y275222D01*
X14294Y275203D01*
X14554Y275145D01*
X14592Y275148D01*
X14615Y275143D01*
X15505Y275143D01*
X15505Y275141D01*
X14615Y275141D01*
X14514Y275126D01*
X14411Y275117D01*
X14383Y275106D01*
X14352Y275101D01*
X14260Y275057D01*
X14165Y275018D01*
X14141Y274999D01*
X14113Y274986D01*
X14038Y274916D01*
X13958Y274851D01*
X13941Y274825D01*
X13919Y274804D01*
X13868Y274715D01*
X13811Y274630D01*
X13805Y274606D01*
X13787Y274573D01*
X13729Y274314D01*
X13731Y274290D01*
X13729Y274282D01*
X13730Y274267D01*
X13727Y274253D01*
X13727Y266601D01*
X5969Y266601D01*
X5867Y266586D01*
X5765Y266578D01*
X5737Y266566D01*
X5706Y266561D01*
X5614Y266517D01*
X5518Y266479D01*
X5495Y266459D01*
X5467Y266446D01*
X5392Y266376D01*
X5312Y266311D01*
X5295Y266285D01*
X5273Y266264D01*
X5222Y266175D01*
X5165Y266090D01*
X5159Y266066D01*
X5141Y266034D01*
X5083Y265774D01*
X5086Y265736D01*
X5081Y265713D01*
X5081Y261667D01*
X5096Y261565D01*
X5104Y261463D01*
X5116Y261435D01*
X5121Y261404D01*
X5165Y261312D01*
X5203Y261216D01*
X5223Y261193D01*
X5236Y261165D01*
X5306Y261090D01*
X5371Y261010D01*
X5397Y260993D01*
X5418Y260971D01*
X5507Y260920D01*
X5592Y260863D01*
X5616Y260857D01*
X5648Y260839D01*
X5908Y260781D01*
X5946Y260784D01*
X5969Y260779D01*
X13473Y260779D01*
X13473Y253127D01*
X13488Y253026D01*
X13497Y252923D01*
X13508Y252895D01*
X13513Y252864D01*
X13557Y252772D01*
X13596Y252677D01*
X13615Y252653D01*
X13628Y252625D01*
X13698Y252550D01*
X13763Y252470D01*
X13789Y252453D01*
X13810Y252431D01*
X13899Y252380D01*
X13984Y252323D01*
X14008Y252318D01*
X14040Y252299D01*
X14300Y252241D01*
X14338Y252244D01*
X14361Y252239D01*
X15251Y252239D01*
X15251Y252237D01*
X14361Y252237D01*
X14260Y252222D01*
X14157Y252213D01*
X14129Y252202D01*
X14098Y252197D01*
X14006Y252153D01*
X13911Y252114D01*
X13887Y252095D01*
X13859Y252082D01*
X13784Y252012D01*
X13704Y251947D01*
X13687Y251921D01*
X13665Y251900D01*
X13614Y251811D01*
X13557Y251726D01*
X13551Y251702D01*
X13533Y251669D01*
X13475Y251410D01*
X13478Y251372D01*
X13473Y251349D01*
X13473Y243697D01*
X5969Y243697D01*
X5867Y243682D01*
X5765Y243674D01*
X5737Y243662D01*
X5706Y243657D01*
X5614Y243613D01*
X5518Y243575D01*
X5495Y243555D01*
X5467Y243542D01*
X5392Y243472D01*
X5312Y243407D01*
X5295Y243381D01*
X5273Y243360D01*
X5222Y243271D01*
X5165Y243186D01*
X5159Y243162D01*
X5141Y243130D01*
X5083Y242870D01*
X5086Y242832D01*
X5081Y242809D01*
X5081Y205667D01*
X5096Y205565D01*
X5104Y205463D01*
X5116Y205435D01*
X5121Y205404D01*
X5165Y205312D01*
X5203Y205216D01*
X5223Y205193D01*
X5236Y205165D01*
X5306Y205090D01*
X5371Y205010D01*
X5397Y204993D01*
X5418Y204971D01*
X5507Y204920D01*
X5592Y204863D01*
X5616Y204857D01*
X5648Y204839D01*
X5908Y204781D01*
X5946Y204784D01*
X5969Y204779D01*
X13473Y204779D01*
X13473Y197127D01*
X13488Y197026D01*
X13497Y196923D01*
X13508Y196895D01*
X13513Y196864D01*
X13557Y196772D01*
X13596Y196677D01*
X13615Y196653D01*
X13628Y196625D01*
X13698Y196550D01*
X13763Y196470D01*
X13789Y196453D01*
X13810Y196431D01*
X13899Y196380D01*
X13984Y196323D01*
X14008Y196318D01*
X14040Y196299D01*
X14300Y196241D01*
X14338Y196244D01*
X14361Y196239D01*
X15251Y196239D01*
X15251Y196237D01*
X14361Y196237D01*
X14260Y196222D01*
X14157Y196213D01*
X14129Y196202D01*
X14098Y196197D01*
X14006Y196153D01*
X13911Y196114D01*
X13887Y196095D01*
X13859Y196082D01*
X13784Y196012D01*
X13704Y195947D01*
X13687Y195921D01*
X13665Y195900D01*
X13614Y195811D01*
X13557Y195726D01*
X13551Y195702D01*
X13533Y195669D01*
X13475Y195410D01*
X13478Y195372D01*
X13473Y195349D01*
X13473Y187697D01*
X5969Y187697D01*
X5867Y187682D01*
X5765Y187674D01*
X5737Y187662D01*
X5706Y187657D01*
X5614Y187613D01*
X5518Y187575D01*
X5495Y187555D01*
X5467Y187542D01*
X5392Y187472D01*
X5312Y187407D01*
X5295Y187381D01*
X5273Y187360D01*
X5222Y187271D01*
X5165Y187186D01*
X5159Y187162D01*
X5141Y187130D01*
X5083Y186870D01*
X5086Y186832D01*
X5081Y186809D01*
X5081Y50525D01*
X5083Y50513D01*
X5081Y50500D01*
X5102Y50382D01*
X5121Y50262D01*
X5126Y50251D01*
X5128Y50238D01*
X5184Y50132D01*
X5236Y50023D01*
X5245Y50014D01*
X5251Y50002D01*
X5335Y49917D01*
X5418Y49829D01*
X5429Y49822D01*
X5438Y49813D01*
X5544Y49756D01*
X5648Y49697D01*
X5661Y49694D01*
X5672Y49688D01*
X5791Y49665D01*
X5908Y49639D01*
X5921Y49640D01*
X5933Y49638D01*
X6053Y49651D01*
X6173Y49661D01*
X6185Y49665D01*
X6197Y49667D01*
X6229Y49683D01*
X6420Y49760D01*
X6496Y49822D01*
X6540Y49845D01*
X14625Y56629D01*
X24661Y60282D01*
X35339Y60282D01*
X45375Y56629D01*
X53555Y49765D01*
X58895Y40517D01*
X60749Y30000D01*
X58895Y19483D01*
X53555Y10235D01*
X49282Y6649D01*
X49223Y6582D01*
X49157Y6520D01*
X49135Y6483D01*
X49106Y6450D01*
X49069Y6368D01*
X49025Y6290D01*
X49015Y6247D01*
X48997Y6208D01*
X48986Y6118D01*
X48967Y6030D01*
X48970Y5987D01*
X48965Y5944D01*
X48981Y5855D01*
X48988Y5765D01*
X49005Y5725D01*
X49012Y5682D01*
X49054Y5602D01*
X49087Y5518D01*
X49115Y5485D01*
X49135Y5446D01*
X49198Y5382D01*
X49255Y5312D01*
X49291Y5288D01*
X49322Y5257D01*
X49401Y5215D01*
X49476Y5165D01*
X49508Y5158D01*
X49556Y5132D01*
X49817Y5081D01*
X49839Y5084D01*
X49853Y5081D01*
X159719Y5081D01*
X159770Y5088D01*
G37*
G36*
X76901Y300486D02*
X76901Y300486D01*
X76922Y300484D01*
X77033Y300506D01*
X77144Y300523D01*
X77162Y300532D01*
X77183Y300536D01*
X77222Y300560D01*
X77383Y300638D01*
X77465Y300715D01*
X77509Y300743D01*
X79281Y302515D01*
X83279Y302515D01*
X85051Y300743D01*
X85068Y300730D01*
X85081Y300714D01*
X85175Y300652D01*
X85265Y300585D01*
X85285Y300578D01*
X85302Y300567D01*
X85347Y300557D01*
X85516Y300498D01*
X85629Y300494D01*
X85679Y300483D01*
X162558Y300483D01*
X162579Y300486D01*
X162600Y300484D01*
X162710Y300506D01*
X162821Y300523D01*
X162840Y300532D01*
X162861Y300536D01*
X162899Y300560D01*
X163061Y300638D01*
X163143Y300715D01*
X163187Y300743D01*
X172214Y309771D01*
X244277Y309771D01*
X244298Y309774D01*
X244319Y309772D01*
X244429Y309794D01*
X244540Y309811D01*
X244559Y309820D01*
X244580Y309824D01*
X244618Y309848D01*
X244779Y309926D01*
X244862Y310003D01*
X244864Y310005D01*
X251937Y310005D01*
X252039Y310020D01*
X252141Y310028D01*
X252169Y310040D01*
X252200Y310045D01*
X252292Y310089D01*
X252388Y310127D01*
X252411Y310147D01*
X252439Y310160D01*
X252514Y310230D01*
X252594Y310295D01*
X252611Y310321D01*
X252633Y310342D01*
X252684Y310431D01*
X252741Y310516D01*
X252747Y310540D01*
X252765Y310572D01*
X252823Y310832D01*
X252820Y310870D01*
X252825Y310893D01*
X252825Y313088D01*
X256616Y313088D01*
X256717Y313103D01*
X256820Y313111D01*
X256848Y313123D01*
X256878Y313127D01*
X256971Y313172D01*
X257066Y313210D01*
X257090Y313230D01*
X257118Y313243D01*
X257193Y313313D01*
X257273Y313378D01*
X257290Y313404D01*
X257312Y313424D01*
X257363Y313513D01*
X257420Y313599D01*
X257425Y313622D01*
X257444Y313655D01*
X257502Y313915D01*
X257499Y313953D01*
X257504Y313976D01*
X257489Y314078D01*
X257480Y314180D01*
X257469Y314209D01*
X257464Y314239D01*
X257419Y314331D01*
X257381Y314427D01*
X257362Y314451D01*
X257348Y314478D01*
X257278Y314553D01*
X257214Y314633D01*
X257188Y314650D01*
X257167Y314673D01*
X257078Y314723D01*
X256992Y314781D01*
X256969Y314786D01*
X256936Y314805D01*
X256677Y314862D01*
X256639Y314859D01*
X256616Y314864D01*
X252825Y314864D01*
X252825Y318311D01*
X252998Y318957D01*
X253333Y319536D01*
X253806Y320009D01*
X254385Y320344D01*
X255031Y320517D01*
X256106Y320517D01*
X256157Y320524D01*
X256209Y320523D01*
X256288Y320544D01*
X256369Y320557D01*
X256415Y320579D01*
X256465Y320593D01*
X256534Y320637D01*
X256608Y320672D01*
X256646Y320707D01*
X256689Y320735D01*
X256743Y320798D01*
X256803Y320854D01*
X256828Y320898D01*
X256862Y320938D01*
X256894Y321013D01*
X256934Y321084D01*
X256946Y321135D01*
X256966Y321182D01*
X256974Y321264D01*
X256992Y321344D01*
X256988Y321395D01*
X256993Y321447D01*
X256977Y321527D01*
X256971Y321609D01*
X256951Y321657D01*
X256941Y321707D01*
X256914Y321751D01*
X256872Y321856D01*
X256759Y321995D01*
X256734Y322033D01*
X234164Y344603D01*
X234147Y344616D01*
X234134Y344632D01*
X234040Y344694D01*
X233950Y344761D01*
X233930Y344768D01*
X233913Y344779D01*
X233868Y344789D01*
X233699Y344848D01*
X233586Y344852D01*
X233536Y344863D01*
X212056Y344863D01*
X211954Y344848D01*
X211852Y344840D01*
X211824Y344828D01*
X211793Y344823D01*
X211701Y344779D01*
X211605Y344741D01*
X211582Y344721D01*
X211554Y344708D01*
X211479Y344638D01*
X211399Y344573D01*
X211382Y344547D01*
X211360Y344526D01*
X211309Y344437D01*
X211252Y344352D01*
X211246Y344328D01*
X211228Y344296D01*
X211170Y344036D01*
X211173Y343998D01*
X211168Y343975D01*
X211168Y343635D01*
X209475Y341942D01*
X200413Y341942D01*
X198720Y343635D01*
X198720Y343975D01*
X198705Y344077D01*
X198697Y344179D01*
X198685Y344207D01*
X198680Y344238D01*
X198636Y344330D01*
X198598Y344426D01*
X198578Y344449D01*
X198565Y344477D01*
X198495Y344552D01*
X198430Y344632D01*
X198404Y344649D01*
X198383Y344671D01*
X198294Y344722D01*
X198209Y344779D01*
X198185Y344785D01*
X198153Y344803D01*
X197893Y344861D01*
X197855Y344858D01*
X197832Y344863D01*
X195614Y344863D01*
X195512Y344848D01*
X195410Y344840D01*
X195382Y344828D01*
X195351Y344823D01*
X195259Y344779D01*
X195163Y344741D01*
X195140Y344721D01*
X195112Y344708D01*
X195037Y344638D01*
X194957Y344573D01*
X194940Y344547D01*
X194918Y344526D01*
X194867Y344437D01*
X194810Y344352D01*
X194804Y344328D01*
X194786Y344296D01*
X194728Y344036D01*
X194731Y343998D01*
X194726Y343975D01*
X194726Y343771D01*
X193033Y342078D01*
X183971Y342078D01*
X182278Y343771D01*
X182278Y344111D01*
X182264Y344205D01*
X182264Y344214D01*
X182262Y344221D01*
X182255Y344315D01*
X182243Y344343D01*
X182238Y344374D01*
X182198Y344458D01*
X182194Y344470D01*
X182189Y344479D01*
X182156Y344562D01*
X182136Y344585D01*
X182123Y344613D01*
X182062Y344678D01*
X182052Y344694D01*
X182038Y344706D01*
X181988Y344768D01*
X181962Y344785D01*
X181941Y344807D01*
X181872Y344847D01*
X181849Y344866D01*
X181824Y344877D01*
X181767Y344915D01*
X181743Y344921D01*
X181711Y344939D01*
X181644Y344954D01*
X181605Y344971D01*
X181538Y344978D01*
X181451Y344997D01*
X181413Y344994D01*
X181390Y344999D01*
X181382Y344999D01*
X181361Y344996D01*
X181340Y344998D01*
X181254Y344981D01*
X181186Y344976D01*
X181162Y344966D01*
X181119Y344959D01*
X181100Y344950D01*
X181080Y344946D01*
X181041Y344922D01*
X180988Y344896D01*
X180939Y344877D01*
X180927Y344867D01*
X180880Y344844D01*
X180797Y344767D01*
X180754Y344739D01*
X144573Y308558D01*
X144560Y308541D01*
X144544Y308528D01*
X144482Y308434D01*
X144415Y308344D01*
X144408Y308324D01*
X144397Y308307D01*
X144387Y308262D01*
X144328Y308093D01*
X144324Y307980D01*
X144313Y307930D01*
X144313Y306143D01*
X141485Y303315D01*
X137487Y303315D01*
X136223Y304579D01*
X136206Y304592D01*
X136193Y304608D01*
X136099Y304670D01*
X136009Y304737D01*
X135989Y304744D01*
X135972Y304755D01*
X135927Y304765D01*
X135758Y304824D01*
X135645Y304828D01*
X135595Y304839D01*
X61585Y304839D01*
X61564Y304836D01*
X61543Y304838D01*
X61433Y304816D01*
X61322Y304799D01*
X61303Y304790D01*
X61282Y304786D01*
X61244Y304762D01*
X61083Y304684D01*
X61000Y304607D01*
X60957Y304579D01*
X60148Y303770D01*
X60087Y303687D01*
X60020Y303609D01*
X60008Y303581D01*
X59990Y303556D01*
X59956Y303459D01*
X59916Y303365D01*
X59913Y303334D01*
X59903Y303305D01*
X59899Y303203D01*
X59888Y303100D01*
X59894Y303070D01*
X59893Y303039D01*
X59920Y302940D01*
X59940Y302840D01*
X59953Y302820D01*
X59963Y302783D01*
X60106Y302559D01*
X60135Y302534D01*
X60148Y302514D01*
X60783Y301879D01*
X60783Y301371D01*
X60798Y301269D01*
X60806Y301167D01*
X60818Y301139D01*
X60823Y301108D01*
X60867Y301016D01*
X60905Y300920D01*
X60925Y300897D01*
X60938Y300869D01*
X61008Y300794D01*
X61073Y300714D01*
X61099Y300697D01*
X61120Y300675D01*
X61209Y300624D01*
X61294Y300567D01*
X61318Y300561D01*
X61350Y300543D01*
X61610Y300485D01*
X61648Y300488D01*
X61671Y300483D01*
X76881Y300483D01*
X76901Y300486D01*
G37*
G36*
X86508Y221198D02*
X86508Y221198D01*
X86590Y221195D01*
X86639Y221208D01*
X86691Y221213D01*
X86767Y221243D01*
X86846Y221265D01*
X86890Y221292D01*
X86938Y221312D01*
X87001Y221363D01*
X87070Y221407D01*
X87104Y221447D01*
X87144Y221479D01*
X87189Y221548D01*
X87242Y221610D01*
X87263Y221657D01*
X87291Y221700D01*
X87303Y221751D01*
X87347Y221854D01*
X87365Y222033D01*
X87375Y222077D01*
X87375Y283743D01*
X87372Y283763D01*
X87374Y283784D01*
X87352Y283895D01*
X87335Y284006D01*
X87326Y284024D01*
X87322Y284045D01*
X87298Y284084D01*
X87220Y284245D01*
X87143Y284327D01*
X87115Y284371D01*
X86399Y285087D01*
X86382Y285100D01*
X86369Y285116D01*
X86275Y285178D01*
X86185Y285245D01*
X86165Y285252D01*
X86148Y285263D01*
X86103Y285273D01*
X85934Y285332D01*
X85821Y285336D01*
X85771Y285347D01*
X61671Y285347D01*
X61569Y285332D01*
X61467Y285324D01*
X61439Y285312D01*
X61408Y285307D01*
X61316Y285263D01*
X61220Y285225D01*
X61197Y285205D01*
X61169Y285192D01*
X61094Y285122D01*
X61014Y285057D01*
X60997Y285031D01*
X60975Y285010D01*
X60924Y284921D01*
X60867Y284836D01*
X60861Y284812D01*
X60843Y284780D01*
X60785Y284520D01*
X60788Y284482D01*
X60783Y284459D01*
X60783Y284405D01*
X59741Y283363D01*
X44767Y283363D01*
X43681Y284449D01*
X43640Y284480D01*
X43604Y284518D01*
X43533Y284558D01*
X43467Y284607D01*
X43418Y284624D01*
X43374Y284650D01*
X43294Y284668D01*
X43216Y284695D01*
X43164Y284696D01*
X43114Y284708D01*
X43032Y284701D01*
X42950Y284704D01*
X42901Y284690D01*
X42849Y284686D01*
X42773Y284655D01*
X42694Y284634D01*
X42650Y284606D01*
X42602Y284587D01*
X42539Y284535D01*
X42470Y284491D01*
X42436Y284452D01*
X42396Y284419D01*
X42351Y284351D01*
X42298Y284289D01*
X42277Y284241D01*
X42249Y284198D01*
X42237Y284148D01*
X42193Y284044D01*
X42175Y283866D01*
X42165Y283821D01*
X42165Y244890D01*
X42172Y244839D01*
X42171Y244788D01*
X42186Y244730D01*
X42188Y244704D01*
X42196Y244687D01*
X42205Y244627D01*
X42227Y244581D01*
X42241Y244531D01*
X42285Y244462D01*
X42320Y244388D01*
X42356Y244350D01*
X42383Y244307D01*
X42446Y244254D01*
X42502Y244194D01*
X42547Y244168D01*
X42586Y244135D01*
X42661Y244103D01*
X42732Y244062D01*
X42783Y244051D01*
X42830Y244030D01*
X42912Y244022D01*
X42992Y244004D01*
X43043Y244008D01*
X43095Y244003D01*
X43175Y244019D01*
X43257Y244026D01*
X43305Y244045D01*
X43355Y244055D01*
X43399Y244083D01*
X43504Y244125D01*
X43556Y244167D01*
X43573Y244176D01*
X43620Y244220D01*
X43643Y244238D01*
X43681Y244262D01*
X43690Y244271D01*
X44269Y244606D01*
X44915Y244779D01*
X50501Y244779D01*
X50501Y239849D01*
X50516Y239748D01*
X50524Y239645D01*
X50536Y239617D01*
X50540Y239586D01*
X50585Y239494D01*
X50623Y239399D01*
X50643Y239375D01*
X50656Y239347D01*
X50726Y239272D01*
X50791Y239192D01*
X50817Y239175D01*
X50838Y239153D01*
X50927Y239102D01*
X51012Y239045D01*
X51036Y239040D01*
X51068Y239021D01*
X51328Y238963D01*
X51366Y238966D01*
X51389Y238961D01*
X51723Y238961D01*
X51723Y238627D01*
X51738Y238525D01*
X51747Y238423D01*
X51758Y238395D01*
X51763Y238364D01*
X51807Y238272D01*
X51846Y238176D01*
X51865Y238153D01*
X51878Y238125D01*
X51949Y238050D01*
X52013Y237970D01*
X52039Y237953D01*
X52060Y237931D01*
X52149Y237880D01*
X52234Y237823D01*
X52258Y237817D01*
X52291Y237799D01*
X52550Y237741D01*
X52588Y237744D01*
X52611Y237739D01*
X61291Y237739D01*
X61291Y235903D01*
X61118Y235257D01*
X60783Y234678D01*
X60432Y234327D01*
X60371Y234244D01*
X60305Y234166D01*
X60293Y234138D01*
X60275Y234113D01*
X60241Y234016D01*
X60201Y233922D01*
X60197Y233891D01*
X60187Y233862D01*
X60184Y233760D01*
X60173Y233657D01*
X60179Y233627D01*
X60178Y233597D01*
X60205Y233497D01*
X60225Y233397D01*
X60238Y233377D01*
X60248Y233340D01*
X60391Y233116D01*
X60420Y233091D01*
X60432Y233071D01*
X60529Y232975D01*
X60529Y225501D01*
X59894Y224866D01*
X59833Y224784D01*
X59766Y224705D01*
X59754Y224677D01*
X59736Y224652D01*
X59702Y224555D01*
X59662Y224461D01*
X59659Y224430D01*
X59649Y224401D01*
X59645Y224299D01*
X59634Y224196D01*
X59640Y224166D01*
X59639Y224135D01*
X59666Y224036D01*
X59686Y223936D01*
X59699Y223916D01*
X59709Y223879D01*
X59852Y223655D01*
X59881Y223630D01*
X59894Y223610D01*
X60529Y222975D01*
X60529Y222885D01*
X60544Y222783D01*
X60552Y222681D01*
X60564Y222653D01*
X60569Y222622D01*
X60613Y222530D01*
X60651Y222434D01*
X60671Y222411D01*
X60684Y222383D01*
X60754Y222308D01*
X60819Y222228D01*
X60845Y222211D01*
X60866Y222189D01*
X60955Y222138D01*
X61040Y222081D01*
X61064Y222075D01*
X61096Y222057D01*
X61356Y221999D01*
X61394Y222002D01*
X61417Y221997D01*
X76881Y221997D01*
X76901Y222000D01*
X76922Y221998D01*
X77033Y222020D01*
X77144Y222037D01*
X77162Y222046D01*
X77183Y222050D01*
X77222Y222074D01*
X77383Y222152D01*
X77465Y222229D01*
X77509Y222257D01*
X79281Y224029D01*
X83279Y224029D01*
X85859Y221449D01*
X85900Y221418D01*
X85936Y221381D01*
X86007Y221340D01*
X86073Y221291D01*
X86122Y221274D01*
X86166Y221249D01*
X86246Y221231D01*
X86324Y221204D01*
X86376Y221202D01*
X86426Y221191D01*
X86508Y221198D01*
G37*
%LPC*%
G36*
X229206Y403119D02*
X229206Y403119D01*
X221825Y406176D01*
X216176Y411825D01*
X213119Y419206D01*
X213119Y427194D01*
X216176Y434575D01*
X221825Y440224D01*
X229206Y443281D01*
X237194Y443281D01*
X244575Y440224D01*
X250224Y434575D01*
X253281Y427194D01*
X253281Y419206D01*
X250224Y411825D01*
X244575Y406176D01*
X237194Y403119D01*
X229206Y403119D01*
G37*
%LPD*%
%LPC*%
G36*
X64661Y118119D02*
X64661Y118119D01*
X57280Y121176D01*
X51631Y126825D01*
X48574Y134206D01*
X48574Y142194D01*
X51631Y149575D01*
X57280Y155224D01*
X64661Y158281D01*
X72649Y158281D01*
X80030Y155224D01*
X85679Y149575D01*
X88736Y142194D01*
X88736Y134206D01*
X85679Y126825D01*
X80030Y121176D01*
X72649Y118119D01*
X64661Y118119D01*
G37*
%LPD*%
%LPC*%
G36*
X393751Y118119D02*
X393751Y118119D01*
X386370Y121176D01*
X380721Y126825D01*
X377664Y134206D01*
X377664Y142194D01*
X380721Y149575D01*
X386370Y155224D01*
X393751Y158281D01*
X401739Y158281D01*
X409120Y155224D01*
X414769Y149575D01*
X417826Y142194D01*
X417826Y134206D01*
X414769Y126825D01*
X409120Y121176D01*
X401739Y118119D01*
X393751Y118119D01*
G37*
%LPD*%
G36*
X240913Y5095D02*
X240913Y5095D01*
X241005Y5100D01*
X241044Y5114D01*
X241084Y5121D01*
X241167Y5161D01*
X241254Y5193D01*
X241287Y5218D01*
X241324Y5236D01*
X241391Y5299D01*
X241464Y5356D01*
X241488Y5389D01*
X241518Y5418D01*
X241564Y5498D01*
X241617Y5573D01*
X241630Y5613D01*
X241650Y5648D01*
X241670Y5739D01*
X241698Y5826D01*
X241699Y5868D01*
X241708Y5908D01*
X241700Y6000D01*
X241701Y6092D01*
X241690Y6132D01*
X241686Y6173D01*
X241652Y6258D01*
X241625Y6347D01*
X241603Y6381D01*
X241587Y6420D01*
X241529Y6491D01*
X241478Y6568D01*
X241452Y6586D01*
X241420Y6626D01*
X241198Y6773D01*
X241178Y6778D01*
X241162Y6790D01*
X240576Y7032D01*
X237932Y9676D01*
X236501Y13130D01*
X236501Y16870D01*
X237932Y20324D01*
X240576Y22968D01*
X242557Y23788D01*
X242610Y23820D01*
X242668Y23843D01*
X242723Y23889D01*
X242785Y23926D01*
X242826Y23972D01*
X242874Y24011D01*
X242914Y24071D01*
X242961Y24124D01*
X242987Y24181D01*
X243021Y24232D01*
X243031Y24277D01*
X243045Y24302D01*
X243049Y24316D01*
X243071Y24366D01*
X243087Y24489D01*
X243103Y24561D01*
X243101Y24589D01*
X243105Y24609D01*
X243105Y59406D01*
X243102Y59427D01*
X243104Y59448D01*
X243082Y59558D01*
X243065Y59669D01*
X243056Y59688D01*
X243052Y59709D01*
X243028Y59747D01*
X242950Y59909D01*
X242873Y59991D01*
X242845Y60035D01*
X224811Y78069D01*
X224770Y78099D01*
X224734Y78137D01*
X224663Y78178D01*
X224597Y78226D01*
X224548Y78243D01*
X224504Y78269D01*
X224424Y78287D01*
X224346Y78314D01*
X224294Y78315D01*
X224244Y78327D01*
X224162Y78320D01*
X224080Y78323D01*
X224031Y78309D01*
X223979Y78305D01*
X223903Y78275D01*
X223824Y78253D01*
X223780Y78225D01*
X223732Y78206D01*
X223669Y78154D01*
X223600Y78110D01*
X223566Y78071D01*
X223526Y78038D01*
X223481Y77970D01*
X223428Y77908D01*
X223407Y77860D01*
X223379Y77817D01*
X223367Y77767D01*
X223323Y77663D01*
X223305Y77485D01*
X223295Y77441D01*
X223295Y24609D01*
X223304Y24548D01*
X223303Y24486D01*
X223317Y24441D01*
X223318Y24418D01*
X223327Y24398D01*
X223335Y24346D01*
X223362Y24290D01*
X223379Y24231D01*
X223415Y24177D01*
X223417Y24172D01*
X223421Y24167D01*
X223450Y24107D01*
X223493Y24062D01*
X223527Y24010D01*
X223566Y23982D01*
X223632Y23913D01*
X223818Y23806D01*
X223843Y23788D01*
X225824Y22968D01*
X228468Y20324D01*
X229899Y16870D01*
X229899Y13130D01*
X228468Y9676D01*
X225824Y7032D01*
X225238Y6790D01*
X225159Y6742D01*
X225076Y6702D01*
X225046Y6674D01*
X225011Y6652D01*
X224949Y6583D01*
X224882Y6520D01*
X224861Y6485D01*
X224834Y6454D01*
X224796Y6370D01*
X224750Y6290D01*
X224741Y6249D01*
X224724Y6212D01*
X224712Y6120D01*
X224692Y6030D01*
X224696Y5989D01*
X224690Y5948D01*
X224706Y5857D01*
X224714Y5765D01*
X224729Y5727D01*
X224736Y5686D01*
X224778Y5604D01*
X224813Y5518D01*
X224839Y5486D01*
X224858Y5450D01*
X224922Y5384D01*
X224980Y5312D01*
X225015Y5289D01*
X225043Y5260D01*
X225125Y5216D01*
X225202Y5165D01*
X225232Y5158D01*
X225277Y5133D01*
X225538Y5082D01*
X225558Y5085D01*
X225578Y5081D01*
X240822Y5081D01*
X240913Y5095D01*
G37*
%LPC*%
G36*
X431909Y201485D02*
X431909Y201485D01*
X430867Y202527D01*
X430867Y220001D01*
X431909Y221043D01*
X452883Y221043D01*
X453925Y220001D01*
X453925Y202527D01*
X452883Y201485D01*
X431909Y201485D01*
G37*
%LPD*%
G36*
X77618Y190330D02*
X77618Y190330D01*
X77700Y190327D01*
X77749Y190341D01*
X77801Y190345D01*
X77877Y190375D01*
X77956Y190397D01*
X78000Y190425D01*
X78048Y190444D01*
X78111Y190496D01*
X78180Y190539D01*
X78214Y190579D01*
X78254Y190611D01*
X78299Y190680D01*
X78352Y190742D01*
X78373Y190790D01*
X78401Y190832D01*
X78413Y190883D01*
X78457Y190987D01*
X78475Y191165D01*
X78485Y191209D01*
X78485Y198547D01*
X78482Y198567D01*
X78484Y198588D01*
X78462Y198699D01*
X78445Y198810D01*
X78436Y198828D01*
X78432Y198849D01*
X78408Y198888D01*
X78330Y199049D01*
X78253Y199131D01*
X78225Y199175D01*
X76453Y200947D01*
X76453Y204952D01*
X76466Y204968D01*
X76503Y205004D01*
X76544Y205075D01*
X76593Y205141D01*
X76610Y205190D01*
X76635Y205234D01*
X76653Y205314D01*
X76680Y205392D01*
X76682Y205444D01*
X76693Y205494D01*
X76686Y205576D01*
X76689Y205658D01*
X76676Y205707D01*
X76671Y205759D01*
X76641Y205835D01*
X76619Y205914D01*
X76592Y205958D01*
X76572Y206006D01*
X76521Y206069D01*
X76477Y206138D01*
X76437Y206172D01*
X76405Y206212D01*
X76337Y206257D01*
X76274Y206310D01*
X76227Y206331D01*
X76184Y206359D01*
X76133Y206371D01*
X76030Y206415D01*
X75851Y206433D01*
X75807Y206443D01*
X61417Y206443D01*
X61315Y206428D01*
X61213Y206420D01*
X61185Y206408D01*
X61154Y206403D01*
X61062Y206359D01*
X60966Y206321D01*
X60943Y206301D01*
X60915Y206288D01*
X60840Y206218D01*
X60760Y206153D01*
X60743Y206127D01*
X60721Y206106D01*
X60670Y206017D01*
X60613Y205932D01*
X60607Y205908D01*
X60589Y205876D01*
X60531Y205616D01*
X60534Y205578D01*
X60529Y205555D01*
X60529Y205501D01*
X59487Y204459D01*
X47466Y204459D01*
X47415Y204452D01*
X47363Y204453D01*
X47284Y204432D01*
X47203Y204419D01*
X47157Y204397D01*
X47107Y204383D01*
X47038Y204339D01*
X46964Y204304D01*
X46926Y204269D01*
X46883Y204241D01*
X46829Y204178D01*
X46769Y204122D01*
X46744Y204078D01*
X46710Y204038D01*
X46678Y203963D01*
X46638Y203892D01*
X46626Y203841D01*
X46606Y203794D01*
X46598Y203712D01*
X46580Y203632D01*
X46584Y203581D01*
X46579Y203529D01*
X46595Y203449D01*
X46601Y203367D01*
X46621Y203319D01*
X46631Y203269D01*
X46658Y203225D01*
X46700Y203120D01*
X46813Y202981D01*
X46838Y202943D01*
X56988Y192793D01*
X57005Y192780D01*
X57018Y192764D01*
X57112Y192702D01*
X57202Y192635D01*
X57222Y192628D01*
X57239Y192617D01*
X57284Y192607D01*
X57453Y192548D01*
X57566Y192544D01*
X57616Y192533D01*
X75017Y192533D01*
X76969Y190581D01*
X77010Y190551D01*
X77046Y190513D01*
X77117Y190472D01*
X77183Y190423D01*
X77232Y190406D01*
X77276Y190381D01*
X77356Y190363D01*
X77434Y190336D01*
X77486Y190334D01*
X77536Y190323D01*
X77618Y190330D01*
G37*
%LPC*%
G36*
X198855Y275242D02*
X198855Y275242D01*
X197162Y276935D01*
X197162Y277275D01*
X197147Y277377D01*
X197139Y277479D01*
X197127Y277507D01*
X197122Y277538D01*
X197078Y277630D01*
X197040Y277726D01*
X197020Y277749D01*
X197007Y277777D01*
X196937Y277852D01*
X196872Y277932D01*
X196846Y277949D01*
X196825Y277971D01*
X196736Y278022D01*
X196651Y278079D01*
X196627Y278085D01*
X196595Y278103D01*
X196335Y278161D01*
X196297Y278158D01*
X196274Y278163D01*
X178169Y278163D01*
X178149Y278160D01*
X178128Y278162D01*
X178017Y278140D01*
X177906Y278123D01*
X177888Y278114D01*
X177867Y278110D01*
X177828Y278086D01*
X177667Y278008D01*
X177585Y277931D01*
X177541Y277903D01*
X176243Y276605D01*
X172245Y276605D01*
X169417Y279433D01*
X169417Y283431D01*
X172245Y286259D01*
X176243Y286259D01*
X177473Y285029D01*
X177490Y285016D01*
X177503Y285000D01*
X177597Y284938D01*
X177687Y284871D01*
X177707Y284864D01*
X177724Y284853D01*
X177769Y284843D01*
X177938Y284784D01*
X178051Y284780D01*
X178101Y284769D01*
X196274Y284769D01*
X196376Y284784D01*
X196478Y284792D01*
X196506Y284804D01*
X196537Y284809D01*
X196629Y284853D01*
X196725Y284891D01*
X196748Y284911D01*
X196776Y284924D01*
X196851Y284994D01*
X196931Y285059D01*
X196948Y285085D01*
X196970Y285106D01*
X197021Y285195D01*
X197078Y285280D01*
X197084Y285304D01*
X197102Y285336D01*
X197160Y285596D01*
X197157Y285634D01*
X197162Y285657D01*
X197162Y285997D01*
X198855Y287690D01*
X207917Y287690D01*
X209610Y285997D01*
X209610Y276935D01*
X207917Y275242D01*
X198855Y275242D01*
G37*
%LPD*%
%LPC*%
G36*
X377511Y68636D02*
X377511Y68636D01*
X375818Y70329D01*
X375818Y79391D01*
X377511Y81084D01*
X377851Y81084D01*
X377953Y81099D01*
X378055Y81107D01*
X378083Y81119D01*
X378114Y81124D01*
X378206Y81168D01*
X378302Y81206D01*
X378325Y81226D01*
X378353Y81239D01*
X378428Y81309D01*
X378508Y81374D01*
X378525Y81400D01*
X378547Y81421D01*
X378598Y81510D01*
X378655Y81595D01*
X378661Y81619D01*
X378679Y81651D01*
X378737Y81911D01*
X378734Y81949D01*
X378739Y81972D01*
X378739Y82189D01*
X378736Y82209D01*
X378738Y82230D01*
X378716Y82341D01*
X378699Y82452D01*
X378690Y82470D01*
X378686Y82491D01*
X378662Y82530D01*
X378584Y82691D01*
X378507Y82773D01*
X378479Y82817D01*
X377189Y84107D01*
X377189Y88105D01*
X380017Y90933D01*
X384015Y90933D01*
X386843Y88105D01*
X386843Y84107D01*
X385605Y82869D01*
X385592Y82852D01*
X385576Y82839D01*
X385514Y82745D01*
X385447Y82655D01*
X385440Y82635D01*
X385429Y82618D01*
X385419Y82573D01*
X385360Y82404D01*
X385356Y82291D01*
X385345Y82241D01*
X385345Y81972D01*
X385360Y81870D01*
X385368Y81768D01*
X385380Y81740D01*
X385385Y81709D01*
X385429Y81617D01*
X385467Y81521D01*
X385487Y81498D01*
X385500Y81470D01*
X385570Y81395D01*
X385635Y81315D01*
X385661Y81298D01*
X385682Y81276D01*
X385771Y81225D01*
X385856Y81168D01*
X385880Y81162D01*
X385912Y81144D01*
X386172Y81086D01*
X386210Y81089D01*
X386233Y81084D01*
X386573Y81084D01*
X388266Y79391D01*
X388266Y70329D01*
X386573Y68636D01*
X377511Y68636D01*
G37*
%LPD*%
%LPC*%
G36*
X186723Y318769D02*
X186723Y318769D01*
X183895Y321597D01*
X183895Y325595D01*
X183927Y325627D01*
X183987Y325709D01*
X184054Y325788D01*
X184066Y325816D01*
X184084Y325841D01*
X184118Y325938D01*
X184158Y326032D01*
X184162Y326063D01*
X184172Y326092D01*
X184175Y326194D01*
X184186Y326296D01*
X184180Y326327D01*
X184181Y326357D01*
X184154Y326456D01*
X184134Y326557D01*
X184121Y326577D01*
X184111Y326614D01*
X183968Y326838D01*
X183939Y326863D01*
X183927Y326883D01*
X182278Y328531D01*
X182278Y337593D01*
X183971Y339286D01*
X193033Y339286D01*
X194726Y337593D01*
X194726Y328531D01*
X193297Y327103D01*
X193236Y327020D01*
X193170Y326942D01*
X193158Y326914D01*
X193140Y326889D01*
X193106Y326792D01*
X193066Y326697D01*
X193062Y326667D01*
X193052Y326638D01*
X193049Y326535D01*
X193038Y326433D01*
X193044Y326403D01*
X193043Y326372D01*
X193070Y326273D01*
X193090Y326172D01*
X193103Y326152D01*
X193113Y326116D01*
X193256Y325891D01*
X193285Y325867D01*
X193297Y325847D01*
X193549Y325595D01*
X193549Y321597D01*
X190721Y318769D01*
X186723Y318769D01*
G37*
%LPD*%
%LPC*%
G36*
X444173Y296041D02*
X444173Y296041D01*
X444173Y304805D01*
X452481Y304805D01*
X453127Y304632D01*
X453706Y304297D01*
X454179Y303824D01*
X454514Y303245D01*
X454687Y302599D01*
X454687Y296041D01*
X444173Y296041D01*
G37*
%LPD*%
%LPC*%
G36*
X430105Y296041D02*
X430105Y296041D01*
X430105Y302599D01*
X430278Y303245D01*
X430613Y303824D01*
X431086Y304297D01*
X431665Y304632D01*
X432311Y304805D01*
X440619Y304805D01*
X440619Y296041D01*
X430105Y296041D01*
G37*
%LPD*%
%LPC*%
G36*
X444173Y292487D02*
X444173Y292487D01*
X454687Y292487D01*
X454687Y285929D01*
X454514Y285283D01*
X454179Y284704D01*
X453706Y284231D01*
X453127Y283896D01*
X452481Y283723D01*
X444173Y283723D01*
X444173Y292487D01*
G37*
%LPD*%
%LPC*%
G36*
X432311Y283723D02*
X432311Y283723D01*
X431665Y283896D01*
X431086Y284231D01*
X430613Y284704D01*
X430278Y285283D01*
X430105Y285929D01*
X430105Y292487D01*
X440619Y292487D01*
X440619Y283723D01*
X432311Y283723D01*
G37*
%LPD*%
%LPC*%
G36*
X17281Y276919D02*
X17281Y276919D01*
X17281Y283683D01*
X25839Y283683D01*
X26485Y283510D01*
X27064Y283175D01*
X27537Y282702D01*
X27872Y282123D01*
X28045Y281477D01*
X28045Y276919D01*
X17281Y276919D01*
G37*
%LPD*%
%LPC*%
G36*
X17281Y332919D02*
X17281Y332919D01*
X17281Y339683D01*
X25839Y339683D01*
X26485Y339510D01*
X27064Y339175D01*
X27537Y338702D01*
X27872Y338123D01*
X28045Y337477D01*
X28045Y332919D01*
X17281Y332919D01*
G37*
%LPD*%
%LPC*%
G36*
X17027Y254015D02*
X17027Y254015D01*
X17027Y260779D01*
X25585Y260779D01*
X26231Y260606D01*
X26810Y260271D01*
X27283Y259798D01*
X27618Y259219D01*
X27791Y258573D01*
X27791Y254015D01*
X17027Y254015D01*
G37*
%LPD*%
%LPC*%
G36*
X17027Y198015D02*
X17027Y198015D01*
X17027Y204779D01*
X25585Y204779D01*
X26231Y204606D01*
X26810Y204271D01*
X27283Y203798D01*
X27618Y203219D01*
X27791Y202573D01*
X27791Y198015D01*
X17027Y198015D01*
G37*
%LPD*%
%LPC*%
G36*
X17027Y187697D02*
X17027Y187697D01*
X17027Y194461D01*
X27791Y194461D01*
X27791Y189903D01*
X27618Y189257D01*
X27283Y188678D01*
X26810Y188205D01*
X26231Y187870D01*
X25585Y187697D01*
X17027Y187697D01*
G37*
%LPD*%
%LPC*%
G36*
X17281Y322601D02*
X17281Y322601D01*
X17281Y329365D01*
X28045Y329365D01*
X28045Y324807D01*
X27872Y324161D01*
X27537Y323582D01*
X27064Y323109D01*
X26485Y322774D01*
X25839Y322601D01*
X17281Y322601D01*
G37*
%LPD*%
%LPC*%
G36*
X17281Y266601D02*
X17281Y266601D01*
X17281Y273365D01*
X28045Y273365D01*
X28045Y268807D01*
X27872Y268161D01*
X27537Y267582D01*
X27064Y267109D01*
X26485Y266774D01*
X25839Y266601D01*
X17281Y266601D01*
G37*
%LPD*%
%LPC*%
G36*
X17027Y243697D02*
X17027Y243697D01*
X17027Y250461D01*
X27791Y250461D01*
X27791Y245903D01*
X27618Y245257D01*
X27283Y244678D01*
X26810Y244205D01*
X26231Y243870D01*
X25585Y243697D01*
X17027Y243697D01*
G37*
%LPD*%
%LPC*%
G36*
X241509Y197227D02*
X241509Y197227D01*
X241509Y198767D01*
X241747Y199656D01*
X242207Y200452D01*
X242858Y201103D01*
X243654Y201563D01*
X244543Y201801D01*
X253703Y201801D01*
X253703Y197227D01*
X241509Y197227D01*
G37*
%LPD*%
%LPC*%
G36*
X257257Y197227D02*
X257257Y197227D01*
X257257Y201801D01*
X266417Y201801D01*
X267306Y201563D01*
X268102Y201103D01*
X268753Y200452D01*
X269213Y199656D01*
X269451Y198767D01*
X269451Y197227D01*
X257257Y197227D01*
G37*
%LPD*%
%LPC*%
G36*
X298477Y16777D02*
X298477Y16777D01*
X298477Y25006D01*
X299079Y24911D01*
X300600Y24416D01*
X302025Y23690D01*
X303319Y22750D01*
X304450Y21619D01*
X305390Y20325D01*
X306116Y18900D01*
X306611Y17379D01*
X306706Y16777D01*
X298477Y16777D01*
G37*
%LPD*%
%LPC*%
G36*
X286694Y16777D02*
X286694Y16777D01*
X286789Y17379D01*
X287284Y18900D01*
X288010Y20325D01*
X288950Y21619D01*
X290081Y22750D01*
X291375Y23690D01*
X292800Y24416D01*
X294321Y24911D01*
X294923Y25006D01*
X294923Y16777D01*
X286694Y16777D01*
G37*
%LPD*%
%LPC*%
G36*
X53753Y319641D02*
X53753Y319641D01*
X53753Y323683D01*
X59339Y323683D01*
X59985Y323510D01*
X60564Y323175D01*
X61037Y322702D01*
X61372Y322123D01*
X61545Y321477D01*
X61545Y319641D01*
X53753Y319641D01*
G37*
%LPD*%
%LPC*%
G36*
X53499Y240737D02*
X53499Y240737D01*
X53499Y244779D01*
X59085Y244779D01*
X59731Y244606D01*
X60310Y244271D01*
X60783Y243798D01*
X61118Y243219D01*
X61291Y242573D01*
X61291Y240737D01*
X53499Y240737D01*
G37*
%LPD*%
%LPC*%
G36*
X42963Y319641D02*
X42963Y319641D01*
X42963Y321477D01*
X43136Y322123D01*
X43471Y322702D01*
X43944Y323175D01*
X44523Y323510D01*
X45169Y323683D01*
X50755Y323683D01*
X50755Y319641D01*
X42963Y319641D01*
G37*
%LPD*%
%LPC*%
G36*
X355963Y9174D02*
X355963Y9174D01*
X355963Y13303D01*
X363267Y13303D01*
X363267Y11380D01*
X363094Y10734D01*
X362759Y10155D01*
X362286Y9682D01*
X361707Y9347D01*
X361061Y9174D01*
X355963Y9174D01*
G37*
%LPD*%
%LPC*%
G36*
X383569Y9182D02*
X383569Y9182D01*
X383569Y13311D01*
X390873Y13311D01*
X390873Y11388D01*
X390700Y10742D01*
X390365Y10163D01*
X389892Y9690D01*
X389313Y9355D01*
X388667Y9182D01*
X383569Y9182D01*
G37*
%LPD*%
%LPC*%
G36*
X375297Y9182D02*
X375297Y9182D01*
X374651Y9355D01*
X374072Y9690D01*
X373599Y10163D01*
X373264Y10742D01*
X373091Y11388D01*
X373091Y13311D01*
X380395Y13311D01*
X380395Y9182D01*
X375297Y9182D01*
G37*
%LPD*%
%LPC*%
G36*
X347691Y9174D02*
X347691Y9174D01*
X347045Y9347D01*
X346466Y9682D01*
X345993Y10155D01*
X345658Y10734D01*
X345485Y11380D01*
X345485Y13303D01*
X352789Y13303D01*
X352789Y9174D01*
X347691Y9174D01*
G37*
%LPD*%
%LPC*%
G36*
X125327Y92981D02*
X125327Y92981D01*
X125327Y98190D01*
X127365Y98190D01*
X128293Y97941D01*
X129126Y97460D01*
X129806Y96780D01*
X130287Y95947D01*
X130536Y95019D01*
X130536Y92981D01*
X125327Y92981D01*
G37*
%LPD*%
%LPC*%
G36*
X329565Y76533D02*
X329565Y76533D01*
X329565Y81742D01*
X331603Y81742D01*
X332531Y81493D01*
X333364Y81012D01*
X334044Y80332D01*
X334525Y79499D01*
X334774Y78571D01*
X334774Y76533D01*
X329565Y76533D01*
G37*
%LPD*%
%LPC*%
G36*
X206721Y334703D02*
X206721Y334703D01*
X206721Y339912D01*
X208759Y339912D01*
X209687Y339663D01*
X210520Y339182D01*
X211200Y338502D01*
X211681Y337669D01*
X211930Y336741D01*
X211930Y334703D01*
X206721Y334703D01*
G37*
%LPD*%
%LPC*%
G36*
X197958Y334703D02*
X197958Y334703D01*
X197958Y336741D01*
X198207Y337669D01*
X198688Y338502D01*
X199368Y339182D01*
X200201Y339663D01*
X201129Y339912D01*
X203167Y339912D01*
X203167Y334703D01*
X197958Y334703D01*
G37*
%LPD*%
%LPC*%
G36*
X206721Y325940D02*
X206721Y325940D01*
X206721Y331149D01*
X211930Y331149D01*
X211930Y329111D01*
X211681Y328183D01*
X211200Y327350D01*
X210520Y326670D01*
X209687Y326189D01*
X208759Y325940D01*
X206721Y325940D01*
G37*
%LPD*%
%LPC*%
G36*
X320802Y76533D02*
X320802Y76533D01*
X320802Y78571D01*
X321051Y79499D01*
X321532Y80332D01*
X322212Y81012D01*
X323045Y81493D01*
X323973Y81742D01*
X326011Y81742D01*
X326011Y76533D01*
X320802Y76533D01*
G37*
%LPD*%
%LPC*%
G36*
X329565Y67770D02*
X329565Y67770D01*
X329565Y72979D01*
X334774Y72979D01*
X334774Y70941D01*
X334525Y70013D01*
X334044Y69180D01*
X333364Y68500D01*
X332531Y68019D01*
X331603Y67770D01*
X329565Y67770D01*
G37*
%LPD*%
%LPC*%
G36*
X125327Y84218D02*
X125327Y84218D01*
X125327Y89427D01*
X130536Y89427D01*
X130536Y87389D01*
X130287Y86461D01*
X129806Y85628D01*
X129126Y84948D01*
X128293Y84467D01*
X127365Y84218D01*
X125327Y84218D01*
G37*
%LPD*%
%LPC*%
G36*
X201129Y325940D02*
X201129Y325940D01*
X200201Y326189D01*
X199368Y326670D01*
X198688Y327350D01*
X198207Y328183D01*
X197958Y329111D01*
X197958Y331149D01*
X203167Y331149D01*
X203167Y325940D01*
X201129Y325940D01*
G37*
%LPD*%
%LPC*%
G36*
X323973Y67770D02*
X323973Y67770D01*
X323045Y68019D01*
X322212Y68500D01*
X321532Y69180D01*
X321051Y70013D01*
X320802Y70941D01*
X320802Y72979D01*
X326011Y72979D01*
X326011Y67770D01*
X323973Y67770D01*
G37*
%LPD*%
%LPC*%
G36*
X442395Y294263D02*
X442395Y294263D01*
X442395Y294265D01*
X442397Y294265D01*
X442397Y294263D01*
X442395Y294263D01*
G37*
%LPD*%
%LPC*%
G36*
X204943Y332925D02*
X204943Y332925D01*
X204943Y332927D01*
X204945Y332927D01*
X204945Y332925D01*
X204943Y332925D01*
G37*
%LPD*%
%LPC*%
G36*
X327787Y74755D02*
X327787Y74755D01*
X327787Y74757D01*
X327789Y74757D01*
X327789Y74755D01*
X327787Y74755D01*
G37*
%LPD*%
D10*
X201610Y344832D02*
X201610Y351500D01*
X208278Y351500D01*
X208278Y344832D01*
X201610Y344832D01*
X201610Y346944D02*
X208278Y346944D01*
X208278Y349056D02*
X201610Y349056D01*
X201610Y351168D02*
X208278Y351168D01*
X201610Y336260D02*
X201610Y329592D01*
X201610Y336260D02*
X208278Y336260D01*
X208278Y329592D01*
X201610Y329592D01*
X201610Y331704D02*
X208278Y331704D01*
X208278Y333816D02*
X201610Y333816D01*
X201610Y335928D02*
X208278Y335928D01*
D11*
X328163Y234540D02*
X331339Y234540D01*
X331339Y231364D01*
X328163Y231364D01*
X328163Y234540D01*
X328163Y234380D02*
X331339Y234380D01*
X322449Y234540D02*
X319273Y234540D01*
X322449Y234540D02*
X322449Y231364D01*
X319273Y231364D01*
X319273Y234540D01*
X319273Y234380D02*
X322449Y234380D01*
X328163Y245970D02*
X331339Y245970D01*
X331339Y242794D01*
X328163Y242794D01*
X328163Y245970D01*
X328163Y245810D02*
X331339Y245810D01*
X322449Y245970D02*
X319273Y245970D01*
X322449Y245970D02*
X322449Y242794D01*
X319273Y242794D01*
X319273Y245970D01*
X319273Y245810D02*
X322449Y245810D01*
X328163Y257400D02*
X331339Y257400D01*
X331339Y254224D01*
X328163Y254224D01*
X328163Y257400D01*
X328163Y257240D02*
X331339Y257240D01*
X322449Y257400D02*
X319273Y257400D01*
X322449Y257400D02*
X322449Y254224D01*
X319273Y254224D01*
X319273Y257400D01*
X319273Y257240D02*
X322449Y257240D01*
X328163Y268830D02*
X331339Y268830D01*
X331339Y265654D01*
X328163Y265654D01*
X328163Y268830D01*
X328163Y268670D02*
X331339Y268670D01*
X322449Y268830D02*
X319273Y268830D01*
X322449Y268830D02*
X322449Y265654D01*
X319273Y265654D01*
X319273Y268830D01*
X319273Y268670D02*
X322449Y268670D01*
X328163Y280260D02*
X331339Y280260D01*
X331339Y277084D01*
X328163Y277084D01*
X328163Y280260D01*
X328163Y280100D02*
X331339Y280100D01*
X322449Y280260D02*
X319273Y280260D01*
X322449Y280260D02*
X322449Y277084D01*
X319273Y277084D01*
X319273Y280260D01*
X319273Y280100D02*
X322449Y280100D01*
X328163Y291690D02*
X331339Y291690D01*
X331339Y288514D01*
X328163Y288514D01*
X328163Y291690D01*
X328163Y291530D02*
X331339Y291530D01*
X322449Y291690D02*
X319273Y291690D01*
X322449Y291690D02*
X322449Y288514D01*
X319273Y288514D01*
X319273Y291690D01*
X319273Y291530D02*
X322449Y291530D01*
X328163Y303120D02*
X331339Y303120D01*
X331339Y299944D01*
X328163Y299944D01*
X328163Y303120D01*
X328163Y302960D02*
X331339Y302960D01*
X322449Y303120D02*
X319273Y303120D01*
X322449Y303120D02*
X322449Y299944D01*
X319273Y299944D01*
X319273Y303120D01*
X319273Y302960D02*
X322449Y302960D01*
X328163Y314550D02*
X331339Y314550D01*
X331339Y311374D01*
X328163Y311374D01*
X328163Y314550D01*
X328163Y314390D02*
X331339Y314390D01*
X322449Y314550D02*
X319273Y314550D01*
X322449Y314550D02*
X322449Y311374D01*
X319273Y311374D01*
X319273Y314550D01*
X319273Y314390D02*
X322449Y314390D01*
X328163Y325980D02*
X331339Y325980D01*
X331339Y322804D01*
X328163Y322804D01*
X328163Y325980D01*
X328163Y325820D02*
X331339Y325820D01*
X322449Y325980D02*
X319273Y325980D01*
X322449Y325980D02*
X322449Y322804D01*
X319273Y322804D01*
X319273Y325980D01*
X319273Y325820D02*
X322449Y325820D01*
X328163Y337410D02*
X331339Y337410D01*
X331339Y334234D01*
X328163Y334234D01*
X328163Y337410D01*
X328163Y337250D02*
X331339Y337250D01*
X322449Y337410D02*
X319273Y337410D01*
X322449Y337410D02*
X322449Y334234D01*
X319273Y334234D01*
X319273Y337410D01*
X319273Y337250D02*
X322449Y337250D01*
X328163Y348840D02*
X331339Y348840D01*
X331339Y345664D01*
X328163Y345664D01*
X328163Y348840D01*
X328163Y348680D02*
X331339Y348680D01*
X322449Y348840D02*
X319273Y348840D01*
X322449Y348840D02*
X322449Y345664D01*
X319273Y345664D01*
X319273Y348840D01*
X319273Y348680D02*
X322449Y348680D01*
X328163Y360270D02*
X331339Y360270D01*
X331339Y357094D01*
X328163Y357094D01*
X328163Y360270D01*
X328163Y360110D02*
X331339Y360110D01*
X322449Y360270D02*
X319273Y360270D01*
X322449Y360270D02*
X322449Y357094D01*
X319273Y357094D01*
X319273Y360270D01*
X319273Y360110D02*
X322449Y360110D01*
D10*
X221960Y284800D02*
X215292Y284800D01*
X221960Y284800D02*
X221960Y278132D01*
X215292Y278132D01*
X215292Y284800D01*
X215292Y280244D02*
X221960Y280244D01*
X221960Y282356D02*
X215292Y282356D01*
X215292Y284468D02*
X221960Y284468D01*
X206720Y284800D02*
X200052Y284800D01*
X206720Y284800D02*
X206720Y278132D01*
X200052Y278132D01*
X200052Y284800D01*
X200052Y280244D02*
X206720Y280244D01*
X206720Y282356D02*
X200052Y282356D01*
X200052Y284468D02*
X206720Y284468D01*
X191836Y329728D02*
X191836Y336396D01*
X191836Y329728D02*
X185168Y329728D01*
X185168Y336396D01*
X191836Y336396D01*
X191836Y331840D02*
X185168Y331840D01*
X185168Y333952D02*
X191836Y333952D01*
X191836Y336064D02*
X185168Y336064D01*
X191836Y344968D02*
X191836Y351636D01*
X191836Y344968D02*
X185168Y344968D01*
X185168Y351636D01*
X191836Y351636D01*
X191836Y347080D02*
X185168Y347080D01*
X185168Y349192D02*
X191836Y349192D01*
X191836Y351304D02*
X185168Y351304D01*
D12*
X281616Y288976D03*
X281616Y293476D03*
X281616Y297976D03*
X281616Y302476D03*
X281616Y306976D03*
D13*
X274616Y313976D03*
X270116Y313976D03*
X265616Y313976D03*
X261116Y313976D03*
X256616Y313976D03*
D12*
X249616Y306976D03*
X249616Y302476D03*
X249616Y297976D03*
X249616Y293476D03*
X249616Y288976D03*
D13*
X256616Y281976D03*
X261116Y281976D03*
X265616Y281976D03*
X270116Y281976D03*
X274616Y281976D03*
D14*
X265616Y297976D03*
D15*
X52254Y318142D03*
X52254Y308142D03*
X52254Y298142D03*
X52254Y288142D03*
D16*
X15504Y275142D03*
X15504Y331142D03*
D15*
X52000Y239238D03*
X52000Y229238D03*
X52000Y219238D03*
X52000Y209238D03*
D16*
X15250Y196238D03*
X15250Y252238D03*
D10*
X45434Y380908D02*
X52102Y380908D01*
X52102Y374240D01*
X45434Y374240D01*
X45434Y380908D01*
X45434Y376352D02*
X52102Y376352D01*
X52102Y378464D02*
X45434Y378464D01*
X45434Y380576D02*
X52102Y380576D01*
X36862Y380908D02*
X30194Y380908D01*
X36862Y380908D02*
X36862Y374240D01*
X30194Y374240D01*
X30194Y380908D01*
X30194Y376352D02*
X36862Y376352D01*
X36862Y378464D02*
X30194Y378464D01*
X30194Y380576D02*
X36862Y380576D01*
X45434Y364652D02*
X52102Y364652D01*
X52102Y357984D01*
X45434Y357984D01*
X45434Y364652D01*
X45434Y360096D02*
X52102Y360096D01*
X52102Y362208D02*
X45434Y362208D01*
X45434Y364320D02*
X52102Y364320D01*
X36862Y364652D02*
X30194Y364652D01*
X36862Y364652D02*
X36862Y357984D01*
X30194Y357984D01*
X30194Y364652D01*
X30194Y360096D02*
X36862Y360096D01*
X36862Y362208D02*
X30194Y362208D01*
X30194Y364320D02*
X36862Y364320D01*
D17*
X12446Y361318D03*
X12446Y369446D03*
X12446Y377574D03*
D18*
X12446Y369446D02*
X12446Y361064D01*
X12446Y369446D02*
X12446Y378082D01*
D19*
X265958Y109408D02*
X265958Y103692D01*
X245002Y103692D01*
X245002Y109408D01*
X265958Y109408D01*
X265958Y105502D02*
X245002Y105502D01*
X245002Y107312D02*
X265958Y107312D01*
X265958Y109122D02*
X245002Y109122D01*
X265958Y116392D02*
X265958Y122108D01*
X265958Y116392D02*
X245002Y116392D01*
X245002Y122108D01*
X265958Y122108D01*
X265958Y118202D02*
X245002Y118202D01*
X245002Y120012D02*
X265958Y120012D01*
X265958Y121822D02*
X245002Y121822D01*
X265958Y129092D02*
X265958Y134808D01*
X265958Y129092D02*
X245002Y129092D01*
X245002Y134808D01*
X265958Y134808D01*
X265958Y130902D02*
X245002Y130902D01*
X245002Y132712D02*
X265958Y132712D01*
X265958Y134522D02*
X245002Y134522D01*
X265958Y141792D02*
X265958Y147508D01*
X265958Y141792D02*
X245002Y141792D01*
X245002Y147508D01*
X265958Y147508D01*
X265958Y143602D02*
X245002Y143602D01*
X245002Y145412D02*
X265958Y145412D01*
X265958Y147222D02*
X245002Y147222D01*
X265958Y154492D02*
X265958Y160208D01*
X265958Y154492D02*
X245002Y154492D01*
X245002Y160208D01*
X265958Y160208D01*
X265958Y156302D02*
X245002Y156302D01*
X245002Y158112D02*
X265958Y158112D01*
X265958Y159922D02*
X245002Y159922D01*
X265958Y167192D02*
X265958Y172908D01*
X265958Y167192D02*
X245002Y167192D01*
X245002Y172908D01*
X265958Y172908D01*
X265958Y169002D02*
X245002Y169002D01*
X245002Y170812D02*
X265958Y170812D01*
X265958Y172622D02*
X245002Y172622D01*
X265958Y179892D02*
X265958Y185608D01*
X265958Y179892D02*
X245002Y179892D01*
X245002Y185608D01*
X265958Y185608D01*
X265958Y181702D02*
X245002Y181702D01*
X245002Y183512D02*
X265958Y183512D01*
X265958Y185322D02*
X245002Y185322D01*
X265958Y192592D02*
X265958Y198308D01*
X265958Y192592D02*
X245002Y192592D01*
X245002Y198308D01*
X265958Y198308D01*
X265958Y194402D02*
X245002Y194402D01*
X245002Y196212D02*
X265958Y196212D01*
X265958Y198022D02*
X245002Y198022D01*
X164358Y198308D02*
X164358Y192592D01*
X143402Y192592D01*
X143402Y198308D01*
X164358Y198308D01*
X164358Y194402D02*
X143402Y194402D01*
X143402Y196212D02*
X164358Y196212D01*
X164358Y198022D02*
X143402Y198022D01*
X164358Y185608D02*
X164358Y179892D01*
X143402Y179892D01*
X143402Y185608D01*
X164358Y185608D01*
X164358Y181702D02*
X143402Y181702D01*
X143402Y183512D02*
X164358Y183512D01*
X164358Y185322D02*
X143402Y185322D01*
X164358Y172908D02*
X164358Y167192D01*
X143402Y167192D01*
X143402Y172908D01*
X164358Y172908D01*
X164358Y169002D02*
X143402Y169002D01*
X143402Y170812D02*
X164358Y170812D01*
X164358Y172622D02*
X143402Y172622D01*
X164358Y160208D02*
X164358Y154492D01*
X143402Y154492D01*
X143402Y160208D01*
X164358Y160208D01*
X164358Y156302D02*
X143402Y156302D01*
X143402Y158112D02*
X164358Y158112D01*
X164358Y159922D02*
X143402Y159922D01*
X164358Y147508D02*
X164358Y141792D01*
X143402Y141792D01*
X143402Y147508D01*
X164358Y147508D01*
X164358Y143602D02*
X143402Y143602D01*
X143402Y145412D02*
X164358Y145412D01*
X164358Y147222D02*
X143402Y147222D01*
X164358Y134808D02*
X164358Y129092D01*
X143402Y129092D01*
X143402Y134808D01*
X164358Y134808D01*
X164358Y130902D02*
X143402Y130902D01*
X143402Y132712D02*
X164358Y132712D01*
X164358Y134522D02*
X143402Y134522D01*
X164358Y122108D02*
X164358Y116392D01*
X143402Y116392D01*
X143402Y122108D01*
X164358Y122108D01*
X164358Y118202D02*
X143402Y118202D01*
X143402Y120012D02*
X164358Y120012D01*
X164358Y121822D02*
X143402Y121822D01*
X164358Y109408D02*
X164358Y103692D01*
X143402Y103692D01*
X143402Y109408D01*
X164358Y109408D01*
X164358Y105502D02*
X143402Y105502D01*
X143402Y107312D02*
X164358Y107312D01*
X164358Y109122D02*
X143402Y109122D01*
D10*
X385376Y62954D02*
X385376Y56286D01*
X378708Y56286D01*
X378708Y62954D01*
X385376Y62954D01*
X385376Y58398D02*
X378708Y58398D01*
X378708Y60510D02*
X385376Y60510D01*
X385376Y62622D02*
X378708Y62622D01*
X385376Y71526D02*
X385376Y78194D01*
X385376Y71526D02*
X378708Y71526D01*
X378708Y78194D01*
X385376Y78194D01*
X385376Y73638D02*
X378708Y73638D01*
X378708Y75750D02*
X385376Y75750D01*
X385376Y77862D02*
X378708Y77862D01*
X357924Y62936D02*
X357924Y56268D01*
X351256Y56268D01*
X351256Y62936D01*
X357924Y62936D01*
X357924Y58380D02*
X351256Y58380D01*
X351256Y60492D02*
X357924Y60492D01*
X357924Y62604D02*
X351256Y62604D01*
X357924Y71508D02*
X357924Y78176D01*
X357924Y71508D02*
X351256Y71508D01*
X351256Y78176D01*
X357924Y78176D01*
X357924Y73620D02*
X351256Y73620D01*
X351256Y75732D02*
X357924Y75732D01*
X357924Y77844D02*
X351256Y77844D01*
X324454Y78090D02*
X324454Y71422D01*
X324454Y78090D02*
X331122Y78090D01*
X331122Y71422D01*
X324454Y71422D01*
X324454Y73534D02*
X331122Y73534D01*
X331122Y75646D02*
X324454Y75646D01*
X324454Y77758D02*
X331122Y77758D01*
X324454Y62850D02*
X324454Y56182D01*
X324454Y62850D02*
X331122Y62850D01*
X331122Y56182D01*
X324454Y56182D01*
X324454Y58294D02*
X331122Y58294D01*
X331122Y60406D02*
X324454Y60406D01*
X324454Y62518D02*
X331122Y62518D01*
D17*
X381982Y14898D03*
X381982Y23026D03*
X354376Y14890D03*
X354376Y23018D03*
X327818Y23118D03*
X327818Y14990D03*
D10*
X126884Y87870D02*
X126884Y94538D01*
X126884Y87870D02*
X120216Y87870D01*
X120216Y94538D01*
X126884Y94538D01*
X126884Y89982D02*
X120216Y89982D01*
X120216Y92094D02*
X126884Y92094D01*
X126884Y94206D02*
X120216Y94206D01*
X126884Y103110D02*
X126884Y109778D01*
X126884Y103110D02*
X120216Y103110D01*
X120216Y109778D01*
X126884Y109778D01*
X126884Y105222D02*
X120216Y105222D01*
X120216Y107334D02*
X126884Y107334D01*
X126884Y109446D02*
X120216Y109446D01*
D20*
X169700Y15000D03*
D21*
X195100Y15000D03*
X220500Y15000D03*
X245900Y15000D03*
X271300Y15000D03*
X296700Y15000D03*
D22*
X342166Y377980D03*
X360127Y360019D03*
X378087Y342059D03*
D23*
X409896Y272764D03*
X409896Y267764D03*
X409896Y262764D03*
X409896Y257764D03*
X409896Y252764D03*
X409896Y247764D03*
X409896Y242764D03*
X409896Y237764D03*
D24*
X442396Y294264D03*
X442396Y211264D03*
D23*
X409896Y232764D03*
D25*
X15240Y236220D03*
X15240Y223520D03*
X15240Y210820D03*
X53340Y259080D03*
X53340Y269240D03*
X160528Y312420D03*
X168148Y320040D03*
X175768Y327660D03*
X99568Y317500D03*
X109728Y317500D03*
X99568Y327660D03*
X119888Y317500D03*
X130048Y317500D03*
X15748Y289560D03*
X15748Y302260D03*
X15748Y314960D03*
X180848Y81280D03*
X180848Y66040D03*
X226568Y68580D03*
X234188Y48260D03*
X234188Y38100D03*
X340868Y53340D03*
X340868Y45720D03*
X340868Y38100D03*
X368808Y38100D03*
X368808Y45720D03*
X399288Y15240D03*
X284988Y40640D03*
X284988Y48260D03*
X312928Y35560D03*
X312928Y43180D03*
X312928Y50800D03*
X343408Y93980D03*
X325628Y99060D03*
X58928Y200660D03*
X74168Y195580D03*
X124968Y78740D03*
X130048Y73660D03*
X15748Y345440D03*
D26*
X44490Y308142D02*
X52254Y308142D01*
X38862Y302514D02*
X38862Y232410D01*
X38862Y226066D01*
X38862Y206248D01*
X38862Y302514D02*
X44490Y308142D01*
X52254Y308142D02*
X87884Y308142D01*
X92964Y308142D01*
X139486Y308142D01*
X179646Y348302D02*
X188502Y348302D01*
X179646Y348302D02*
X139486Y308142D01*
X188502Y348302D02*
X188638Y348166D01*
X204944Y348166D01*
D27*
X261116Y322322D02*
X261116Y313976D01*
D26*
X235272Y348166D02*
X204944Y348166D01*
X235272Y348166D02*
X261116Y322322D01*
X382042Y86080D02*
X382042Y74860D01*
X382042Y86080D02*
X382016Y86106D01*
D25*
X382016Y86106D03*
X354584Y86106D03*
D26*
X354584Y74848D01*
X354590Y74842D01*
X153774Y106444D02*
X123550Y106444D01*
X153774Y106444D02*
X153880Y106550D01*
X52000Y229238D02*
X42034Y229238D01*
X38862Y232410D01*
X42034Y229238D02*
X38862Y226066D01*
D25*
X207518Y56896D03*
D26*
X135128Y56896D01*
X112014Y80010D01*
X112014Y94908D01*
X123550Y106444D01*
X319274Y14990D02*
X327818Y14990D01*
X319274Y14990D02*
X301752Y32512D01*
X288812Y32512D02*
X271300Y15000D01*
X288812Y32512D02*
X301752Y32512D01*
X203386Y281466D02*
X174278Y281466D01*
X174244Y281432D01*
D25*
X174244Y281432D03*
X139486Y308142D03*
D26*
X63370Y369446D02*
X12446Y369446D01*
X87884Y308142D02*
X90424Y310682D01*
X90424Y342392D02*
X63370Y369446D01*
X90424Y342392D02*
X90424Y310682D01*
X92964Y308142D01*
X73649Y189230D02*
X55880Y189230D01*
X73649Y189230D02*
X123550Y139329D01*
X55880Y189230D02*
X38862Y206248D01*
X123550Y139329D02*
X123550Y106444D01*
D18*
X256616Y269384D02*
X256616Y281976D01*
X293048Y232952D02*
X320861Y232952D01*
X293048Y232952D02*
X256616Y269384D01*
X261116Y271034D02*
X261116Y281976D01*
X287768Y244382D02*
X320861Y244382D01*
X287768Y244382D02*
X261116Y271034D01*
X265616Y273084D02*
X265616Y281976D01*
X282888Y255812D02*
X320861Y255812D01*
X282888Y255812D02*
X265616Y273084D01*
X270116Y274680D02*
X270116Y281976D01*
X277554Y267242D02*
X320861Y267242D01*
X277554Y267242D02*
X270116Y274680D01*
X274616Y281976D02*
X317557Y281976D01*
X320861Y278672D01*
X319735Y288976D02*
X281616Y288976D01*
X319735Y288976D02*
X320861Y290102D01*
X312805Y293476D02*
X281616Y293476D01*
X312805Y293476D02*
X320861Y301532D01*
X305875Y297976D02*
X281616Y297976D01*
X305875Y297976D02*
X320861Y312962D01*
X298945Y302476D02*
X281616Y302476D01*
X298945Y302476D02*
X320861Y324392D01*
X292015Y306976D02*
X281616Y306976D01*
X292015Y306976D02*
X320861Y335822D01*
X287585Y313976D02*
X274616Y313976D01*
X287585Y313976D02*
X320861Y347252D01*
X320861Y358682D02*
X310121Y358682D01*
X270116Y318677D02*
X270116Y313976D01*
X270116Y318677D02*
X310121Y358682D01*
X218726Y281639D02*
X218626Y281466D01*
D25*
X236728Y144780D03*
D18*
X236858Y144650D02*
X255480Y144650D01*
X236858Y144650D02*
X236728Y144780D01*
D25*
X229616Y281178D03*
D18*
X219187Y281178D01*
X218726Y281639D01*
X237414Y288976D02*
X249616Y288976D01*
X237414Y288976D02*
X229616Y281178D01*
X249616Y302476D02*
X190064Y302476D01*
X188722Y301134D01*
D25*
X188722Y301134D03*
X188722Y323596D03*
D18*
X188722Y332842D01*
X188502Y333062D01*
X230762Y157350D02*
X255480Y157350D01*
X230762Y157350D02*
X230632Y157480D01*
D25*
X230632Y157480D03*
D18*
X164084Y297688D02*
X173372Y306976D01*
X164084Y297688D02*
X81280Y297688D01*
X173372Y306976D02*
X249616Y306976D01*
X52708Y297688D02*
X52254Y298142D01*
X52708Y297688D02*
X81280Y297688D01*
D25*
X81280Y297688D03*
X81280Y219202D03*
D18*
X52036Y219202D01*
X52000Y219238D01*
X137414Y119250D02*
X153880Y119250D01*
X81280Y187706D02*
X81280Y202946D01*
D25*
X81280Y202946D03*
D18*
X137414Y131572D02*
X137414Y119250D01*
X137414Y131572D02*
X81280Y187706D01*
X245900Y60932D02*
X245900Y15000D01*
X245900Y60932D02*
X187706Y119126D01*
D25*
X187706Y119126D03*
X137414Y119250D03*
D18*
X58798Y361318D02*
X48768Y361318D01*
X58798Y361318D02*
X58928Y361188D01*
D25*
X58928Y361188D03*
D18*
X91694Y288142D02*
X165206Y288142D01*
X91694Y288142D02*
X90170Y288142D01*
X170540Y293476D02*
X249616Y293476D01*
X170540Y293476D02*
X165206Y288142D01*
X88286Y288142D02*
X52254Y288142D01*
X88286Y288142D02*
X90170Y288142D01*
X90170Y207264D02*
X90170Y187198D01*
X90170Y207264D02*
X90170Y210820D01*
X90170Y286258D01*
X90170Y288142D01*
X90170Y286258D02*
X88286Y288142D01*
X90170Y286258D02*
X91694Y287782D01*
X91694Y288142D01*
X145418Y131950D02*
X153880Y131950D01*
X145418Y131950D02*
X90170Y187198D01*
X90170Y207264D02*
X88196Y209238D01*
X52000Y209238D01*
X88196Y209238D02*
X88588Y209238D01*
X90170Y210820D01*
X153880Y131950D02*
X164976Y131950D01*
X220500Y76426D02*
X220500Y15000D01*
X220500Y76426D02*
X164976Y131950D01*
X58798Y377574D02*
X48768Y377574D01*
X58798Y377574D02*
X58928Y377444D01*
D25*
X58928Y377444D03*
X90170Y288142D03*
D18*
X33528Y377574D02*
X12446Y377574D01*
X12446Y361318D02*
X33528Y361318D01*
X329751Y358682D02*
X329751Y365565D01*
X342166Y377980D01*
X347359Y347252D02*
X329751Y347252D01*
X347359Y347252D02*
X360127Y360019D01*
X371850Y335822D02*
X329751Y335822D01*
X371850Y335822D02*
X378087Y342059D01*
X381379Y272764D02*
X409896Y272764D01*
X381379Y272764D02*
X329751Y324392D01*
X374949Y267764D02*
X409896Y267764D01*
X374949Y267764D02*
X329751Y312962D01*
X368519Y262764D02*
X409896Y262764D01*
X368519Y262764D02*
X329751Y301532D01*
X362089Y257764D02*
X409896Y257764D01*
X362089Y257764D02*
X329751Y290102D01*
X355659Y252764D02*
X409896Y252764D01*
X355659Y252764D02*
X329751Y278672D01*
X349229Y247764D02*
X409896Y247764D01*
X349229Y247764D02*
X329751Y267242D01*
X342799Y242764D02*
X409896Y242764D01*
X342799Y242764D02*
X329751Y255812D01*
X336369Y237764D02*
X409896Y237764D01*
X336369Y237764D02*
X329751Y244382D01*
X329751Y232952D02*
X329939Y232764D01*
X409896Y232764D01*
X381982Y58928D02*
X381982Y23026D01*
X381982Y58928D02*
X381982Y59560D01*
X382042Y59620D01*
X343792Y106550D02*
X255480Y106550D01*
X369316Y81026D02*
X369316Y60960D01*
X371348Y58928D01*
X381982Y58928D01*
X369316Y81026D02*
X343792Y106550D01*
X354376Y59388D02*
X354376Y23018D01*
X354376Y59388D02*
X354590Y59602D01*
X255480Y119250D02*
X240916Y119250D01*
X232918Y111252D01*
X232918Y102870D01*
X333502Y89662D02*
X342900Y80264D01*
X342900Y64008D01*
X347306Y59602D02*
X354590Y59602D01*
X246126Y89662D02*
X232918Y102870D01*
X246126Y89662D02*
X333502Y89662D01*
X342900Y64008D02*
X347306Y59602D01*
X327818Y58674D02*
X327818Y23118D01*
X327818Y58674D02*
X327818Y59486D01*
X327788Y59516D01*
X255480Y131950D02*
X239138Y131950D01*
X227076Y119888D01*
X227076Y97790D01*
X266192Y58674D02*
X327818Y58674D01*
X266192Y58674D02*
X227076Y97790D01*
M02*
