M48
;GenerationSoftware,Autodesk,EAGLE,9.3.1*%
;CreationDate,2019-03-06T06:08:20Z*%
FMAT,2
ICI,OFF
METRIC,TZ,000.000
T4C0.305
T3C0.889
T2C1.016
T1C3.000
%
G90
M71
T1
X3000Y43640
X39775Y13820
X6865Y13820
X23320Y42320
X3000Y3000
X43640Y3000
X43640Y43640
T2
X37809Y34206
X34217Y37798
X36013Y36002
T3
X16970Y1500
X19510Y1500
X22050Y1500
X24590Y1500
X27130Y1500
X29670Y1500
T4
X18085Y8128
X18085Y6604
X22657Y6858
X23419Y4826
X23419Y3810
X34087Y5334
X34087Y4572
X34087Y3810
X36881Y3810
X36881Y4572
X39929Y1524
X28499Y4064
X28499Y4826
X31293Y3556
X31293Y4318
X31293Y5080
X34341Y9398
X32563Y9906
X5893Y20066
X7417Y19558
X10973Y31750
X13005Y7366
X1575Y34544
X38202Y8611
X35458Y8611
X20752Y5690
X17424Y28143
X13949Y30814
X23673Y14478
X22962Y28118
X18872Y30113
X18872Y32360
X23063Y15748
X8128Y29769
X8128Y21920
X8128Y20295
X18771Y11913
X13741Y11925
X1524Y23622
X5893Y37744
X9017Y28814
X1524Y22352
X1524Y21082
X5334Y25908
X5334Y26924
X16053Y31242
X16815Y32004
X12497Y7874
X17577Y32766
X9957Y31750
X9957Y32766
X11989Y31750
X13005Y31750
X1575Y28956
X1575Y30226
X1575Y31496
X5893Y36119
M30