G04 EAGLE Gerber RS-274X export*
G75*
%MOMM*%
%FSLAX34Y34*%
%LPD*%
%INSilkscreen Bottom*%
%IPPOS*%
%AMOC8*
5,1,8,0,0,1.08239X$1,22.5*%
G01*
%ADD10C,0.101600*%
%ADD11C,0.100000*%
%ADD12C,0.203200*%
%ADD13C,0.076200*%

G36*
X144131Y413827D02*
X144131Y413827D01*
X144130Y413828D01*
X144131Y413829D01*
X144131Y432539D01*
X144126Y432544D01*
X144126Y432549D01*
X143890Y432703D01*
X143889Y432703D01*
X142455Y433542D01*
X141022Y434378D01*
X139586Y435214D01*
X138150Y436048D01*
X136713Y436882D01*
X135277Y437716D01*
X133842Y438550D01*
X132404Y439384D01*
X130969Y440218D01*
X129555Y441039D01*
X128141Y441860D01*
X126730Y442683D01*
X123906Y444329D01*
X122496Y445155D01*
X121086Y445984D01*
X119680Y446814D01*
X118304Y447651D01*
X119838Y448336D01*
X121401Y449007D01*
X122968Y449675D01*
X124536Y450341D01*
X126103Y451004D01*
X127672Y451666D01*
X129241Y452328D01*
X130812Y452987D01*
X132418Y453662D01*
X134023Y454336D01*
X135629Y455011D01*
X137235Y455688D01*
X138840Y456363D01*
X140446Y457039D01*
X142050Y457718D01*
X143654Y458400D01*
X143656Y458405D01*
X143661Y458409D01*
X143659Y458411D01*
X143661Y458414D01*
X143654Y458417D01*
X143650Y458423D01*
X142004Y458531D01*
X142003Y458531D01*
X141669Y458535D01*
X141666Y458535D01*
X140560Y458546D01*
X140560Y458547D01*
X140557Y458547D01*
X140304Y458549D01*
X138881Y458558D01*
X138876Y458558D01*
X138605Y458560D01*
X136906Y458568D01*
X135585Y458570D01*
X135570Y458570D01*
X135207Y458571D01*
X133508Y458575D01*
X131809Y458577D01*
X130109Y458578D01*
X128410Y458580D01*
X126711Y458580D01*
X125012Y458582D01*
X121614Y458582D01*
X121495Y458582D01*
X121466Y458582D01*
X119895Y458584D01*
X114738Y458584D01*
X113019Y458586D01*
X109580Y458586D01*
X107861Y458588D01*
X102704Y458588D01*
X100985Y458589D01*
X100985Y458590D01*
X99266Y458590D01*
X99254Y458579D01*
X99255Y458578D01*
X99254Y458578D01*
X99254Y439790D01*
X99259Y439785D01*
X99260Y439780D01*
X100699Y438946D01*
X103581Y437274D01*
X105021Y436439D01*
X106462Y435605D01*
X107901Y434769D01*
X109342Y433933D01*
X110783Y433097D01*
X112223Y432262D01*
X113665Y431426D01*
X115108Y430588D01*
X116549Y429751D01*
X117991Y428911D01*
X119433Y428072D01*
X120875Y427233D01*
X122314Y426389D01*
X123753Y425546D01*
X125165Y424704D01*
X123524Y423989D01*
X121854Y423280D01*
X120185Y422574D01*
X118515Y421870D01*
X116843Y421166D01*
X115170Y420464D01*
X113499Y419761D01*
X111889Y419086D01*
X110278Y418410D01*
X108667Y417735D01*
X107058Y417060D01*
X105446Y416384D01*
X103835Y415709D01*
X100616Y414355D01*
X99419Y413849D01*
X99416Y413843D01*
X99411Y413839D01*
X99413Y413837D01*
X99412Y413835D01*
X99418Y413831D01*
X99423Y413826D01*
X104580Y413826D01*
X106298Y413824D01*
X113174Y413824D01*
X114893Y413822D01*
X121771Y413822D01*
X123490Y413820D01*
X130367Y413820D01*
X132086Y413819D01*
X138962Y413819D01*
X140681Y413817D01*
X144119Y413817D01*
X144131Y413827D01*
G37*
G36*
X108260Y389481D02*
X108260Y389481D01*
X108802Y389494D01*
X108803Y389494D01*
X110067Y389671D01*
X110067Y389672D01*
X110068Y389672D01*
X110069Y389672D01*
X111759Y390275D01*
X111760Y390277D01*
X111761Y390276D01*
X113308Y391189D01*
X113309Y391190D01*
X113310Y391190D01*
X114660Y392373D01*
X114660Y392375D01*
X114661Y392375D01*
X115746Y393754D01*
X115745Y393755D01*
X115747Y393756D01*
X116546Y395316D01*
X116546Y395317D01*
X116547Y395318D01*
X117011Y397010D01*
X117011Y397011D01*
X117012Y397012D01*
X117156Y398758D01*
X117155Y398759D01*
X117156Y398760D01*
X117021Y400552D01*
X117020Y400554D01*
X117020Y400555D01*
X116538Y402287D01*
X116536Y402288D01*
X116537Y402289D01*
X115732Y403876D01*
X115731Y403877D01*
X115731Y403878D01*
X114635Y405281D01*
X114634Y405281D01*
X114634Y405282D01*
X113295Y406458D01*
X113294Y406458D01*
X113294Y406460D01*
X111765Y407370D01*
X111763Y407370D01*
X111763Y407371D01*
X110091Y407988D01*
X110090Y407987D01*
X110089Y407988D01*
X108690Y408213D01*
X108689Y408213D01*
X108261Y408235D01*
X107886Y408254D01*
X107409Y408278D01*
X107273Y408285D01*
X107272Y408284D01*
X107272Y408285D01*
X105858Y408204D01*
X105857Y408203D01*
X105856Y408204D01*
X104091Y407750D01*
X104090Y407749D01*
X104089Y407750D01*
X102425Y407005D01*
X102424Y407004D01*
X102423Y407004D01*
X100914Y405984D01*
X100914Y405982D01*
X100912Y405982D01*
X99929Y404971D01*
X99929Y404970D01*
X99927Y404970D01*
X99114Y403817D01*
X99114Y403816D01*
X99113Y403816D01*
X98458Y402565D01*
X98458Y402564D01*
X98457Y402564D01*
X97986Y401234D01*
X97986Y401232D01*
X97985Y401232D01*
X97769Y399670D01*
X97770Y399669D01*
X97769Y399668D01*
X97769Y398088D01*
X97770Y398087D01*
X97769Y398086D01*
X97987Y396525D01*
X97988Y396524D01*
X97987Y396522D01*
X98549Y394951D01*
X98550Y394951D01*
X98550Y394950D01*
X99371Y393496D01*
X99372Y393495D01*
X99372Y393494D01*
X100434Y392208D01*
X100436Y392208D01*
X100436Y392207D01*
X101711Y391131D01*
X101712Y391131D01*
X101712Y391130D01*
X103155Y390294D01*
X103157Y390295D01*
X103157Y390294D01*
X104552Y389758D01*
X104554Y389758D01*
X104555Y389757D01*
X106029Y389508D01*
X106030Y389509D01*
X106030Y389508D01*
X107524Y389464D01*
X107525Y389465D01*
X107525Y389464D01*
X108260Y389481D01*
G37*
G36*
X144235Y389676D02*
X144235Y389676D01*
X144235Y389677D01*
X144233Y391219D01*
X144230Y392761D01*
X144226Y392765D01*
X144227Y392769D01*
X143228Y393930D01*
X142230Y395089D01*
X140233Y397412D01*
X139234Y398571D01*
X138236Y399733D01*
X137235Y400894D01*
X136237Y402053D01*
X135238Y403215D01*
X134257Y404355D01*
X135844Y404364D01*
X139070Y404382D01*
X140683Y404391D01*
X142296Y404400D01*
X143911Y404409D01*
X143923Y404420D01*
X143922Y404421D01*
X143923Y404421D01*
X143923Y407975D01*
X143912Y407986D01*
X143911Y407986D01*
X143911Y407987D01*
X128958Y407987D01*
X128947Y407976D01*
X128947Y407975D01*
X128946Y407975D01*
X128946Y404942D01*
X128950Y404939D01*
X128949Y404935D01*
X129951Y403768D01*
X130954Y402603D01*
X131956Y401436D01*
X132958Y400271D01*
X133960Y399106D01*
X134962Y397940D01*
X135965Y396775D01*
X136967Y395608D01*
X137969Y394443D01*
X138954Y393296D01*
X138746Y393295D01*
X138741Y393295D01*
X137310Y393287D01*
X136566Y393283D01*
X136561Y393283D01*
X135639Y393278D01*
X134385Y393271D01*
X134380Y393271D01*
X133969Y393268D01*
X132300Y393259D01*
X132208Y393259D01*
X132202Y393259D01*
X130628Y393250D01*
X129872Y393247D01*
X129865Y393247D01*
X128958Y393243D01*
X128946Y393232D01*
X128947Y393232D01*
X128946Y393231D01*
X128946Y389677D01*
X128957Y389666D01*
X128958Y389666D01*
X144223Y389666D01*
X144235Y389676D01*
G37*
G36*
X78797Y389465D02*
X78797Y389465D01*
X78798Y389464D01*
X80506Y389660D01*
X80507Y389662D01*
X80508Y389661D01*
X82077Y390215D01*
X82078Y390216D01*
X82079Y390216D01*
X83530Y391031D01*
X83530Y391033D01*
X83531Y391033D01*
X84802Y392104D01*
X84803Y392106D01*
X84804Y392106D01*
X85854Y393395D01*
X85854Y393397D01*
X85855Y393397D01*
X86658Y394855D01*
X86657Y394856D01*
X86659Y394856D01*
X87214Y396425D01*
X87214Y396427D01*
X87215Y396428D01*
X87387Y397644D01*
X87386Y397645D01*
X87387Y397645D01*
X87402Y398878D01*
X87401Y398878D01*
X87402Y398878D01*
X87372Y400215D01*
X87371Y400216D01*
X87372Y400217D01*
X87114Y401525D01*
X87113Y401526D01*
X87114Y401527D01*
X86547Y402999D01*
X86546Y403000D01*
X86546Y403001D01*
X85756Y404367D01*
X85755Y404367D01*
X85755Y404369D01*
X84744Y405579D01*
X84742Y405579D01*
X84742Y405581D01*
X83535Y406594D01*
X83534Y406594D01*
X83533Y406595D01*
X82167Y407382D01*
X82166Y407381D01*
X82165Y407382D01*
X80690Y407942D01*
X80688Y407941D01*
X80688Y407942D01*
X79128Y408230D01*
X79127Y408229D01*
X79126Y408230D01*
X79117Y408230D01*
X78804Y408242D01*
X78491Y408254D01*
X78178Y408266D01*
X78177Y408266D01*
X77865Y408278D01*
X77864Y408278D01*
X77551Y408290D01*
X77542Y408290D01*
X77541Y408290D01*
X75961Y408149D01*
X75960Y408149D01*
X75959Y408149D01*
X74611Y407853D01*
X74610Y407852D01*
X73318Y407364D01*
X73318Y407363D01*
X73317Y407363D01*
X72126Y406665D01*
X72126Y406663D01*
X72125Y406664D01*
X71035Y405815D01*
X71034Y405815D01*
X70676Y405508D01*
X70675Y405499D01*
X70674Y405498D01*
X70674Y405497D01*
X70674Y405492D01*
X70675Y405492D01*
X70675Y405491D01*
X71317Y404752D01*
X71957Y404015D01*
X73240Y402537D01*
X73247Y402536D01*
X73249Y402536D01*
X73256Y402535D01*
X73257Y402535D01*
X74006Y403098D01*
X75420Y403971D01*
X76995Y404493D01*
X78652Y404521D01*
X80232Y404023D01*
X81511Y403125D01*
X82460Y401884D01*
X83038Y400430D01*
X83237Y398876D01*
X83058Y397321D01*
X82498Y395859D01*
X81573Y394598D01*
X80507Y393764D01*
X79245Y393279D01*
X77895Y393140D01*
X76427Y393288D01*
X75051Y393812D01*
X73836Y394654D01*
X73164Y395208D01*
X73148Y395207D01*
X71853Y393901D01*
X71206Y393250D01*
X70558Y392597D01*
X70558Y392594D01*
X70558Y392593D01*
X70557Y392582D01*
X70559Y392582D01*
X70559Y392580D01*
X71237Y391955D01*
X71238Y391955D01*
X71238Y391954D01*
X72474Y390956D01*
X72475Y390956D01*
X72475Y390955D01*
X73854Y390170D01*
X73856Y390170D01*
X73856Y390169D01*
X75360Y389661D01*
X75361Y389661D01*
X75362Y389660D01*
X77072Y389468D01*
X77073Y389469D01*
X77073Y389468D01*
X78796Y389464D01*
X78797Y389465D01*
G37*
G36*
X59532Y389463D02*
X59532Y389463D01*
X59533Y389463D01*
X61281Y389664D01*
X61283Y389665D01*
X61284Y389664D01*
X62853Y390233D01*
X62854Y390235D01*
X62855Y390234D01*
X64293Y391081D01*
X64293Y391082D01*
X64294Y391082D01*
X65554Y392176D01*
X65555Y392177D01*
X65556Y392177D01*
X66596Y393481D01*
X66596Y393483D01*
X66598Y393483D01*
X67391Y394952D01*
X67391Y394953D01*
X67392Y394953D01*
X67915Y396539D01*
X67915Y396540D01*
X67916Y396541D01*
X67919Y396564D01*
X67926Y396612D01*
X67931Y396647D01*
X67933Y396659D01*
X67938Y396695D01*
X67940Y396707D01*
X67945Y396743D01*
X67952Y396791D01*
X67959Y396838D01*
X67960Y396838D01*
X67959Y396838D01*
X67967Y396886D01*
X67972Y396922D01*
X67974Y396934D01*
X67979Y396970D01*
X67981Y396982D01*
X67986Y397017D01*
X67993Y397065D01*
X68000Y397113D01*
X68007Y397161D01*
X68012Y397196D01*
X68012Y397197D01*
X68014Y397208D01*
X68019Y397244D01*
X68021Y397256D01*
X68026Y397292D01*
X68033Y397340D01*
X68040Y397387D01*
X68040Y397388D01*
X68047Y397435D01*
X68053Y397471D01*
X68054Y397483D01*
X68060Y397519D01*
X68061Y397531D01*
X68067Y397567D01*
X68074Y397614D01*
X68081Y397662D01*
X68088Y397710D01*
X68093Y397746D01*
X68095Y397758D01*
X68100Y397793D01*
X68102Y397805D01*
X68107Y397841D01*
X68114Y397889D01*
X68121Y397937D01*
X68128Y397984D01*
X68134Y398020D01*
X68135Y398032D01*
X68141Y398068D01*
X68142Y398080D01*
X68148Y398116D01*
X68155Y398163D01*
X68159Y398192D01*
X68158Y398194D01*
X68159Y398195D01*
X68115Y399862D01*
X68114Y399863D01*
X68115Y399864D01*
X67813Y401463D01*
X67812Y401464D01*
X67813Y401465D01*
X67253Y402992D01*
X67252Y402992D01*
X67252Y402994D01*
X66437Y404400D01*
X66435Y404400D01*
X66435Y404402D01*
X65380Y405638D01*
X65379Y405638D01*
X65379Y405639D01*
X64120Y406669D01*
X64119Y406669D01*
X64119Y406670D01*
X62699Y407464D01*
X62698Y407464D01*
X62698Y407465D01*
X61167Y408015D01*
X61165Y408014D01*
X61164Y408016D01*
X59398Y408244D01*
X59397Y408244D01*
X59396Y408244D01*
X58030Y408240D01*
X58019Y408240D01*
X57611Y408239D01*
X57611Y408238D01*
X57610Y408239D01*
X55843Y408010D01*
X55842Y408009D01*
X55841Y408010D01*
X54305Y407483D01*
X54304Y407482D01*
X54303Y407482D01*
X52873Y406718D01*
X52872Y406716D01*
X52871Y406717D01*
X52130Y406141D01*
X52130Y406140D01*
X52129Y406140D01*
X51476Y405476D01*
X51476Y405460D01*
X52267Y404471D01*
X52268Y404470D01*
X53105Y403515D01*
X53106Y403515D01*
X53987Y402604D01*
X54001Y402603D01*
X54003Y402603D01*
X54785Y403155D01*
X55956Y403915D01*
X57259Y404404D01*
X58646Y404541D01*
X60101Y404347D01*
X61440Y403756D01*
X62540Y402791D01*
X63330Y401556D01*
X63797Y400220D01*
X63914Y398809D01*
X63724Y397221D01*
X63133Y395737D01*
X62144Y394483D01*
X60825Y393585D01*
X59869Y393230D01*
X58848Y393155D01*
X57290Y393237D01*
X55830Y393768D01*
X54545Y394650D01*
X53826Y395214D01*
X53810Y395213D01*
X52592Y393989D01*
X51372Y392654D01*
X51372Y392638D01*
X52215Y391729D01*
X52216Y391728D01*
X53176Y390937D01*
X53178Y390938D01*
X53178Y390936D01*
X54550Y390192D01*
X54551Y390192D01*
X54551Y390191D01*
X56020Y389668D01*
X56022Y389669D01*
X56023Y389667D01*
X57769Y389464D01*
X57770Y389465D01*
X57770Y389464D01*
X59532Y389463D01*
X59532Y389463D01*
G37*
%LPC*%
G36*
X106066Y393252D02*
X106066Y393252D01*
X104718Y393795D01*
X103576Y394697D01*
X102704Y395863D01*
X102151Y397208D01*
X101997Y398778D01*
X102138Y400269D01*
X102656Y401669D01*
X103549Y402868D01*
X104789Y403846D01*
X106257Y404426D01*
X107830Y404566D01*
X108258Y404483D01*
X109379Y404260D01*
X110862Y403415D01*
X111997Y402134D01*
X112707Y400576D01*
X112948Y398882D01*
X112707Y397128D01*
X111970Y395520D01*
X110762Y394228D01*
X109205Y393387D01*
X108258Y393237D01*
X107645Y393142D01*
X106066Y393252D01*
G37*
%LPD*%
G36*
X124998Y389676D02*
X124998Y389676D01*
X124997Y389677D01*
X124998Y389677D01*
X124998Y407975D01*
X124988Y407986D01*
X124987Y407986D01*
X124986Y407987D01*
X120908Y407987D01*
X120896Y407976D01*
X120897Y407975D01*
X120896Y407975D01*
X120896Y389677D01*
X120906Y389666D01*
X120907Y389666D01*
X120908Y389666D01*
X124986Y389666D01*
X124998Y389676D01*
G37*
G36*
X94677Y389676D02*
X94677Y389676D01*
X94676Y389677D01*
X94677Y389677D01*
X94677Y393860D01*
X94666Y393872D01*
X94665Y393871D01*
X94665Y393872D01*
X90482Y393872D01*
X90470Y393861D01*
X90471Y393861D01*
X90470Y393860D01*
X90470Y389677D01*
X90481Y389666D01*
X90482Y389666D01*
X94665Y389666D01*
X94677Y389676D01*
G37*
D10*
X299981Y38359D02*
X301506Y36834D01*
X301506Y33783D01*
X299981Y32258D01*
X293879Y32258D01*
X292354Y33783D01*
X292354Y36834D01*
X293879Y38359D01*
X296930Y38359D01*
X296930Y35309D01*
X292354Y41613D02*
X301506Y41613D01*
X292354Y47714D01*
X301506Y47714D01*
X301506Y50968D02*
X292354Y50968D01*
X292354Y55544D01*
X293879Y57070D01*
X299981Y57070D01*
X301506Y55544D01*
X301506Y50968D01*
X276106Y33783D02*
X274581Y32258D01*
X276106Y33783D02*
X276106Y36834D01*
X274581Y38359D01*
X273055Y38359D01*
X271530Y36834D01*
X271530Y35309D01*
X271530Y36834D02*
X270005Y38359D01*
X268479Y38359D01*
X266954Y36834D01*
X266954Y33783D01*
X268479Y32258D01*
X270005Y41613D02*
X276106Y41613D01*
X270005Y41613D02*
X266954Y44664D01*
X270005Y47714D01*
X276106Y47714D01*
X274581Y50968D02*
X276106Y52494D01*
X276106Y55544D01*
X274581Y57070D01*
X273055Y57070D01*
X271530Y55544D01*
X271530Y54019D01*
X271530Y55544D02*
X270005Y57070D01*
X268479Y57070D01*
X266954Y55544D01*
X266954Y52494D01*
X268479Y50968D01*
X250198Y36834D02*
X248673Y38359D01*
X250198Y36834D02*
X250198Y33783D01*
X248673Y32258D01*
X247147Y32258D01*
X245622Y33783D01*
X245622Y36834D01*
X244097Y38359D01*
X242571Y38359D01*
X241046Y36834D01*
X241046Y33783D01*
X242571Y32258D01*
X241046Y41613D02*
X250198Y41613D01*
X241046Y41613D02*
X241046Y46189D01*
X242571Y47714D01*
X248673Y47714D01*
X250198Y46189D01*
X250198Y41613D01*
X247147Y50968D02*
X241046Y50968D01*
X247147Y50968D02*
X250198Y54019D01*
X247147Y57070D01*
X241046Y57070D01*
X245622Y57070D02*
X245622Y50968D01*
X225052Y36834D02*
X223527Y38359D01*
X225052Y36834D02*
X225052Y33783D01*
X223527Y32258D01*
X222001Y32258D01*
X220476Y33783D01*
X220476Y36834D01*
X218951Y38359D01*
X217425Y38359D01*
X215900Y36834D01*
X215900Y33783D01*
X217425Y32258D01*
X225052Y46189D02*
X223527Y47714D01*
X225052Y46189D02*
X225052Y43138D01*
X223527Y41613D01*
X217425Y41613D01*
X215900Y43138D01*
X215900Y46189D01*
X217425Y47714D01*
X215900Y50968D02*
X225052Y50968D01*
X215900Y50968D02*
X215900Y57070D01*
X198127Y38359D02*
X199652Y36834D01*
X199652Y33783D01*
X198127Y32258D01*
X192025Y32258D01*
X190500Y33783D01*
X190500Y36834D01*
X192025Y38359D01*
X190500Y41613D02*
X199652Y41613D01*
X195076Y41613D02*
X195076Y47714D01*
X199652Y47714D02*
X190500Y47714D01*
X199652Y55544D02*
X198127Y57070D01*
X199652Y55544D02*
X199652Y52494D01*
X198127Y50968D01*
X192025Y50968D01*
X190500Y52494D01*
X190500Y55544D01*
X192025Y57070D01*
X195076Y57070D01*
X195076Y54019D01*
X174252Y32258D02*
X165100Y32258D01*
X174252Y32258D02*
X174252Y36834D01*
X172727Y38359D01*
X169676Y38359D01*
X168151Y36834D01*
X168151Y32258D01*
X168151Y35309D02*
X165100Y38359D01*
X174252Y46189D02*
X172727Y47714D01*
X174252Y46189D02*
X174252Y43138D01*
X172727Y41613D01*
X171201Y41613D01*
X169676Y43138D01*
X169676Y46189D01*
X168151Y47714D01*
X166625Y47714D01*
X165100Y46189D01*
X165100Y43138D01*
X166625Y41613D01*
X165100Y54019D02*
X174252Y54019D01*
X174252Y50968D02*
X174252Y57070D01*
X454414Y88646D02*
X454414Y94747D01*
X452889Y94747D01*
X446787Y88646D01*
X445262Y88646D01*
X445262Y94747D01*
X451363Y98001D02*
X451363Y99526D01*
X445262Y99526D01*
X445262Y98001D02*
X445262Y101052D01*
X454414Y99526D02*
X455939Y99526D01*
X445262Y105763D02*
X445262Y108814D01*
X446787Y110339D01*
X449838Y110339D01*
X451363Y108814D01*
X451363Y105763D01*
X449838Y104238D01*
X446787Y104238D01*
X445262Y105763D01*
X446787Y122948D02*
X452889Y122948D01*
X454414Y124474D01*
X454414Y127524D01*
X452889Y129050D01*
X446787Y129050D01*
X445262Y127524D01*
X445262Y124474D01*
X446787Y122948D01*
X448313Y125999D02*
X445262Y129050D01*
X446787Y132304D02*
X451363Y132304D01*
X446787Y132304D02*
X445262Y133829D01*
X446787Y135354D01*
X445262Y136879D01*
X446787Y138405D01*
X451363Y138405D01*
X451363Y141659D02*
X451363Y143184D01*
X445262Y143184D01*
X445262Y141659D02*
X445262Y144709D01*
X454414Y143184D02*
X455939Y143184D01*
X451363Y147896D02*
X451363Y149421D01*
X445262Y149421D01*
X445262Y147896D02*
X445262Y150946D01*
X454414Y149421D02*
X455939Y149421D01*
X451363Y155658D02*
X451363Y160233D01*
X451363Y155658D02*
X449838Y154132D01*
X446787Y154132D01*
X445262Y155658D01*
X445262Y160233D01*
X454414Y177419D02*
X452889Y178944D01*
X454414Y177419D02*
X454414Y174368D01*
X452889Y172843D01*
X446787Y172843D01*
X445262Y174368D01*
X445262Y177419D01*
X446787Y178944D01*
X451363Y183723D02*
X451363Y186774D01*
X449838Y188299D01*
X445262Y188299D01*
X445262Y183723D01*
X446787Y182198D01*
X448313Y183723D01*
X448313Y188299D01*
X451363Y191553D02*
X442211Y191553D01*
X451363Y191553D02*
X451363Y196129D01*
X449838Y197654D01*
X446787Y197654D01*
X445262Y196129D01*
X445262Y191553D01*
X451363Y202434D02*
X451363Y205484D01*
X449838Y207009D01*
X445262Y207009D01*
X445262Y202434D01*
X446787Y200908D01*
X448313Y202434D01*
X448313Y207009D01*
X451363Y211789D02*
X451363Y216365D01*
X451363Y211789D02*
X449838Y210263D01*
X446787Y210263D01*
X445262Y211789D01*
X445262Y216365D01*
X451363Y219619D02*
X451363Y221144D01*
X445262Y221144D01*
X445262Y219619D02*
X445262Y222669D01*
X454414Y221144D02*
X455939Y221144D01*
X452889Y227381D02*
X446787Y227381D01*
X445262Y228906D01*
X451363Y228906D02*
X451363Y225855D01*
X451363Y232092D02*
X451363Y233617D01*
X445262Y233617D01*
X445262Y232092D02*
X445262Y235143D01*
X454414Y233617D02*
X455939Y233617D01*
X451363Y238329D02*
X445262Y241380D01*
X451363Y244430D01*
X445262Y249209D02*
X445262Y252260D01*
X445262Y249209D02*
X446787Y247684D01*
X449838Y247684D01*
X451363Y249209D01*
X451363Y252260D01*
X449838Y253785D01*
X448313Y253785D01*
X448313Y247684D01*
X445262Y269445D02*
X454414Y269445D01*
X454414Y266395D02*
X454414Y272496D01*
X445262Y277275D02*
X445262Y280326D01*
X446787Y281851D01*
X449838Y281851D01*
X451363Y280326D01*
X451363Y277275D01*
X449838Y275750D01*
X446787Y275750D01*
X445262Y277275D01*
X446787Y285105D02*
X451363Y285105D01*
X446787Y285105D02*
X445262Y286630D01*
X445262Y291206D01*
X451363Y291206D01*
X451363Y295985D02*
X451363Y300561D01*
X451363Y295985D02*
X449838Y294460D01*
X446787Y294460D01*
X445262Y295985D01*
X445262Y300561D01*
X445262Y303815D02*
X454414Y303815D01*
X451363Y305341D02*
X449838Y303815D01*
X451363Y305341D02*
X451363Y308391D01*
X449838Y309916D01*
X445262Y309916D01*
X454414Y327102D02*
X452889Y328627D01*
X454414Y327102D02*
X454414Y324051D01*
X452889Y322526D01*
X451363Y322526D01*
X449838Y324051D01*
X449838Y327102D01*
X448313Y328627D01*
X446787Y328627D01*
X445262Y327102D01*
X445262Y324051D01*
X446787Y322526D01*
X445262Y333406D02*
X445262Y336457D01*
X445262Y333406D02*
X446787Y331881D01*
X449838Y331881D01*
X451363Y333406D01*
X451363Y336457D01*
X449838Y337982D01*
X448313Y337982D01*
X448313Y331881D01*
X445262Y341236D02*
X451363Y341236D01*
X451363Y345812D01*
X449838Y347337D01*
X445262Y347337D01*
X445262Y350591D02*
X445262Y355167D01*
X446787Y356692D01*
X448313Y355167D01*
X448313Y352116D01*
X449838Y350591D01*
X451363Y352116D01*
X451363Y356692D01*
X445262Y361472D02*
X445262Y364522D01*
X445262Y361472D02*
X446787Y359946D01*
X449838Y359946D01*
X451363Y361472D01*
X451363Y364522D01*
X449838Y366048D01*
X448313Y366048D01*
X448313Y359946D01*
X445262Y369302D02*
X451363Y369302D01*
X448313Y369302D02*
X451363Y372352D01*
X451363Y373877D01*
D11*
X183200Y233200D02*
X183215Y234427D01*
X183260Y235653D01*
X183335Y236878D01*
X183441Y238101D01*
X183576Y239321D01*
X183741Y240537D01*
X183936Y241748D01*
X184161Y242955D01*
X184415Y244155D01*
X184698Y245349D01*
X185011Y246536D01*
X185353Y247714D01*
X185724Y248884D01*
X186123Y250044D01*
X186550Y251195D01*
X187006Y252334D01*
X187490Y253462D01*
X188001Y254578D01*
X188539Y255681D01*
X189104Y256770D01*
X189696Y257845D01*
X190314Y258905D01*
X190957Y259950D01*
X191627Y260979D01*
X192321Y261990D01*
X193040Y262985D01*
X193783Y263962D01*
X194549Y264920D01*
X195340Y265859D01*
X196152Y266778D01*
X196988Y267677D01*
X197845Y268555D01*
X198723Y269412D01*
X199622Y270248D01*
X200541Y271060D01*
X201480Y271851D01*
X202438Y272617D01*
X203415Y273360D01*
X204410Y274079D01*
X205421Y274773D01*
X206450Y275443D01*
X207495Y276086D01*
X208555Y276704D01*
X209630Y277296D01*
X210719Y277861D01*
X211822Y278399D01*
X212938Y278910D01*
X214066Y279394D01*
X215205Y279850D01*
X216356Y280277D01*
X217516Y280676D01*
X218686Y281047D01*
X219864Y281389D01*
X221051Y281702D01*
X222245Y281985D01*
X223445Y282239D01*
X224652Y282464D01*
X225863Y282659D01*
X227079Y282824D01*
X228299Y282959D01*
X229522Y283065D01*
X230747Y283140D01*
X231973Y283185D01*
X233200Y283200D01*
X234427Y283185D01*
X235653Y283140D01*
X236878Y283065D01*
X238101Y282959D01*
X239321Y282824D01*
X240537Y282659D01*
X241748Y282464D01*
X242955Y282239D01*
X244155Y281985D01*
X245349Y281702D01*
X246536Y281389D01*
X247714Y281047D01*
X248884Y280676D01*
X250044Y280277D01*
X251195Y279850D01*
X252334Y279394D01*
X253462Y278910D01*
X254578Y278399D01*
X255681Y277861D01*
X256770Y277296D01*
X257845Y276704D01*
X258905Y276086D01*
X259950Y275443D01*
X260979Y274773D01*
X261990Y274079D01*
X262985Y273360D01*
X263962Y272617D01*
X264920Y271851D01*
X265859Y271060D01*
X266778Y270248D01*
X267677Y269412D01*
X268555Y268555D01*
X269412Y267677D01*
X270248Y266778D01*
X271060Y265859D01*
X271851Y264920D01*
X272617Y263962D01*
X273360Y262985D01*
X274079Y261990D01*
X274773Y260979D01*
X275443Y259950D01*
X276086Y258905D01*
X276704Y257845D01*
X277296Y256770D01*
X277861Y255681D01*
X278399Y254578D01*
X278910Y253462D01*
X279394Y252334D01*
X279850Y251195D01*
X280277Y250044D01*
X280676Y248884D01*
X281047Y247714D01*
X281389Y246536D01*
X281702Y245349D01*
X281985Y244155D01*
X282239Y242955D01*
X282464Y241748D01*
X282659Y240537D01*
X282824Y239321D01*
X282959Y238101D01*
X283065Y236878D01*
X283140Y235653D01*
X283185Y234427D01*
X283200Y233200D01*
X283185Y231973D01*
X283140Y230747D01*
X283065Y229522D01*
X282959Y228299D01*
X282824Y227079D01*
X282659Y225863D01*
X282464Y224652D01*
X282239Y223445D01*
X281985Y222245D01*
X281702Y221051D01*
X281389Y219864D01*
X281047Y218686D01*
X280676Y217516D01*
X280277Y216356D01*
X279850Y215205D01*
X279394Y214066D01*
X278910Y212938D01*
X278399Y211822D01*
X277861Y210719D01*
X277296Y209630D01*
X276704Y208555D01*
X276086Y207495D01*
X275443Y206450D01*
X274773Y205421D01*
X274079Y204410D01*
X273360Y203415D01*
X272617Y202438D01*
X271851Y201480D01*
X271060Y200541D01*
X270248Y199622D01*
X269412Y198723D01*
X268555Y197845D01*
X267677Y196988D01*
X266778Y196152D01*
X265859Y195340D01*
X264920Y194549D01*
X263962Y193783D01*
X262985Y193040D01*
X261990Y192321D01*
X260979Y191627D01*
X259950Y190957D01*
X258905Y190314D01*
X257845Y189696D01*
X256770Y189104D01*
X255681Y188539D01*
X254578Y188001D01*
X253462Y187490D01*
X252334Y187006D01*
X251195Y186550D01*
X250044Y186123D01*
X248884Y185724D01*
X247714Y185353D01*
X246536Y185011D01*
X245349Y184698D01*
X244155Y184415D01*
X242955Y184161D01*
X241748Y183936D01*
X240537Y183741D01*
X239321Y183576D01*
X238101Y183441D01*
X236878Y183335D01*
X235653Y183260D01*
X234427Y183215D01*
X233200Y183200D01*
X231973Y183215D01*
X230747Y183260D01*
X229522Y183335D01*
X228299Y183441D01*
X227079Y183576D01*
X225863Y183741D01*
X224652Y183936D01*
X223445Y184161D01*
X222245Y184415D01*
X221051Y184698D01*
X219864Y185011D01*
X218686Y185353D01*
X217516Y185724D01*
X216356Y186123D01*
X215205Y186550D01*
X214066Y187006D01*
X212938Y187490D01*
X211822Y188001D01*
X210719Y188539D01*
X209630Y189104D01*
X208555Y189696D01*
X207495Y190314D01*
X206450Y190957D01*
X205421Y191627D01*
X204410Y192321D01*
X203415Y193040D01*
X202438Y193783D01*
X201480Y194549D01*
X200541Y195340D01*
X199622Y196152D01*
X198723Y196988D01*
X197845Y197845D01*
X196988Y198723D01*
X196152Y199622D01*
X195340Y200541D01*
X194549Y201480D01*
X193783Y202438D01*
X193040Y203415D01*
X192321Y204410D01*
X191627Y205421D01*
X190957Y206450D01*
X190314Y207495D01*
X189696Y208555D01*
X189104Y209630D01*
X188539Y210719D01*
X188001Y211822D01*
X187490Y212938D01*
X187006Y214066D01*
X186550Y215205D01*
X186123Y216356D01*
X185724Y217516D01*
X185353Y218686D01*
X185011Y219864D01*
X184698Y221051D01*
X184415Y222245D01*
X184161Y223445D01*
X183936Y224652D01*
X183741Y225863D01*
X183576Y227079D01*
X183441Y228299D01*
X183335Y229522D01*
X183260Y230747D01*
X183215Y231973D01*
X183200Y233200D01*
X262720Y400617D02*
X265421Y400348D01*
X268115Y400015D01*
X270800Y399618D01*
X273475Y399158D01*
X276139Y398633D01*
X278789Y398046D01*
X281424Y397395D01*
X284044Y396682D01*
X286645Y395907D01*
X289227Y395070D01*
X291789Y394173D01*
X294329Y393214D01*
X296845Y392195D01*
X299336Y391116D01*
X301800Y389979D01*
X304237Y388783D01*
X306645Y387530D01*
X309022Y386220D01*
X311368Y384853D01*
X313680Y383431D01*
X315958Y381954D01*
X318200Y380424D01*
X332698Y395065D01*
X332876Y395273D01*
X333058Y395477D01*
X333245Y395676D01*
X333437Y395870D01*
X333634Y396060D01*
X333835Y396245D01*
X334040Y396426D01*
X334250Y396601D01*
X334464Y396771D01*
X334682Y396936D01*
X334904Y397095D01*
X335130Y397250D01*
X335359Y397398D01*
X335592Y397541D01*
X335829Y397679D01*
X336068Y397810D01*
X336311Y397936D01*
X336556Y398056D01*
X336805Y398170D01*
X337056Y398278D01*
X337310Y398380D01*
X337566Y398475D01*
X337824Y398565D01*
X338085Y398648D01*
X338347Y398725D01*
X338611Y398795D01*
X338877Y398859D01*
X339144Y398917D01*
X339413Y398968D01*
X339682Y399013D01*
X339953Y399051D01*
X340225Y399082D01*
X340497Y399107D01*
X340769Y399126D01*
X341043Y399138D01*
X341316Y399143D01*
X341589Y399141D01*
X341862Y399133D01*
X342135Y399119D01*
X342408Y399098D01*
X342680Y399070D01*
X342951Y399035D01*
X343221Y398995D01*
X343491Y398947D01*
X343759Y398893D01*
X344025Y398833D01*
X344290Y398766D01*
X344554Y398693D01*
X344815Y398614D01*
X345075Y398528D01*
X345332Y398436D01*
X345587Y398337D01*
X345840Y398233D01*
X346090Y398123D01*
X346337Y398006D01*
X346582Y397884D01*
X346823Y397756D01*
X347061Y397621D01*
X347296Y397482D01*
X347528Y397336D01*
X347756Y397185D01*
X347980Y397029D01*
X348200Y396867D01*
X348417Y396700D01*
X348629Y396528D01*
X396528Y348629D01*
X396700Y348417D01*
X396867Y348200D01*
X397029Y347980D01*
X397185Y347756D01*
X397336Y347528D01*
X397482Y347296D01*
X397621Y347061D01*
X397756Y346823D01*
X397884Y346582D01*
X398006Y346337D01*
X398123Y346090D01*
X398233Y345840D01*
X398337Y345587D01*
X398436Y345332D01*
X398528Y345075D01*
X398614Y344815D01*
X398693Y344554D01*
X398766Y344290D01*
X398833Y344025D01*
X398893Y343759D01*
X398947Y343491D01*
X398995Y343221D01*
X399035Y342951D01*
X399070Y342680D01*
X399098Y342408D01*
X399119Y342135D01*
X399133Y341862D01*
X399141Y341589D01*
X399143Y341316D01*
X399138Y341043D01*
X399126Y340769D01*
X399107Y340497D01*
X399082Y340225D01*
X399051Y339953D01*
X399013Y339682D01*
X398968Y339413D01*
X398917Y339144D01*
X398859Y338877D01*
X398795Y338611D01*
X398725Y338347D01*
X398648Y338085D01*
X398565Y337824D01*
X398475Y337566D01*
X398380Y337310D01*
X398278Y337056D01*
X398170Y336805D01*
X398056Y336556D01*
X397936Y336311D01*
X397810Y336068D01*
X397679Y335829D01*
X397541Y335592D01*
X397398Y335359D01*
X397250Y335130D01*
X397095Y334904D01*
X396936Y334682D01*
X396771Y334464D01*
X396601Y334250D01*
X396426Y334040D01*
X396245Y333835D01*
X396060Y333634D01*
X395870Y333437D01*
X395676Y333245D01*
X395477Y333058D01*
X395273Y332876D01*
X395065Y332698D01*
X380424Y318200D01*
X380425Y318200D02*
X382506Y313592D01*
X384477Y308935D01*
X386334Y304232D01*
X388078Y299485D01*
X389707Y294698D01*
X391220Y289873D01*
X392617Y285013D01*
X393897Y280121D01*
X395058Y275199D01*
X396100Y270251D01*
X397023Y265279D01*
X397826Y260286D01*
X398509Y255276D01*
X399071Y250250D01*
X399512Y245213D01*
X399831Y240166D01*
X400029Y235113D01*
X400105Y230057D01*
X400059Y225000D01*
X399892Y219946D01*
X399603Y214898D01*
X399193Y209858D01*
X398661Y204829D01*
X398009Y199815D01*
X397236Y194817D01*
X396343Y189840D01*
X395330Y184886D01*
X394198Y179957D01*
X392949Y175057D01*
X392948Y175057D02*
X410518Y164947D01*
X411137Y164580D01*
X411746Y164197D01*
X412347Y163800D01*
X412937Y163389D01*
X413517Y162963D01*
X414087Y162523D01*
X414645Y162070D01*
X415193Y161602D01*
X415729Y161122D01*
X416253Y160629D01*
X416765Y160123D01*
X417264Y159605D01*
X417751Y159075D01*
X418225Y158533D01*
X418685Y157980D01*
X419132Y157416D01*
X419565Y156841D01*
X419983Y156256D01*
X420388Y155661D01*
X420777Y155056D01*
X421152Y154441D01*
X421512Y153818D01*
X421857Y153186D01*
X422186Y152546D01*
X422499Y151899D01*
X422796Y151243D01*
X423078Y150581D01*
X423343Y149912D01*
X423592Y149237D01*
X423824Y148556D01*
X424040Y147869D01*
X424239Y147178D01*
X424421Y146481D01*
X424586Y145781D01*
X424734Y145077D01*
X424865Y144369D01*
X424978Y143658D01*
X425074Y142945D01*
X425153Y142230D01*
X425214Y141513D01*
X425258Y140795D01*
X425284Y140076D01*
X425293Y139356D01*
X425284Y138636D01*
X425258Y137917D01*
X425214Y137199D01*
X425153Y136482D01*
X425074Y135767D01*
X424978Y135053D01*
X424865Y134343D01*
X424734Y133635D01*
X424586Y132931D01*
X424421Y132230D01*
X424239Y131534D01*
X424040Y130843D01*
X423824Y130156D01*
X423592Y129475D01*
X423343Y128800D01*
X423078Y128131D01*
X422796Y127469D01*
X422499Y126813D01*
X422186Y126165D01*
X421857Y125525D01*
X421512Y124894D01*
X421152Y124270D01*
X420777Y123656D01*
X420388Y123051D01*
X419983Y122456D01*
X419565Y121871D01*
X419132Y121296D01*
X418685Y120732D01*
X418225Y120178D01*
X417751Y119637D01*
X417264Y119107D01*
X416765Y118589D01*
X416253Y118083D01*
X415729Y117590D01*
X415193Y117109D01*
X414645Y116642D01*
X414087Y116189D01*
X413517Y115749D01*
X412937Y115323D01*
X412347Y114912D01*
X411746Y114515D01*
X411137Y114132D01*
X410518Y113765D01*
X409890Y113413D01*
X409254Y113076D01*
X408611Y112755D01*
X407959Y112449D01*
X407300Y112160D01*
X406634Y111886D01*
X405962Y111629D01*
X405284Y111389D01*
X404600Y111165D01*
X403911Y110957D01*
X403217Y110767D01*
X402519Y110593D01*
X401816Y110437D01*
X401110Y110298D01*
X400401Y110175D01*
X399689Y110071D01*
X398975Y109983D01*
X398259Y109913D01*
X397541Y109861D01*
X396822Y109826D01*
X396103Y109808D01*
X395383Y109808D01*
X394664Y109826D01*
X393945Y109861D01*
X393227Y109913D01*
X392511Y109983D01*
X391797Y110071D01*
X391085Y110175D01*
X390376Y110298D01*
X389670Y110437D01*
X388967Y110593D01*
X388269Y110767D01*
X387575Y110957D01*
X386886Y111165D01*
X386202Y111389D01*
X385524Y111629D01*
X384852Y111886D01*
X384186Y112160D01*
X383527Y112449D01*
X382875Y112755D01*
X382231Y113076D01*
X381596Y113413D01*
X380968Y113765D01*
X363428Y123926D01*
X363428Y123925D02*
X360741Y120801D01*
X357980Y117743D01*
X355144Y114752D01*
X352238Y111831D01*
X349261Y108982D01*
X346216Y106205D01*
X343105Y103503D01*
X339929Y100877D01*
X336690Y98329D01*
X333391Y95860D01*
X330032Y93472D01*
X326617Y91166D01*
X323147Y88944D01*
X319624Y86806D01*
X316050Y84754D01*
X312428Y82790D01*
X308759Y80913D01*
X305046Y79127D01*
X301290Y77431D01*
X297494Y75826D01*
X293661Y74314D01*
X289792Y72895D01*
X285890Y71570D01*
X281957Y70341D01*
X277995Y69207D01*
X274007Y68169D01*
X269995Y67229D01*
X265961Y66386D01*
X261908Y65641D01*
X257839Y64994D01*
X253754Y64446D01*
X249658Y63998D01*
X245552Y63648D01*
X241439Y63399D01*
X237321Y63249D01*
X233200Y63199D01*
X229079Y63249D01*
X224961Y63399D01*
X220848Y63648D01*
X216742Y63998D01*
X212646Y64446D01*
X208561Y64994D01*
X204492Y65641D01*
X200439Y66386D01*
X196405Y67229D01*
X192393Y68169D01*
X188405Y69207D01*
X184443Y70341D01*
X180510Y71570D01*
X176608Y72895D01*
X172739Y74314D01*
X168906Y75826D01*
X165110Y77431D01*
X161354Y79127D01*
X157641Y80913D01*
X153972Y82790D01*
X150350Y84754D01*
X146776Y86806D01*
X143253Y88944D01*
X139783Y91166D01*
X136368Y93472D01*
X133009Y95860D01*
X129710Y98329D01*
X126471Y100877D01*
X123295Y103503D01*
X120184Y106205D01*
X117139Y108982D01*
X114162Y111831D01*
X111256Y114752D01*
X108420Y117743D01*
X105659Y120801D01*
X102972Y123925D01*
X102972Y123926D02*
X85432Y113765D01*
X84804Y113413D01*
X84169Y113076D01*
X83525Y112755D01*
X82873Y112449D01*
X82214Y112160D01*
X81548Y111886D01*
X80876Y111629D01*
X80198Y111389D01*
X79514Y111165D01*
X78825Y110957D01*
X78131Y110767D01*
X77433Y110593D01*
X76730Y110437D01*
X76024Y110298D01*
X75315Y110175D01*
X74603Y110071D01*
X73889Y109983D01*
X73173Y109913D01*
X72455Y109861D01*
X71736Y109826D01*
X71017Y109808D01*
X70297Y109808D01*
X69578Y109826D01*
X68859Y109861D01*
X68141Y109913D01*
X67425Y109983D01*
X66711Y110071D01*
X65999Y110175D01*
X65290Y110298D01*
X64584Y110437D01*
X63881Y110593D01*
X63183Y110767D01*
X62489Y110957D01*
X61800Y111165D01*
X61116Y111389D01*
X60438Y111629D01*
X59766Y111886D01*
X59100Y112160D01*
X58441Y112449D01*
X57789Y112755D01*
X57146Y113076D01*
X56510Y113413D01*
X55882Y113765D01*
X55263Y114132D01*
X54654Y114515D01*
X54053Y114912D01*
X53463Y115323D01*
X52883Y115749D01*
X52313Y116189D01*
X51755Y116642D01*
X51207Y117109D01*
X50671Y117590D01*
X50147Y118083D01*
X49635Y118589D01*
X49136Y119107D01*
X48649Y119637D01*
X48175Y120178D01*
X47715Y120732D01*
X47268Y121296D01*
X46835Y121871D01*
X46417Y122456D01*
X46012Y123051D01*
X45623Y123656D01*
X45248Y124270D01*
X44888Y124894D01*
X44543Y125525D01*
X44214Y126165D01*
X43901Y126813D01*
X43604Y127469D01*
X43322Y128131D01*
X43057Y128800D01*
X42808Y129475D01*
X42576Y130156D01*
X42360Y130843D01*
X42161Y131534D01*
X41979Y132230D01*
X41814Y132931D01*
X41666Y133635D01*
X41535Y134343D01*
X41422Y135053D01*
X41326Y135767D01*
X41247Y136482D01*
X41186Y137199D01*
X41142Y137917D01*
X41116Y138636D01*
X41107Y139356D01*
X41116Y140076D01*
X41142Y140795D01*
X41186Y141513D01*
X41247Y142230D01*
X41326Y142945D01*
X41422Y143658D01*
X41535Y144369D01*
X41666Y145077D01*
X41814Y145781D01*
X41979Y146481D01*
X42161Y147178D01*
X42360Y147869D01*
X42576Y148556D01*
X42808Y149237D01*
X43057Y149912D01*
X43322Y150581D01*
X43604Y151243D01*
X43901Y151899D01*
X44214Y152546D01*
X44543Y153186D01*
X44888Y153818D01*
X45248Y154441D01*
X45623Y155056D01*
X46012Y155661D01*
X46417Y156256D01*
X46835Y156841D01*
X47268Y157416D01*
X47715Y157980D01*
X48175Y158533D01*
X48649Y159075D01*
X49136Y159605D01*
X49635Y160123D01*
X50147Y160629D01*
X50671Y161122D01*
X51207Y161602D01*
X51755Y162070D01*
X52313Y162523D01*
X52883Y162963D01*
X53463Y163389D01*
X54053Y163800D01*
X54654Y164197D01*
X55263Y164580D01*
X55882Y164947D01*
X73452Y175057D01*
X72090Y178946D01*
X70822Y182867D01*
X69650Y186818D01*
X68574Y190795D01*
X67594Y194798D01*
X66712Y198823D01*
X65928Y202869D01*
X65242Y206932D01*
X64654Y211011D01*
X64166Y215103D01*
X63777Y219205D01*
X63488Y223316D01*
X63298Y227432D01*
X63208Y231552D01*
X63218Y235673D01*
X63328Y239792D01*
X63538Y243908D01*
X63847Y248017D01*
X64256Y252117D01*
X64764Y256207D01*
X65371Y260283D01*
X66077Y264343D01*
X66881Y268384D01*
X67782Y272405D01*
X68781Y276403D01*
X69877Y280376D01*
X71068Y284320D01*
X72355Y288235D01*
X73736Y292118D01*
X75211Y295966D01*
X76779Y299776D01*
X78439Y303548D01*
X80189Y307279D01*
X82030Y310966D01*
X83959Y314607D01*
X85976Y318200D01*
X88079Y321744D01*
X90268Y325235D01*
X92541Y328673D01*
X94896Y332054D01*
X97333Y335377D01*
X99850Y338640D01*
X102445Y341842D01*
X105116Y344979D01*
X107863Y348051D01*
X110684Y351055D01*
X113576Y353990D01*
X116539Y356854D01*
X119571Y359645D01*
X122669Y362362D01*
X125832Y365003D01*
X129058Y367567D01*
X132346Y370052D01*
X135692Y372456D01*
X139096Y374779D01*
X142556Y377018D01*
X146068Y379173D01*
X149632Y381242D01*
X153245Y383224D01*
X156905Y385118D01*
X160609Y386922D01*
X164357Y388637D01*
X168144Y390260D01*
X171970Y391790D01*
X175832Y393228D01*
X179728Y394571D01*
X183655Y395820D01*
X187611Y396973D01*
X191594Y398030D01*
X195602Y398990D01*
X199631Y399853D01*
X203680Y400617D01*
X203650Y420888D01*
X203659Y421608D01*
X203685Y422327D01*
X203729Y423045D01*
X203790Y423762D01*
X203869Y424477D01*
X203965Y425191D01*
X204078Y425901D01*
X204209Y426609D01*
X204357Y427313D01*
X204522Y428014D01*
X204704Y428710D01*
X204903Y429401D01*
X205119Y430088D01*
X205351Y430769D01*
X205600Y431444D01*
X205865Y432113D01*
X206147Y432775D01*
X206444Y433431D01*
X206757Y434079D01*
X207086Y434719D01*
X207431Y435350D01*
X207791Y435974D01*
X208166Y436588D01*
X208555Y437193D01*
X208960Y437788D01*
X209378Y438373D01*
X209811Y438948D01*
X210258Y439512D01*
X210718Y440066D01*
X211192Y440607D01*
X211679Y441137D01*
X212178Y441655D01*
X212690Y442161D01*
X213214Y442654D01*
X213750Y443134D01*
X214298Y443602D01*
X214856Y444055D01*
X215426Y444495D01*
X216006Y444921D01*
X216596Y445332D01*
X217197Y445729D01*
X217806Y446112D01*
X218425Y446479D01*
X219053Y446831D01*
X219688Y447168D01*
X220332Y447489D01*
X220984Y447795D01*
X221643Y448084D01*
X222309Y448358D01*
X222981Y448615D01*
X223659Y448855D01*
X224343Y449079D01*
X225032Y449287D01*
X225726Y449477D01*
X226424Y449651D01*
X227127Y449807D01*
X227833Y449946D01*
X228542Y450069D01*
X229254Y450173D01*
X229968Y450261D01*
X230684Y450331D01*
X231402Y450383D01*
X232121Y450418D01*
X232840Y450436D01*
X233560Y450436D01*
X234279Y450418D01*
X234998Y450383D01*
X235716Y450331D01*
X236432Y450261D01*
X237146Y450173D01*
X237858Y450069D01*
X238567Y449946D01*
X239273Y449807D01*
X239976Y449651D01*
X240674Y449477D01*
X241368Y449287D01*
X242057Y449079D01*
X242741Y448855D01*
X243419Y448615D01*
X244091Y448358D01*
X244757Y448084D01*
X245416Y447795D01*
X246068Y447489D01*
X246712Y447168D01*
X247347Y446831D01*
X247975Y446479D01*
X248594Y446112D01*
X249203Y445729D01*
X249804Y445332D01*
X250394Y444921D01*
X250974Y444495D01*
X251544Y444055D01*
X252102Y443602D01*
X252650Y443134D01*
X253186Y442654D01*
X253710Y442161D01*
X254222Y441655D01*
X254721Y441137D01*
X255208Y440607D01*
X255682Y440066D01*
X256142Y439512D01*
X256589Y438948D01*
X257022Y438373D01*
X257440Y437788D01*
X257845Y437193D01*
X258234Y436588D01*
X258609Y435974D01*
X258969Y435350D01*
X259314Y434719D01*
X259643Y434079D01*
X259956Y433431D01*
X260253Y432775D01*
X260535Y432113D01*
X260800Y431444D01*
X261049Y430769D01*
X261281Y430088D01*
X261497Y429401D01*
X261696Y428710D01*
X261878Y428014D01*
X262043Y427313D01*
X262191Y426609D01*
X262322Y425901D01*
X262435Y425191D01*
X262531Y424477D01*
X262610Y423762D01*
X262671Y423045D01*
X262715Y422327D01*
X262741Y421608D01*
X262750Y420888D01*
X262720Y400617D01*
D12*
X364617Y346549D02*
X364617Y337569D01*
X373597Y328589D01*
X382577Y328589D01*
X391557Y337569D02*
X391557Y346549D01*
X382577Y355529D01*
X373597Y355529D01*
X337676Y364510D02*
X328696Y373490D01*
X337676Y364510D02*
X346656Y364510D01*
X355636Y373490D02*
X355636Y382470D01*
X346656Y364510D02*
X346656Y355529D01*
X355636Y346549D01*
X364617Y346549D01*
X373597Y355529D02*
X373597Y364510D01*
X364617Y373490D01*
X355636Y373490D01*
X337676Y391450D02*
X328696Y382470D01*
X328696Y373490D01*
X337676Y391450D02*
X346656Y391450D01*
X355636Y382470D01*
X391557Y337569D02*
X382577Y328589D01*
D13*
X335279Y362493D02*
X333542Y362493D01*
X335279Y362493D02*
X337017Y360755D01*
X337017Y359017D01*
X333542Y355542D01*
X331804Y355542D01*
X330066Y357280D01*
X330066Y359017D01*
X327381Y359965D02*
X332594Y365178D01*
X329987Y362572D02*
X326512Y366047D01*
X329118Y368654D02*
X323905Y363441D01*
X322958Y366126D02*
X326433Y369602D01*
X326433Y371339D01*
X324695Y373077D01*
X322958Y373077D01*
X319482Y369602D01*
X319482Y367864D01*
X321220Y366126D01*
X322958Y366126D01*
X322958Y373077D01*
X351830Y343189D02*
X353567Y343189D01*
X355305Y341451D01*
X355305Y339713D01*
X351830Y336238D01*
X350092Y336238D01*
X348354Y337976D01*
X348354Y339713D01*
X345669Y340661D02*
X350882Y345874D01*
X348275Y343268D02*
X344800Y346743D01*
X347406Y349350D02*
X342193Y344137D01*
X343852Y349429D02*
X343852Y352904D01*
X338639Y347691D01*
X340377Y345953D02*
X336901Y349429D01*
X370626Y324901D02*
X372363Y324901D01*
X374101Y323163D01*
X374101Y321425D01*
X370626Y317950D01*
X368888Y317950D01*
X367150Y319688D01*
X367150Y321425D01*
X364465Y322373D02*
X369678Y327586D01*
X367071Y324980D02*
X363596Y328455D01*
X366202Y331062D02*
X360989Y325849D01*
X359173Y327665D02*
X355697Y331141D01*
X359173Y327665D02*
X359173Y334616D01*
X360042Y335485D01*
X361779Y335485D01*
X363517Y333747D01*
X363517Y332010D01*
M02*
