G04 EAGLE Gerber RS-274X export*
G75*
%MOMM*%
%FSLAX34Y34*%
%LPD*%
%INSilkscreen Top*%
%IPPOS*%
%AMOC8*
5,1,8,0,0,1.08239X$1,22.5*%
G01*
%ADD10C,0.101600*%
%ADD11C,0.127000*%
%ADD12C,0.076200*%
%ADD13C,0.100000*%
%ADD14C,0.225000*%
%ADD15C,0.400000*%
%ADD16C,0.254000*%
%ADD17C,0.152400*%
%ADD18R,0.120000X0.020000*%
%ADD19R,0.340000X0.020000*%
%ADD20R,0.320000X0.020000*%
%ADD21R,0.140000X0.020000*%
%ADD22R,0.280000X0.020000*%
%ADD23R,0.360000X0.020000*%
%ADD24R,0.420000X0.020000*%
%ADD25R,0.380000X0.020000*%
%ADD26R,0.480000X0.020000*%
%ADD27R,0.540000X0.020000*%
%ADD28R,0.560000X0.020000*%
%ADD29R,0.400000X0.020000*%
%ADD30R,0.640000X0.020000*%
%ADD31R,0.620000X0.020000*%
%ADD32R,0.700000X0.020000*%
%ADD33R,0.660000X0.020000*%
%ADD34R,0.740000X0.020000*%
%ADD35R,1.080000X0.020000*%
%ADD36R,0.800000X0.020000*%
%ADD37R,1.100000X0.020000*%
%ADD38R,0.440000X0.020000*%
%ADD39R,0.840000X0.020000*%
%ADD40R,1.120000X0.020000*%
%ADD41R,0.460000X0.020000*%
%ADD42R,0.860000X0.020000*%
%ADD43R,0.900000X0.020000*%
%ADD44R,1.140000X0.020000*%
%ADD45R,0.920000X0.020000*%
%ADD46R,1.160000X0.020000*%
%ADD47R,0.960000X0.020000*%
%ADD48R,0.500000X0.020000*%
%ADD49R,0.520000X0.020000*%
%ADD50R,0.940000X0.020000*%
%ADD51R,0.260000X0.020000*%
%ADD52R,0.180000X0.020000*%
%ADD53R,0.580000X0.020000*%
%ADD54R,0.060000X0.020000*%
%ADD55R,0.600000X0.020000*%
%ADD56R,0.300000X0.020000*%
%ADD57R,0.040000X0.020000*%
%ADD58R,0.100000X0.020000*%
%ADD59R,0.160000X0.020000*%
%ADD60R,0.220000X0.020000*%
%ADD61R,0.980000X0.020000*%
%ADD62R,0.880000X0.020000*%
%ADD63R,0.760000X0.020000*%
%ADD64R,1.060000X0.020000*%
%ADD65R,0.720000X0.020000*%
%ADD66R,0.820000X0.020000*%
%ADD67R,1.180000X0.020000*%
%ADD68R,1.340000X0.020000*%
%ADD69R,1.460000X0.020000*%
%ADD70R,1.600000X0.020000*%
%ADD71R,1.700000X0.020000*%
%ADD72R,1.820000X0.020000*%
%ADD73R,1.900000X0.020000*%
%ADD74R,1.980000X0.020000*%
%ADD75R,2.100000X0.020000*%
%ADD76R,2.160000X0.020000*%
%ADD77R,2.260000X0.020000*%
%ADD78R,2.340000X0.020000*%
%ADD79R,2.400000X0.020000*%
%ADD80R,2.480000X0.020000*%
%ADD81R,2.540000X0.020000*%
%ADD82R,2.600000X0.020000*%
%ADD83R,2.680000X0.020000*%
%ADD84R,2.720000X0.020000*%
%ADD85R,2.800000X0.020000*%
%ADD86R,2.840000X0.020000*%
%ADD87R,2.900000X0.020000*%
%ADD88R,2.960000X0.020000*%
%ADD89R,3.000000X0.020000*%
%ADD90R,3.060000X0.020000*%
%ADD91R,3.120000X0.020000*%
%ADD92R,3.160000X0.020000*%
%ADD93R,3.200000X0.020000*%
%ADD94R,3.260000X0.020000*%
%ADD95R,3.300000X0.020000*%
%ADD96R,3.340000X0.020000*%
%ADD97R,3.380000X0.020000*%
%ADD98R,3.420000X0.020000*%
%ADD99R,3.460000X0.020000*%
%ADD100R,3.520000X0.020000*%
%ADD101R,3.540000X0.020000*%
%ADD102R,3.580000X0.020000*%
%ADD103R,3.620000X0.020000*%
%ADD104R,3.660000X0.020000*%
%ADD105R,3.700000X0.020000*%
%ADD106R,3.740000X0.020000*%
%ADD107R,3.780000X0.020000*%
%ADD108R,3.800000X0.020000*%
%ADD109R,3.840000X0.020000*%
%ADD110R,3.860000X0.020000*%
%ADD111R,3.900000X0.020000*%
%ADD112R,3.940000X0.020000*%
%ADD113R,3.960000X0.020000*%
%ADD114R,3.980000X0.020000*%
%ADD115R,4.020000X0.020000*%
%ADD116R,4.060000X0.020000*%
%ADD117R,4.080000X0.020000*%
%ADD118R,4.100000X0.020000*%
%ADD119R,4.120000X0.020000*%
%ADD120R,4.160000X0.020000*%
%ADD121R,4.180000X0.020000*%
%ADD122R,4.200000X0.020000*%
%ADD123R,4.240000X0.020000*%
%ADD124R,4.260000X0.020000*%
%ADD125R,4.280000X0.020000*%
%ADD126R,4.300000X0.020000*%
%ADD127R,4.320000X0.020000*%
%ADD128R,4.340000X0.020000*%
%ADD129R,4.380000X0.020000*%
%ADD130R,4.400000X0.020000*%
%ADD131R,4.440000X0.020000*%
%ADD132R,4.460000X0.020000*%
%ADD133R,4.500000X0.020000*%
%ADD134R,4.520000X0.020000*%
%ADD135R,4.540000X0.020000*%
%ADD136R,4.560000X0.020000*%
%ADD137R,4.580000X0.020000*%
%ADD138R,4.600000X0.020000*%
%ADD139R,4.620000X0.020000*%
%ADD140R,4.640000X0.020000*%
%ADD141R,4.660000X0.020000*%
%ADD142R,4.680000X0.020000*%
%ADD143R,4.700000X0.020000*%
%ADD144R,4.720000X0.020000*%
%ADD145R,4.740000X0.020000*%
%ADD146R,0.680000X0.020000*%
%ADD147R,1.480000X0.020000*%
%ADD148R,1.580000X0.020000*%
%ADD149R,1.560000X0.020000*%
%ADD150R,1.540000X0.020000*%
%ADD151R,1.520000X0.020000*%
%ADD152R,1.500000X0.020000*%
%ADD153R,1.440000X0.020000*%
%ADD154R,1.400000X0.020000*%
%ADD155R,1.420000X0.020000*%
%ADD156R,1.380000X0.020000*%
%ADD157R,1.360000X0.020000*%
%ADD158R,1.320000X0.020000*%
%ADD159R,1.300000X0.020000*%
%ADD160R,1.260000X0.020000*%
%ADD161R,1.220000X0.020000*%
%ADD162R,1.200000X0.020000*%
%ADD163R,1.040000X0.020000*%
%ADD164R,1.020000X0.020000*%
%ADD165R,1.000000X0.020000*%
%ADD166R,1.280000X0.020000*%
%ADD167R,0.780000X0.020000*%
%ADD168R,1.240000X0.020000*%
%ADD169R,0.020000X0.020000*%
%ADD170R,1.840000X0.020000*%
%ADD171R,1.800000X0.020000*%
%ADD172R,1.780000X0.020000*%
%ADD173R,1.760000X0.020000*%
%ADD174R,1.740000X0.020000*%
%ADD175R,1.680000X0.020000*%
%ADD176R,1.660000X0.020000*%
%ADD177R,1.620000X0.020000*%

G36*
X89091Y342278D02*
X89091Y342278D01*
X120943Y342278D01*
X123596Y342280D01*
X158102Y342280D01*
X160756Y342283D01*
X166063Y342283D01*
X166068Y342287D01*
X166073Y342289D01*
X166073Y342292D01*
X166075Y342294D01*
X166070Y342299D01*
X166068Y342306D01*
X164387Y343013D01*
X162707Y343720D01*
X160403Y344688D01*
X158096Y345656D01*
X155792Y346624D01*
X153485Y347589D01*
X151178Y348558D01*
X148873Y349526D01*
X146567Y350491D01*
X144260Y351459D01*
X141953Y352427D01*
X139648Y353393D01*
X137189Y354425D01*
X134730Y355457D01*
X132271Y356492D01*
X129812Y357527D01*
X127356Y358564D01*
X124903Y359602D01*
X122446Y360644D01*
X120022Y361699D01*
X122301Y363026D01*
X124600Y364365D01*
X126901Y365698D01*
X129200Y367034D01*
X133804Y369701D01*
X136105Y371038D01*
X143010Y375038D01*
X145304Y376369D01*
X147600Y377697D01*
X149896Y379028D01*
X152190Y380359D01*
X154486Y381687D01*
X156780Y383018D01*
X159076Y384349D01*
X161372Y385677D01*
X163666Y387008D01*
X165962Y388336D01*
X165965Y388343D01*
X165968Y388346D01*
X165971Y390741D01*
X165976Y393136D01*
X165979Y395528D01*
X165984Y397923D01*
X165987Y400316D01*
X165992Y402711D01*
X165995Y405103D01*
X166000Y407498D01*
X166003Y409893D01*
X166006Y412285D01*
X166011Y414680D01*
X166014Y417072D01*
X166019Y419467D01*
X166022Y421860D01*
X166011Y421871D01*
X166010Y421871D01*
X166010Y421872D01*
X144804Y421872D01*
X142153Y421869D01*
X120951Y421869D01*
X118300Y421866D01*
X94443Y421866D01*
X91792Y421864D01*
X86490Y421864D01*
X86486Y421860D01*
X86480Y421858D01*
X86481Y421855D01*
X86479Y421853D01*
X86483Y421848D01*
X86486Y421841D01*
X87665Y421339D01*
X89969Y420371D01*
X92276Y419403D01*
X94580Y418435D01*
X96887Y417467D01*
X99191Y416499D01*
X101498Y415533D01*
X103803Y414565D01*
X106110Y413600D01*
X108414Y412631D01*
X110721Y411663D01*
X113148Y410647D01*
X115577Y409626D01*
X118004Y408607D01*
X120431Y407585D01*
X122858Y406564D01*
X125285Y405540D01*
X127710Y404513D01*
X130134Y403484D01*
X132528Y402448D01*
X130247Y401115D01*
X127940Y399774D01*
X125636Y398435D01*
X123329Y397096D01*
X121025Y395760D01*
X118718Y394421D01*
X116411Y393082D01*
X114106Y391746D01*
X111800Y390410D01*
X109493Y389071D01*
X107191Y387738D01*
X104892Y386404D01*
X100289Y383737D01*
X97990Y382404D01*
X93387Y379737D01*
X91088Y378403D01*
X88786Y377070D01*
X86484Y375736D01*
X86482Y375729D01*
X86478Y375726D01*
X86476Y373339D01*
X86470Y370949D01*
X86468Y368562D01*
X86462Y366173D01*
X86460Y363786D01*
X86457Y361396D01*
X86452Y359009D01*
X86452Y359006D01*
X86449Y356619D01*
X86444Y354230D01*
X86441Y351843D01*
X86436Y349453D01*
X86433Y347064D01*
X86428Y344677D01*
X86425Y342287D01*
X86436Y342275D01*
X86436Y342276D01*
X86437Y342275D01*
X89091Y342278D01*
G37*
G36*
X118311Y321100D02*
X118311Y321100D01*
X118312Y321099D01*
X120355Y321371D01*
X120356Y321373D01*
X120358Y321372D01*
X122468Y322295D01*
X122469Y322297D01*
X122471Y322297D01*
X124231Y323774D01*
X124231Y323777D01*
X124233Y323777D01*
X125500Y325697D01*
X125500Y325699D01*
X125501Y325700D01*
X126125Y327406D01*
X126124Y327408D01*
X126126Y327410D01*
X126267Y329223D01*
X126266Y329224D01*
X126267Y329226D01*
X126003Y331420D01*
X126002Y331422D01*
X126002Y331424D01*
X125136Y333453D01*
X125133Y333454D01*
X125134Y333456D01*
X123709Y335145D01*
X123707Y335145D01*
X123707Y335147D01*
X122027Y336278D01*
X122025Y336277D01*
X122025Y336279D01*
X120147Y337044D01*
X120145Y337043D01*
X120144Y337045D01*
X117957Y337237D01*
X117955Y337236D01*
X117955Y337237D01*
X117640Y337208D01*
X115770Y337037D01*
X115769Y337035D01*
X115767Y337036D01*
X114097Y336367D01*
X114097Y336365D01*
X114096Y336366D01*
X112565Y335427D01*
X112564Y335425D01*
X112562Y335425D01*
X110906Y333531D01*
X110906Y333529D01*
X110904Y333528D01*
X109877Y331232D01*
X109878Y331230D01*
X109876Y331228D01*
X109647Y329217D01*
X109648Y329216D01*
X109647Y329215D01*
X109828Y327196D01*
X109830Y327194D01*
X109829Y327193D01*
X110701Y325059D01*
X110703Y325058D01*
X110703Y325056D01*
X112159Y323266D01*
X112161Y323266D01*
X112161Y323264D01*
X114060Y321955D01*
X114063Y321955D01*
X114063Y321953D01*
X116248Y321204D01*
X116250Y321205D01*
X116251Y321203D01*
X117640Y321134D01*
X118310Y321099D01*
X118311Y321100D01*
G37*
G36*
X99576Y321382D02*
X99576Y321382D01*
X99575Y321382D01*
X99576Y321383D01*
X99547Y322850D01*
X99517Y324317D01*
X99507Y324329D01*
X99506Y324328D01*
X99505Y324329D01*
X99274Y324332D01*
X99272Y324332D01*
X98315Y324344D01*
X98313Y324344D01*
X97364Y324355D01*
X97356Y324355D01*
X97356Y324356D01*
X97354Y324356D01*
X96398Y324367D01*
X96396Y324367D01*
X95440Y324379D01*
X95438Y324379D01*
X95222Y324382D01*
X94482Y324391D01*
X94479Y324391D01*
X93522Y324403D01*
X93520Y324403D01*
X93081Y324409D01*
X92563Y324415D01*
X92561Y324415D01*
X91604Y324427D01*
X91602Y324427D01*
X90965Y324435D01*
X92386Y326088D01*
X93820Y327757D01*
X95258Y329427D01*
X96693Y331099D01*
X98130Y332769D01*
X99568Y334438D01*
X99568Y334443D01*
X99571Y334446D01*
X99571Y336956D01*
X99560Y336968D01*
X99559Y336967D01*
X99559Y336968D01*
X86757Y336968D01*
X86745Y336957D01*
X86746Y336956D01*
X86745Y336956D01*
X86745Y333974D01*
X86756Y333962D01*
X86756Y333963D01*
X86757Y333962D01*
X88821Y333946D01*
X90883Y333933D01*
X92947Y333919D01*
X94983Y333906D01*
X92146Y330619D01*
X90719Y328965D01*
X87865Y325658D01*
X86439Y324005D01*
X86439Y324001D01*
X86436Y323999D01*
X86437Y323998D01*
X86436Y323997D01*
X86430Y322690D01*
X86425Y321383D01*
X86436Y321371D01*
X86436Y321372D01*
X86437Y321371D01*
X99564Y321371D01*
X99576Y321382D01*
G37*
G36*
X144008Y321106D02*
X144008Y321106D01*
X144009Y321105D01*
X146500Y321633D01*
X146502Y321635D01*
X146504Y321634D01*
X147869Y322389D01*
X147870Y322390D01*
X147871Y322390D01*
X149084Y323369D01*
X149085Y323370D01*
X149589Y323887D01*
X149590Y323896D01*
X149590Y323897D01*
X149590Y323903D01*
X149589Y323903D01*
X149589Y323904D01*
X148499Y324992D01*
X147405Y326077D01*
X147389Y326078D01*
X146697Y325538D01*
X144979Y324531D01*
X143010Y324300D01*
X141563Y324597D01*
X140327Y325398D01*
X139130Y327114D01*
X138720Y329171D01*
X139130Y331225D01*
X140327Y332944D01*
X141553Y333741D01*
X142986Y334039D01*
X144947Y333778D01*
X146673Y332796D01*
X147264Y332362D01*
X147268Y332362D01*
X147268Y332361D01*
X147273Y332361D01*
X147274Y332362D01*
X147280Y332363D01*
X148304Y333499D01*
X148304Y333500D01*
X148305Y333500D01*
X149294Y334662D01*
X149294Y334672D01*
X149295Y334676D01*
X148815Y335442D01*
X148812Y335443D01*
X148812Y335445D01*
X147494Y336334D01*
X147492Y336333D01*
X147492Y336335D01*
X146014Y336924D01*
X146013Y336924D01*
X146012Y336925D01*
X144695Y337191D01*
X144693Y337191D01*
X144693Y337192D01*
X144503Y337196D01*
X144502Y337196D01*
X143999Y337208D01*
X143998Y337208D01*
X143496Y337220D01*
X143495Y337220D01*
X143343Y337224D01*
X143343Y337223D01*
X143343Y337224D01*
X143077Y337220D01*
X143075Y337220D01*
X142195Y337208D01*
X142193Y337208D01*
X141964Y337205D01*
X141962Y337204D01*
X141961Y337205D01*
X140622Y336879D01*
X140621Y336878D01*
X140620Y336879D01*
X138716Y335988D01*
X138715Y335986D01*
X138713Y335986D01*
X137116Y334623D01*
X137115Y334621D01*
X137113Y334621D01*
X135969Y332858D01*
X135969Y332856D01*
X135968Y332855D01*
X135283Y331050D01*
X135283Y331048D01*
X135282Y331047D01*
X135127Y329118D01*
X135128Y329117D01*
X135127Y329117D01*
X135255Y327348D01*
X135257Y327347D01*
X135256Y327345D01*
X135819Y325670D01*
X135820Y325669D01*
X135820Y325668D01*
X137191Y323609D01*
X137193Y323608D01*
X137193Y323606D01*
X139135Y322075D01*
X139137Y322075D01*
X139138Y322073D01*
X141458Y321215D01*
X141461Y321215D01*
X141462Y321214D01*
X144006Y321104D01*
X144008Y321106D01*
G37*
G36*
X160501Y321090D02*
X160501Y321090D01*
X160502Y321089D01*
X162478Y321467D01*
X162479Y321469D01*
X162481Y321468D01*
X164308Y322300D01*
X164309Y322303D01*
X164311Y322302D01*
X166018Y323868D01*
X166019Y323884D01*
X166018Y323884D01*
X166019Y323885D01*
X164989Y325034D01*
X164989Y325035D01*
X163959Y326067D01*
X163944Y326068D01*
X163943Y326068D01*
X163256Y325540D01*
X161677Y324592D01*
X159870Y324278D01*
X158024Y324637D01*
X156514Y325752D01*
X155394Y327979D01*
X155415Y330474D01*
X156583Y332675D01*
X158197Y333789D01*
X160144Y334039D01*
X161717Y333696D01*
X163101Y332868D01*
X163805Y332361D01*
X163821Y332363D01*
X164869Y333526D01*
X165885Y334721D01*
X165885Y334733D01*
X165886Y334736D01*
X165352Y335448D01*
X165349Y335449D01*
X165349Y335451D01*
X163050Y336761D01*
X163047Y336760D01*
X163046Y336762D01*
X160446Y337258D01*
X160444Y337257D01*
X160443Y337258D01*
X158016Y337101D01*
X158014Y337099D01*
X158012Y337100D01*
X155735Y336255D01*
X155734Y336253D01*
X155732Y336253D01*
X153827Y334743D01*
X153827Y334741D01*
X153825Y334741D01*
X152398Y332661D01*
X152398Y332658D01*
X152396Y332657D01*
X151690Y330233D01*
X151691Y330231D01*
X151689Y330229D01*
X151745Y327706D01*
X151747Y327705D01*
X151746Y327703D01*
X152549Y325308D01*
X152551Y325307D01*
X152550Y325304D01*
X154055Y323280D01*
X154057Y323280D01*
X154057Y323277D01*
X156138Y321848D01*
X156140Y321848D01*
X156141Y321846D01*
X158485Y321129D01*
X158487Y321130D01*
X158488Y321128D01*
X160499Y321088D01*
X160501Y321090D01*
G37*
%LPC*%
G36*
X114604Y325726D02*
X114604Y325726D01*
X113439Y327795D01*
X113340Y330171D01*
X114304Y332345D01*
X115926Y333630D01*
X117643Y334000D01*
X117953Y334066D01*
X119969Y333600D01*
X121677Y332177D01*
X122571Y330142D01*
X122526Y327918D01*
X121549Y325917D01*
X119384Y324478D01*
X119367Y324477D01*
X119366Y324477D01*
X118995Y324465D01*
X118994Y324465D01*
X118622Y324454D01*
X118250Y324442D01*
X118249Y324442D01*
X117877Y324430D01*
X117641Y324422D01*
X117467Y324417D01*
X117089Y324405D01*
X116799Y324396D01*
X114604Y325726D01*
G37*
%LPD*%
G36*
X106395Y321382D02*
X106395Y321382D01*
X106396Y321383D01*
X106396Y336956D01*
X106385Y336968D01*
X106384Y336967D01*
X106384Y336968D01*
X102970Y336968D01*
X102958Y336957D01*
X102959Y336956D01*
X102958Y336956D01*
X102958Y321383D01*
X102968Y321371D01*
X102969Y321372D01*
X102970Y321371D01*
X106384Y321371D01*
X106395Y321382D01*
G37*
G36*
X132529Y321382D02*
X132529Y321382D01*
X132529Y321383D01*
X132529Y324904D01*
X132519Y324915D01*
X132518Y324915D01*
X132517Y324915D01*
X128890Y324915D01*
X128879Y324905D01*
X128879Y324904D01*
X128878Y324904D01*
X128878Y321383D01*
X128889Y321371D01*
X128890Y321372D01*
X128890Y321371D01*
X132517Y321371D01*
X132529Y321382D01*
G37*
D10*
X66803Y320932D02*
X72905Y320932D01*
X74430Y319407D01*
X74430Y316356D01*
X72905Y314831D01*
X66803Y314831D01*
X65278Y316356D01*
X65278Y319407D01*
X66803Y320932D01*
X68329Y317881D02*
X65278Y314831D01*
X66803Y311577D02*
X71379Y311577D01*
X66803Y311577D02*
X65278Y310052D01*
X66803Y308526D01*
X65278Y307001D01*
X66803Y305476D01*
X71379Y305476D01*
X71379Y302222D02*
X71379Y300696D01*
X65278Y300696D01*
X65278Y299171D02*
X65278Y302222D01*
X74430Y300696D02*
X75955Y300696D01*
X71379Y295985D02*
X71379Y294460D01*
X65278Y294460D01*
X65278Y295985D02*
X65278Y292934D01*
X74430Y294460D02*
X75955Y294460D01*
X71379Y288223D02*
X71379Y283647D01*
X71379Y288223D02*
X69854Y289748D01*
X66803Y289748D01*
X65278Y288223D01*
X65278Y283647D01*
X66549Y242954D02*
X72651Y242954D01*
X74176Y241429D01*
X74176Y238378D01*
X72651Y236853D01*
X66549Y236853D01*
X65024Y238378D01*
X65024Y241429D01*
X66549Y242954D01*
X68075Y239903D02*
X65024Y236853D01*
X66549Y233599D02*
X71125Y233599D01*
X66549Y233599D02*
X65024Y232074D01*
X66549Y230548D01*
X65024Y229023D01*
X66549Y227498D01*
X71125Y227498D01*
X71125Y224244D02*
X71125Y222718D01*
X65024Y222718D01*
X65024Y221193D02*
X65024Y224244D01*
X74176Y222718D02*
X75701Y222718D01*
X71125Y218007D02*
X71125Y216482D01*
X65024Y216482D01*
X65024Y218007D02*
X65024Y214956D01*
X74176Y216482D02*
X75701Y216482D01*
X71125Y210245D02*
X71125Y205669D01*
X71125Y210245D02*
X69600Y211770D01*
X66549Y211770D01*
X65024Y210245D01*
X65024Y205669D01*
X187932Y87873D02*
X187932Y31742D01*
X189956Y36826D02*
X191482Y38351D01*
X189956Y36826D02*
X189956Y33775D01*
X191482Y32250D01*
X197583Y32250D01*
X199108Y33775D01*
X199108Y36826D01*
X197583Y38351D01*
X199108Y41605D02*
X189956Y41605D01*
X194532Y41605D02*
X194532Y47706D01*
X189956Y47706D02*
X199108Y47706D01*
X199108Y50960D02*
X193007Y50960D01*
X189956Y54011D01*
X193007Y57062D01*
X199108Y57062D01*
X194532Y57062D02*
X194532Y50960D01*
X199108Y60316D02*
X189956Y60316D01*
X199108Y66417D01*
X189956Y66417D01*
X189956Y74247D02*
X191482Y75772D01*
X189956Y74247D02*
X189956Y71196D01*
X191482Y69671D01*
X197583Y69671D01*
X199108Y71196D01*
X199108Y74247D01*
X197583Y75772D01*
X194532Y75772D01*
X194532Y72721D01*
X189956Y79026D02*
X189956Y85127D01*
X189956Y79026D02*
X199108Y79026D01*
X199108Y85127D01*
X194532Y82077D02*
X194532Y79026D01*
X217644Y38351D02*
X216118Y36826D01*
X216118Y33775D01*
X217644Y32250D01*
X219169Y32250D01*
X220694Y33775D01*
X220694Y36826D01*
X222219Y38351D01*
X223745Y38351D01*
X225270Y36826D01*
X225270Y33775D01*
X223745Y32250D01*
X216118Y46181D02*
X217644Y47706D01*
X216118Y46181D02*
X216118Y43130D01*
X217644Y41605D01*
X223745Y41605D01*
X225270Y43130D01*
X225270Y46181D01*
X223745Y47706D01*
X225270Y50960D02*
X216118Y50960D01*
X225270Y50960D02*
X225270Y57062D01*
X242790Y38351D02*
X241264Y36826D01*
X241264Y33775D01*
X242790Y32250D01*
X244315Y32250D01*
X245840Y33775D01*
X245840Y36826D01*
X247365Y38351D01*
X248891Y38351D01*
X250416Y36826D01*
X250416Y33775D01*
X248891Y32250D01*
X250416Y41605D02*
X241264Y41605D01*
X250416Y41605D02*
X250416Y46181D01*
X248891Y47706D01*
X242790Y47706D01*
X241264Y46181D01*
X241264Y41605D01*
X244315Y50960D02*
X250416Y50960D01*
X244315Y50960D02*
X241264Y54011D01*
X244315Y57062D01*
X250416Y57062D01*
X245840Y57062D02*
X245840Y50960D01*
X267426Y33775D02*
X268952Y32250D01*
X267426Y33775D02*
X267426Y36826D01*
X268952Y38351D01*
X270477Y38351D01*
X272002Y36826D01*
X272002Y35301D01*
X272002Y36826D02*
X273527Y38351D01*
X275053Y38351D01*
X276578Y36826D01*
X276578Y33775D01*
X275053Y32250D01*
X273527Y41605D02*
X267426Y41605D01*
X273527Y41605D02*
X276578Y44656D01*
X273527Y47706D01*
X267426Y47706D01*
X268952Y50960D02*
X267426Y52486D01*
X267426Y55536D01*
X268952Y57062D01*
X270477Y57062D01*
X272002Y55536D01*
X272002Y54011D01*
X272002Y55536D02*
X273527Y57062D01*
X275053Y57062D01*
X276578Y55536D01*
X276578Y52486D01*
X275053Y50960D01*
X292572Y36826D02*
X294098Y38351D01*
X292572Y36826D02*
X292572Y33775D01*
X294098Y32250D01*
X300199Y32250D01*
X301724Y33775D01*
X301724Y36826D01*
X300199Y38351D01*
X297148Y38351D01*
X297148Y35301D01*
X301724Y41605D02*
X292572Y41605D01*
X301724Y47706D01*
X292572Y47706D01*
X292572Y50960D02*
X301724Y50960D01*
X301724Y55536D01*
X300199Y57062D01*
X294098Y57062D01*
X292572Y55536D01*
X292572Y50960D01*
X173962Y32250D02*
X164810Y32250D01*
X164810Y36826D01*
X166336Y38351D01*
X169386Y38351D01*
X170911Y36826D01*
X170911Y32250D01*
X170911Y35301D02*
X173962Y38351D01*
X164810Y46181D02*
X166336Y47706D01*
X164810Y46181D02*
X164810Y43130D01*
X166336Y41605D01*
X167861Y41605D01*
X169386Y43130D01*
X169386Y46181D01*
X170911Y47706D01*
X172437Y47706D01*
X173962Y46181D01*
X173962Y43130D01*
X172437Y41605D01*
X173962Y54011D02*
X164810Y54011D01*
X164810Y50960D02*
X164810Y57062D01*
X373888Y42169D02*
X373888Y36068D01*
X373888Y42169D02*
X376939Y45220D01*
X379989Y42169D01*
X379989Y36068D01*
X379989Y40644D02*
X373888Y40644D01*
X383243Y37593D02*
X383243Y43695D01*
X384768Y45220D01*
X387819Y45220D01*
X389344Y43695D01*
X389344Y37593D01*
X387819Y36068D01*
X384768Y36068D01*
X383243Y37593D01*
X389344Y43695D01*
X345948Y42169D02*
X345948Y36068D01*
X345948Y42169D02*
X348999Y45220D01*
X352049Y42169D01*
X352049Y36068D01*
X352049Y40644D02*
X345948Y40644D01*
X355303Y42169D02*
X358354Y45220D01*
X358354Y36068D01*
X361404Y36068D02*
X355303Y36068D01*
X320548Y36068D02*
X320548Y42169D01*
X323599Y45220D01*
X326649Y42169D01*
X326649Y36068D01*
X326649Y40644D02*
X320548Y40644D01*
X329903Y36068D02*
X336004Y36068D01*
X329903Y36068D02*
X336004Y42169D01*
X336004Y43695D01*
X334479Y45220D01*
X331428Y45220D01*
X329903Y43695D01*
X7113Y389128D02*
X5588Y390653D01*
X7113Y389128D02*
X8639Y389128D01*
X10164Y390653D01*
X10164Y398280D01*
X8639Y398280D02*
X11689Y398280D01*
X14943Y398280D02*
X14943Y389128D01*
X14943Y398280D02*
X19519Y398280D01*
X21044Y396755D01*
X21044Y393704D01*
X19519Y392179D01*
X14943Y392179D01*
X24298Y395229D02*
X27349Y398280D01*
X27349Y389128D01*
X24298Y389128D02*
X30400Y389128D01*
X61976Y458224D02*
X68077Y458224D01*
X68077Y456699D01*
X61976Y450597D01*
X61976Y449072D01*
X68077Y449072D01*
X71331Y455173D02*
X72856Y455173D01*
X72856Y449072D01*
X71331Y449072D02*
X74382Y449072D01*
X72856Y458224D02*
X72856Y459749D01*
X79093Y449072D02*
X82144Y449072D01*
X83669Y450597D01*
X83669Y453648D01*
X82144Y455173D01*
X79093Y455173D01*
X77568Y453648D01*
X77568Y450597D01*
X79093Y449072D01*
X96278Y450597D02*
X96278Y456699D01*
X97804Y458224D01*
X100854Y458224D01*
X102380Y456699D01*
X102380Y450597D01*
X100854Y449072D01*
X97804Y449072D01*
X96278Y450597D01*
X99329Y452123D02*
X102380Y449072D01*
X105634Y450597D02*
X105634Y455173D01*
X105634Y450597D02*
X107159Y449072D01*
X108684Y450597D01*
X110209Y449072D01*
X111735Y450597D01*
X111735Y455173D01*
X114989Y455173D02*
X116514Y455173D01*
X116514Y449072D01*
X114989Y449072D02*
X118039Y449072D01*
X116514Y458224D02*
X116514Y459749D01*
X121226Y455173D02*
X122751Y455173D01*
X122751Y449072D01*
X121226Y449072D02*
X124276Y449072D01*
X122751Y458224D02*
X122751Y459749D01*
X128988Y455173D02*
X133563Y455173D01*
X128988Y455173D02*
X127462Y453648D01*
X127462Y450597D01*
X128988Y449072D01*
X133563Y449072D01*
X150749Y458224D02*
X152274Y456699D01*
X150749Y458224D02*
X147698Y458224D01*
X146173Y456699D01*
X146173Y450597D01*
X147698Y449072D01*
X150749Y449072D01*
X152274Y450597D01*
X157053Y455173D02*
X160104Y455173D01*
X161629Y453648D01*
X161629Y449072D01*
X157053Y449072D01*
X155528Y450597D01*
X157053Y452123D01*
X161629Y452123D01*
X164883Y455173D02*
X164883Y446021D01*
X164883Y455173D02*
X169459Y455173D01*
X170984Y453648D01*
X170984Y450597D01*
X169459Y449072D01*
X164883Y449072D01*
X175764Y455173D02*
X178814Y455173D01*
X180339Y453648D01*
X180339Y449072D01*
X175764Y449072D01*
X174238Y450597D01*
X175764Y452123D01*
X180339Y452123D01*
X185119Y455173D02*
X189695Y455173D01*
X185119Y455173D02*
X183593Y453648D01*
X183593Y450597D01*
X185119Y449072D01*
X189695Y449072D01*
X192949Y455173D02*
X194474Y455173D01*
X194474Y449072D01*
X192949Y449072D02*
X195999Y449072D01*
X194474Y458224D02*
X194474Y459749D01*
X200711Y456699D02*
X200711Y450597D01*
X202236Y449072D01*
X202236Y455173D02*
X199185Y455173D01*
X205422Y455173D02*
X206947Y455173D01*
X206947Y449072D01*
X205422Y449072D02*
X208473Y449072D01*
X206947Y458224D02*
X206947Y459749D01*
X211659Y455173D02*
X214710Y449072D01*
X217760Y455173D01*
X222539Y449072D02*
X225590Y449072D01*
X222539Y449072D02*
X221014Y450597D01*
X221014Y453648D01*
X222539Y455173D01*
X225590Y455173D01*
X227115Y453648D01*
X227115Y452123D01*
X221014Y452123D01*
X242775Y449072D02*
X242775Y458224D01*
X239725Y458224D02*
X245826Y458224D01*
X250605Y449072D02*
X253656Y449072D01*
X255181Y450597D01*
X255181Y453648D01*
X253656Y455173D01*
X250605Y455173D01*
X249080Y453648D01*
X249080Y450597D01*
X250605Y449072D01*
X258435Y450597D02*
X258435Y455173D01*
X258435Y450597D02*
X259960Y449072D01*
X264536Y449072D01*
X264536Y455173D01*
X269315Y455173D02*
X273891Y455173D01*
X269315Y455173D02*
X267790Y453648D01*
X267790Y450597D01*
X269315Y449072D01*
X273891Y449072D01*
X277145Y449072D02*
X277145Y458224D01*
X278671Y455173D02*
X277145Y453648D01*
X278671Y455173D02*
X281721Y455173D01*
X283246Y453648D01*
X283246Y449072D01*
X300432Y458224D02*
X301957Y456699D01*
X300432Y458224D02*
X297381Y458224D01*
X295856Y456699D01*
X295856Y455173D01*
X297381Y453648D01*
X300432Y453648D01*
X301957Y452123D01*
X301957Y450597D01*
X300432Y449072D01*
X297381Y449072D01*
X295856Y450597D01*
X306736Y449072D02*
X309787Y449072D01*
X306736Y449072D02*
X305211Y450597D01*
X305211Y453648D01*
X306736Y455173D01*
X309787Y455173D01*
X311312Y453648D01*
X311312Y452123D01*
X305211Y452123D01*
X314566Y449072D02*
X314566Y455173D01*
X319142Y455173D01*
X320667Y453648D01*
X320667Y449072D01*
X323921Y449072D02*
X328497Y449072D01*
X330022Y450597D01*
X328497Y452123D01*
X325446Y452123D01*
X323921Y453648D01*
X325446Y455173D01*
X330022Y455173D01*
X334802Y449072D02*
X337852Y449072D01*
X339378Y450597D01*
X339378Y453648D01*
X337852Y455173D01*
X334802Y455173D01*
X333276Y453648D01*
X333276Y450597D01*
X334802Y449072D01*
X342632Y449072D02*
X342632Y455173D01*
X342632Y452123D02*
X345682Y455173D01*
X347207Y455173D01*
X61976Y439933D02*
X61976Y433832D01*
X61976Y439933D02*
X65027Y442984D01*
X68077Y439933D01*
X68077Y433832D01*
X68077Y438408D02*
X61976Y438408D01*
X74382Y433832D02*
X74382Y442984D01*
X77432Y442984D02*
X71331Y442984D01*
X85262Y442984D02*
X85262Y433832D01*
X80686Y438408D02*
X85262Y442984D01*
X86788Y438408D02*
X80686Y438408D01*
X90042Y433832D02*
X96143Y433832D01*
X90042Y433832D02*
X96143Y439933D01*
X96143Y441459D01*
X94617Y442984D01*
X91567Y442984D01*
X90042Y441459D01*
X99397Y441459D02*
X99397Y435357D01*
X99397Y441459D02*
X100922Y442984D01*
X103973Y442984D01*
X105498Y441459D01*
X105498Y435357D01*
X103973Y433832D01*
X100922Y433832D01*
X99397Y435357D01*
X102447Y436883D02*
X105498Y433832D01*
X111803Y433832D02*
X111803Y442984D01*
X114853Y442984D02*
X108752Y442984D01*
X118107Y433832D02*
X124208Y433832D01*
X118107Y433832D02*
X124208Y439933D01*
X124208Y441459D01*
X122683Y442984D01*
X119632Y442984D01*
X118107Y441459D01*
X127462Y439933D02*
X130513Y442984D01*
X130513Y433832D01*
X127462Y433832D02*
X133564Y433832D01*
X136818Y433832D02*
X142919Y433832D01*
X136818Y433832D02*
X142919Y439933D01*
X142919Y441459D01*
X141393Y442984D01*
X138343Y442984D01*
X136818Y441459D01*
X146173Y441459D02*
X146173Y435357D01*
X146173Y441459D02*
X147698Y442984D01*
X150749Y442984D01*
X152274Y441459D01*
X152274Y435357D01*
X150749Y433832D01*
X147698Y433832D01*
X146173Y435357D01*
X152274Y441459D01*
D11*
X211294Y354516D02*
X211294Y326576D01*
X198594Y326576D01*
X198594Y354516D01*
X211294Y354516D01*
D12*
X332926Y237397D02*
X332995Y237395D01*
X333063Y237390D01*
X333131Y237380D01*
X333199Y237367D01*
X333266Y237351D01*
X333332Y237331D01*
X333396Y237307D01*
X333459Y237280D01*
X333521Y237249D01*
X333581Y237215D01*
X333639Y237178D01*
X333695Y237138D01*
X333748Y237095D01*
X333799Y237049D01*
X333848Y237000D01*
X333894Y236949D01*
X333937Y236896D01*
X333977Y236840D01*
X334014Y236782D01*
X334048Y236722D01*
X334079Y236660D01*
X334106Y236597D01*
X334130Y236533D01*
X334150Y236467D01*
X334166Y236400D01*
X334179Y236332D01*
X334189Y236264D01*
X334194Y236196D01*
X334196Y236127D01*
X334196Y229777D01*
X334194Y229708D01*
X334189Y229640D01*
X334179Y229572D01*
X334166Y229504D01*
X334150Y229437D01*
X334130Y229371D01*
X334106Y229307D01*
X334079Y229244D01*
X334048Y229182D01*
X334014Y229122D01*
X333977Y229064D01*
X333937Y229008D01*
X333894Y228955D01*
X333848Y228904D01*
X333799Y228855D01*
X333748Y228809D01*
X333695Y228766D01*
X333639Y228726D01*
X333581Y228689D01*
X333521Y228655D01*
X333459Y228624D01*
X333396Y228597D01*
X333332Y228573D01*
X333266Y228553D01*
X333199Y228537D01*
X333131Y228524D01*
X333063Y228514D01*
X332995Y228509D01*
X332926Y228507D01*
X317686Y228507D01*
X317617Y228509D01*
X317549Y228514D01*
X317481Y228524D01*
X317413Y228537D01*
X317346Y228553D01*
X317280Y228573D01*
X317216Y228597D01*
X317153Y228624D01*
X317091Y228655D01*
X317031Y228689D01*
X316973Y228726D01*
X316917Y228766D01*
X316864Y228809D01*
X316813Y228855D01*
X316764Y228904D01*
X316718Y228955D01*
X316675Y229008D01*
X316635Y229064D01*
X316598Y229122D01*
X316564Y229182D01*
X316533Y229244D01*
X316506Y229307D01*
X316482Y229371D01*
X316462Y229437D01*
X316446Y229504D01*
X316433Y229572D01*
X316423Y229640D01*
X316418Y229708D01*
X316416Y229777D01*
X316416Y236127D01*
X316418Y236196D01*
X316423Y236264D01*
X316433Y236332D01*
X316446Y236400D01*
X316462Y236467D01*
X316482Y236533D01*
X316506Y236597D01*
X316533Y236660D01*
X316564Y236722D01*
X316598Y236782D01*
X316635Y236840D01*
X316675Y236896D01*
X316718Y236949D01*
X316764Y237000D01*
X316813Y237049D01*
X316864Y237095D01*
X316917Y237138D01*
X316973Y237178D01*
X317031Y237215D01*
X317091Y237249D01*
X317153Y237280D01*
X317216Y237307D01*
X317280Y237331D01*
X317346Y237351D01*
X317413Y237367D01*
X317481Y237380D01*
X317549Y237390D01*
X317617Y237395D01*
X317686Y237397D01*
X332926Y237397D01*
X334196Y247557D02*
X334194Y247626D01*
X334189Y247694D01*
X334179Y247762D01*
X334166Y247830D01*
X334150Y247897D01*
X334130Y247963D01*
X334106Y248027D01*
X334079Y248090D01*
X334048Y248152D01*
X334014Y248212D01*
X333977Y248270D01*
X333937Y248326D01*
X333894Y248379D01*
X333848Y248430D01*
X333799Y248479D01*
X333748Y248525D01*
X333695Y248568D01*
X333639Y248608D01*
X333581Y248645D01*
X333521Y248679D01*
X333459Y248710D01*
X333396Y248737D01*
X333332Y248761D01*
X333266Y248781D01*
X333199Y248797D01*
X333131Y248810D01*
X333063Y248820D01*
X332995Y248825D01*
X332926Y248827D01*
X334196Y247557D02*
X334196Y241207D01*
X334194Y241138D01*
X334189Y241070D01*
X334179Y241002D01*
X334166Y240934D01*
X334150Y240867D01*
X334130Y240801D01*
X334106Y240737D01*
X334079Y240674D01*
X334048Y240612D01*
X334014Y240552D01*
X333977Y240494D01*
X333937Y240438D01*
X333894Y240385D01*
X333848Y240334D01*
X333799Y240285D01*
X333748Y240239D01*
X333695Y240196D01*
X333639Y240156D01*
X333581Y240119D01*
X333521Y240085D01*
X333459Y240054D01*
X333396Y240027D01*
X333332Y240003D01*
X333266Y239983D01*
X333199Y239967D01*
X333131Y239954D01*
X333063Y239944D01*
X332995Y239939D01*
X332926Y239937D01*
X317686Y239937D01*
X317617Y239939D01*
X317549Y239944D01*
X317481Y239954D01*
X317413Y239967D01*
X317346Y239983D01*
X317280Y240003D01*
X317216Y240027D01*
X317153Y240054D01*
X317091Y240085D01*
X317031Y240119D01*
X316973Y240156D01*
X316917Y240196D01*
X316864Y240239D01*
X316813Y240285D01*
X316764Y240334D01*
X316718Y240385D01*
X316675Y240438D01*
X316635Y240494D01*
X316598Y240552D01*
X316564Y240612D01*
X316533Y240674D01*
X316506Y240737D01*
X316482Y240801D01*
X316462Y240867D01*
X316446Y240934D01*
X316433Y241002D01*
X316423Y241070D01*
X316418Y241138D01*
X316416Y241207D01*
X316416Y247557D01*
X316418Y247626D01*
X316423Y247694D01*
X316433Y247762D01*
X316446Y247830D01*
X316462Y247897D01*
X316482Y247963D01*
X316506Y248027D01*
X316533Y248090D01*
X316564Y248152D01*
X316598Y248212D01*
X316635Y248270D01*
X316675Y248326D01*
X316718Y248379D01*
X316764Y248430D01*
X316813Y248479D01*
X316864Y248525D01*
X316917Y248568D01*
X316973Y248608D01*
X317031Y248645D01*
X317091Y248679D01*
X317153Y248710D01*
X317216Y248737D01*
X317280Y248761D01*
X317346Y248781D01*
X317413Y248797D01*
X317481Y248810D01*
X317549Y248820D01*
X317617Y248825D01*
X317686Y248827D01*
X332926Y248827D01*
X334196Y258987D02*
X334194Y259056D01*
X334189Y259124D01*
X334179Y259192D01*
X334166Y259260D01*
X334150Y259327D01*
X334130Y259393D01*
X334106Y259457D01*
X334079Y259520D01*
X334048Y259582D01*
X334014Y259642D01*
X333977Y259700D01*
X333937Y259756D01*
X333894Y259809D01*
X333848Y259860D01*
X333799Y259909D01*
X333748Y259955D01*
X333695Y259998D01*
X333639Y260038D01*
X333581Y260075D01*
X333521Y260109D01*
X333459Y260140D01*
X333396Y260167D01*
X333332Y260191D01*
X333266Y260211D01*
X333199Y260227D01*
X333131Y260240D01*
X333063Y260250D01*
X332995Y260255D01*
X332926Y260257D01*
X334196Y258987D02*
X334196Y252637D01*
X334194Y252568D01*
X334189Y252500D01*
X334179Y252432D01*
X334166Y252364D01*
X334150Y252297D01*
X334130Y252231D01*
X334106Y252167D01*
X334079Y252104D01*
X334048Y252042D01*
X334014Y251982D01*
X333977Y251924D01*
X333937Y251868D01*
X333894Y251815D01*
X333848Y251764D01*
X333799Y251715D01*
X333748Y251669D01*
X333695Y251626D01*
X333639Y251586D01*
X333581Y251549D01*
X333521Y251515D01*
X333459Y251484D01*
X333396Y251457D01*
X333332Y251433D01*
X333266Y251413D01*
X333199Y251397D01*
X333131Y251384D01*
X333063Y251374D01*
X332995Y251369D01*
X332926Y251367D01*
X317686Y251367D01*
X317617Y251369D01*
X317549Y251374D01*
X317481Y251384D01*
X317413Y251397D01*
X317346Y251413D01*
X317280Y251433D01*
X317216Y251457D01*
X317153Y251484D01*
X317091Y251515D01*
X317031Y251549D01*
X316973Y251586D01*
X316917Y251626D01*
X316864Y251669D01*
X316813Y251715D01*
X316764Y251764D01*
X316718Y251815D01*
X316675Y251868D01*
X316635Y251924D01*
X316598Y251982D01*
X316564Y252042D01*
X316533Y252104D01*
X316506Y252167D01*
X316482Y252231D01*
X316462Y252297D01*
X316446Y252364D01*
X316433Y252432D01*
X316423Y252500D01*
X316418Y252568D01*
X316416Y252637D01*
X316416Y258987D01*
X316418Y259056D01*
X316423Y259124D01*
X316433Y259192D01*
X316446Y259260D01*
X316462Y259327D01*
X316482Y259393D01*
X316506Y259457D01*
X316533Y259520D01*
X316564Y259582D01*
X316598Y259642D01*
X316635Y259700D01*
X316675Y259756D01*
X316718Y259809D01*
X316764Y259860D01*
X316813Y259909D01*
X316864Y259955D01*
X316917Y259998D01*
X316973Y260038D01*
X317031Y260075D01*
X317091Y260109D01*
X317153Y260140D01*
X317216Y260167D01*
X317280Y260191D01*
X317346Y260211D01*
X317413Y260227D01*
X317481Y260240D01*
X317549Y260250D01*
X317617Y260255D01*
X317686Y260257D01*
X332926Y260257D01*
X334196Y270417D02*
X334194Y270486D01*
X334189Y270554D01*
X334179Y270622D01*
X334166Y270690D01*
X334150Y270757D01*
X334130Y270823D01*
X334106Y270887D01*
X334079Y270950D01*
X334048Y271012D01*
X334014Y271072D01*
X333977Y271130D01*
X333937Y271186D01*
X333894Y271239D01*
X333848Y271290D01*
X333799Y271339D01*
X333748Y271385D01*
X333695Y271428D01*
X333639Y271468D01*
X333581Y271505D01*
X333521Y271539D01*
X333459Y271570D01*
X333396Y271597D01*
X333332Y271621D01*
X333266Y271641D01*
X333199Y271657D01*
X333131Y271670D01*
X333063Y271680D01*
X332995Y271685D01*
X332926Y271687D01*
X334196Y270417D02*
X334196Y264067D01*
X334194Y263998D01*
X334189Y263930D01*
X334179Y263862D01*
X334166Y263794D01*
X334150Y263727D01*
X334130Y263661D01*
X334106Y263597D01*
X334079Y263534D01*
X334048Y263472D01*
X334014Y263412D01*
X333977Y263354D01*
X333937Y263298D01*
X333894Y263245D01*
X333848Y263194D01*
X333799Y263145D01*
X333748Y263099D01*
X333695Y263056D01*
X333639Y263016D01*
X333581Y262979D01*
X333521Y262945D01*
X333459Y262914D01*
X333396Y262887D01*
X333332Y262863D01*
X333266Y262843D01*
X333199Y262827D01*
X333131Y262814D01*
X333063Y262804D01*
X332995Y262799D01*
X332926Y262797D01*
X317686Y262797D01*
X317617Y262799D01*
X317549Y262804D01*
X317481Y262814D01*
X317413Y262827D01*
X317346Y262843D01*
X317280Y262863D01*
X317216Y262887D01*
X317153Y262914D01*
X317091Y262945D01*
X317031Y262979D01*
X316973Y263016D01*
X316917Y263056D01*
X316864Y263099D01*
X316813Y263145D01*
X316764Y263194D01*
X316718Y263245D01*
X316675Y263298D01*
X316635Y263354D01*
X316598Y263412D01*
X316564Y263472D01*
X316533Y263534D01*
X316506Y263597D01*
X316482Y263661D01*
X316462Y263727D01*
X316446Y263794D01*
X316433Y263862D01*
X316423Y263930D01*
X316418Y263998D01*
X316416Y264067D01*
X316416Y270417D01*
X316418Y270486D01*
X316423Y270554D01*
X316433Y270622D01*
X316446Y270690D01*
X316462Y270757D01*
X316482Y270823D01*
X316506Y270887D01*
X316533Y270950D01*
X316564Y271012D01*
X316598Y271072D01*
X316635Y271130D01*
X316675Y271186D01*
X316718Y271239D01*
X316764Y271290D01*
X316813Y271339D01*
X316864Y271385D01*
X316917Y271428D01*
X316973Y271468D01*
X317031Y271505D01*
X317091Y271539D01*
X317153Y271570D01*
X317216Y271597D01*
X317280Y271621D01*
X317346Y271641D01*
X317413Y271657D01*
X317481Y271670D01*
X317549Y271680D01*
X317617Y271685D01*
X317686Y271687D01*
X332926Y271687D01*
X334196Y281847D02*
X334194Y281916D01*
X334189Y281984D01*
X334179Y282052D01*
X334166Y282120D01*
X334150Y282187D01*
X334130Y282253D01*
X334106Y282317D01*
X334079Y282380D01*
X334048Y282442D01*
X334014Y282502D01*
X333977Y282560D01*
X333937Y282616D01*
X333894Y282669D01*
X333848Y282720D01*
X333799Y282769D01*
X333748Y282815D01*
X333695Y282858D01*
X333639Y282898D01*
X333581Y282935D01*
X333521Y282969D01*
X333459Y283000D01*
X333396Y283027D01*
X333332Y283051D01*
X333266Y283071D01*
X333199Y283087D01*
X333131Y283100D01*
X333063Y283110D01*
X332995Y283115D01*
X332926Y283117D01*
X334196Y281847D02*
X334196Y275497D01*
X334194Y275428D01*
X334189Y275360D01*
X334179Y275292D01*
X334166Y275224D01*
X334150Y275157D01*
X334130Y275091D01*
X334106Y275027D01*
X334079Y274964D01*
X334048Y274902D01*
X334014Y274842D01*
X333977Y274784D01*
X333937Y274728D01*
X333894Y274675D01*
X333848Y274624D01*
X333799Y274575D01*
X333748Y274529D01*
X333695Y274486D01*
X333639Y274446D01*
X333581Y274409D01*
X333521Y274375D01*
X333459Y274344D01*
X333396Y274317D01*
X333332Y274293D01*
X333266Y274273D01*
X333199Y274257D01*
X333131Y274244D01*
X333063Y274234D01*
X332995Y274229D01*
X332926Y274227D01*
X317686Y274227D01*
X317617Y274229D01*
X317549Y274234D01*
X317481Y274244D01*
X317413Y274257D01*
X317346Y274273D01*
X317280Y274293D01*
X317216Y274317D01*
X317153Y274344D01*
X317091Y274375D01*
X317031Y274409D01*
X316973Y274446D01*
X316917Y274486D01*
X316864Y274529D01*
X316813Y274575D01*
X316764Y274624D01*
X316718Y274675D01*
X316675Y274728D01*
X316635Y274784D01*
X316598Y274842D01*
X316564Y274902D01*
X316533Y274964D01*
X316506Y275027D01*
X316482Y275091D01*
X316462Y275157D01*
X316446Y275224D01*
X316433Y275292D01*
X316423Y275360D01*
X316418Y275428D01*
X316416Y275497D01*
X316416Y281847D01*
X316418Y281916D01*
X316423Y281984D01*
X316433Y282052D01*
X316446Y282120D01*
X316462Y282187D01*
X316482Y282253D01*
X316506Y282317D01*
X316533Y282380D01*
X316564Y282442D01*
X316598Y282502D01*
X316635Y282560D01*
X316675Y282616D01*
X316718Y282669D01*
X316764Y282720D01*
X316813Y282769D01*
X316864Y282815D01*
X316917Y282858D01*
X316973Y282898D01*
X317031Y282935D01*
X317091Y282969D01*
X317153Y283000D01*
X317216Y283027D01*
X317280Y283051D01*
X317346Y283071D01*
X317413Y283087D01*
X317481Y283100D01*
X317549Y283110D01*
X317617Y283115D01*
X317686Y283117D01*
X332926Y283117D01*
X334196Y293277D02*
X334194Y293346D01*
X334189Y293414D01*
X334179Y293482D01*
X334166Y293550D01*
X334150Y293617D01*
X334130Y293683D01*
X334106Y293747D01*
X334079Y293810D01*
X334048Y293872D01*
X334014Y293932D01*
X333977Y293990D01*
X333937Y294046D01*
X333894Y294099D01*
X333848Y294150D01*
X333799Y294199D01*
X333748Y294245D01*
X333695Y294288D01*
X333639Y294328D01*
X333581Y294365D01*
X333521Y294399D01*
X333459Y294430D01*
X333396Y294457D01*
X333332Y294481D01*
X333266Y294501D01*
X333199Y294517D01*
X333131Y294530D01*
X333063Y294540D01*
X332995Y294545D01*
X332926Y294547D01*
X334196Y293277D02*
X334196Y286927D01*
X334194Y286858D01*
X334189Y286790D01*
X334179Y286722D01*
X334166Y286654D01*
X334150Y286587D01*
X334130Y286521D01*
X334106Y286457D01*
X334079Y286394D01*
X334048Y286332D01*
X334014Y286272D01*
X333977Y286214D01*
X333937Y286158D01*
X333894Y286105D01*
X333848Y286054D01*
X333799Y286005D01*
X333748Y285959D01*
X333695Y285916D01*
X333639Y285876D01*
X333581Y285839D01*
X333521Y285805D01*
X333459Y285774D01*
X333396Y285747D01*
X333332Y285723D01*
X333266Y285703D01*
X333199Y285687D01*
X333131Y285674D01*
X333063Y285664D01*
X332995Y285659D01*
X332926Y285657D01*
X317686Y285657D01*
X317617Y285659D01*
X317549Y285664D01*
X317481Y285674D01*
X317413Y285687D01*
X317346Y285703D01*
X317280Y285723D01*
X317216Y285747D01*
X317153Y285774D01*
X317091Y285805D01*
X317031Y285839D01*
X316973Y285876D01*
X316917Y285916D01*
X316864Y285959D01*
X316813Y286005D01*
X316764Y286054D01*
X316718Y286105D01*
X316675Y286158D01*
X316635Y286214D01*
X316598Y286272D01*
X316564Y286332D01*
X316533Y286394D01*
X316506Y286457D01*
X316482Y286521D01*
X316462Y286587D01*
X316446Y286654D01*
X316433Y286722D01*
X316423Y286790D01*
X316418Y286858D01*
X316416Y286927D01*
X316416Y293277D01*
X316418Y293346D01*
X316423Y293414D01*
X316433Y293482D01*
X316446Y293550D01*
X316462Y293617D01*
X316482Y293683D01*
X316506Y293747D01*
X316533Y293810D01*
X316564Y293872D01*
X316598Y293932D01*
X316635Y293990D01*
X316675Y294046D01*
X316718Y294099D01*
X316764Y294150D01*
X316813Y294199D01*
X316864Y294245D01*
X316917Y294288D01*
X316973Y294328D01*
X317031Y294365D01*
X317091Y294399D01*
X317153Y294430D01*
X317216Y294457D01*
X317280Y294481D01*
X317346Y294501D01*
X317413Y294517D01*
X317481Y294530D01*
X317549Y294540D01*
X317617Y294545D01*
X317686Y294547D01*
X332926Y294547D01*
X334196Y304707D02*
X334194Y304776D01*
X334189Y304844D01*
X334179Y304912D01*
X334166Y304980D01*
X334150Y305047D01*
X334130Y305113D01*
X334106Y305177D01*
X334079Y305240D01*
X334048Y305302D01*
X334014Y305362D01*
X333977Y305420D01*
X333937Y305476D01*
X333894Y305529D01*
X333848Y305580D01*
X333799Y305629D01*
X333748Y305675D01*
X333695Y305718D01*
X333639Y305758D01*
X333581Y305795D01*
X333521Y305829D01*
X333459Y305860D01*
X333396Y305887D01*
X333332Y305911D01*
X333266Y305931D01*
X333199Y305947D01*
X333131Y305960D01*
X333063Y305970D01*
X332995Y305975D01*
X332926Y305977D01*
X334196Y304707D02*
X334196Y298357D01*
X334194Y298288D01*
X334189Y298220D01*
X334179Y298152D01*
X334166Y298084D01*
X334150Y298017D01*
X334130Y297951D01*
X334106Y297887D01*
X334079Y297824D01*
X334048Y297762D01*
X334014Y297702D01*
X333977Y297644D01*
X333937Y297588D01*
X333894Y297535D01*
X333848Y297484D01*
X333799Y297435D01*
X333748Y297389D01*
X333695Y297346D01*
X333639Y297306D01*
X333581Y297269D01*
X333521Y297235D01*
X333459Y297204D01*
X333396Y297177D01*
X333332Y297153D01*
X333266Y297133D01*
X333199Y297117D01*
X333131Y297104D01*
X333063Y297094D01*
X332995Y297089D01*
X332926Y297087D01*
X317686Y297087D01*
X317617Y297089D01*
X317549Y297094D01*
X317481Y297104D01*
X317413Y297117D01*
X317346Y297133D01*
X317280Y297153D01*
X317216Y297177D01*
X317153Y297204D01*
X317091Y297235D01*
X317031Y297269D01*
X316973Y297306D01*
X316917Y297346D01*
X316864Y297389D01*
X316813Y297435D01*
X316764Y297484D01*
X316718Y297535D01*
X316675Y297588D01*
X316635Y297644D01*
X316598Y297702D01*
X316564Y297762D01*
X316533Y297824D01*
X316506Y297887D01*
X316482Y297951D01*
X316462Y298017D01*
X316446Y298084D01*
X316433Y298152D01*
X316423Y298220D01*
X316418Y298288D01*
X316416Y298357D01*
X316416Y304707D01*
X316418Y304776D01*
X316423Y304844D01*
X316433Y304912D01*
X316446Y304980D01*
X316462Y305047D01*
X316482Y305113D01*
X316506Y305177D01*
X316533Y305240D01*
X316564Y305302D01*
X316598Y305362D01*
X316635Y305420D01*
X316675Y305476D01*
X316718Y305529D01*
X316764Y305580D01*
X316813Y305629D01*
X316864Y305675D01*
X316917Y305718D01*
X316973Y305758D01*
X317031Y305795D01*
X317091Y305829D01*
X317153Y305860D01*
X317216Y305887D01*
X317280Y305911D01*
X317346Y305931D01*
X317413Y305947D01*
X317481Y305960D01*
X317549Y305970D01*
X317617Y305975D01*
X317686Y305977D01*
X332926Y305977D01*
X334196Y316137D02*
X334194Y316206D01*
X334189Y316274D01*
X334179Y316342D01*
X334166Y316410D01*
X334150Y316477D01*
X334130Y316543D01*
X334106Y316607D01*
X334079Y316670D01*
X334048Y316732D01*
X334014Y316792D01*
X333977Y316850D01*
X333937Y316906D01*
X333894Y316959D01*
X333848Y317010D01*
X333799Y317059D01*
X333748Y317105D01*
X333695Y317148D01*
X333639Y317188D01*
X333581Y317225D01*
X333521Y317259D01*
X333459Y317290D01*
X333396Y317317D01*
X333332Y317341D01*
X333266Y317361D01*
X333199Y317377D01*
X333131Y317390D01*
X333063Y317400D01*
X332995Y317405D01*
X332926Y317407D01*
X334196Y316137D02*
X334196Y309787D01*
X334194Y309718D01*
X334189Y309650D01*
X334179Y309582D01*
X334166Y309514D01*
X334150Y309447D01*
X334130Y309381D01*
X334106Y309317D01*
X334079Y309254D01*
X334048Y309192D01*
X334014Y309132D01*
X333977Y309074D01*
X333937Y309018D01*
X333894Y308965D01*
X333848Y308914D01*
X333799Y308865D01*
X333748Y308819D01*
X333695Y308776D01*
X333639Y308736D01*
X333581Y308699D01*
X333521Y308665D01*
X333459Y308634D01*
X333396Y308607D01*
X333332Y308583D01*
X333266Y308563D01*
X333199Y308547D01*
X333131Y308534D01*
X333063Y308524D01*
X332995Y308519D01*
X332926Y308517D01*
X317686Y308517D01*
X317617Y308519D01*
X317549Y308524D01*
X317481Y308534D01*
X317413Y308547D01*
X317346Y308563D01*
X317280Y308583D01*
X317216Y308607D01*
X317153Y308634D01*
X317091Y308665D01*
X317031Y308699D01*
X316973Y308736D01*
X316917Y308776D01*
X316864Y308819D01*
X316813Y308865D01*
X316764Y308914D01*
X316718Y308965D01*
X316675Y309018D01*
X316635Y309074D01*
X316598Y309132D01*
X316564Y309192D01*
X316533Y309254D01*
X316506Y309317D01*
X316482Y309381D01*
X316462Y309447D01*
X316446Y309514D01*
X316433Y309582D01*
X316423Y309650D01*
X316418Y309718D01*
X316416Y309787D01*
X316416Y316137D01*
X316418Y316206D01*
X316423Y316274D01*
X316433Y316342D01*
X316446Y316410D01*
X316462Y316477D01*
X316482Y316543D01*
X316506Y316607D01*
X316533Y316670D01*
X316564Y316732D01*
X316598Y316792D01*
X316635Y316850D01*
X316675Y316906D01*
X316718Y316959D01*
X316764Y317010D01*
X316813Y317059D01*
X316864Y317105D01*
X316917Y317148D01*
X316973Y317188D01*
X317031Y317225D01*
X317091Y317259D01*
X317153Y317290D01*
X317216Y317317D01*
X317280Y317341D01*
X317346Y317361D01*
X317413Y317377D01*
X317481Y317390D01*
X317549Y317400D01*
X317617Y317405D01*
X317686Y317407D01*
X332926Y317407D01*
X334196Y327567D02*
X334194Y327636D01*
X334189Y327704D01*
X334179Y327772D01*
X334166Y327840D01*
X334150Y327907D01*
X334130Y327973D01*
X334106Y328037D01*
X334079Y328100D01*
X334048Y328162D01*
X334014Y328222D01*
X333977Y328280D01*
X333937Y328336D01*
X333894Y328389D01*
X333848Y328440D01*
X333799Y328489D01*
X333748Y328535D01*
X333695Y328578D01*
X333639Y328618D01*
X333581Y328655D01*
X333521Y328689D01*
X333459Y328720D01*
X333396Y328747D01*
X333332Y328771D01*
X333266Y328791D01*
X333199Y328807D01*
X333131Y328820D01*
X333063Y328830D01*
X332995Y328835D01*
X332926Y328837D01*
X334196Y327567D02*
X334196Y321217D01*
X334194Y321148D01*
X334189Y321080D01*
X334179Y321012D01*
X334166Y320944D01*
X334150Y320877D01*
X334130Y320811D01*
X334106Y320747D01*
X334079Y320684D01*
X334048Y320622D01*
X334014Y320562D01*
X333977Y320504D01*
X333937Y320448D01*
X333894Y320395D01*
X333848Y320344D01*
X333799Y320295D01*
X333748Y320249D01*
X333695Y320206D01*
X333639Y320166D01*
X333581Y320129D01*
X333521Y320095D01*
X333459Y320064D01*
X333396Y320037D01*
X333332Y320013D01*
X333266Y319993D01*
X333199Y319977D01*
X333131Y319964D01*
X333063Y319954D01*
X332995Y319949D01*
X332926Y319947D01*
X317686Y319947D01*
X317617Y319949D01*
X317549Y319954D01*
X317481Y319964D01*
X317413Y319977D01*
X317346Y319993D01*
X317280Y320013D01*
X317216Y320037D01*
X317153Y320064D01*
X317091Y320095D01*
X317031Y320129D01*
X316973Y320166D01*
X316917Y320206D01*
X316864Y320249D01*
X316813Y320295D01*
X316764Y320344D01*
X316718Y320395D01*
X316675Y320448D01*
X316635Y320504D01*
X316598Y320562D01*
X316564Y320622D01*
X316533Y320684D01*
X316506Y320747D01*
X316482Y320811D01*
X316462Y320877D01*
X316446Y320944D01*
X316433Y321012D01*
X316423Y321080D01*
X316418Y321148D01*
X316416Y321217D01*
X316416Y327567D01*
X316418Y327636D01*
X316423Y327704D01*
X316433Y327772D01*
X316446Y327840D01*
X316462Y327907D01*
X316482Y327973D01*
X316506Y328037D01*
X316533Y328100D01*
X316564Y328162D01*
X316598Y328222D01*
X316635Y328280D01*
X316675Y328336D01*
X316718Y328389D01*
X316764Y328440D01*
X316813Y328489D01*
X316864Y328535D01*
X316917Y328578D01*
X316973Y328618D01*
X317031Y328655D01*
X317091Y328689D01*
X317153Y328720D01*
X317216Y328747D01*
X317280Y328771D01*
X317346Y328791D01*
X317413Y328807D01*
X317481Y328820D01*
X317549Y328830D01*
X317617Y328835D01*
X317686Y328837D01*
X332926Y328837D01*
X334196Y338997D02*
X334194Y339066D01*
X334189Y339134D01*
X334179Y339202D01*
X334166Y339270D01*
X334150Y339337D01*
X334130Y339403D01*
X334106Y339467D01*
X334079Y339530D01*
X334048Y339592D01*
X334014Y339652D01*
X333977Y339710D01*
X333937Y339766D01*
X333894Y339819D01*
X333848Y339870D01*
X333799Y339919D01*
X333748Y339965D01*
X333695Y340008D01*
X333639Y340048D01*
X333581Y340085D01*
X333521Y340119D01*
X333459Y340150D01*
X333396Y340177D01*
X333332Y340201D01*
X333266Y340221D01*
X333199Y340237D01*
X333131Y340250D01*
X333063Y340260D01*
X332995Y340265D01*
X332926Y340267D01*
X334196Y338997D02*
X334196Y332647D01*
X334194Y332578D01*
X334189Y332510D01*
X334179Y332442D01*
X334166Y332374D01*
X334150Y332307D01*
X334130Y332241D01*
X334106Y332177D01*
X334079Y332114D01*
X334048Y332052D01*
X334014Y331992D01*
X333977Y331934D01*
X333937Y331878D01*
X333894Y331825D01*
X333848Y331774D01*
X333799Y331725D01*
X333748Y331679D01*
X333695Y331636D01*
X333639Y331596D01*
X333581Y331559D01*
X333521Y331525D01*
X333459Y331494D01*
X333396Y331467D01*
X333332Y331443D01*
X333266Y331423D01*
X333199Y331407D01*
X333131Y331394D01*
X333063Y331384D01*
X332995Y331379D01*
X332926Y331377D01*
X317686Y331377D01*
X317617Y331379D01*
X317549Y331384D01*
X317481Y331394D01*
X317413Y331407D01*
X317346Y331423D01*
X317280Y331443D01*
X317216Y331467D01*
X317153Y331494D01*
X317091Y331525D01*
X317031Y331559D01*
X316973Y331596D01*
X316917Y331636D01*
X316864Y331679D01*
X316813Y331725D01*
X316764Y331774D01*
X316718Y331825D01*
X316675Y331878D01*
X316635Y331934D01*
X316598Y331992D01*
X316564Y332052D01*
X316533Y332114D01*
X316506Y332177D01*
X316482Y332241D01*
X316462Y332307D01*
X316446Y332374D01*
X316433Y332442D01*
X316423Y332510D01*
X316418Y332578D01*
X316416Y332647D01*
X316416Y338997D01*
X316418Y339066D01*
X316423Y339134D01*
X316433Y339202D01*
X316446Y339270D01*
X316462Y339337D01*
X316482Y339403D01*
X316506Y339467D01*
X316533Y339530D01*
X316564Y339592D01*
X316598Y339652D01*
X316635Y339710D01*
X316675Y339766D01*
X316718Y339819D01*
X316764Y339870D01*
X316813Y339919D01*
X316864Y339965D01*
X316917Y340008D01*
X316973Y340048D01*
X317031Y340085D01*
X317091Y340119D01*
X317153Y340150D01*
X317216Y340177D01*
X317280Y340201D01*
X317346Y340221D01*
X317413Y340237D01*
X317481Y340250D01*
X317549Y340260D01*
X317617Y340265D01*
X317686Y340267D01*
X332926Y340267D01*
X334196Y350427D02*
X334194Y350496D01*
X334189Y350564D01*
X334179Y350632D01*
X334166Y350700D01*
X334150Y350767D01*
X334130Y350833D01*
X334106Y350897D01*
X334079Y350960D01*
X334048Y351022D01*
X334014Y351082D01*
X333977Y351140D01*
X333937Y351196D01*
X333894Y351249D01*
X333848Y351300D01*
X333799Y351349D01*
X333748Y351395D01*
X333695Y351438D01*
X333639Y351478D01*
X333581Y351515D01*
X333521Y351549D01*
X333459Y351580D01*
X333396Y351607D01*
X333332Y351631D01*
X333266Y351651D01*
X333199Y351667D01*
X333131Y351680D01*
X333063Y351690D01*
X332995Y351695D01*
X332926Y351697D01*
X334196Y350427D02*
X334196Y344077D01*
X334194Y344008D01*
X334189Y343940D01*
X334179Y343872D01*
X334166Y343804D01*
X334150Y343737D01*
X334130Y343671D01*
X334106Y343607D01*
X334079Y343544D01*
X334048Y343482D01*
X334014Y343422D01*
X333977Y343364D01*
X333937Y343308D01*
X333894Y343255D01*
X333848Y343204D01*
X333799Y343155D01*
X333748Y343109D01*
X333695Y343066D01*
X333639Y343026D01*
X333581Y342989D01*
X333521Y342955D01*
X333459Y342924D01*
X333396Y342897D01*
X333332Y342873D01*
X333266Y342853D01*
X333199Y342837D01*
X333131Y342824D01*
X333063Y342814D01*
X332995Y342809D01*
X332926Y342807D01*
X317686Y342807D01*
X317617Y342809D01*
X317549Y342814D01*
X317481Y342824D01*
X317413Y342837D01*
X317346Y342853D01*
X317280Y342873D01*
X317216Y342897D01*
X317153Y342924D01*
X317091Y342955D01*
X317031Y342989D01*
X316973Y343026D01*
X316917Y343066D01*
X316864Y343109D01*
X316813Y343155D01*
X316764Y343204D01*
X316718Y343255D01*
X316675Y343308D01*
X316635Y343364D01*
X316598Y343422D01*
X316564Y343482D01*
X316533Y343544D01*
X316506Y343607D01*
X316482Y343671D01*
X316462Y343737D01*
X316446Y343804D01*
X316433Y343872D01*
X316423Y343940D01*
X316418Y344008D01*
X316416Y344077D01*
X316416Y350427D01*
X316418Y350496D01*
X316423Y350564D01*
X316433Y350632D01*
X316446Y350700D01*
X316462Y350767D01*
X316482Y350833D01*
X316506Y350897D01*
X316533Y350960D01*
X316564Y351022D01*
X316598Y351082D01*
X316635Y351140D01*
X316675Y351196D01*
X316718Y351249D01*
X316764Y351300D01*
X316813Y351349D01*
X316864Y351395D01*
X316917Y351438D01*
X316973Y351478D01*
X317031Y351515D01*
X317091Y351549D01*
X317153Y351580D01*
X317216Y351607D01*
X317280Y351631D01*
X317346Y351651D01*
X317413Y351667D01*
X317481Y351680D01*
X317549Y351690D01*
X317617Y351695D01*
X317686Y351697D01*
X332926Y351697D01*
X334196Y361857D02*
X334194Y361926D01*
X334189Y361994D01*
X334179Y362062D01*
X334166Y362130D01*
X334150Y362197D01*
X334130Y362263D01*
X334106Y362327D01*
X334079Y362390D01*
X334048Y362452D01*
X334014Y362512D01*
X333977Y362570D01*
X333937Y362626D01*
X333894Y362679D01*
X333848Y362730D01*
X333799Y362779D01*
X333748Y362825D01*
X333695Y362868D01*
X333639Y362908D01*
X333581Y362945D01*
X333521Y362979D01*
X333459Y363010D01*
X333396Y363037D01*
X333332Y363061D01*
X333266Y363081D01*
X333199Y363097D01*
X333131Y363110D01*
X333063Y363120D01*
X332995Y363125D01*
X332926Y363127D01*
X334196Y361857D02*
X334196Y355507D01*
X334194Y355438D01*
X334189Y355370D01*
X334179Y355302D01*
X334166Y355234D01*
X334150Y355167D01*
X334130Y355101D01*
X334106Y355037D01*
X334079Y354974D01*
X334048Y354912D01*
X334014Y354852D01*
X333977Y354794D01*
X333937Y354738D01*
X333894Y354685D01*
X333848Y354634D01*
X333799Y354585D01*
X333748Y354539D01*
X333695Y354496D01*
X333639Y354456D01*
X333581Y354419D01*
X333521Y354385D01*
X333459Y354354D01*
X333396Y354327D01*
X333332Y354303D01*
X333266Y354283D01*
X333199Y354267D01*
X333131Y354254D01*
X333063Y354244D01*
X332995Y354239D01*
X332926Y354237D01*
X317686Y354237D01*
X317617Y354239D01*
X317549Y354244D01*
X317481Y354254D01*
X317413Y354267D01*
X317346Y354283D01*
X317280Y354303D01*
X317216Y354327D01*
X317153Y354354D01*
X317091Y354385D01*
X317031Y354419D01*
X316973Y354456D01*
X316917Y354496D01*
X316864Y354539D01*
X316813Y354585D01*
X316764Y354634D01*
X316718Y354685D01*
X316675Y354738D01*
X316635Y354794D01*
X316598Y354852D01*
X316564Y354912D01*
X316533Y354974D01*
X316506Y355037D01*
X316482Y355101D01*
X316462Y355167D01*
X316446Y355234D01*
X316433Y355302D01*
X316423Y355370D01*
X316418Y355438D01*
X316416Y355507D01*
X316416Y361857D01*
X316418Y361926D01*
X316423Y361994D01*
X316433Y362062D01*
X316446Y362130D01*
X316462Y362197D01*
X316482Y362263D01*
X316506Y362327D01*
X316533Y362390D01*
X316564Y362452D01*
X316598Y362512D01*
X316635Y362570D01*
X316675Y362626D01*
X316718Y362679D01*
X316764Y362730D01*
X316813Y362779D01*
X316864Y362825D01*
X316917Y362868D01*
X316973Y362908D01*
X317031Y362945D01*
X317091Y362979D01*
X317153Y363010D01*
X317216Y363037D01*
X317280Y363061D01*
X317346Y363081D01*
X317413Y363097D01*
X317481Y363110D01*
X317549Y363120D01*
X317617Y363125D01*
X317686Y363127D01*
X332926Y363127D01*
D11*
X224976Y275116D02*
X197036Y275116D01*
X197036Y287816D01*
X224976Y287816D01*
X224976Y275116D01*
X182152Y326712D02*
X182152Y354652D01*
X194852Y354652D01*
X194852Y326712D01*
X182152Y326712D01*
D13*
X250616Y282976D02*
X280616Y282976D01*
X250616Y282976D02*
X250616Y312976D01*
X280616Y312976D01*
X280616Y282976D01*
X280616Y287476D02*
X276116Y282976D01*
D14*
X283236Y282226D02*
X283238Y282293D01*
X283244Y282359D01*
X283254Y282425D01*
X283267Y282490D01*
X283285Y282555D01*
X283306Y282618D01*
X283331Y282680D01*
X283360Y282740D01*
X283392Y282798D01*
X283428Y282854D01*
X283467Y282909D01*
X283509Y282960D01*
X283554Y283010D01*
X283602Y283056D01*
X283652Y283100D01*
X283705Y283140D01*
X283760Y283177D01*
X283818Y283211D01*
X283877Y283242D01*
X283938Y283269D01*
X284001Y283292D01*
X284064Y283311D01*
X284129Y283327D01*
X284195Y283339D01*
X284261Y283347D01*
X284328Y283351D01*
X284394Y283351D01*
X284461Y283347D01*
X284527Y283339D01*
X284593Y283327D01*
X284658Y283311D01*
X284721Y283292D01*
X284784Y283269D01*
X284845Y283242D01*
X284904Y283211D01*
X284962Y283177D01*
X285017Y283140D01*
X285070Y283100D01*
X285120Y283056D01*
X285168Y283010D01*
X285213Y282960D01*
X285255Y282909D01*
X285294Y282854D01*
X285330Y282798D01*
X285362Y282740D01*
X285391Y282680D01*
X285416Y282618D01*
X285437Y282555D01*
X285455Y282490D01*
X285468Y282425D01*
X285478Y282359D01*
X285484Y282293D01*
X285486Y282226D01*
X285484Y282159D01*
X285478Y282093D01*
X285468Y282027D01*
X285455Y281962D01*
X285437Y281897D01*
X285416Y281834D01*
X285391Y281772D01*
X285362Y281712D01*
X285330Y281654D01*
X285294Y281598D01*
X285255Y281543D01*
X285213Y281492D01*
X285168Y281442D01*
X285120Y281396D01*
X285070Y281352D01*
X285017Y281312D01*
X284962Y281275D01*
X284904Y281241D01*
X284845Y281210D01*
X284784Y281183D01*
X284721Y281160D01*
X284658Y281141D01*
X284593Y281125D01*
X284527Y281113D01*
X284461Y281105D01*
X284394Y281101D01*
X284328Y281101D01*
X284261Y281105D01*
X284195Y281113D01*
X284129Y281125D01*
X284064Y281141D01*
X284001Y281160D01*
X283938Y281183D01*
X283877Y281210D01*
X283818Y281241D01*
X283760Y281275D01*
X283705Y281312D01*
X283652Y281352D01*
X283602Y281396D01*
X283554Y281442D01*
X283509Y281492D01*
X283467Y281543D01*
X283428Y281598D01*
X283392Y281654D01*
X283360Y281712D01*
X283331Y281772D01*
X283306Y281834D01*
X283285Y281897D01*
X283267Y281962D01*
X283254Y282027D01*
X283244Y282093D01*
X283238Y282159D01*
X283236Y282226D01*
D15*
X53840Y328142D02*
X53842Y328217D01*
X53848Y328291D01*
X53858Y328365D01*
X53871Y328438D01*
X53889Y328511D01*
X53910Y328582D01*
X53935Y328653D01*
X53964Y328722D01*
X53997Y328789D01*
X54033Y328854D01*
X54072Y328918D01*
X54114Y328979D01*
X54160Y329038D01*
X54209Y329095D01*
X54261Y329148D01*
X54315Y329199D01*
X54372Y329248D01*
X54432Y329292D01*
X54494Y329334D01*
X54558Y329373D01*
X54624Y329408D01*
X54691Y329439D01*
X54761Y329467D01*
X54831Y329491D01*
X54903Y329512D01*
X54976Y329528D01*
X55049Y329541D01*
X55124Y329550D01*
X55198Y329555D01*
X55273Y329556D01*
X55347Y329553D01*
X55422Y329546D01*
X55495Y329535D01*
X55569Y329521D01*
X55641Y329502D01*
X55712Y329480D01*
X55782Y329454D01*
X55851Y329424D01*
X55917Y329391D01*
X55982Y329354D01*
X56045Y329314D01*
X56106Y329270D01*
X56164Y329224D01*
X56220Y329174D01*
X56273Y329122D01*
X56324Y329067D01*
X56371Y329009D01*
X56415Y328949D01*
X56456Y328886D01*
X56494Y328822D01*
X56528Y328756D01*
X56559Y328687D01*
X56586Y328618D01*
X56609Y328547D01*
X56628Y328475D01*
X56644Y328402D01*
X56656Y328328D01*
X56664Y328254D01*
X56668Y328179D01*
X56668Y328105D01*
X56664Y328030D01*
X56656Y327956D01*
X56644Y327882D01*
X56628Y327809D01*
X56609Y327737D01*
X56586Y327666D01*
X56559Y327597D01*
X56528Y327528D01*
X56494Y327462D01*
X56456Y327398D01*
X56415Y327335D01*
X56371Y327275D01*
X56324Y327217D01*
X56273Y327162D01*
X56220Y327110D01*
X56164Y327060D01*
X56106Y327014D01*
X56045Y326970D01*
X55982Y326930D01*
X55917Y326893D01*
X55851Y326860D01*
X55782Y326830D01*
X55712Y326804D01*
X55641Y326782D01*
X55569Y326763D01*
X55495Y326749D01*
X55422Y326738D01*
X55347Y326731D01*
X55273Y326728D01*
X55198Y326729D01*
X55124Y326734D01*
X55049Y326743D01*
X54976Y326756D01*
X54903Y326772D01*
X54831Y326793D01*
X54761Y326817D01*
X54691Y326845D01*
X54624Y326876D01*
X54558Y326911D01*
X54494Y326950D01*
X54432Y326992D01*
X54372Y327036D01*
X54315Y327085D01*
X54261Y327136D01*
X54209Y327189D01*
X54160Y327246D01*
X54114Y327305D01*
X54072Y327366D01*
X54033Y327430D01*
X53997Y327495D01*
X53964Y327562D01*
X53935Y327631D01*
X53910Y327702D01*
X53889Y327773D01*
X53871Y327846D01*
X53858Y327919D01*
X53848Y327993D01*
X53842Y328067D01*
X53840Y328142D01*
D16*
X6254Y318142D02*
X6254Y288142D01*
X32254Y333142D02*
X48754Y333142D01*
X48754Y280642D02*
X48754Y273142D01*
X32254Y273142D01*
X48754Y325642D02*
X48754Y333142D01*
D15*
X53586Y249238D02*
X53588Y249313D01*
X53594Y249387D01*
X53604Y249461D01*
X53617Y249534D01*
X53635Y249607D01*
X53656Y249678D01*
X53681Y249749D01*
X53710Y249818D01*
X53743Y249885D01*
X53779Y249950D01*
X53818Y250014D01*
X53860Y250075D01*
X53906Y250134D01*
X53955Y250191D01*
X54007Y250244D01*
X54061Y250295D01*
X54118Y250344D01*
X54178Y250388D01*
X54240Y250430D01*
X54304Y250469D01*
X54370Y250504D01*
X54437Y250535D01*
X54507Y250563D01*
X54577Y250587D01*
X54649Y250608D01*
X54722Y250624D01*
X54795Y250637D01*
X54870Y250646D01*
X54944Y250651D01*
X55019Y250652D01*
X55093Y250649D01*
X55168Y250642D01*
X55241Y250631D01*
X55315Y250617D01*
X55387Y250598D01*
X55458Y250576D01*
X55528Y250550D01*
X55597Y250520D01*
X55663Y250487D01*
X55728Y250450D01*
X55791Y250410D01*
X55852Y250366D01*
X55910Y250320D01*
X55966Y250270D01*
X56019Y250218D01*
X56070Y250163D01*
X56117Y250105D01*
X56161Y250045D01*
X56202Y249982D01*
X56240Y249918D01*
X56274Y249852D01*
X56305Y249783D01*
X56332Y249714D01*
X56355Y249643D01*
X56374Y249571D01*
X56390Y249498D01*
X56402Y249424D01*
X56410Y249350D01*
X56414Y249275D01*
X56414Y249201D01*
X56410Y249126D01*
X56402Y249052D01*
X56390Y248978D01*
X56374Y248905D01*
X56355Y248833D01*
X56332Y248762D01*
X56305Y248693D01*
X56274Y248624D01*
X56240Y248558D01*
X56202Y248494D01*
X56161Y248431D01*
X56117Y248371D01*
X56070Y248313D01*
X56019Y248258D01*
X55966Y248206D01*
X55910Y248156D01*
X55852Y248110D01*
X55791Y248066D01*
X55728Y248026D01*
X55663Y247989D01*
X55597Y247956D01*
X55528Y247926D01*
X55458Y247900D01*
X55387Y247878D01*
X55315Y247859D01*
X55241Y247845D01*
X55168Y247834D01*
X55093Y247827D01*
X55019Y247824D01*
X54944Y247825D01*
X54870Y247830D01*
X54795Y247839D01*
X54722Y247852D01*
X54649Y247868D01*
X54577Y247889D01*
X54507Y247913D01*
X54437Y247941D01*
X54370Y247972D01*
X54304Y248007D01*
X54240Y248046D01*
X54178Y248088D01*
X54118Y248132D01*
X54061Y248181D01*
X54007Y248232D01*
X53955Y248285D01*
X53906Y248342D01*
X53860Y248401D01*
X53818Y248462D01*
X53779Y248526D01*
X53743Y248591D01*
X53710Y248658D01*
X53681Y248727D01*
X53656Y248798D01*
X53635Y248869D01*
X53617Y248942D01*
X53604Y249015D01*
X53594Y249089D01*
X53588Y249163D01*
X53586Y249238D01*
D16*
X6000Y239238D02*
X6000Y209238D01*
X32000Y254238D02*
X48500Y254238D01*
X48500Y201738D02*
X48500Y194238D01*
X32000Y194238D01*
X48500Y246738D02*
X48500Y254238D01*
D11*
X55118Y371224D02*
X27178Y371224D01*
X27178Y383924D01*
X55118Y383924D01*
X55118Y371224D01*
X55118Y354968D02*
X27178Y354968D01*
X27178Y367668D01*
X55118Y367668D01*
X55118Y354968D01*
D17*
X22606Y356746D02*
X22606Y382146D01*
X4826Y384686D02*
X4726Y384684D01*
X4627Y384678D01*
X4527Y384668D01*
X4429Y384655D01*
X4330Y384637D01*
X4233Y384616D01*
X4137Y384591D01*
X4041Y384562D01*
X3947Y384529D01*
X3854Y384493D01*
X3763Y384453D01*
X3673Y384409D01*
X3585Y384362D01*
X3499Y384312D01*
X3415Y384258D01*
X3333Y384201D01*
X3254Y384141D01*
X3176Y384077D01*
X3102Y384011D01*
X3030Y383942D01*
X2961Y383870D01*
X2895Y383796D01*
X2831Y383718D01*
X2771Y383639D01*
X2714Y383557D01*
X2660Y383473D01*
X2610Y383387D01*
X2563Y383299D01*
X2519Y383209D01*
X2479Y383118D01*
X2443Y383025D01*
X2410Y382931D01*
X2381Y382835D01*
X2356Y382739D01*
X2335Y382642D01*
X2317Y382543D01*
X2304Y382445D01*
X2294Y382345D01*
X2288Y382246D01*
X2286Y382146D01*
X2286Y356746D02*
X2288Y356646D01*
X2294Y356547D01*
X2304Y356447D01*
X2317Y356349D01*
X2335Y356250D01*
X2356Y356153D01*
X2381Y356057D01*
X2410Y355961D01*
X2443Y355867D01*
X2479Y355774D01*
X2519Y355683D01*
X2563Y355593D01*
X2610Y355505D01*
X2660Y355419D01*
X2714Y355335D01*
X2771Y355253D01*
X2831Y355174D01*
X2895Y355096D01*
X2961Y355022D01*
X3030Y354950D01*
X3102Y354881D01*
X3176Y354815D01*
X3254Y354751D01*
X3333Y354691D01*
X3415Y354634D01*
X3499Y354580D01*
X3585Y354530D01*
X3673Y354483D01*
X3763Y354439D01*
X3854Y354399D01*
X3947Y354363D01*
X4041Y354330D01*
X4137Y354301D01*
X4233Y354276D01*
X4330Y354255D01*
X4429Y354237D01*
X4527Y354224D01*
X4627Y354214D01*
X4726Y354208D01*
X4826Y354206D01*
X20066Y354206D02*
X20166Y354208D01*
X20265Y354214D01*
X20365Y354224D01*
X20463Y354237D01*
X20562Y354255D01*
X20659Y354276D01*
X20755Y354301D01*
X20851Y354330D01*
X20945Y354363D01*
X21038Y354399D01*
X21129Y354439D01*
X21219Y354483D01*
X21307Y354530D01*
X21393Y354580D01*
X21477Y354634D01*
X21559Y354691D01*
X21638Y354751D01*
X21716Y354815D01*
X21790Y354881D01*
X21862Y354950D01*
X21931Y355022D01*
X21997Y355096D01*
X22061Y355174D01*
X22121Y355253D01*
X22178Y355335D01*
X22232Y355419D01*
X22282Y355505D01*
X22329Y355593D01*
X22373Y355683D01*
X22413Y355774D01*
X22449Y355867D01*
X22482Y355961D01*
X22511Y356057D01*
X22536Y356153D01*
X22557Y356250D01*
X22575Y356349D01*
X22588Y356447D01*
X22598Y356547D01*
X22604Y356646D01*
X22606Y356746D01*
X22606Y382146D02*
X22604Y382246D01*
X22598Y382345D01*
X22588Y382445D01*
X22575Y382543D01*
X22557Y382642D01*
X22536Y382739D01*
X22511Y382835D01*
X22482Y382931D01*
X22449Y383025D01*
X22413Y383118D01*
X22373Y383209D01*
X22329Y383299D01*
X22282Y383387D01*
X22232Y383473D01*
X22178Y383557D01*
X22121Y383639D01*
X22061Y383718D01*
X21997Y383796D01*
X21931Y383870D01*
X21862Y383942D01*
X21790Y384011D01*
X21716Y384077D01*
X21638Y384141D01*
X21559Y384201D01*
X21477Y384258D01*
X21393Y384312D01*
X21307Y384362D01*
X21219Y384409D01*
X21129Y384453D01*
X21038Y384493D01*
X20945Y384529D01*
X20851Y384562D01*
X20755Y384591D01*
X20659Y384616D01*
X20562Y384637D01*
X20463Y384655D01*
X20365Y384668D01*
X20265Y384678D01*
X20166Y384684D01*
X20066Y384686D01*
X4826Y384686D01*
X4826Y354206D02*
X20066Y354206D01*
X2286Y356746D02*
X2286Y382146D01*
D11*
X169120Y203070D02*
X169120Y98930D01*
X169120Y203070D02*
X240240Y203070D01*
X240240Y105280D01*
X233890Y98930D01*
X169120Y98930D01*
X238201Y95120D02*
X238203Y95255D01*
X238209Y95390D01*
X238219Y95525D01*
X238233Y95659D01*
X238251Y95793D01*
X238273Y95926D01*
X238298Y96059D01*
X238328Y96191D01*
X238361Y96321D01*
X238399Y96451D01*
X238440Y96580D01*
X238485Y96707D01*
X238534Y96833D01*
X238586Y96958D01*
X238642Y97081D01*
X238702Y97202D01*
X238765Y97321D01*
X238831Y97439D01*
X238902Y97554D01*
X238975Y97667D01*
X239052Y97779D01*
X239132Y97887D01*
X239215Y97994D01*
X239301Y98098D01*
X239391Y98199D01*
X239483Y98298D01*
X239578Y98393D01*
X239676Y98486D01*
X239777Y98577D01*
X239880Y98664D01*
X239986Y98748D01*
X240094Y98828D01*
X240205Y98906D01*
X240317Y98980D01*
X240432Y99051D01*
X240549Y99119D01*
X240668Y99183D01*
X240789Y99243D01*
X240911Y99300D01*
X241035Y99354D01*
X241161Y99403D01*
X241288Y99449D01*
X241416Y99491D01*
X241546Y99530D01*
X241677Y99564D01*
X241808Y99595D01*
X241941Y99621D01*
X242074Y99644D01*
X242207Y99663D01*
X242342Y99678D01*
X242476Y99689D01*
X242611Y99696D01*
X242746Y99699D01*
X242881Y99698D01*
X243016Y99693D01*
X243151Y99684D01*
X243285Y99671D01*
X243420Y99654D01*
X243553Y99633D01*
X243686Y99609D01*
X243818Y99580D01*
X243949Y99547D01*
X244079Y99511D01*
X244208Y99471D01*
X244336Y99427D01*
X244462Y99379D01*
X244587Y99327D01*
X244710Y99272D01*
X244832Y99214D01*
X244952Y99151D01*
X245069Y99086D01*
X245185Y99016D01*
X245299Y98944D01*
X245411Y98868D01*
X245520Y98788D01*
X245627Y98706D01*
X245732Y98620D01*
X245834Y98532D01*
X245933Y98440D01*
X246030Y98346D01*
X246123Y98249D01*
X246214Y98149D01*
X246302Y98046D01*
X246387Y97941D01*
X246469Y97833D01*
X246547Y97723D01*
X246622Y97611D01*
X246694Y97497D01*
X246762Y97380D01*
X246827Y97262D01*
X246889Y97141D01*
X246946Y97019D01*
X247001Y96896D01*
X247051Y96770D01*
X247098Y96644D01*
X247141Y96516D01*
X247180Y96386D01*
X247216Y96256D01*
X247247Y96125D01*
X247275Y95993D01*
X247299Y95860D01*
X247319Y95726D01*
X247335Y95592D01*
X247347Y95457D01*
X247355Y95323D01*
X247359Y95188D01*
X247359Y95052D01*
X247355Y94917D01*
X247347Y94783D01*
X247335Y94648D01*
X247319Y94514D01*
X247299Y94380D01*
X247275Y94247D01*
X247247Y94115D01*
X247216Y93984D01*
X247180Y93854D01*
X247141Y93724D01*
X247098Y93596D01*
X247051Y93470D01*
X247001Y93344D01*
X246946Y93221D01*
X246889Y93099D01*
X246827Y92978D01*
X246762Y92860D01*
X246694Y92743D01*
X246622Y92629D01*
X246547Y92517D01*
X246469Y92407D01*
X246387Y92299D01*
X246302Y92194D01*
X246214Y92091D01*
X246123Y91991D01*
X246030Y91894D01*
X245933Y91800D01*
X245834Y91708D01*
X245732Y91620D01*
X245627Y91534D01*
X245520Y91452D01*
X245411Y91372D01*
X245299Y91296D01*
X245185Y91224D01*
X245070Y91154D01*
X244952Y91089D01*
X244832Y91026D01*
X244710Y90968D01*
X244587Y90913D01*
X244462Y90861D01*
X244336Y90813D01*
X244208Y90769D01*
X244079Y90729D01*
X243949Y90693D01*
X243818Y90660D01*
X243686Y90631D01*
X243553Y90607D01*
X243420Y90586D01*
X243285Y90569D01*
X243151Y90556D01*
X243016Y90547D01*
X242881Y90542D01*
X242746Y90541D01*
X242611Y90544D01*
X242476Y90551D01*
X242342Y90562D01*
X242207Y90577D01*
X242074Y90596D01*
X241941Y90619D01*
X241808Y90645D01*
X241677Y90676D01*
X241546Y90710D01*
X241416Y90749D01*
X241288Y90791D01*
X241161Y90837D01*
X241035Y90886D01*
X240911Y90940D01*
X240789Y90997D01*
X240668Y91057D01*
X240549Y91121D01*
X240432Y91189D01*
X240317Y91260D01*
X240205Y91334D01*
X240094Y91412D01*
X239986Y91492D01*
X239880Y91576D01*
X239777Y91663D01*
X239676Y91754D01*
X239578Y91847D01*
X239483Y91942D01*
X239391Y92041D01*
X239301Y92142D01*
X239215Y92246D01*
X239132Y92353D01*
X239052Y92461D01*
X238975Y92573D01*
X238902Y92686D01*
X238831Y92801D01*
X238765Y92919D01*
X238702Y93038D01*
X238642Y93159D01*
X238586Y93282D01*
X238534Y93407D01*
X238485Y93533D01*
X238440Y93660D01*
X238399Y93789D01*
X238361Y93919D01*
X238328Y94049D01*
X238298Y94181D01*
X238273Y94314D01*
X238251Y94447D01*
X238233Y94581D01*
X238219Y94715D01*
X238209Y94850D01*
X238203Y94985D01*
X238201Y95120D01*
X375692Y81210D02*
X375692Y53270D01*
X375692Y81210D02*
X388392Y81210D01*
X388392Y53270D01*
X375692Y53270D01*
X348240Y53252D02*
X348240Y81192D01*
X360940Y81192D01*
X360940Y53252D01*
X348240Y53252D01*
X334138Y53166D02*
X334138Y81106D01*
X334138Y53166D02*
X321438Y53166D01*
X321438Y81106D01*
X334138Y81106D01*
D17*
X392142Y27598D02*
X392142Y10326D01*
X374362Y30138D02*
X374262Y30136D01*
X374163Y30130D01*
X374063Y30120D01*
X373965Y30107D01*
X373866Y30089D01*
X373769Y30068D01*
X373673Y30043D01*
X373577Y30014D01*
X373483Y29981D01*
X373390Y29945D01*
X373299Y29905D01*
X373209Y29861D01*
X373121Y29814D01*
X373035Y29764D01*
X372951Y29710D01*
X372869Y29653D01*
X372790Y29593D01*
X372712Y29529D01*
X372638Y29463D01*
X372566Y29394D01*
X372497Y29322D01*
X372431Y29248D01*
X372367Y29170D01*
X372307Y29091D01*
X372250Y29009D01*
X372196Y28925D01*
X372146Y28839D01*
X372099Y28751D01*
X372055Y28661D01*
X372015Y28570D01*
X371979Y28477D01*
X371946Y28383D01*
X371917Y28287D01*
X371892Y28191D01*
X371871Y28094D01*
X371853Y27995D01*
X371840Y27897D01*
X371830Y27797D01*
X371824Y27698D01*
X371822Y27598D01*
X371822Y10326D02*
X371824Y10226D01*
X371830Y10127D01*
X371840Y10027D01*
X371853Y9929D01*
X371871Y9830D01*
X371892Y9733D01*
X371917Y9637D01*
X371946Y9541D01*
X371979Y9447D01*
X372015Y9354D01*
X372055Y9263D01*
X372099Y9173D01*
X372146Y9085D01*
X372196Y8999D01*
X372250Y8915D01*
X372307Y8833D01*
X372367Y8754D01*
X372431Y8676D01*
X372497Y8602D01*
X372566Y8530D01*
X372638Y8461D01*
X372712Y8395D01*
X372790Y8331D01*
X372869Y8271D01*
X372951Y8214D01*
X373035Y8160D01*
X373121Y8110D01*
X373209Y8063D01*
X373299Y8019D01*
X373390Y7979D01*
X373483Y7943D01*
X373577Y7910D01*
X373673Y7881D01*
X373769Y7856D01*
X373866Y7835D01*
X373965Y7817D01*
X374063Y7804D01*
X374163Y7794D01*
X374262Y7788D01*
X374362Y7786D01*
X389602Y7786D02*
X389702Y7788D01*
X389801Y7794D01*
X389901Y7804D01*
X389999Y7817D01*
X390098Y7835D01*
X390195Y7856D01*
X390291Y7881D01*
X390387Y7910D01*
X390481Y7943D01*
X390574Y7979D01*
X390665Y8019D01*
X390755Y8063D01*
X390843Y8110D01*
X390929Y8160D01*
X391013Y8214D01*
X391095Y8271D01*
X391174Y8331D01*
X391252Y8395D01*
X391326Y8461D01*
X391398Y8530D01*
X391467Y8602D01*
X391533Y8676D01*
X391597Y8754D01*
X391657Y8833D01*
X391714Y8915D01*
X391768Y8999D01*
X391818Y9085D01*
X391865Y9173D01*
X391909Y9263D01*
X391949Y9354D01*
X391985Y9447D01*
X392018Y9541D01*
X392047Y9637D01*
X392072Y9733D01*
X392093Y9830D01*
X392111Y9929D01*
X392124Y10027D01*
X392134Y10127D01*
X392140Y10226D01*
X392142Y10326D01*
X392142Y27598D02*
X392140Y27698D01*
X392134Y27797D01*
X392124Y27897D01*
X392111Y27995D01*
X392093Y28094D01*
X392072Y28191D01*
X392047Y28287D01*
X392018Y28383D01*
X391985Y28477D01*
X391949Y28570D01*
X391909Y28661D01*
X391865Y28751D01*
X391818Y28839D01*
X391768Y28925D01*
X391714Y29009D01*
X391657Y29091D01*
X391597Y29170D01*
X391533Y29248D01*
X391467Y29322D01*
X391398Y29394D01*
X391326Y29463D01*
X391252Y29529D01*
X391174Y29593D01*
X391095Y29653D01*
X391013Y29710D01*
X390929Y29764D01*
X390843Y29814D01*
X390755Y29861D01*
X390665Y29905D01*
X390574Y29945D01*
X390481Y29981D01*
X390387Y30014D01*
X390291Y30043D01*
X390195Y30068D01*
X390098Y30089D01*
X389999Y30107D01*
X389901Y30120D01*
X389801Y30130D01*
X389702Y30136D01*
X389602Y30138D01*
X374362Y30138D01*
X374362Y7786D02*
X389602Y7786D01*
X371822Y10326D02*
X371822Y27598D01*
X364536Y27590D02*
X364536Y10318D01*
X346756Y30130D02*
X346656Y30128D01*
X346557Y30122D01*
X346457Y30112D01*
X346359Y30099D01*
X346260Y30081D01*
X346163Y30060D01*
X346067Y30035D01*
X345971Y30006D01*
X345877Y29973D01*
X345784Y29937D01*
X345693Y29897D01*
X345603Y29853D01*
X345515Y29806D01*
X345429Y29756D01*
X345345Y29702D01*
X345263Y29645D01*
X345184Y29585D01*
X345106Y29521D01*
X345032Y29455D01*
X344960Y29386D01*
X344891Y29314D01*
X344825Y29240D01*
X344761Y29162D01*
X344701Y29083D01*
X344644Y29001D01*
X344590Y28917D01*
X344540Y28831D01*
X344493Y28743D01*
X344449Y28653D01*
X344409Y28562D01*
X344373Y28469D01*
X344340Y28375D01*
X344311Y28279D01*
X344286Y28183D01*
X344265Y28086D01*
X344247Y27987D01*
X344234Y27889D01*
X344224Y27789D01*
X344218Y27690D01*
X344216Y27590D01*
X344216Y10318D02*
X344218Y10218D01*
X344224Y10119D01*
X344234Y10019D01*
X344247Y9921D01*
X344265Y9822D01*
X344286Y9725D01*
X344311Y9629D01*
X344340Y9533D01*
X344373Y9439D01*
X344409Y9346D01*
X344449Y9255D01*
X344493Y9165D01*
X344540Y9077D01*
X344590Y8991D01*
X344644Y8907D01*
X344701Y8825D01*
X344761Y8746D01*
X344825Y8668D01*
X344891Y8594D01*
X344960Y8522D01*
X345032Y8453D01*
X345106Y8387D01*
X345184Y8323D01*
X345263Y8263D01*
X345345Y8206D01*
X345429Y8152D01*
X345515Y8102D01*
X345603Y8055D01*
X345693Y8011D01*
X345784Y7971D01*
X345877Y7935D01*
X345971Y7902D01*
X346067Y7873D01*
X346163Y7848D01*
X346260Y7827D01*
X346359Y7809D01*
X346457Y7796D01*
X346557Y7786D01*
X346656Y7780D01*
X346756Y7778D01*
X361996Y7778D02*
X362096Y7780D01*
X362195Y7786D01*
X362295Y7796D01*
X362393Y7809D01*
X362492Y7827D01*
X362589Y7848D01*
X362685Y7873D01*
X362781Y7902D01*
X362875Y7935D01*
X362968Y7971D01*
X363059Y8011D01*
X363149Y8055D01*
X363237Y8102D01*
X363323Y8152D01*
X363407Y8206D01*
X363489Y8263D01*
X363568Y8323D01*
X363646Y8387D01*
X363720Y8453D01*
X363792Y8522D01*
X363861Y8594D01*
X363927Y8668D01*
X363991Y8746D01*
X364051Y8825D01*
X364108Y8907D01*
X364162Y8991D01*
X364212Y9077D01*
X364259Y9165D01*
X364303Y9255D01*
X364343Y9346D01*
X364379Y9439D01*
X364412Y9533D01*
X364441Y9629D01*
X364466Y9725D01*
X364487Y9822D01*
X364505Y9921D01*
X364518Y10019D01*
X364528Y10119D01*
X364534Y10218D01*
X364536Y10318D01*
X364536Y27590D02*
X364534Y27690D01*
X364528Y27789D01*
X364518Y27889D01*
X364505Y27987D01*
X364487Y28086D01*
X364466Y28183D01*
X364441Y28279D01*
X364412Y28375D01*
X364379Y28469D01*
X364343Y28562D01*
X364303Y28653D01*
X364259Y28743D01*
X364212Y28831D01*
X364162Y28917D01*
X364108Y29001D01*
X364051Y29083D01*
X363991Y29162D01*
X363927Y29240D01*
X363861Y29314D01*
X363792Y29386D01*
X363720Y29455D01*
X363646Y29521D01*
X363568Y29585D01*
X363489Y29645D01*
X363407Y29702D01*
X363323Y29756D01*
X363237Y29806D01*
X363149Y29853D01*
X363059Y29897D01*
X362968Y29937D01*
X362875Y29973D01*
X362781Y30006D01*
X362685Y30035D01*
X362589Y30060D01*
X362492Y30081D01*
X362393Y30099D01*
X362295Y30112D01*
X362195Y30122D01*
X362096Y30128D01*
X361996Y30130D01*
X346756Y30130D01*
X346756Y7778D02*
X361996Y7778D01*
X344216Y10318D02*
X344216Y27590D01*
X317658Y27690D02*
X317658Y10418D01*
X335438Y7878D02*
X335538Y7880D01*
X335637Y7886D01*
X335737Y7896D01*
X335835Y7909D01*
X335934Y7927D01*
X336031Y7948D01*
X336127Y7973D01*
X336223Y8002D01*
X336317Y8035D01*
X336410Y8071D01*
X336501Y8111D01*
X336591Y8155D01*
X336679Y8202D01*
X336765Y8252D01*
X336849Y8306D01*
X336931Y8363D01*
X337010Y8423D01*
X337088Y8487D01*
X337162Y8553D01*
X337234Y8622D01*
X337303Y8694D01*
X337369Y8768D01*
X337433Y8846D01*
X337493Y8925D01*
X337550Y9007D01*
X337604Y9091D01*
X337654Y9177D01*
X337701Y9265D01*
X337745Y9355D01*
X337785Y9446D01*
X337821Y9539D01*
X337854Y9633D01*
X337883Y9729D01*
X337908Y9825D01*
X337929Y9922D01*
X337947Y10021D01*
X337960Y10119D01*
X337970Y10219D01*
X337976Y10318D01*
X337978Y10418D01*
X337978Y27690D02*
X337976Y27790D01*
X337970Y27889D01*
X337960Y27989D01*
X337947Y28087D01*
X337929Y28186D01*
X337908Y28283D01*
X337883Y28379D01*
X337854Y28475D01*
X337821Y28569D01*
X337785Y28662D01*
X337745Y28753D01*
X337701Y28843D01*
X337654Y28931D01*
X337604Y29017D01*
X337550Y29101D01*
X337493Y29183D01*
X337433Y29262D01*
X337369Y29340D01*
X337303Y29414D01*
X337234Y29486D01*
X337162Y29555D01*
X337088Y29621D01*
X337010Y29685D01*
X336931Y29745D01*
X336849Y29802D01*
X336765Y29856D01*
X336679Y29906D01*
X336591Y29953D01*
X336501Y29997D01*
X336410Y30037D01*
X336317Y30073D01*
X336223Y30106D01*
X336127Y30135D01*
X336031Y30160D01*
X335934Y30181D01*
X335835Y30199D01*
X335737Y30212D01*
X335637Y30222D01*
X335538Y30228D01*
X335438Y30230D01*
X320198Y30230D02*
X320098Y30228D01*
X319999Y30222D01*
X319899Y30212D01*
X319801Y30199D01*
X319702Y30181D01*
X319605Y30160D01*
X319509Y30135D01*
X319413Y30106D01*
X319319Y30073D01*
X319226Y30037D01*
X319135Y29997D01*
X319045Y29953D01*
X318957Y29906D01*
X318871Y29856D01*
X318787Y29802D01*
X318705Y29745D01*
X318626Y29685D01*
X318548Y29621D01*
X318474Y29555D01*
X318402Y29486D01*
X318333Y29414D01*
X318267Y29340D01*
X318203Y29262D01*
X318143Y29183D01*
X318086Y29101D01*
X318032Y29017D01*
X317982Y28931D01*
X317935Y28843D01*
X317891Y28753D01*
X317851Y28662D01*
X317815Y28569D01*
X317782Y28475D01*
X317753Y28379D01*
X317728Y28283D01*
X317707Y28186D01*
X317689Y28087D01*
X317676Y27989D01*
X317666Y27889D01*
X317660Y27790D01*
X317658Y27690D01*
X317658Y10418D02*
X317660Y10318D01*
X317666Y10219D01*
X317676Y10119D01*
X317689Y10021D01*
X317707Y9922D01*
X317728Y9825D01*
X317753Y9729D01*
X317782Y9633D01*
X317815Y9539D01*
X317851Y9446D01*
X317891Y9355D01*
X317935Y9265D01*
X317982Y9177D01*
X318032Y9091D01*
X318086Y9007D01*
X318143Y8925D01*
X318203Y8846D01*
X318267Y8768D01*
X318333Y8694D01*
X318402Y8622D01*
X318474Y8553D01*
X318548Y8487D01*
X318626Y8423D01*
X318705Y8363D01*
X318787Y8306D01*
X318871Y8252D01*
X318957Y8202D01*
X319045Y8155D01*
X319135Y8111D01*
X319226Y8071D01*
X319319Y8035D01*
X319413Y8002D01*
X319509Y7973D01*
X319605Y7948D01*
X319702Y7927D01*
X319801Y7909D01*
X319899Y7896D01*
X319999Y7886D01*
X320098Y7880D01*
X320198Y7878D01*
X335438Y7878D01*
X335438Y30230D02*
X320198Y30230D01*
X337978Y27690D02*
X337978Y10418D01*
D11*
X117200Y84854D02*
X117200Y112794D01*
X129900Y112794D01*
X129900Y84854D01*
X117200Y84854D01*
X157000Y27700D02*
X157000Y2300D01*
X157000Y27700D02*
X309400Y27700D01*
X309400Y2300D01*
X157000Y2300D01*
X415396Y221764D02*
X415396Y283764D01*
X462396Y292264D02*
X462396Y213264D01*
X415396Y283764D02*
X409396Y283764D01*
X409396Y292264D01*
X462396Y292264D01*
X415396Y221764D02*
X409396Y221764D01*
X409396Y213264D01*
X462396Y213264D01*
D17*
X88900Y19558D02*
X83820Y8128D01*
X81280Y9652D01*
X75184Y5334D01*
X70612Y10160D01*
X74676Y16256D01*
X72136Y23114D02*
X64516Y24384D01*
X64516Y30988D01*
X72136Y32512D01*
X74930Y38862D02*
X70358Y45466D01*
X75184Y50038D01*
X81788Y45466D01*
X88138Y48006D02*
X89408Y56134D01*
X96266Y56134D01*
X97536Y48006D01*
X103886Y45466D02*
X110490Y50038D01*
X115316Y45466D01*
X110744Y38862D01*
X113538Y32512D02*
X121158Y30988D01*
X121158Y24384D01*
X113538Y23114D01*
X110998Y16256D02*
X115316Y10160D01*
X110490Y5334D01*
X104394Y9652D01*
X101854Y8128D01*
X97028Y19558D01*
X97028Y19812D02*
X97232Y19914D01*
X97433Y20021D01*
X97631Y20133D01*
X97827Y20249D01*
X98020Y20371D01*
X98210Y20496D01*
X98396Y20627D01*
X98580Y20762D01*
X98760Y20902D01*
X98936Y21046D01*
X99109Y21194D01*
X99279Y21346D01*
X99444Y21503D01*
X99606Y21663D01*
X99764Y21827D01*
X99917Y21996D01*
X100067Y22168D01*
X100212Y22343D01*
X100353Y22522D01*
X100490Y22704D01*
X100622Y22890D01*
X100749Y23079D01*
X100872Y23271D01*
X100990Y23466D01*
X101103Y23663D01*
X101211Y23864D01*
X101315Y24067D01*
X101413Y24272D01*
X101507Y24480D01*
X101595Y24690D01*
X101678Y24902D01*
X101756Y25116D01*
X101828Y25332D01*
X101896Y25550D01*
X101958Y25769D01*
X102014Y25989D01*
X102066Y26211D01*
X102111Y26435D01*
X102152Y26659D01*
X102186Y26884D01*
X102216Y27110D01*
X102239Y27336D01*
X102258Y27563D01*
X102270Y27791D01*
X102277Y28019D01*
X102279Y28246D01*
X102275Y28474D01*
X102265Y28702D01*
X102250Y28929D01*
X102229Y29156D01*
X102203Y29382D01*
X102171Y29608D01*
X102134Y29832D01*
X102091Y30056D01*
X102043Y30279D01*
X101989Y30500D01*
X101930Y30720D01*
X101865Y30939D01*
X101796Y31156D01*
X101721Y31371D01*
X101640Y31584D01*
X101555Y31795D01*
X101464Y32004D01*
X101368Y32211D01*
X101268Y32415D01*
X101162Y32617D01*
X101051Y32816D01*
X100936Y33012D01*
X100816Y33206D01*
X100691Y33396D01*
X100561Y33584D01*
X100427Y33768D01*
X100289Y33949D01*
X100146Y34126D01*
X99999Y34300D01*
X99847Y34470D01*
X99692Y34637D01*
X99532Y34799D01*
X99369Y34958D01*
X99201Y35112D01*
X99030Y35263D01*
X98856Y35409D01*
X98677Y35551D01*
X98496Y35689D01*
X98311Y35822D01*
X98123Y35950D01*
X97932Y36074D01*
X97737Y36193D01*
X97540Y36307D01*
X97341Y36417D01*
X97138Y36521D01*
X96933Y36621D01*
X96726Y36715D01*
X96517Y36805D01*
X96305Y36889D01*
X96091Y36968D01*
X95876Y37042D01*
X95659Y37111D01*
X95440Y37174D01*
X95219Y37232D01*
X94998Y37284D01*
X94775Y37331D01*
X94551Y37373D01*
X94326Y37409D01*
X94100Y37439D01*
X93874Y37464D01*
X93647Y37484D01*
X93419Y37498D01*
X93192Y37506D01*
X92964Y37509D01*
X92736Y37506D01*
X92509Y37498D01*
X92281Y37484D01*
X92054Y37464D01*
X91828Y37439D01*
X91602Y37409D01*
X91377Y37373D01*
X91153Y37331D01*
X90930Y37284D01*
X90709Y37232D01*
X90488Y37174D01*
X90269Y37111D01*
X90052Y37042D01*
X89837Y36968D01*
X89623Y36889D01*
X89411Y36805D01*
X89202Y36715D01*
X88995Y36621D01*
X88790Y36521D01*
X88587Y36417D01*
X88388Y36307D01*
X88191Y36193D01*
X87996Y36074D01*
X87805Y35950D01*
X87617Y35822D01*
X87432Y35689D01*
X87251Y35551D01*
X87072Y35409D01*
X86898Y35263D01*
X86727Y35112D01*
X86559Y34958D01*
X86396Y34799D01*
X86236Y34637D01*
X86081Y34470D01*
X85929Y34300D01*
X85782Y34126D01*
X85639Y33949D01*
X85501Y33768D01*
X85367Y33584D01*
X85237Y33396D01*
X85112Y33206D01*
X84992Y33012D01*
X84877Y32816D01*
X84766Y32617D01*
X84660Y32415D01*
X84560Y32211D01*
X84464Y32004D01*
X84373Y31795D01*
X84288Y31584D01*
X84207Y31371D01*
X84132Y31156D01*
X84063Y30939D01*
X83998Y30720D01*
X83939Y30500D01*
X83885Y30279D01*
X83837Y30056D01*
X83794Y29832D01*
X83757Y29608D01*
X83725Y29382D01*
X83699Y29156D01*
X83678Y28929D01*
X83663Y28702D01*
X83653Y28474D01*
X83649Y28246D01*
X83651Y28019D01*
X83658Y27791D01*
X83670Y27563D01*
X83689Y27336D01*
X83712Y27110D01*
X83742Y26884D01*
X83776Y26659D01*
X83817Y26435D01*
X83862Y26211D01*
X83914Y25989D01*
X83970Y25769D01*
X84032Y25550D01*
X84100Y25332D01*
X84172Y25116D01*
X84250Y24902D01*
X84333Y24690D01*
X84421Y24480D01*
X84515Y24272D01*
X84613Y24067D01*
X84717Y23864D01*
X84825Y23663D01*
X84938Y23466D01*
X85056Y23271D01*
X85179Y23079D01*
X85306Y22890D01*
X85438Y22704D01*
X85575Y22522D01*
X85716Y22343D01*
X85861Y22168D01*
X86011Y21996D01*
X86164Y21827D01*
X86322Y21663D01*
X86484Y21503D01*
X86649Y21346D01*
X86819Y21194D01*
X86992Y21046D01*
X87168Y20902D01*
X87348Y20762D01*
X87532Y20627D01*
X87718Y20496D01*
X87908Y20371D01*
X88101Y20249D01*
X88297Y20133D01*
X88495Y20021D01*
X88696Y19914D01*
X88900Y19812D01*
X74761Y16337D02*
X74499Y16785D01*
X74249Y17239D01*
X74009Y17699D01*
X73781Y18165D01*
X73565Y18636D01*
X73360Y19112D01*
X73167Y19593D01*
X72986Y20079D01*
X72816Y20569D01*
X72659Y21063D01*
X72514Y21561D01*
X72381Y22062D01*
X72261Y22566D01*
X72153Y23074D01*
X72295Y32513D02*
X72417Y32982D01*
X72550Y33448D01*
X72694Y33911D01*
X72848Y34370D01*
X73013Y34826D01*
X73188Y35278D01*
X73374Y35726D01*
X73569Y36169D01*
X73775Y36608D01*
X73991Y37042D01*
X74216Y37471D01*
X74452Y37895D01*
X74697Y38313D01*
X74951Y38726D01*
X81875Y45557D02*
X82312Y45813D01*
X82755Y46058D01*
X83204Y46293D01*
X83658Y46516D01*
X84117Y46729D01*
X84581Y46930D01*
X85050Y47121D01*
X85524Y47300D01*
X86001Y47468D01*
X86483Y47624D01*
X86968Y47769D01*
X87456Y47902D01*
X87948Y48023D01*
X97671Y48070D02*
X98146Y47955D01*
X98618Y47830D01*
X99087Y47694D01*
X99553Y47547D01*
X100015Y47390D01*
X100474Y47222D01*
X100929Y47044D01*
X101379Y46855D01*
X101825Y46655D01*
X102266Y46446D01*
X102703Y46227D01*
X103134Y45997D01*
X103560Y45758D01*
X103980Y45509D01*
X110715Y38821D02*
X110984Y38406D01*
X111243Y37983D01*
X111491Y37555D01*
X111729Y37121D01*
X111957Y36681D01*
X112174Y36236D01*
X112380Y35785D01*
X112576Y35330D01*
X112760Y34871D01*
X112933Y34407D01*
X113095Y33939D01*
X113246Y33467D01*
X113385Y32992D01*
X113513Y32513D01*
X113561Y23026D02*
X113467Y22549D01*
X113362Y22075D01*
X113245Y21603D01*
X113117Y21135D01*
X112978Y20669D01*
X112828Y20207D01*
X112667Y19748D01*
X112496Y19294D01*
X112313Y18843D01*
X112120Y18397D01*
X111917Y17956D01*
X111703Y17520D01*
X111479Y17089D01*
X111245Y16663D01*
X111000Y16243D01*
D18*
X297508Y184330D03*
D19*
X302808Y184330D03*
X307008Y184330D03*
D20*
X314908Y184330D03*
X322508Y184330D03*
D19*
X326608Y184330D03*
X330808Y184330D03*
D21*
X338608Y184330D03*
D22*
X297508Y184130D03*
D23*
X302908Y184130D03*
X307108Y184130D03*
X314908Y184130D03*
D19*
X322608Y184130D03*
D23*
X326508Y184130D03*
X330908Y184130D03*
D20*
X338708Y184130D03*
D24*
X297408Y183930D03*
D23*
X302908Y183930D03*
X307108Y183930D03*
D25*
X314808Y183930D03*
D23*
X322508Y183930D03*
X326508Y183930D03*
X330908Y183930D03*
D26*
X338708Y183930D03*
X297508Y183730D03*
D23*
X302908Y183730D03*
X307108Y183730D03*
D25*
X314808Y183730D03*
D19*
X322408Y183730D03*
D23*
X326508Y183730D03*
X330908Y183730D03*
D27*
X338608Y183730D03*
D28*
X297508Y183530D03*
D23*
X302908Y183530D03*
X307308Y183530D03*
D29*
X314908Y183530D03*
D19*
X322408Y183530D03*
D23*
X326508Y183530D03*
X330908Y183530D03*
D30*
X338708Y183530D03*
D31*
X297408Y183330D03*
D23*
X302908Y183330D03*
X307308Y183330D03*
D29*
X314908Y183330D03*
D23*
X322308Y183330D03*
X326508Y183330D03*
X330908Y183330D03*
D32*
X338608Y183330D03*
D33*
X297408Y183130D03*
D25*
X302808Y183130D03*
D19*
X307408Y183130D03*
D24*
X314808Y183130D03*
D19*
X322208Y183130D03*
D23*
X326508Y183130D03*
X330908Y183130D03*
D34*
X338608Y183130D03*
D35*
X299308Y182930D03*
D23*
X307508Y182930D03*
D24*
X314808Y182930D03*
D19*
X322208Y182930D03*
D23*
X326508Y182930D03*
X330908Y182930D03*
D36*
X338708Y182930D03*
D37*
X299208Y182730D03*
D23*
X307508Y182730D03*
D38*
X314908Y182730D03*
D19*
X322208Y182730D03*
D23*
X326508Y182730D03*
X330908Y182730D03*
D39*
X338708Y182730D03*
D40*
X299108Y182530D03*
D19*
X307608Y182530D03*
D41*
X314808Y182530D03*
D19*
X322008Y182530D03*
D23*
X326508Y182530D03*
X330908Y182530D03*
D42*
X338608Y182530D03*
D40*
X299108Y182330D03*
D19*
X307608Y182330D03*
D41*
X314808Y182330D03*
D19*
X322008Y182330D03*
D23*
X326508Y182330D03*
X330908Y182330D03*
D43*
X338608Y182330D03*
D44*
X299008Y182130D03*
D23*
X307708Y182130D03*
D26*
X314908Y182130D03*
D20*
X321908Y182130D03*
D23*
X326508Y182130D03*
X330908Y182130D03*
D45*
X338708Y182130D03*
D46*
X298908Y181930D03*
D19*
X307808Y181930D03*
D26*
X314908Y181930D03*
D19*
X321808Y181930D03*
D23*
X326508Y181930D03*
X330908Y181930D03*
D47*
X338708Y181930D03*
D46*
X298908Y181730D03*
D19*
X307808Y181730D03*
D48*
X314808Y181730D03*
D19*
X321808Y181730D03*
D23*
X326508Y181730D03*
X330908Y181730D03*
D47*
X338508Y181730D03*
D46*
X298908Y181530D03*
D23*
X307908Y181530D03*
D49*
X314908Y181530D03*
D19*
X321808Y181530D03*
D23*
X326508Y181530D03*
X330908Y181530D03*
D50*
X338408Y181530D03*
D26*
X295308Y181330D03*
D27*
X302008Y181330D03*
D19*
X308008Y181330D03*
D49*
X314908Y181330D03*
D20*
X321708Y181330D03*
D23*
X326508Y181330D03*
X330908Y181330D03*
D26*
X335908Y181330D03*
D20*
X341108Y181330D03*
D41*
X295008Y181130D03*
D48*
X302208Y181130D03*
D19*
X308008Y181130D03*
D49*
X314908Y181130D03*
D19*
X321608Y181130D03*
D23*
X326508Y181130D03*
X330908Y181130D03*
D38*
X335708Y181130D03*
D51*
X341208Y181130D03*
D24*
X294808Y180930D03*
D41*
X302408Y180930D03*
D23*
X308108Y180930D03*
D27*
X314808Y180930D03*
D20*
X321508Y180930D03*
D23*
X326508Y180930D03*
X330908Y180930D03*
D24*
X335408Y180930D03*
D52*
X341208Y180930D03*
D29*
X294708Y180730D03*
D38*
X302508Y180730D03*
D19*
X308208Y180730D03*
D27*
X314808Y180730D03*
D20*
X321508Y180730D03*
D23*
X326508Y180730D03*
X330908Y180730D03*
D29*
X335308Y180730D03*
D18*
X341108Y180730D03*
D29*
X294708Y180530D03*
D24*
X302608Y180530D03*
D19*
X308208Y180530D03*
D53*
X314808Y180530D03*
D19*
X321408Y180530D03*
D23*
X326508Y180530D03*
X330908Y180530D03*
D25*
X335208Y180530D03*
D54*
X341008Y180530D03*
D25*
X294608Y180330D03*
D29*
X302708Y180330D03*
D20*
X308308Y180330D03*
D53*
X314808Y180330D03*
D20*
X321308Y180330D03*
D23*
X326508Y180330D03*
X330908Y180330D03*
X335108Y180330D03*
D25*
X294408Y180130D03*
D29*
X302708Y180130D03*
D19*
X308408Y180130D03*
D55*
X314908Y180130D03*
D20*
X321308Y180130D03*
D23*
X326508Y180130D03*
X330908Y180130D03*
D25*
X335008Y180130D03*
X294408Y179930D03*
D29*
X302708Y179930D03*
D19*
X308408Y179930D03*
D55*
X314908Y179930D03*
D20*
X321108Y179930D03*
D23*
X326508Y179930D03*
X330908Y179930D03*
D25*
X335008Y179930D03*
X294408Y179730D03*
X302808Y179730D03*
D20*
X308508Y179730D03*
D22*
X313308Y179730D03*
D56*
X316408Y179730D03*
D20*
X321108Y179730D03*
D23*
X326508Y179730D03*
X330908Y179730D03*
X334908Y179730D03*
X294308Y179530D03*
D25*
X302808Y179530D03*
D19*
X308608Y179530D03*
D22*
X313108Y179530D03*
D56*
X316408Y179530D03*
D20*
X321108Y179530D03*
D23*
X326508Y179530D03*
X330908Y179530D03*
X334908Y179530D03*
X294308Y179330D03*
D25*
X302808Y179330D03*
D19*
X308608Y179330D03*
D22*
X313108Y179330D03*
D56*
X316608Y179330D03*
X321008Y179330D03*
D23*
X326508Y179330D03*
X330908Y179330D03*
X334908Y179330D03*
X294308Y179130D03*
X302908Y179130D03*
D20*
X308708Y179130D03*
D56*
X313008Y179130D03*
X316608Y179130D03*
D20*
X320908Y179130D03*
D23*
X326508Y179130D03*
X330908Y179130D03*
X334908Y179130D03*
X294308Y178930D03*
X302908Y178930D03*
D19*
X308808Y178930D03*
D56*
X313008Y178930D03*
X316608Y178930D03*
D20*
X320908Y178930D03*
D23*
X326508Y178930D03*
X330908Y178930D03*
X334908Y178930D03*
X294308Y178730D03*
X302908Y178730D03*
D20*
X308908Y178730D03*
D22*
X312908Y178730D03*
X316708Y178730D03*
D56*
X320808Y178730D03*
D23*
X326508Y178730D03*
X330908Y178730D03*
X334908Y178730D03*
X294308Y178530D03*
X302908Y178530D03*
D20*
X308908Y178530D03*
D22*
X312908Y178530D03*
D56*
X316808Y178530D03*
D20*
X320708Y178530D03*
D23*
X326508Y178530D03*
X330908Y178530D03*
X334908Y178530D03*
X294308Y178330D03*
X302908Y178330D03*
D20*
X308908Y178330D03*
D22*
X312708Y178330D03*
D56*
X316808Y178330D03*
X320608Y178330D03*
D23*
X326508Y178330D03*
X330908Y178330D03*
X334908Y178330D03*
X294308Y178130D03*
D25*
X302808Y178130D03*
D19*
X309008Y178130D03*
D22*
X312708Y178130D03*
D56*
X317008Y178130D03*
X320608Y178130D03*
D23*
X326508Y178130D03*
X330908Y178130D03*
X334908Y178130D03*
X294308Y177930D03*
D25*
X302808Y177930D03*
D20*
X309108Y177930D03*
D22*
X312708Y177930D03*
D56*
X317008Y177930D03*
X320608Y177930D03*
D23*
X326508Y177930D03*
X330908Y177930D03*
X334908Y177930D03*
D25*
X294408Y177730D03*
X302808Y177730D03*
D20*
X309108Y177730D03*
D22*
X312708Y177730D03*
D56*
X317008Y177730D03*
D20*
X320508Y177730D03*
D23*
X326508Y177730D03*
X330908Y177730D03*
D25*
X335008Y177730D03*
X294408Y177530D03*
D29*
X302708Y177530D03*
D20*
X309308Y177530D03*
D22*
X312508Y177530D03*
D56*
X317008Y177530D03*
X320408Y177530D03*
D23*
X326508Y177530D03*
X330908Y177530D03*
D25*
X335008Y177530D03*
X294408Y177330D03*
D29*
X302708Y177330D03*
D31*
X310808Y177330D03*
X318808Y177330D03*
D23*
X326508Y177330D03*
X330908Y177330D03*
D25*
X335208Y177330D03*
D57*
X341108Y177330D03*
D25*
X294608Y177130D03*
D29*
X302708Y177130D03*
D31*
X310808Y177130D03*
D55*
X318708Y177130D03*
D23*
X326508Y177130D03*
X330908Y177130D03*
D25*
X335208Y177130D03*
D58*
X341208Y177130D03*
D29*
X294708Y176930D03*
D24*
X302608Y176930D03*
D53*
X310808Y176930D03*
X318808Y176930D03*
D23*
X326508Y176930D03*
X330908Y176930D03*
D29*
X335308Y176930D03*
D59*
X341308Y176930D03*
D29*
X294708Y176730D03*
D38*
X302508Y176730D03*
D53*
X310808Y176730D03*
X318808Y176730D03*
D23*
X326508Y176730D03*
X330908Y176730D03*
D24*
X335408Y176730D03*
D60*
X341408Y176730D03*
D24*
X294808Y176530D03*
D41*
X302408Y176530D03*
D53*
X310808Y176530D03*
D28*
X318708Y176530D03*
D23*
X326508Y176530D03*
X330908Y176530D03*
D38*
X335708Y176530D03*
D22*
X341308Y176530D03*
D38*
X295108Y176330D03*
D26*
X302308Y176330D03*
D27*
X310808Y176330D03*
D28*
X318708Y176330D03*
D23*
X326508Y176330D03*
X330908Y176330D03*
D47*
X338308Y176330D03*
D41*
X295208Y176130D03*
D49*
X302108Y176130D03*
D27*
X310808Y176130D03*
X318808Y176130D03*
D23*
X326508Y176130D03*
X330908Y176130D03*
D47*
X338508Y176130D03*
D49*
X295708Y175930D03*
D55*
X301708Y175930D03*
D49*
X310908Y175930D03*
X318708Y175930D03*
D23*
X326508Y175930D03*
X330908Y175930D03*
D61*
X338608Y175930D03*
D46*
X298908Y175730D03*
D48*
X310808Y175730D03*
D49*
X318708Y175730D03*
D23*
X326508Y175730D03*
X330908Y175730D03*
D50*
X338608Y175730D03*
D46*
X298908Y175530D03*
D48*
X310808Y175530D03*
D26*
X318708Y175530D03*
D23*
X326508Y175530D03*
X330908Y175530D03*
D45*
X338708Y175530D03*
D44*
X299008Y175330D03*
D26*
X310908Y175330D03*
X318708Y175330D03*
D23*
X326508Y175330D03*
X330908Y175330D03*
D62*
X338708Y175330D03*
D40*
X299108Y175130D03*
D26*
X310908Y175130D03*
X318708Y175130D03*
D23*
X326508Y175130D03*
X330908Y175130D03*
D39*
X338708Y175130D03*
D37*
X299208Y174930D03*
D41*
X310808Y174930D03*
D38*
X318708Y174930D03*
D23*
X326508Y174930D03*
X330908Y174930D03*
D36*
X338708Y174930D03*
D35*
X299308Y174730D03*
D38*
X310908Y174730D03*
X318708Y174730D03*
D23*
X326508Y174730D03*
X330908Y174730D03*
D63*
X338708Y174730D03*
D64*
X299408Y174530D03*
D24*
X310808Y174530D03*
D38*
X318708Y174530D03*
D23*
X326508Y174530D03*
X330908Y174530D03*
D65*
X338708Y174530D03*
D30*
X297508Y174330D03*
D25*
X302808Y174330D03*
D29*
X310908Y174330D03*
D24*
X318608Y174330D03*
D23*
X326508Y174330D03*
X330908Y174330D03*
D30*
X338708Y174330D03*
D55*
X297508Y174130D03*
D23*
X302908Y174130D03*
D29*
X310908Y174130D03*
X318708Y174130D03*
D23*
X326508Y174130D03*
X330908Y174130D03*
D55*
X338708Y174130D03*
D28*
X297508Y173930D03*
D23*
X302908Y173930D03*
D29*
X310908Y173930D03*
D25*
X318608Y173930D03*
D23*
X326508Y173930D03*
X330908Y173930D03*
D48*
X338608Y173930D03*
D26*
X297508Y173730D03*
D23*
X302908Y173730D03*
X310908Y173730D03*
D25*
X318608Y173730D03*
D23*
X326508Y173730D03*
X330908Y173730D03*
X338708Y173730D03*
D29*
X297508Y173530D03*
D23*
X302908Y173530D03*
X310908Y173530D03*
X318708Y173530D03*
D19*
X326608Y173530D03*
D23*
X330908Y173530D03*
D60*
X338608Y173530D03*
D22*
X297508Y173330D03*
D23*
X302908Y173330D03*
D58*
X297608Y173130D03*
D23*
X302908Y173130D03*
X302908Y172930D03*
X302908Y172730D03*
X302908Y172530D03*
X302908Y172330D03*
X302908Y172130D03*
X302908Y171930D03*
X302908Y171730D03*
X302908Y171530D03*
X302908Y171330D03*
X302908Y171130D03*
X302908Y170930D03*
D24*
X318608Y170930D03*
D23*
X302908Y170730D03*
D66*
X318608Y170730D03*
D23*
X302908Y170530D03*
D61*
X318608Y170530D03*
D23*
X302908Y170330D03*
D67*
X318608Y170330D03*
D23*
X302908Y170130D03*
D68*
X318608Y170130D03*
D23*
X302908Y169930D03*
D69*
X318608Y169930D03*
D23*
X302908Y169730D03*
D70*
X318708Y169730D03*
D19*
X302808Y169530D03*
D71*
X318608Y169530D03*
D72*
X318608Y169330D03*
D73*
X318608Y169130D03*
D74*
X318608Y168930D03*
D75*
X318608Y168730D03*
D76*
X318708Y168530D03*
D77*
X318608Y168330D03*
D78*
X318608Y168130D03*
D79*
X318708Y167930D03*
D80*
X318708Y167730D03*
D81*
X318608Y167530D03*
D82*
X318708Y167330D03*
D83*
X318708Y167130D03*
D84*
X318708Y166930D03*
D85*
X318708Y166730D03*
D86*
X318708Y166530D03*
D87*
X318608Y166330D03*
D88*
X318708Y166130D03*
D89*
X318708Y165930D03*
D90*
X318608Y165730D03*
D91*
X318708Y165530D03*
D92*
X318708Y165330D03*
D93*
X318708Y165130D03*
D94*
X318608Y164930D03*
D95*
X318608Y164730D03*
D96*
X318608Y164530D03*
D97*
X318608Y164330D03*
D98*
X318608Y164130D03*
D99*
X318608Y163930D03*
D100*
X318708Y163730D03*
D101*
X318608Y163530D03*
D102*
X318608Y163330D03*
D103*
X318608Y163130D03*
D104*
X318608Y162930D03*
D105*
X318608Y162730D03*
D106*
X318608Y162530D03*
D107*
X318608Y162330D03*
D108*
X318708Y162130D03*
D109*
X318708Y161930D03*
D110*
X318608Y161730D03*
D111*
X318608Y161530D03*
D112*
X318608Y161330D03*
D113*
X318708Y161130D03*
D114*
X318608Y160930D03*
D115*
X318608Y160730D03*
D116*
X318608Y160530D03*
D117*
X318708Y160330D03*
D118*
X318608Y160130D03*
D119*
X318708Y159930D03*
D120*
X318708Y159730D03*
D121*
X318608Y159530D03*
D122*
X318708Y159330D03*
D123*
X318708Y159130D03*
D124*
X318608Y158930D03*
D125*
X318708Y158730D03*
D126*
X318608Y158530D03*
D127*
X318708Y158330D03*
D128*
X318608Y158130D03*
D129*
X318608Y157930D03*
X318608Y157730D03*
D130*
X318708Y157530D03*
D131*
X318708Y157330D03*
D132*
X318608Y157130D03*
X318608Y156930D03*
D133*
X318608Y156730D03*
D134*
X318708Y156530D03*
X318708Y156330D03*
D135*
X318608Y156130D03*
D136*
X318708Y155930D03*
D137*
X318608Y155730D03*
D138*
X318708Y155530D03*
X318708Y155330D03*
D139*
X318608Y155130D03*
D140*
X318708Y154930D03*
D141*
X318608Y154730D03*
X318608Y154530D03*
D142*
X318708Y154330D03*
D143*
X318608Y154130D03*
D144*
X318708Y153930D03*
X318708Y153730D03*
D145*
X318608Y153530D03*
X318608Y153330D03*
D55*
X297908Y153130D03*
D30*
X339308Y153130D03*
D55*
X297708Y152930D03*
D31*
X339408Y152930D03*
D53*
X297608Y152730D03*
D31*
X339408Y152730D03*
D53*
X297608Y152530D03*
D31*
X339408Y152530D03*
D53*
X297608Y152330D03*
D30*
X339508Y152330D03*
D55*
X297508Y152130D03*
D30*
X339508Y152130D03*
D55*
X297508Y151930D03*
D30*
X339508Y151930D03*
D55*
X297508Y151730D03*
D33*
X339608Y151730D03*
D55*
X297508Y151530D03*
D33*
X339608Y151530D03*
D31*
X297408Y151330D03*
D33*
X339608Y151330D03*
D31*
X297408Y151130D03*
D33*
X339608Y151130D03*
D31*
X297408Y150930D03*
D33*
X339608Y150930D03*
D31*
X297408Y150730D03*
D33*
X339608Y150730D03*
D31*
X297408Y150530D03*
D146*
X339708Y150530D03*
D30*
X297308Y150330D03*
D146*
X339708Y150330D03*
D30*
X297308Y150130D03*
D146*
X339708Y150130D03*
D30*
X297308Y149930D03*
D146*
X339708Y149930D03*
D30*
X297308Y149730D03*
D146*
X339708Y149730D03*
D30*
X297308Y149530D03*
D32*
X339808Y149530D03*
D30*
X297308Y149330D03*
D32*
X339808Y149330D03*
D30*
X297308Y149130D03*
D32*
X339808Y149130D03*
D30*
X297308Y148930D03*
D32*
X339808Y148930D03*
D30*
X297308Y148730D03*
D32*
X339808Y148730D03*
D30*
X297308Y148530D03*
D32*
X339808Y148530D03*
D33*
X297208Y148330D03*
D41*
X307608Y148330D03*
D26*
X314708Y148330D03*
X321908Y148330D03*
D41*
X329008Y148330D03*
D32*
X339808Y148330D03*
D33*
X297208Y148130D03*
D26*
X307508Y148130D03*
X314708Y148130D03*
D48*
X322008Y148130D03*
D26*
X329108Y148130D03*
D32*
X339808Y148130D03*
D33*
X297208Y147930D03*
D26*
X307508Y147930D03*
X314708Y147930D03*
D48*
X322008Y147930D03*
D26*
X329108Y147930D03*
D32*
X339808Y147930D03*
D33*
X297208Y147730D03*
D26*
X307508Y147730D03*
X314708Y147730D03*
D48*
X322008Y147730D03*
D26*
X329108Y147730D03*
D32*
X339808Y147730D03*
D33*
X297208Y147530D03*
D26*
X307508Y147530D03*
X314708Y147530D03*
D48*
X322008Y147530D03*
D26*
X329108Y147530D03*
D32*
X339808Y147530D03*
D33*
X297208Y147330D03*
D26*
X307508Y147330D03*
X314708Y147330D03*
D48*
X322008Y147330D03*
D26*
X329108Y147330D03*
D32*
X339808Y147330D03*
D33*
X297208Y147130D03*
D26*
X307508Y147130D03*
X314708Y147130D03*
D48*
X322008Y147130D03*
D26*
X329108Y147130D03*
D32*
X339808Y147130D03*
D33*
X297208Y146930D03*
D26*
X307508Y146930D03*
X314708Y146930D03*
D48*
X322008Y146930D03*
D26*
X329108Y146930D03*
D65*
X339908Y146930D03*
D33*
X297208Y146730D03*
D26*
X307508Y146730D03*
X314708Y146730D03*
D48*
X322008Y146730D03*
D26*
X329108Y146730D03*
D65*
X339908Y146730D03*
D33*
X297208Y146530D03*
D26*
X307508Y146530D03*
X314708Y146530D03*
D48*
X322008Y146530D03*
D26*
X329108Y146530D03*
D65*
X339908Y146530D03*
D33*
X297208Y146330D03*
D26*
X307508Y146330D03*
X314708Y146330D03*
D48*
X322008Y146330D03*
D26*
X329108Y146330D03*
D65*
X339908Y146330D03*
D33*
X297208Y146130D03*
D26*
X307508Y146130D03*
X314708Y146130D03*
D48*
X322008Y146130D03*
D26*
X329108Y146130D03*
D65*
X339908Y146130D03*
D33*
X297208Y145930D03*
D26*
X307508Y145930D03*
X314708Y145930D03*
D48*
X322008Y145930D03*
D26*
X329108Y145930D03*
D65*
X339908Y145930D03*
D33*
X297208Y145730D03*
D26*
X307508Y145730D03*
X314708Y145730D03*
D48*
X322008Y145730D03*
D26*
X329108Y145730D03*
D65*
X339908Y145730D03*
D33*
X297208Y145530D03*
D26*
X307508Y145530D03*
X314708Y145530D03*
D48*
X322008Y145530D03*
D26*
X329108Y145530D03*
D65*
X339908Y145530D03*
D33*
X297208Y145330D03*
D26*
X307508Y145330D03*
X314708Y145330D03*
D48*
X322008Y145330D03*
D26*
X329108Y145330D03*
D32*
X339808Y145330D03*
D33*
X297208Y145130D03*
D26*
X307508Y145130D03*
X314708Y145130D03*
D48*
X322008Y145130D03*
D26*
X329108Y145130D03*
D32*
X339808Y145130D03*
D33*
X297208Y144930D03*
D26*
X307508Y144930D03*
X314708Y144930D03*
D48*
X322008Y144930D03*
D26*
X329108Y144930D03*
D32*
X339808Y144930D03*
D33*
X297208Y144730D03*
D26*
X307508Y144730D03*
X314708Y144730D03*
D48*
X322008Y144730D03*
D26*
X329108Y144730D03*
D32*
X339808Y144730D03*
D33*
X297208Y144530D03*
D26*
X307508Y144530D03*
X314708Y144530D03*
D48*
X322008Y144530D03*
D26*
X329108Y144530D03*
D32*
X339808Y144530D03*
D33*
X297208Y144330D03*
D26*
X307508Y144330D03*
X314708Y144330D03*
D48*
X322008Y144330D03*
D26*
X329108Y144330D03*
D32*
X339808Y144330D03*
D33*
X297208Y144130D03*
D26*
X307508Y144130D03*
X314708Y144130D03*
D48*
X322008Y144130D03*
D26*
X329108Y144130D03*
D32*
X339808Y144130D03*
D30*
X297308Y143930D03*
D26*
X307508Y143930D03*
X314708Y143930D03*
D48*
X322008Y143930D03*
D26*
X329108Y143930D03*
D32*
X339808Y143930D03*
D30*
X297308Y143730D03*
D41*
X307608Y143730D03*
D26*
X314708Y143730D03*
X321908Y143730D03*
D41*
X329008Y143730D03*
D32*
X339808Y143730D03*
D30*
X297308Y143530D03*
D32*
X339808Y143530D03*
D30*
X297308Y143330D03*
D32*
X339808Y143330D03*
D30*
X297308Y143130D03*
D32*
X339808Y143130D03*
D30*
X297308Y142930D03*
D32*
X339808Y142930D03*
D30*
X297308Y142730D03*
D32*
X339808Y142730D03*
D30*
X297308Y142530D03*
D146*
X339708Y142530D03*
D30*
X297308Y142330D03*
D146*
X339708Y142330D03*
D30*
X297308Y142130D03*
D146*
X339708Y142130D03*
D31*
X297408Y141930D03*
D146*
X339708Y141930D03*
D31*
X297408Y141730D03*
D33*
X339608Y141730D03*
D31*
X297408Y141530D03*
D33*
X339608Y141530D03*
D31*
X297408Y141330D03*
D33*
X339608Y141330D03*
D31*
X297408Y141130D03*
D33*
X339608Y141130D03*
D55*
X297508Y140930D03*
D33*
X339608Y140930D03*
D55*
X297508Y140730D03*
D33*
X339608Y140730D03*
D55*
X297508Y140530D03*
D30*
X339508Y140530D03*
D55*
X297508Y140330D03*
D30*
X339508Y140330D03*
D53*
X297608Y140130D03*
D30*
X339508Y140130D03*
D53*
X297608Y139930D03*
D30*
X339508Y139930D03*
D53*
X297608Y139730D03*
D31*
X339408Y139730D03*
D53*
X297608Y139530D03*
D31*
X339408Y139530D03*
D28*
X297708Y139330D03*
D31*
X339408Y139330D03*
D28*
X297708Y139130D03*
D55*
X339308Y139130D03*
D53*
X297808Y138930D03*
D31*
X339208Y138930D03*
D147*
X302508Y138730D03*
D33*
X318208Y138730D03*
D148*
X334408Y138730D03*
D147*
X302508Y138530D03*
D33*
X318208Y138530D03*
D148*
X334408Y138530D03*
D147*
X302508Y138330D03*
D33*
X318208Y138330D03*
D149*
X334308Y138330D03*
D147*
X302508Y138130D03*
D146*
X318308Y138130D03*
D150*
X334408Y138130D03*
D69*
X302608Y137930D03*
D146*
X318308Y137930D03*
D151*
X334308Y137930D03*
D147*
X302708Y137730D03*
D146*
X318308Y137730D03*
D151*
X334308Y137730D03*
D69*
X302808Y137530D03*
D146*
X318308Y137530D03*
D151*
X334308Y137530D03*
D69*
X302808Y137330D03*
D32*
X318408Y137330D03*
D152*
X334408Y137330D03*
D69*
X302808Y137130D03*
D146*
X318508Y137130D03*
D147*
X334308Y137130D03*
D153*
X302908Y136930D03*
D146*
X318508Y136930D03*
D69*
X334408Y136930D03*
D153*
X302908Y136730D03*
D146*
X318508Y136730D03*
D153*
X334308Y136730D03*
X303108Y136530D03*
D32*
X318608Y136530D03*
D153*
X334308Y136530D03*
X303108Y136330D03*
D32*
X318608Y136330D03*
D154*
X334308Y136330D03*
D155*
X303208Y136130D03*
D146*
X318708Y136130D03*
D154*
X334308Y136130D03*
D155*
X303208Y135930D03*
D32*
X318808Y135930D03*
D156*
X334408Y135930D03*
D155*
X303208Y135730D03*
D32*
X318808Y135730D03*
D157*
X334308Y135730D03*
D154*
X303308Y135530D03*
D32*
X318808Y135530D03*
D158*
X334308Y135530D03*
D155*
X303408Y135330D03*
D32*
X319008Y135330D03*
D158*
X334308Y135330D03*
D154*
X303508Y135130D03*
D32*
X319008Y135130D03*
D159*
X334408Y135130D03*
D154*
X303508Y134930D03*
D32*
X319008Y134930D03*
D160*
X334408Y134930D03*
D156*
X303608Y134730D03*
D65*
X319108Y134730D03*
D160*
X334408Y134730D03*
D154*
X303708Y134530D03*
D32*
X319208Y134530D03*
D161*
X334408Y134530D03*
D156*
X303808Y134330D03*
D65*
X319308Y134330D03*
D162*
X334308Y134330D03*
D157*
X303908Y134130D03*
D65*
X319308Y134130D03*
D67*
X334408Y134130D03*
D157*
X303908Y133930D03*
D65*
X319508Y133930D03*
D44*
X334408Y133930D03*
D157*
X304108Y133730D03*
D65*
X319508Y133730D03*
D44*
X334408Y133730D03*
D157*
X304108Y133530D03*
D34*
X319608Y133530D03*
D37*
X334408Y133530D03*
D68*
X304208Y133330D03*
D65*
X319708Y133330D03*
D35*
X334508Y133330D03*
D158*
X304308Y133130D03*
D34*
X319808Y133130D03*
D163*
X334508Y133130D03*
D68*
X304408Y132930D03*
D34*
X319808Y132930D03*
D164*
X334408Y132930D03*
D158*
X304508Y132730D03*
D34*
X320008Y132730D03*
D165*
X334508Y132730D03*
D68*
X304608Y132530D03*
D34*
X320008Y132530D03*
D47*
X334508Y132530D03*
D158*
X304708Y132330D03*
D34*
X320208Y132330D03*
D45*
X334508Y132330D03*
D159*
X304808Y132130D03*
D63*
X320308Y132130D03*
D43*
X334608Y132130D03*
D159*
X304808Y131930D03*
D63*
X320308Y131930D03*
D42*
X334608Y131930D03*
D159*
X305008Y131730D03*
D63*
X320508Y131730D03*
D66*
X334608Y131730D03*
D166*
X305108Y131530D03*
D63*
X320508Y131530D03*
D36*
X334708Y131530D03*
D166*
X305308Y131330D03*
D63*
X320708Y131330D03*
X334708Y131330D03*
D166*
X305308Y131130D03*
D167*
X320808Y131130D03*
D32*
X334808Y131130D03*
D160*
X305408Y130930D03*
D167*
X321008Y130930D03*
D33*
X334808Y130930D03*
D160*
X305608Y130730D03*
D167*
X321008Y130730D03*
D30*
X334908Y130730D03*
D160*
X305608Y130530D03*
D167*
X321208Y130530D03*
D55*
X334908Y130530D03*
D161*
X305808Y130330D03*
D36*
X321308Y130330D03*
D27*
X335008Y130330D03*
D168*
X305908Y130130D03*
D36*
X321508Y130130D03*
D26*
X335108Y130130D03*
D161*
X306008Y129930D03*
D36*
X321508Y129930D03*
D38*
X335108Y129930D03*
D161*
X306208Y129730D03*
D36*
X321708Y129730D03*
D25*
X335208Y129730D03*
D162*
X306308Y129530D03*
D66*
X321808Y129530D03*
D20*
X335308Y129530D03*
D162*
X306508Y129330D03*
D66*
X322008Y129330D03*
D22*
X335508Y129330D03*
D67*
X306608Y129130D03*
D39*
X322108Y129130D03*
D60*
X335608Y129130D03*
D67*
X306808Y128930D03*
D39*
X322308Y128930D03*
D21*
X335808Y128930D03*
D46*
X306908Y128730D03*
D39*
X322508Y128730D03*
D169*
X335808Y128730D03*
D46*
X307108Y128530D03*
D42*
X322608Y128530D03*
D44*
X307208Y128330D03*
D42*
X322808Y128330D03*
D44*
X307408Y128130D03*
D62*
X322908Y128130D03*
D40*
X307508Y127930D03*
D62*
X323108Y127930D03*
D40*
X307708Y127730D03*
D62*
X323308Y127730D03*
D37*
X307808Y127530D03*
D62*
X323508Y127530D03*
D37*
X308008Y127330D03*
D45*
X323708Y127330D03*
D35*
X308108Y127130D03*
D45*
X323908Y127130D03*
D35*
X308308Y126930D03*
D45*
X324108Y126930D03*
D163*
X308508Y126730D03*
D47*
X324308Y126730D03*
D163*
X308708Y126530D03*
D47*
X324508Y126530D03*
D163*
X308908Y126330D03*
D47*
X324708Y126330D03*
D165*
X309108Y126130D03*
D61*
X325008Y126130D03*
D165*
X309308Y125930D03*
D164*
X325208Y125930D03*
D47*
X309508Y125730D03*
D164*
X325408Y125730D03*
D47*
X309708Y125530D03*
D163*
X325708Y125530D03*
D50*
X310008Y125330D03*
D64*
X326008Y125330D03*
D50*
X310208Y125130D03*
D35*
X326308Y125130D03*
D43*
X310408Y124930D03*
D37*
X326608Y124930D03*
D62*
X310708Y124730D03*
D40*
X326908Y124730D03*
D42*
X310808Y124530D03*
D46*
X327308Y124530D03*
D39*
X311108Y124330D03*
D67*
X327608Y124330D03*
D66*
X311408Y124130D03*
D168*
X328108Y124130D03*
D36*
X311708Y123930D03*
D166*
X328508Y123930D03*
D63*
X311908Y123730D03*
D68*
X329008Y123730D03*
D34*
X312208Y123530D03*
D155*
X329608Y123530D03*
D65*
X312508Y123330D03*
D150*
X330408Y123330D03*
D54*
X339408Y123330D03*
D146*
X312908Y123130D03*
D170*
X332108Y123130D03*
D33*
X313208Y122930D03*
D72*
X332208Y122930D03*
D53*
X313608Y122730D03*
D171*
X332308Y122730D03*
D27*
X314008Y122530D03*
D172*
X332408Y122530D03*
D48*
X314408Y122330D03*
D173*
X332508Y122330D03*
D38*
X314908Y122130D03*
D174*
X332608Y122130D03*
D29*
X315308Y121930D03*
D71*
X332808Y121930D03*
D56*
X316008Y121730D03*
D175*
X332908Y121730D03*
D18*
X316708Y121530D03*
D176*
X333008Y121530D03*
D177*
X333208Y121330D03*
D70*
X333308Y121130D03*
D149*
X333508Y120930D03*
D150*
X333608Y120730D03*
D151*
X333708Y120530D03*
D147*
X333908Y120330D03*
D153*
X334108Y120130D03*
D155*
X334208Y119930D03*
D156*
X334408Y119730D03*
D68*
X334608Y119530D03*
D159*
X334808Y119330D03*
D160*
X335008Y119130D03*
D161*
X335208Y118930D03*
D67*
X335408Y118730D03*
D40*
X335708Y118530D03*
D35*
X335908Y118330D03*
D164*
X336208Y118130D03*
D61*
X336408Y117930D03*
D43*
X336808Y117730D03*
D39*
X337108Y117530D03*
D167*
X337408Y117330D03*
D146*
X337908Y117130D03*
D55*
X338308Y116930D03*
D38*
X339108Y116730D03*
M02*
