G04 EAGLE Gerber RS-274X export*
G75*
%MOMM*%
%FSLAX34Y34*%
%LPD*%
%INBottom Copper*%
%IPPOS*%
%AMOC8*
5,1,8,0,0,1.08239X$1,22.5*%
G01*
%ADD10R,1.524000X1.524000*%
%ADD11C,1.524000*%
%ADD12C,1.879600*%
%ADD13C,0.609600*%
%ADD14C,0.304800*%
%ADD15C,0.203200*%

G36*
X159770Y5088D02*
X159770Y5088D01*
X159822Y5087D01*
X159901Y5108D01*
X159982Y5121D01*
X160029Y5143D01*
X160078Y5157D01*
X160148Y5201D01*
X160221Y5236D01*
X160259Y5272D01*
X160303Y5299D01*
X160356Y5362D01*
X160416Y5418D01*
X160441Y5463D01*
X160475Y5502D01*
X160507Y5577D01*
X160548Y5648D01*
X160559Y5699D01*
X160579Y5746D01*
X160588Y5828D01*
X160606Y5908D01*
X160601Y5959D01*
X160607Y6011D01*
X160591Y6091D01*
X160584Y6173D01*
X160565Y6221D01*
X160555Y6271D01*
X160527Y6315D01*
X160485Y6420D01*
X160372Y6559D01*
X160347Y6597D01*
X160301Y6643D01*
X160301Y23357D01*
X161343Y24399D01*
X166017Y24399D01*
X166119Y24414D01*
X166221Y24422D01*
X166249Y24434D01*
X166280Y24439D01*
X166372Y24483D01*
X166468Y24521D01*
X166491Y24541D01*
X166519Y24554D01*
X166594Y24624D01*
X166674Y24689D01*
X166691Y24715D01*
X166713Y24736D01*
X166764Y24825D01*
X166821Y24910D01*
X166827Y24934D01*
X166845Y24966D01*
X166903Y25226D01*
X166900Y25264D01*
X166905Y25287D01*
X166905Y84498D01*
X227577Y145169D01*
X227590Y145186D01*
X227606Y145200D01*
X227668Y145293D01*
X227735Y145383D01*
X227742Y145403D01*
X227753Y145421D01*
X227763Y145465D01*
X227822Y145634D01*
X227826Y145747D01*
X227837Y145798D01*
X227837Y153081D01*
X227834Y153101D01*
X227836Y153122D01*
X227814Y153233D01*
X227797Y153344D01*
X227788Y153362D01*
X227784Y153383D01*
X227760Y153422D01*
X227682Y153583D01*
X227605Y153665D01*
X227577Y153709D01*
X225805Y155481D01*
X225805Y159479D01*
X227577Y161251D01*
X227590Y161268D01*
X227606Y161281D01*
X227668Y161375D01*
X227735Y161465D01*
X227742Y161485D01*
X227753Y161502D01*
X227763Y161547D01*
X227822Y161716D01*
X227826Y161829D01*
X227837Y161879D01*
X227837Y257698D01*
X227834Y257719D01*
X227836Y257740D01*
X227814Y257850D01*
X227797Y257961D01*
X227788Y257980D01*
X227784Y258001D01*
X227760Y258039D01*
X227682Y258201D01*
X227605Y258283D01*
X227577Y258327D01*
X189857Y296047D01*
X189840Y296060D01*
X189826Y296076D01*
X189733Y296138D01*
X189643Y296205D01*
X189623Y296212D01*
X189605Y296223D01*
X189561Y296233D01*
X189392Y296292D01*
X189279Y296296D01*
X189228Y296307D01*
X186723Y296307D01*
X183895Y299135D01*
X183895Y303133D01*
X185667Y304905D01*
X185680Y304922D01*
X185696Y304935D01*
X185758Y305029D01*
X185825Y305119D01*
X185832Y305139D01*
X185843Y305156D01*
X185853Y305201D01*
X185912Y305370D01*
X185916Y305483D01*
X185927Y305533D01*
X185927Y319197D01*
X185924Y319217D01*
X185926Y319238D01*
X185904Y319349D01*
X185887Y319460D01*
X185878Y319478D01*
X185874Y319499D01*
X185850Y319538D01*
X185772Y319699D01*
X185695Y319781D01*
X185667Y319825D01*
X183895Y321597D01*
X183895Y325595D01*
X186723Y328423D01*
X190721Y328423D01*
X193549Y325595D01*
X193549Y321597D01*
X191777Y319825D01*
X191764Y319808D01*
X191748Y319795D01*
X191686Y319701D01*
X191619Y319611D01*
X191612Y319591D01*
X191601Y319574D01*
X191591Y319529D01*
X191532Y319360D01*
X191528Y319247D01*
X191517Y319197D01*
X191517Y305533D01*
X191520Y305513D01*
X191518Y305492D01*
X191540Y305381D01*
X191557Y305270D01*
X191566Y305252D01*
X191570Y305231D01*
X191594Y305192D01*
X191672Y305031D01*
X191749Y304949D01*
X191777Y304905D01*
X193549Y303133D01*
X193549Y300628D01*
X193552Y300607D01*
X193550Y300586D01*
X193572Y300476D01*
X193589Y300365D01*
X193598Y300346D01*
X193602Y300325D01*
X193626Y300287D01*
X193704Y300125D01*
X193781Y300043D01*
X193809Y299999D01*
X232417Y261391D01*
X232458Y261361D01*
X232494Y261323D01*
X232565Y261282D01*
X232631Y261234D01*
X232680Y261217D01*
X232724Y261191D01*
X232804Y261173D01*
X232882Y261146D01*
X232934Y261145D01*
X232984Y261133D01*
X233066Y261140D01*
X233148Y261137D01*
X233197Y261151D01*
X233249Y261155D01*
X233325Y261185D01*
X233404Y261207D01*
X233448Y261235D01*
X233496Y261254D01*
X233559Y261306D01*
X233628Y261350D01*
X233662Y261389D01*
X233702Y261422D01*
X233747Y261490D01*
X233800Y261552D01*
X233821Y261600D01*
X233849Y261643D01*
X233861Y261693D01*
X233905Y261797D01*
X233923Y261975D01*
X233933Y262019D01*
X233933Y272540D01*
X233930Y272561D01*
X233932Y272582D01*
X233910Y272692D01*
X233893Y272803D01*
X233884Y272822D01*
X233880Y272843D01*
X233856Y272881D01*
X233778Y273043D01*
X233701Y273125D01*
X233673Y273169D01*
X230751Y276091D01*
X230734Y276104D01*
X230720Y276120D01*
X230627Y276182D01*
X230537Y276249D01*
X230517Y276256D01*
X230499Y276267D01*
X230455Y276277D01*
X230286Y276336D01*
X230173Y276340D01*
X230122Y276351D01*
X227617Y276351D01*
X224789Y279179D01*
X224789Y283177D01*
X227617Y286005D01*
X231615Y286005D01*
X234443Y283177D01*
X234443Y280672D01*
X234446Y280651D01*
X234444Y280630D01*
X234466Y280520D01*
X234483Y280409D01*
X234492Y280390D01*
X234496Y280369D01*
X234520Y280331D01*
X234598Y280169D01*
X234675Y280087D01*
X234703Y280043D01*
X239523Y275224D01*
X239523Y149179D01*
X239526Y149159D01*
X239524Y149138D01*
X239546Y149027D01*
X239563Y148916D01*
X239572Y148898D01*
X239576Y148877D01*
X239600Y148838D01*
X239678Y148677D01*
X239755Y148595D01*
X239783Y148551D01*
X241555Y146779D01*
X241555Y142781D01*
X238727Y139953D01*
X236222Y139953D01*
X236201Y139950D01*
X236180Y139952D01*
X236070Y139930D01*
X235959Y139913D01*
X235940Y139904D01*
X235919Y139900D01*
X235881Y139876D01*
X235719Y139798D01*
X235637Y139721D01*
X235593Y139693D01*
X198155Y102255D01*
X198142Y102238D01*
X198126Y102224D01*
X198064Y102131D01*
X197997Y102041D01*
X197990Y102021D01*
X197979Y102003D01*
X197969Y101959D01*
X197910Y101790D01*
X197906Y101677D01*
X197895Y101626D01*
X197895Y24609D01*
X197904Y24548D01*
X197903Y24486D01*
X197917Y24441D01*
X197918Y24418D01*
X197927Y24398D01*
X197935Y24346D01*
X197962Y24290D01*
X197979Y24231D01*
X198015Y24177D01*
X198017Y24172D01*
X198021Y24167D01*
X198050Y24107D01*
X198093Y24062D01*
X198127Y24010D01*
X198166Y23982D01*
X198232Y23913D01*
X198418Y23806D01*
X198443Y23788D01*
X200424Y22968D01*
X203068Y20324D01*
X204499Y16870D01*
X204499Y13130D01*
X203068Y9676D01*
X200424Y7032D01*
X199838Y6790D01*
X199759Y6742D01*
X199676Y6702D01*
X199646Y6674D01*
X199611Y6652D01*
X199549Y6583D01*
X199482Y6520D01*
X199461Y6485D01*
X199434Y6454D01*
X199396Y6370D01*
X199350Y6290D01*
X199341Y6249D01*
X199324Y6212D01*
X199312Y6120D01*
X199292Y6030D01*
X199296Y5989D01*
X199290Y5948D01*
X199306Y5857D01*
X199314Y5765D01*
X199329Y5727D01*
X199336Y5686D01*
X199378Y5604D01*
X199413Y5518D01*
X199439Y5486D01*
X199458Y5450D01*
X199522Y5384D01*
X199580Y5312D01*
X199615Y5289D01*
X199643Y5260D01*
X199725Y5216D01*
X199802Y5165D01*
X199832Y5158D01*
X199877Y5133D01*
X200138Y5082D01*
X200158Y5085D01*
X200178Y5081D01*
X215422Y5081D01*
X215513Y5095D01*
X215605Y5100D01*
X215644Y5114D01*
X215684Y5121D01*
X215767Y5161D01*
X215854Y5193D01*
X215887Y5218D01*
X215924Y5236D01*
X215991Y5299D01*
X216064Y5356D01*
X216088Y5389D01*
X216118Y5418D01*
X216164Y5498D01*
X216217Y5573D01*
X216230Y5613D01*
X216250Y5648D01*
X216270Y5739D01*
X216298Y5826D01*
X216299Y5868D01*
X216308Y5908D01*
X216300Y6000D01*
X216301Y6092D01*
X216290Y6132D01*
X216286Y6173D01*
X216252Y6258D01*
X216225Y6347D01*
X216203Y6381D01*
X216187Y6420D01*
X216129Y6491D01*
X216078Y6568D01*
X216052Y6586D01*
X216020Y6626D01*
X215798Y6773D01*
X215778Y6778D01*
X215762Y6790D01*
X215176Y7032D01*
X212532Y9676D01*
X211101Y13130D01*
X211101Y16870D01*
X212532Y20324D01*
X215176Y22968D01*
X218630Y24399D01*
X222370Y24399D01*
X225824Y22968D01*
X228468Y20324D01*
X229899Y16870D01*
X229899Y13130D01*
X228468Y9676D01*
X225824Y7032D01*
X225238Y6790D01*
X225159Y6742D01*
X225076Y6702D01*
X225046Y6674D01*
X225011Y6652D01*
X224949Y6583D01*
X224882Y6520D01*
X224861Y6485D01*
X224834Y6454D01*
X224796Y6370D01*
X224750Y6290D01*
X224741Y6249D01*
X224724Y6212D01*
X224712Y6120D01*
X224692Y6030D01*
X224696Y5989D01*
X224690Y5948D01*
X224706Y5857D01*
X224714Y5765D01*
X224729Y5727D01*
X224736Y5686D01*
X224778Y5604D01*
X224813Y5518D01*
X224839Y5486D01*
X224858Y5450D01*
X224922Y5384D01*
X224980Y5312D01*
X225015Y5289D01*
X225043Y5260D01*
X225125Y5216D01*
X225202Y5165D01*
X225232Y5158D01*
X225277Y5133D01*
X225538Y5082D01*
X225558Y5085D01*
X225578Y5081D01*
X240822Y5081D01*
X240913Y5095D01*
X241005Y5100D01*
X241044Y5114D01*
X241084Y5121D01*
X241167Y5161D01*
X241254Y5193D01*
X241287Y5218D01*
X241324Y5236D01*
X241391Y5299D01*
X241464Y5356D01*
X241488Y5389D01*
X241518Y5418D01*
X241564Y5498D01*
X241617Y5573D01*
X241630Y5613D01*
X241650Y5648D01*
X241670Y5739D01*
X241698Y5826D01*
X241699Y5868D01*
X241708Y5908D01*
X241700Y6000D01*
X241701Y6092D01*
X241690Y6132D01*
X241686Y6173D01*
X241652Y6258D01*
X241625Y6347D01*
X241603Y6381D01*
X241587Y6420D01*
X241529Y6491D01*
X241478Y6568D01*
X241452Y6586D01*
X241420Y6626D01*
X241198Y6773D01*
X241178Y6778D01*
X241162Y6790D01*
X240576Y7032D01*
X237932Y9676D01*
X236501Y13130D01*
X236501Y16870D01*
X237932Y20324D01*
X240576Y22968D01*
X244030Y24399D01*
X247770Y24399D01*
X251224Y22968D01*
X253868Y20324D01*
X255299Y16870D01*
X255299Y13130D01*
X253868Y9676D01*
X251224Y7032D01*
X250638Y6790D01*
X250559Y6742D01*
X250476Y6702D01*
X250446Y6674D01*
X250411Y6652D01*
X250349Y6583D01*
X250282Y6520D01*
X250261Y6485D01*
X250234Y6454D01*
X250196Y6370D01*
X250150Y6290D01*
X250141Y6249D01*
X250124Y6212D01*
X250112Y6120D01*
X250092Y6030D01*
X250096Y5989D01*
X250090Y5948D01*
X250106Y5857D01*
X250114Y5765D01*
X250129Y5727D01*
X250136Y5686D01*
X250178Y5604D01*
X250213Y5518D01*
X250239Y5486D01*
X250258Y5450D01*
X250322Y5384D01*
X250380Y5312D01*
X250415Y5289D01*
X250443Y5260D01*
X250525Y5216D01*
X250602Y5165D01*
X250632Y5158D01*
X250677Y5133D01*
X250938Y5082D01*
X250958Y5085D01*
X250978Y5081D01*
X266222Y5081D01*
X266313Y5095D01*
X266405Y5100D01*
X266444Y5114D01*
X266484Y5121D01*
X266567Y5161D01*
X266654Y5193D01*
X266687Y5218D01*
X266724Y5236D01*
X266791Y5299D01*
X266864Y5356D01*
X266888Y5389D01*
X266918Y5418D01*
X266964Y5498D01*
X267017Y5573D01*
X267030Y5613D01*
X267050Y5648D01*
X267070Y5739D01*
X267098Y5826D01*
X267099Y5868D01*
X267108Y5908D01*
X267100Y6000D01*
X267101Y6092D01*
X267090Y6132D01*
X267086Y6173D01*
X267052Y6258D01*
X267025Y6347D01*
X267003Y6381D01*
X266987Y6420D01*
X266929Y6491D01*
X266878Y6568D01*
X266852Y6586D01*
X266820Y6626D01*
X266598Y6773D01*
X266578Y6778D01*
X266562Y6790D01*
X265976Y7032D01*
X263332Y9676D01*
X261901Y13130D01*
X261901Y16870D01*
X263332Y20324D01*
X265976Y22968D01*
X267449Y23578D01*
X267502Y23610D01*
X267560Y23633D01*
X267615Y23678D01*
X267677Y23715D01*
X267718Y23761D01*
X267766Y23801D01*
X267806Y23860D01*
X267853Y23914D01*
X267879Y23970D01*
X267913Y24022D01*
X267924Y24069D01*
X267963Y24156D01*
X267990Y24368D01*
X267997Y24399D01*
X267997Y50052D01*
X267994Y50073D01*
X267996Y50094D01*
X267974Y50204D01*
X267957Y50315D01*
X267948Y50334D01*
X267944Y50354D01*
X267920Y50393D01*
X267842Y50554D01*
X267765Y50637D01*
X267737Y50680D01*
X266862Y51555D01*
X265084Y53333D01*
X265067Y53346D01*
X265054Y53362D01*
X264960Y53424D01*
X264870Y53491D01*
X264850Y53498D01*
X264833Y53509D01*
X264788Y53519D01*
X264619Y53578D01*
X264506Y53582D01*
X264456Y53593D01*
X211409Y53593D01*
X211389Y53590D01*
X211368Y53592D01*
X211257Y53570D01*
X211146Y53553D01*
X211128Y53544D01*
X211107Y53540D01*
X211068Y53516D01*
X210907Y53438D01*
X210825Y53361D01*
X210781Y53333D01*
X209517Y52069D01*
X205519Y52069D01*
X202691Y54897D01*
X202691Y58895D01*
X205519Y61723D01*
X209517Y61723D01*
X210781Y60459D01*
X210798Y60446D01*
X210811Y60430D01*
X210905Y60368D01*
X210995Y60301D01*
X211015Y60294D01*
X211032Y60283D01*
X211077Y60273D01*
X211246Y60214D01*
X211359Y60210D01*
X211409Y60199D01*
X264456Y60199D01*
X264477Y60202D01*
X264498Y60200D01*
X264608Y60222D01*
X264719Y60239D01*
X264738Y60248D01*
X264758Y60252D01*
X264797Y60276D01*
X264958Y60354D01*
X265041Y60431D01*
X265084Y60459D01*
X294034Y89409D01*
X350693Y89409D01*
X350713Y89412D01*
X350734Y89410D01*
X350845Y89432D01*
X350956Y89449D01*
X350974Y89458D01*
X350995Y89462D01*
X351034Y89486D01*
X351195Y89564D01*
X351277Y89641D01*
X351321Y89669D01*
X352585Y90933D01*
X356583Y90933D01*
X357847Y89669D01*
X357864Y89656D01*
X357877Y89640D01*
X357971Y89578D01*
X358061Y89511D01*
X358081Y89504D01*
X358098Y89493D01*
X358143Y89483D01*
X358312Y89424D01*
X358425Y89420D01*
X358475Y89409D01*
X378125Y89409D01*
X378145Y89412D01*
X378166Y89410D01*
X378277Y89432D01*
X378388Y89449D01*
X378406Y89458D01*
X378427Y89462D01*
X378466Y89486D01*
X378627Y89564D01*
X378709Y89641D01*
X378753Y89669D01*
X380017Y90933D01*
X384015Y90933D01*
X386843Y88105D01*
X386843Y84107D01*
X384015Y81279D01*
X380017Y81279D01*
X378753Y82543D01*
X378736Y82556D01*
X378723Y82572D01*
X378629Y82634D01*
X378539Y82701D01*
X378519Y82708D01*
X378502Y82719D01*
X378457Y82729D01*
X378288Y82788D01*
X378175Y82792D01*
X378125Y82803D01*
X358475Y82803D01*
X358455Y82800D01*
X358434Y82802D01*
X358323Y82780D01*
X358212Y82763D01*
X358194Y82754D01*
X358173Y82750D01*
X358134Y82726D01*
X357973Y82648D01*
X357891Y82571D01*
X357847Y82543D01*
X356583Y81279D01*
X352585Y81279D01*
X351321Y82543D01*
X351304Y82556D01*
X351291Y82572D01*
X351197Y82634D01*
X351107Y82701D01*
X351087Y82708D01*
X351070Y82719D01*
X351025Y82729D01*
X350856Y82788D01*
X350743Y82792D01*
X350693Y82803D01*
X297138Y82803D01*
X297117Y82800D01*
X297096Y82802D01*
X296986Y82780D01*
X296875Y82763D01*
X296856Y82754D01*
X296836Y82750D01*
X296797Y82726D01*
X296636Y82648D01*
X296553Y82571D01*
X296510Y82543D01*
X271533Y57566D01*
X271520Y57549D01*
X271504Y57536D01*
X271442Y57442D01*
X271375Y57352D01*
X271368Y57332D01*
X271357Y57315D01*
X271347Y57270D01*
X271288Y57101D01*
X271284Y56988D01*
X271273Y56938D01*
X271273Y56854D01*
X271276Y56833D01*
X271274Y56812D01*
X271296Y56702D01*
X271313Y56591D01*
X271322Y56572D01*
X271326Y56552D01*
X271350Y56513D01*
X271428Y56352D01*
X271505Y56269D01*
X271533Y56226D01*
X272408Y55351D01*
X274603Y53156D01*
X274603Y24399D01*
X274612Y24337D01*
X274611Y24275D01*
X274632Y24207D01*
X274643Y24136D01*
X274670Y24080D01*
X274687Y24021D01*
X274727Y23961D01*
X274758Y23896D01*
X274801Y23851D01*
X274835Y23800D01*
X274874Y23772D01*
X274940Y23702D01*
X275126Y23596D01*
X275151Y23578D01*
X276624Y22968D01*
X279268Y20324D01*
X280699Y16870D01*
X280699Y13130D01*
X279268Y9676D01*
X276624Y7032D01*
X276038Y6790D01*
X275959Y6742D01*
X275876Y6702D01*
X275846Y6674D01*
X275811Y6652D01*
X275749Y6583D01*
X275682Y6520D01*
X275661Y6485D01*
X275634Y6454D01*
X275596Y6370D01*
X275550Y6290D01*
X275541Y6249D01*
X275524Y6212D01*
X275512Y6120D01*
X275492Y6030D01*
X275496Y5989D01*
X275490Y5948D01*
X275506Y5857D01*
X275514Y5765D01*
X275529Y5727D01*
X275536Y5686D01*
X275578Y5604D01*
X275613Y5518D01*
X275639Y5486D01*
X275658Y5450D01*
X275722Y5384D01*
X275780Y5312D01*
X275815Y5289D01*
X275843Y5260D01*
X275925Y5216D01*
X276002Y5165D01*
X276032Y5158D01*
X276077Y5133D01*
X276338Y5082D01*
X276358Y5085D01*
X276378Y5081D01*
X290333Y5081D01*
X290452Y5099D01*
X290572Y5114D01*
X290583Y5119D01*
X290595Y5121D01*
X290704Y5173D01*
X290814Y5223D01*
X290824Y5231D01*
X290835Y5236D01*
X290923Y5319D01*
X291014Y5399D01*
X291020Y5409D01*
X291029Y5418D01*
X291089Y5522D01*
X291152Y5626D01*
X291155Y5638D01*
X291161Y5648D01*
X291187Y5766D01*
X291217Y5884D01*
X291216Y5896D01*
X291219Y5908D01*
X291209Y6029D01*
X291202Y6149D01*
X291198Y6161D01*
X291197Y6173D01*
X291152Y6285D01*
X291110Y6398D01*
X291104Y6406D01*
X291098Y6420D01*
X290930Y6626D01*
X290879Y6660D01*
X290855Y6688D01*
X290081Y7250D01*
X288950Y8381D01*
X288010Y9675D01*
X287284Y11100D01*
X286789Y12621D01*
X286694Y13223D01*
X295811Y13223D01*
X295912Y13238D01*
X296015Y13246D01*
X296043Y13258D01*
X296074Y13263D01*
X296166Y13307D01*
X296261Y13345D01*
X296285Y13365D01*
X296313Y13378D01*
X296388Y13448D01*
X296468Y13513D01*
X296485Y13539D01*
X296507Y13560D01*
X296558Y13649D01*
X296615Y13734D01*
X296620Y13758D01*
X296639Y13790D01*
X296697Y14050D01*
X296694Y14088D01*
X296699Y14111D01*
X296699Y15001D01*
X296701Y15001D01*
X296701Y14111D01*
X296716Y14009D01*
X296725Y13907D01*
X296736Y13879D01*
X296741Y13848D01*
X296785Y13756D01*
X296824Y13660D01*
X296843Y13637D01*
X296856Y13609D01*
X296926Y13534D01*
X296991Y13454D01*
X297017Y13437D01*
X297038Y13415D01*
X297127Y13364D01*
X297212Y13307D01*
X297236Y13301D01*
X297269Y13283D01*
X297528Y13225D01*
X297566Y13228D01*
X297589Y13223D01*
X306706Y13223D01*
X306611Y12621D01*
X306116Y11100D01*
X305390Y9675D01*
X304450Y8381D01*
X303319Y7250D01*
X302545Y6688D01*
X302459Y6603D01*
X302371Y6520D01*
X302365Y6510D01*
X302356Y6501D01*
X302299Y6394D01*
X302239Y6290D01*
X302236Y6277D01*
X302231Y6267D01*
X302208Y6148D01*
X302181Y6030D01*
X302182Y6018D01*
X302180Y6006D01*
X302193Y5885D01*
X302203Y5765D01*
X302208Y5754D01*
X302209Y5741D01*
X302257Y5630D01*
X302302Y5518D01*
X302310Y5509D01*
X302315Y5498D01*
X302393Y5406D01*
X302470Y5312D01*
X302480Y5305D01*
X302488Y5296D01*
X302590Y5232D01*
X302691Y5165D01*
X302700Y5162D01*
X302713Y5155D01*
X302970Y5086D01*
X303032Y5089D01*
X303067Y5081D01*
X416547Y5081D01*
X416636Y5094D01*
X416726Y5099D01*
X416767Y5114D01*
X416810Y5121D01*
X416891Y5160D01*
X416975Y5191D01*
X417010Y5217D01*
X417049Y5236D01*
X417115Y5298D01*
X417187Y5353D01*
X417212Y5388D01*
X417243Y5418D01*
X417288Y5496D01*
X417340Y5569D01*
X417354Y5611D01*
X417375Y5648D01*
X417395Y5736D01*
X417423Y5822D01*
X417424Y5865D01*
X417433Y5908D01*
X417426Y5998D01*
X417427Y6088D01*
X417415Y6130D01*
X417411Y6173D01*
X417378Y6256D01*
X417353Y6343D01*
X417333Y6369D01*
X417312Y6420D01*
X417145Y6626D01*
X417127Y6638D01*
X417118Y6649D01*
X412845Y10235D01*
X407505Y19483D01*
X405651Y30000D01*
X407505Y40517D01*
X412845Y49765D01*
X421026Y56629D01*
X431061Y60282D01*
X441739Y60282D01*
X451775Y56629D01*
X459860Y49845D01*
X459871Y49838D01*
X459880Y49829D01*
X459984Y49769D01*
X460087Y49706D01*
X460099Y49703D01*
X460110Y49697D01*
X460228Y49671D01*
X460345Y49641D01*
X460357Y49642D01*
X460370Y49639D01*
X460490Y49649D01*
X460610Y49655D01*
X460622Y49660D01*
X460635Y49661D01*
X460746Y49705D01*
X460860Y49747D01*
X460870Y49755D01*
X460882Y49760D01*
X460975Y49836D01*
X461071Y49909D01*
X461078Y49919D01*
X461088Y49927D01*
X461155Y50028D01*
X461224Y50126D01*
X461228Y50138D01*
X461235Y50148D01*
X461243Y50183D01*
X461307Y50378D01*
X461309Y50477D01*
X461319Y50525D01*
X461319Y415875D01*
X461317Y415887D01*
X461319Y415900D01*
X461298Y416018D01*
X461279Y416138D01*
X461274Y416149D01*
X461272Y416162D01*
X461216Y416268D01*
X461164Y416377D01*
X461155Y416386D01*
X461149Y416397D01*
X461065Y416483D01*
X460982Y416571D01*
X460971Y416578D01*
X460962Y416587D01*
X460856Y416643D01*
X460752Y416703D01*
X460739Y416706D01*
X460728Y416712D01*
X460609Y416735D01*
X460492Y416761D01*
X460479Y416760D01*
X460467Y416762D01*
X460347Y416749D01*
X460227Y416739D01*
X460215Y416734D01*
X460203Y416733D01*
X460171Y416717D01*
X459980Y416640D01*
X459904Y416578D01*
X459860Y416555D01*
X451775Y409771D01*
X441739Y406118D01*
X431061Y406118D01*
X421025Y409771D01*
X412845Y416635D01*
X407505Y425883D01*
X405651Y436400D01*
X407505Y446917D01*
X412845Y456165D01*
X417118Y459751D01*
X417177Y459818D01*
X417243Y459880D01*
X417265Y459917D01*
X417294Y459950D01*
X417331Y460032D01*
X417375Y460110D01*
X417385Y460153D01*
X417403Y460192D01*
X417414Y460282D01*
X417433Y460370D01*
X417430Y460413D01*
X417435Y460456D01*
X417419Y460545D01*
X417412Y460635D01*
X417395Y460675D01*
X417388Y460718D01*
X417346Y460798D01*
X417313Y460882D01*
X417285Y460915D01*
X417265Y460954D01*
X417202Y461018D01*
X417145Y461088D01*
X417109Y461112D01*
X417078Y461143D01*
X416999Y461185D01*
X416924Y461235D01*
X416892Y461242D01*
X416844Y461268D01*
X416583Y461319D01*
X416561Y461316D01*
X416547Y461319D01*
X49853Y461319D01*
X49764Y461306D01*
X49674Y461301D01*
X49633Y461286D01*
X49590Y461279D01*
X49509Y461240D01*
X49425Y461209D01*
X49390Y461183D01*
X49351Y461164D01*
X49285Y461102D01*
X49213Y461047D01*
X49188Y461012D01*
X49157Y460982D01*
X49112Y460904D01*
X49060Y460831D01*
X49046Y460789D01*
X49025Y460752D01*
X49005Y460664D01*
X48977Y460578D01*
X48976Y460535D01*
X48967Y460492D01*
X48974Y460402D01*
X48973Y460312D01*
X48985Y460270D01*
X48989Y460227D01*
X49022Y460144D01*
X49047Y460057D01*
X49067Y460031D01*
X49088Y459980D01*
X49255Y459774D01*
X49273Y459762D01*
X49282Y459751D01*
X53555Y456165D01*
X58895Y446917D01*
X60749Y436400D01*
X58895Y425883D01*
X53555Y416635D01*
X45375Y409771D01*
X35339Y406118D01*
X24661Y406118D01*
X14625Y409771D01*
X6540Y416555D01*
X6529Y416562D01*
X6520Y416571D01*
X6416Y416631D01*
X6313Y416694D01*
X6301Y416697D01*
X6290Y416703D01*
X6172Y416729D01*
X6055Y416759D01*
X6043Y416758D01*
X6030Y416761D01*
X5910Y416751D01*
X5790Y416745D01*
X5778Y416740D01*
X5765Y416739D01*
X5654Y416695D01*
X5540Y416653D01*
X5530Y416645D01*
X5518Y416640D01*
X5425Y416564D01*
X5329Y416491D01*
X5322Y416481D01*
X5312Y416473D01*
X5245Y416372D01*
X5176Y416274D01*
X5172Y416262D01*
X5165Y416252D01*
X5157Y416217D01*
X5093Y416022D01*
X5091Y415923D01*
X5081Y415875D01*
X5081Y50525D01*
X5083Y50513D01*
X5081Y50500D01*
X5103Y50381D01*
X5121Y50262D01*
X5126Y50251D01*
X5128Y50238D01*
X5184Y50132D01*
X5236Y50023D01*
X5245Y50014D01*
X5251Y50003D01*
X5335Y49917D01*
X5418Y49829D01*
X5429Y49822D01*
X5438Y49813D01*
X5544Y49757D01*
X5648Y49697D01*
X5661Y49694D01*
X5672Y49688D01*
X5791Y49665D01*
X5908Y49639D01*
X5921Y49640D01*
X5933Y49638D01*
X6053Y49651D01*
X6173Y49661D01*
X6185Y49666D01*
X6197Y49667D01*
X6229Y49683D01*
X6420Y49760D01*
X6496Y49822D01*
X6540Y49845D01*
X14625Y56629D01*
X24661Y60282D01*
X35339Y60282D01*
X45375Y56629D01*
X53555Y49765D01*
X58895Y40517D01*
X60749Y30000D01*
X58895Y19483D01*
X53555Y10235D01*
X49282Y6649D01*
X49223Y6582D01*
X49157Y6520D01*
X49135Y6483D01*
X49106Y6450D01*
X49069Y6368D01*
X49025Y6290D01*
X49015Y6247D01*
X48997Y6208D01*
X48986Y6118D01*
X48967Y6030D01*
X48970Y5987D01*
X48965Y5944D01*
X48981Y5855D01*
X48988Y5765D01*
X49005Y5725D01*
X49012Y5682D01*
X49054Y5602D01*
X49087Y5518D01*
X49115Y5485D01*
X49135Y5446D01*
X49198Y5382D01*
X49255Y5312D01*
X49291Y5288D01*
X49322Y5257D01*
X49401Y5215D01*
X49476Y5165D01*
X49508Y5158D01*
X49556Y5132D01*
X49817Y5081D01*
X49839Y5084D01*
X49853Y5081D01*
X159719Y5081D01*
X159770Y5088D01*
G37*
%LPC*%
G36*
X375394Y308609D02*
X375394Y308609D01*
X308609Y375394D01*
X308609Y376446D01*
X344914Y412751D01*
X345966Y412751D01*
X412751Y345966D01*
X412751Y344914D01*
X376446Y308609D01*
X375394Y308609D01*
G37*
%LPD*%
%LPC*%
G36*
X79281Y198119D02*
X79281Y198119D01*
X76453Y200947D01*
X76453Y204945D01*
X78225Y206717D01*
X78238Y206734D01*
X78254Y206747D01*
X78316Y206841D01*
X78383Y206931D01*
X78390Y206951D01*
X78401Y206968D01*
X78411Y207013D01*
X78470Y207182D01*
X78474Y207295D01*
X78485Y207345D01*
X78485Y214803D01*
X78482Y214823D01*
X78484Y214844D01*
X78462Y214955D01*
X78445Y215066D01*
X78436Y215084D01*
X78432Y215105D01*
X78408Y215144D01*
X78330Y215305D01*
X78253Y215387D01*
X78225Y215431D01*
X76453Y217203D01*
X76453Y221201D01*
X78225Y222973D01*
X78238Y222990D01*
X78254Y223003D01*
X78270Y223027D01*
X78282Y223039D01*
X78311Y223089D01*
X78316Y223097D01*
X78383Y223187D01*
X78390Y223207D01*
X78401Y223224D01*
X78410Y223261D01*
X78414Y223270D01*
X78419Y223292D01*
X78470Y223438D01*
X78474Y223551D01*
X78485Y223601D01*
X78485Y293289D01*
X78482Y293309D01*
X78484Y293330D01*
X78462Y293441D01*
X78445Y293552D01*
X78436Y293570D01*
X78432Y293591D01*
X78408Y293630D01*
X78330Y293791D01*
X78253Y293873D01*
X78225Y293917D01*
X76453Y295689D01*
X76453Y299687D01*
X78225Y301459D01*
X78238Y301476D01*
X78254Y301489D01*
X78316Y301583D01*
X78383Y301673D01*
X78390Y301693D01*
X78401Y301710D01*
X78411Y301755D01*
X78470Y301924D01*
X78474Y302037D01*
X78485Y302087D01*
X78485Y337310D01*
X78482Y337331D01*
X78484Y337352D01*
X78465Y337449D01*
X78462Y337490D01*
X78456Y337504D01*
X78445Y337573D01*
X78436Y337592D01*
X78432Y337613D01*
X78408Y337651D01*
X78330Y337813D01*
X78253Y337895D01*
X78225Y337939D01*
X60063Y356101D01*
X60046Y356114D01*
X60032Y356130D01*
X59939Y356192D01*
X59849Y356259D01*
X59829Y356266D01*
X59811Y356277D01*
X59767Y356287D01*
X59598Y356346D01*
X59485Y356350D01*
X59434Y356361D01*
X56929Y356361D01*
X54101Y359189D01*
X54101Y363187D01*
X56929Y366015D01*
X60927Y366015D01*
X63755Y363187D01*
X63755Y360682D01*
X63758Y360661D01*
X63756Y360640D01*
X63778Y360530D01*
X63795Y360419D01*
X63804Y360400D01*
X63808Y360379D01*
X63832Y360341D01*
X63910Y360179D01*
X63987Y360097D01*
X64015Y360053D01*
X84075Y339994D01*
X84075Y302087D01*
X84078Y302066D01*
X84076Y302046D01*
X84098Y301935D01*
X84115Y301824D01*
X84124Y301806D01*
X84128Y301785D01*
X84152Y301746D01*
X84230Y301585D01*
X84307Y301503D01*
X84335Y301459D01*
X85859Y299935D01*
X85900Y299904D01*
X85936Y299867D01*
X86007Y299826D01*
X86073Y299777D01*
X86122Y299760D01*
X86166Y299735D01*
X86246Y299717D01*
X86324Y299690D01*
X86376Y299688D01*
X86426Y299677D01*
X86508Y299684D01*
X86590Y299681D01*
X86639Y299694D01*
X86691Y299699D01*
X86767Y299729D01*
X86846Y299751D01*
X86890Y299778D01*
X86938Y299798D01*
X87001Y299849D01*
X87070Y299893D01*
X87104Y299933D01*
X87144Y299965D01*
X87189Y300034D01*
X87242Y300096D01*
X87263Y300143D01*
X87291Y300186D01*
X87303Y300237D01*
X87347Y300340D01*
X87365Y300519D01*
X87375Y300563D01*
X87375Y344676D01*
X87372Y344697D01*
X87374Y344718D01*
X87352Y344828D01*
X87335Y344939D01*
X87326Y344958D01*
X87322Y344979D01*
X87298Y345017D01*
X87220Y345179D01*
X87143Y345261D01*
X87115Y345305D01*
X60063Y372357D01*
X60046Y372370D01*
X60032Y372386D01*
X59939Y372448D01*
X59849Y372515D01*
X59829Y372522D01*
X59811Y372533D01*
X59767Y372543D01*
X59598Y372602D01*
X59485Y372606D01*
X59434Y372617D01*
X56929Y372617D01*
X54101Y375445D01*
X54101Y379443D01*
X56929Y382271D01*
X60927Y382271D01*
X63755Y379443D01*
X63755Y376938D01*
X63758Y376917D01*
X63756Y376896D01*
X63778Y376786D01*
X63795Y376675D01*
X63804Y376656D01*
X63808Y376635D01*
X63832Y376597D01*
X63910Y376435D01*
X63987Y376353D01*
X64015Y376309D01*
X92965Y347360D01*
X92965Y292541D01*
X92968Y292521D01*
X92966Y292500D01*
X92988Y292389D01*
X93005Y292278D01*
X93014Y292260D01*
X93018Y292239D01*
X93042Y292200D01*
X93120Y292039D01*
X93197Y291957D01*
X93225Y291913D01*
X94997Y290141D01*
X94997Y286143D01*
X92169Y283315D01*
X88171Y283315D01*
X85591Y285895D01*
X85550Y285926D01*
X85514Y285963D01*
X85443Y286004D01*
X85377Y286053D01*
X85328Y286070D01*
X85284Y286095D01*
X85204Y286113D01*
X85126Y286140D01*
X85074Y286142D01*
X85024Y286153D01*
X84942Y286146D01*
X84860Y286149D01*
X84811Y286136D01*
X84759Y286131D01*
X84683Y286101D01*
X84604Y286079D01*
X84560Y286052D01*
X84512Y286032D01*
X84449Y285981D01*
X84380Y285937D01*
X84346Y285897D01*
X84306Y285865D01*
X84261Y285796D01*
X84208Y285734D01*
X84187Y285687D01*
X84159Y285644D01*
X84147Y285593D01*
X84103Y285490D01*
X84085Y285311D01*
X84075Y285267D01*
X84075Y223601D01*
X84078Y223581D01*
X84076Y223560D01*
X84098Y223449D01*
X84115Y223338D01*
X84124Y223320D01*
X84128Y223299D01*
X84152Y223260D01*
X84198Y223166D01*
X84208Y223140D01*
X84214Y223133D01*
X84230Y223099D01*
X84307Y223017D01*
X84335Y222973D01*
X86107Y221201D01*
X86107Y217203D01*
X84335Y215431D01*
X84322Y215414D01*
X84306Y215401D01*
X84244Y215307D01*
X84177Y215217D01*
X84170Y215197D01*
X84159Y215180D01*
X84149Y215135D01*
X84090Y214966D01*
X84086Y214853D01*
X84075Y214803D01*
X84075Y207345D01*
X84078Y207325D01*
X84076Y207304D01*
X84098Y207193D01*
X84115Y207082D01*
X84124Y207064D01*
X84128Y207043D01*
X84152Y207004D01*
X84230Y206843D01*
X84307Y206761D01*
X84335Y206717D01*
X86107Y204945D01*
X86107Y200947D01*
X83279Y198119D01*
X79281Y198119D01*
G37*
%LPD*%
G36*
X190113Y5095D02*
X190113Y5095D01*
X190205Y5100D01*
X190244Y5114D01*
X190284Y5121D01*
X190367Y5161D01*
X190454Y5193D01*
X190487Y5218D01*
X190524Y5236D01*
X190591Y5299D01*
X190664Y5356D01*
X190688Y5389D01*
X190718Y5418D01*
X190764Y5498D01*
X190817Y5573D01*
X190830Y5613D01*
X190850Y5648D01*
X190870Y5739D01*
X190898Y5826D01*
X190899Y5868D01*
X190908Y5908D01*
X190900Y6000D01*
X190901Y6092D01*
X190890Y6132D01*
X190886Y6173D01*
X190852Y6258D01*
X190825Y6347D01*
X190803Y6381D01*
X190787Y6420D01*
X190729Y6491D01*
X190678Y6568D01*
X190652Y6586D01*
X190620Y6626D01*
X190398Y6773D01*
X190378Y6778D01*
X190362Y6790D01*
X189776Y7032D01*
X187132Y9676D01*
X185701Y13130D01*
X185701Y16870D01*
X187132Y20324D01*
X189776Y22968D01*
X191757Y23788D01*
X191810Y23820D01*
X191868Y23843D01*
X191923Y23889D01*
X191985Y23926D01*
X192026Y23972D01*
X192074Y24011D01*
X192114Y24071D01*
X192161Y24124D01*
X192187Y24181D01*
X192221Y24232D01*
X192231Y24277D01*
X192245Y24302D01*
X192249Y24316D01*
X192271Y24366D01*
X192287Y24489D01*
X192303Y24561D01*
X192301Y24589D01*
X192305Y24609D01*
X192305Y99849D01*
X192298Y99899D01*
X192299Y99951D01*
X192278Y100030D01*
X192265Y100111D01*
X192243Y100158D01*
X192229Y100208D01*
X192185Y100277D01*
X192150Y100351D01*
X192115Y100388D01*
X192087Y100432D01*
X192024Y100485D01*
X191968Y100545D01*
X191924Y100571D01*
X191884Y100604D01*
X191809Y100636D01*
X191738Y100677D01*
X191687Y100688D01*
X191640Y100708D01*
X191558Y100717D01*
X191478Y100735D01*
X191427Y100730D01*
X191375Y100736D01*
X191295Y100720D01*
X191213Y100713D01*
X191165Y100694D01*
X191115Y100684D01*
X191071Y100656D01*
X190966Y100614D01*
X190827Y100501D01*
X190789Y100477D01*
X172755Y82443D01*
X172742Y82426D01*
X172726Y82412D01*
X172664Y82319D01*
X172597Y82229D01*
X172590Y82209D01*
X172579Y82191D01*
X172569Y82147D01*
X172510Y81978D01*
X172506Y81865D01*
X172495Y81814D01*
X172495Y25287D01*
X172510Y25185D01*
X172518Y25083D01*
X172530Y25055D01*
X172535Y25024D01*
X172579Y24932D01*
X172617Y24836D01*
X172637Y24813D01*
X172650Y24785D01*
X172720Y24710D01*
X172785Y24630D01*
X172811Y24613D01*
X172832Y24591D01*
X172921Y24540D01*
X173006Y24483D01*
X173030Y24477D01*
X173062Y24459D01*
X173322Y24401D01*
X173360Y24404D01*
X173383Y24399D01*
X178057Y24399D01*
X179099Y23357D01*
X179099Y6643D01*
X179053Y6597D01*
X179022Y6556D01*
X178984Y6520D01*
X178943Y6449D01*
X178895Y6383D01*
X178878Y6334D01*
X178852Y6290D01*
X178834Y6210D01*
X178807Y6132D01*
X178806Y6080D01*
X178794Y6030D01*
X178801Y5948D01*
X178798Y5866D01*
X178812Y5817D01*
X178816Y5765D01*
X178847Y5689D01*
X178868Y5610D01*
X178896Y5566D01*
X178915Y5518D01*
X178967Y5455D01*
X179011Y5386D01*
X179050Y5352D01*
X179083Y5312D01*
X179151Y5267D01*
X179213Y5214D01*
X179261Y5193D01*
X179304Y5165D01*
X179354Y5153D01*
X179458Y5109D01*
X179636Y5091D01*
X179681Y5081D01*
X190022Y5081D01*
X190113Y5095D01*
G37*
%LPC*%
G36*
X229206Y403119D02*
X229206Y403119D01*
X221825Y406176D01*
X216176Y411825D01*
X213119Y419206D01*
X213119Y427194D01*
X216176Y434575D01*
X221825Y440224D01*
X229206Y443281D01*
X237194Y443281D01*
X244575Y440224D01*
X250224Y434575D01*
X253281Y427194D01*
X253281Y419206D01*
X250224Y411825D01*
X244575Y406176D01*
X237194Y403119D01*
X229206Y403119D01*
G37*
%LPD*%
%LPC*%
G36*
X64661Y118119D02*
X64661Y118119D01*
X57280Y121176D01*
X51631Y126825D01*
X48574Y134206D01*
X48574Y142194D01*
X51631Y149575D01*
X57280Y155224D01*
X64661Y158281D01*
X72649Y158281D01*
X80030Y155224D01*
X85679Y149575D01*
X88736Y142194D01*
X88736Y134206D01*
X85679Y126825D01*
X80030Y121176D01*
X72649Y118119D01*
X64661Y118119D01*
G37*
%LPD*%
%LPC*%
G36*
X393751Y118119D02*
X393751Y118119D01*
X386370Y121176D01*
X380721Y126825D01*
X377664Y134206D01*
X377664Y142194D01*
X380721Y149575D01*
X386370Y155224D01*
X393751Y158281D01*
X401739Y158281D01*
X409120Y155224D01*
X414769Y149575D01*
X417826Y142194D01*
X417826Y134206D01*
X414769Y126825D01*
X409120Y121176D01*
X401739Y118119D01*
X393751Y118119D01*
G37*
%LPD*%
%LPC*%
G36*
X172245Y276605D02*
X172245Y276605D01*
X169417Y279433D01*
X169417Y281220D01*
X169414Y281241D01*
X169416Y281262D01*
X169394Y281372D01*
X169377Y281483D01*
X169368Y281502D01*
X169364Y281522D01*
X169340Y281561D01*
X169262Y281722D01*
X169185Y281805D01*
X169157Y281848D01*
X146426Y304579D01*
X146409Y304592D01*
X146396Y304608D01*
X146302Y304670D01*
X146212Y304737D01*
X146192Y304744D01*
X146175Y304755D01*
X146130Y304765D01*
X145961Y304824D01*
X145848Y304828D01*
X145798Y304839D01*
X143377Y304839D01*
X143357Y304836D01*
X143336Y304838D01*
X143225Y304816D01*
X143114Y304799D01*
X143096Y304790D01*
X143075Y304786D01*
X143036Y304762D01*
X142875Y304684D01*
X142793Y304607D01*
X142749Y304579D01*
X141485Y303315D01*
X137487Y303315D01*
X134659Y306143D01*
X134659Y310141D01*
X137487Y312969D01*
X141485Y312969D01*
X142749Y311705D01*
X142766Y311692D01*
X142779Y311676D01*
X142873Y311614D01*
X142963Y311547D01*
X142983Y311540D01*
X143000Y311529D01*
X143045Y311519D01*
X143214Y311460D01*
X143327Y311456D01*
X143377Y311445D01*
X148902Y311445D01*
X173828Y286519D01*
X173845Y286506D01*
X173858Y286490D01*
X173952Y286428D01*
X174042Y286361D01*
X174062Y286354D01*
X174079Y286343D01*
X174124Y286333D01*
X174293Y286274D01*
X174406Y286270D01*
X174456Y286259D01*
X176243Y286259D01*
X179071Y283431D01*
X179071Y279433D01*
X176243Y276605D01*
X172245Y276605D01*
G37*
%LPD*%
%LPC*%
G36*
X185707Y114299D02*
X185707Y114299D01*
X183935Y116071D01*
X183918Y116084D01*
X183905Y116100D01*
X183811Y116162D01*
X183721Y116229D01*
X183701Y116236D01*
X183684Y116247D01*
X183639Y116257D01*
X183470Y116316D01*
X183357Y116320D01*
X183307Y116331D01*
X141689Y116331D01*
X141669Y116328D01*
X141648Y116330D01*
X141537Y116308D01*
X141426Y116291D01*
X141408Y116282D01*
X141387Y116278D01*
X141348Y116254D01*
X141187Y116176D01*
X141105Y116099D01*
X141061Y116071D01*
X139413Y114423D01*
X135415Y114423D01*
X132587Y117251D01*
X132587Y121249D01*
X135415Y124077D01*
X139413Y124077D01*
X141309Y122181D01*
X141326Y122168D01*
X141339Y122152D01*
X141433Y122090D01*
X141523Y122023D01*
X141543Y122016D01*
X141560Y122005D01*
X141605Y121995D01*
X141774Y121936D01*
X141887Y121932D01*
X141937Y121921D01*
X183307Y121921D01*
X183327Y121924D01*
X183348Y121922D01*
X183459Y121944D01*
X183570Y121961D01*
X183588Y121970D01*
X183609Y121974D01*
X183648Y121998D01*
X183809Y122076D01*
X183891Y122153D01*
X183935Y122181D01*
X185707Y123953D01*
X189705Y123953D01*
X192533Y121125D01*
X192533Y117127D01*
X189705Y114299D01*
X185707Y114299D01*
G37*
%LPD*%
%LPC*%
G36*
X298477Y16777D02*
X298477Y16777D01*
X298477Y25006D01*
X299079Y24911D01*
X300600Y24416D01*
X302025Y23690D01*
X303319Y22750D01*
X304450Y21619D01*
X305390Y20325D01*
X306116Y18900D01*
X306611Y17379D01*
X306706Y16777D01*
X298477Y16777D01*
G37*
%LPD*%
%LPC*%
G36*
X286694Y16777D02*
X286694Y16777D01*
X286789Y17379D01*
X287284Y18900D01*
X288010Y20325D01*
X288950Y21619D01*
X290081Y22750D01*
X291375Y23690D01*
X292800Y24416D01*
X294321Y24911D01*
X294923Y25006D01*
X294923Y16777D01*
X286694Y16777D01*
G37*
%LPD*%
D10*
X169700Y15000D03*
D11*
X195100Y15000D03*
X220500Y15000D03*
X245900Y15000D03*
X271300Y15000D03*
X296700Y15000D03*
D12*
X342166Y377980D03*
X360127Y360019D03*
X378087Y342059D03*
D13*
X15240Y236220D03*
X15240Y223520D03*
X15240Y210820D03*
X53340Y259080D03*
X53340Y269240D03*
X160528Y312420D03*
X168148Y320040D03*
X175768Y327660D03*
X99568Y317500D03*
X109728Y317500D03*
X99568Y327660D03*
X119888Y317500D03*
X130048Y317500D03*
X15748Y289560D03*
X15748Y302260D03*
X15748Y314960D03*
X180848Y81280D03*
X180848Y66040D03*
X226568Y68580D03*
X234188Y48260D03*
X234188Y38100D03*
X340868Y53340D03*
X340868Y45720D03*
X340868Y38100D03*
X368808Y38100D03*
X368808Y45720D03*
X399288Y15240D03*
X284988Y40640D03*
X284988Y48260D03*
X312928Y35560D03*
X312928Y43180D03*
X312928Y50800D03*
X343408Y93980D03*
X325628Y99060D03*
X58928Y200660D03*
X74168Y195580D03*
X124968Y78740D03*
X130048Y73660D03*
X15748Y345440D03*
X382016Y86106D03*
D14*
X354584Y86106D01*
D13*
X354584Y86106D03*
D14*
X266192Y56896D02*
X207518Y56896D01*
D13*
X207518Y56896D03*
D14*
X295402Y86106D02*
X354584Y86106D01*
X295402Y86106D02*
X267970Y58674D01*
X266192Y56896D01*
X271300Y51788D02*
X271300Y15000D01*
X271300Y51788D02*
X267970Y55118D01*
X266192Y56896D01*
X267970Y55118D02*
X267970Y58674D01*
D13*
X174244Y281432D03*
D14*
X147534Y308142D01*
X139486Y308142D01*
D13*
X139486Y308142D03*
D15*
X195100Y103152D02*
X195100Y15000D01*
D13*
X236728Y144780D03*
D15*
X195100Y103152D01*
X236728Y144780D02*
X236728Y274066D01*
X229616Y281178D01*
D13*
X229616Y281178D03*
X188722Y301134D03*
D15*
X188722Y323596D01*
D13*
X188722Y323596D03*
D15*
X169700Y83340D02*
X169700Y15000D01*
X169700Y83340D02*
X230632Y144272D01*
X230632Y157480D01*
X230632Y259224D01*
X188722Y301134D01*
D13*
X230632Y157480D03*
X81280Y297688D03*
D15*
X81280Y219202D01*
D13*
X81280Y219202D03*
X81280Y202946D03*
D15*
X81280Y219202D01*
D13*
X187706Y119126D03*
D15*
X137538Y119126D01*
X137414Y119250D01*
D13*
X137414Y119250D03*
X58928Y361188D03*
D15*
X81280Y338836D01*
X81280Y297688D01*
D13*
X58928Y377444D03*
D15*
X90170Y346202D01*
X90170Y288142D01*
D13*
X90170Y288142D03*
M02*
