G04 EAGLE Gerber RS-274X export*
G75*
%MOMM*%
%FSLAX34Y34*%
%LPD*%
%INSolderpaste Top*%
%IPPOS*%
%AMOC8*
5,1,8,0,0,1.08239X$1,22.5*%
G01*
%ADD10C,0.222250*%
%ADD11C,0.317500*%
%ADD12R,0.800000X0.250000*%
%ADD13R,0.250000X0.800000*%
%ADD14R,1.550000X1.550000*%
%ADD15R,1.350000X0.600000*%
%ADD16R,2.000000X1.200000*%
%ADD17C,0.190500*%
%ADD18R,1.600000X0.300000*%
%ADD19R,1.950000X1.600000*%


D10*
X201610Y344832D02*
X201610Y351500D01*
X208278Y351500D01*
X208278Y344832D01*
X201610Y344832D01*
X201610Y346944D02*
X208278Y346944D01*
X208278Y349056D02*
X201610Y349056D01*
X201610Y351168D02*
X208278Y351168D01*
X201610Y336260D02*
X201610Y329592D01*
X201610Y336260D02*
X208278Y336260D01*
X208278Y329592D01*
X201610Y329592D01*
X201610Y331704D02*
X208278Y331704D01*
X208278Y333816D02*
X201610Y333816D01*
X201610Y335928D02*
X208278Y335928D01*
D11*
X328163Y234540D02*
X331339Y234540D01*
X331339Y231364D01*
X328163Y231364D01*
X328163Y234540D01*
X328163Y234380D02*
X331339Y234380D01*
X322449Y234540D02*
X319273Y234540D01*
X322449Y234540D02*
X322449Y231364D01*
X319273Y231364D01*
X319273Y234540D01*
X319273Y234380D02*
X322449Y234380D01*
X328163Y245970D02*
X331339Y245970D01*
X331339Y242794D01*
X328163Y242794D01*
X328163Y245970D01*
X328163Y245810D02*
X331339Y245810D01*
X322449Y245970D02*
X319273Y245970D01*
X322449Y245970D02*
X322449Y242794D01*
X319273Y242794D01*
X319273Y245970D01*
X319273Y245810D02*
X322449Y245810D01*
X328163Y257400D02*
X331339Y257400D01*
X331339Y254224D01*
X328163Y254224D01*
X328163Y257400D01*
X328163Y257240D02*
X331339Y257240D01*
X322449Y257400D02*
X319273Y257400D01*
X322449Y257400D02*
X322449Y254224D01*
X319273Y254224D01*
X319273Y257400D01*
X319273Y257240D02*
X322449Y257240D01*
X328163Y268830D02*
X331339Y268830D01*
X331339Y265654D01*
X328163Y265654D01*
X328163Y268830D01*
X328163Y268670D02*
X331339Y268670D01*
X322449Y268830D02*
X319273Y268830D01*
X322449Y268830D02*
X322449Y265654D01*
X319273Y265654D01*
X319273Y268830D01*
X319273Y268670D02*
X322449Y268670D01*
X328163Y280260D02*
X331339Y280260D01*
X331339Y277084D01*
X328163Y277084D01*
X328163Y280260D01*
X328163Y280100D02*
X331339Y280100D01*
X322449Y280260D02*
X319273Y280260D01*
X322449Y280260D02*
X322449Y277084D01*
X319273Y277084D01*
X319273Y280260D01*
X319273Y280100D02*
X322449Y280100D01*
X328163Y291690D02*
X331339Y291690D01*
X331339Y288514D01*
X328163Y288514D01*
X328163Y291690D01*
X328163Y291530D02*
X331339Y291530D01*
X322449Y291690D02*
X319273Y291690D01*
X322449Y291690D02*
X322449Y288514D01*
X319273Y288514D01*
X319273Y291690D01*
X319273Y291530D02*
X322449Y291530D01*
X328163Y303120D02*
X331339Y303120D01*
X331339Y299944D01*
X328163Y299944D01*
X328163Y303120D01*
X328163Y302960D02*
X331339Y302960D01*
X322449Y303120D02*
X319273Y303120D01*
X322449Y303120D02*
X322449Y299944D01*
X319273Y299944D01*
X319273Y303120D01*
X319273Y302960D02*
X322449Y302960D01*
X328163Y314550D02*
X331339Y314550D01*
X331339Y311374D01*
X328163Y311374D01*
X328163Y314550D01*
X328163Y314390D02*
X331339Y314390D01*
X322449Y314550D02*
X319273Y314550D01*
X322449Y314550D02*
X322449Y311374D01*
X319273Y311374D01*
X319273Y314550D01*
X319273Y314390D02*
X322449Y314390D01*
X328163Y325980D02*
X331339Y325980D01*
X331339Y322804D01*
X328163Y322804D01*
X328163Y325980D01*
X328163Y325820D02*
X331339Y325820D01*
X322449Y325980D02*
X319273Y325980D01*
X322449Y325980D02*
X322449Y322804D01*
X319273Y322804D01*
X319273Y325980D01*
X319273Y325820D02*
X322449Y325820D01*
X328163Y337410D02*
X331339Y337410D01*
X331339Y334234D01*
X328163Y334234D01*
X328163Y337410D01*
X328163Y337250D02*
X331339Y337250D01*
X322449Y337410D02*
X319273Y337410D01*
X322449Y337410D02*
X322449Y334234D01*
X319273Y334234D01*
X319273Y337410D01*
X319273Y337250D02*
X322449Y337250D01*
X328163Y348840D02*
X331339Y348840D01*
X331339Y345664D01*
X328163Y345664D01*
X328163Y348840D01*
X328163Y348680D02*
X331339Y348680D01*
X322449Y348840D02*
X319273Y348840D01*
X322449Y348840D02*
X322449Y345664D01*
X319273Y345664D01*
X319273Y348840D01*
X319273Y348680D02*
X322449Y348680D01*
X328163Y360270D02*
X331339Y360270D01*
X331339Y357094D01*
X328163Y357094D01*
X328163Y360270D01*
X328163Y360110D02*
X331339Y360110D01*
X322449Y360270D02*
X319273Y360270D01*
X322449Y360270D02*
X322449Y357094D01*
X319273Y357094D01*
X319273Y360270D01*
X319273Y360110D02*
X322449Y360110D01*
D10*
X221960Y284800D02*
X215292Y284800D01*
X221960Y284800D02*
X221960Y278132D01*
X215292Y278132D01*
X215292Y284800D01*
X215292Y280244D02*
X221960Y280244D01*
X221960Y282356D02*
X215292Y282356D01*
X215292Y284468D02*
X221960Y284468D01*
X206720Y284800D02*
X200052Y284800D01*
X206720Y284800D02*
X206720Y278132D01*
X200052Y278132D01*
X200052Y284800D01*
X200052Y280244D02*
X206720Y280244D01*
X206720Y282356D02*
X200052Y282356D01*
X200052Y284468D02*
X206720Y284468D01*
X191836Y329728D02*
X191836Y336396D01*
X191836Y329728D02*
X185168Y329728D01*
X185168Y336396D01*
X191836Y336396D01*
X191836Y331840D02*
X185168Y331840D01*
X185168Y333952D02*
X191836Y333952D01*
X191836Y336064D02*
X185168Y336064D01*
X191836Y344968D02*
X191836Y351636D01*
X191836Y344968D02*
X185168Y344968D01*
X185168Y351636D01*
X191836Y351636D01*
X191836Y347080D02*
X185168Y347080D01*
X185168Y349192D02*
X191836Y349192D01*
X191836Y351304D02*
X185168Y351304D01*
D12*
X281616Y288976D03*
X281616Y293476D03*
X281616Y297976D03*
X281616Y302476D03*
X281616Y306976D03*
D13*
X274616Y313976D03*
X270116Y313976D03*
X265616Y313976D03*
X261116Y313976D03*
X256616Y313976D03*
D12*
X249616Y306976D03*
X249616Y302476D03*
X249616Y297976D03*
X249616Y293476D03*
X249616Y288976D03*
D13*
X256616Y281976D03*
X261116Y281976D03*
X265616Y281976D03*
X270116Y281976D03*
X274616Y281976D03*
D14*
X265616Y297976D03*
D15*
X52254Y318142D03*
X52254Y308142D03*
X52254Y298142D03*
X52254Y288142D03*
D16*
X15504Y275142D03*
X15504Y331142D03*
D15*
X52000Y239238D03*
X52000Y229238D03*
X52000Y219238D03*
X52000Y209238D03*
D16*
X15250Y196238D03*
X15250Y252238D03*
D10*
X45434Y380908D02*
X52102Y380908D01*
X52102Y374240D01*
X45434Y374240D01*
X45434Y380908D01*
X45434Y376352D02*
X52102Y376352D01*
X52102Y378464D02*
X45434Y378464D01*
X45434Y380576D02*
X52102Y380576D01*
X36862Y380908D02*
X30194Y380908D01*
X36862Y380908D02*
X36862Y374240D01*
X30194Y374240D01*
X30194Y380908D01*
X30194Y376352D02*
X36862Y376352D01*
X36862Y378464D02*
X30194Y378464D01*
X30194Y380576D02*
X36862Y380576D01*
X45434Y364652D02*
X52102Y364652D01*
X52102Y357984D01*
X45434Y357984D01*
X45434Y364652D01*
X45434Y360096D02*
X52102Y360096D01*
X52102Y362208D02*
X45434Y362208D01*
X45434Y364320D02*
X52102Y364320D01*
X36862Y364652D02*
X30194Y364652D01*
X36862Y364652D02*
X36862Y357984D01*
X30194Y357984D01*
X30194Y364652D01*
X30194Y360096D02*
X36862Y360096D01*
X36862Y362208D02*
X30194Y362208D01*
X30194Y364320D02*
X36862Y364320D01*
D17*
X265958Y109408D02*
X265958Y103692D01*
X245002Y103692D01*
X245002Y109408D01*
X265958Y109408D01*
X265958Y105502D02*
X245002Y105502D01*
X245002Y107312D02*
X265958Y107312D01*
X265958Y109122D02*
X245002Y109122D01*
X265958Y116392D02*
X265958Y122108D01*
X265958Y116392D02*
X245002Y116392D01*
X245002Y122108D01*
X265958Y122108D01*
X265958Y118202D02*
X245002Y118202D01*
X245002Y120012D02*
X265958Y120012D01*
X265958Y121822D02*
X245002Y121822D01*
X265958Y129092D02*
X265958Y134808D01*
X265958Y129092D02*
X245002Y129092D01*
X245002Y134808D01*
X265958Y134808D01*
X265958Y130902D02*
X245002Y130902D01*
X245002Y132712D02*
X265958Y132712D01*
X265958Y134522D02*
X245002Y134522D01*
X265958Y141792D02*
X265958Y147508D01*
X265958Y141792D02*
X245002Y141792D01*
X245002Y147508D01*
X265958Y147508D01*
X265958Y143602D02*
X245002Y143602D01*
X245002Y145412D02*
X265958Y145412D01*
X265958Y147222D02*
X245002Y147222D01*
X265958Y154492D02*
X265958Y160208D01*
X265958Y154492D02*
X245002Y154492D01*
X245002Y160208D01*
X265958Y160208D01*
X265958Y156302D02*
X245002Y156302D01*
X245002Y158112D02*
X265958Y158112D01*
X265958Y159922D02*
X245002Y159922D01*
X265958Y167192D02*
X265958Y172908D01*
X265958Y167192D02*
X245002Y167192D01*
X245002Y172908D01*
X265958Y172908D01*
X265958Y169002D02*
X245002Y169002D01*
X245002Y170812D02*
X265958Y170812D01*
X265958Y172622D02*
X245002Y172622D01*
X265958Y179892D02*
X265958Y185608D01*
X265958Y179892D02*
X245002Y179892D01*
X245002Y185608D01*
X265958Y185608D01*
X265958Y181702D02*
X245002Y181702D01*
X245002Y183512D02*
X265958Y183512D01*
X265958Y185322D02*
X245002Y185322D01*
X265958Y192592D02*
X265958Y198308D01*
X265958Y192592D02*
X245002Y192592D01*
X245002Y198308D01*
X265958Y198308D01*
X265958Y194402D02*
X245002Y194402D01*
X245002Y196212D02*
X265958Y196212D01*
X265958Y198022D02*
X245002Y198022D01*
X164358Y198308D02*
X164358Y192592D01*
X143402Y192592D01*
X143402Y198308D01*
X164358Y198308D01*
X164358Y194402D02*
X143402Y194402D01*
X143402Y196212D02*
X164358Y196212D01*
X164358Y198022D02*
X143402Y198022D01*
X164358Y185608D02*
X164358Y179892D01*
X143402Y179892D01*
X143402Y185608D01*
X164358Y185608D01*
X164358Y181702D02*
X143402Y181702D01*
X143402Y183512D02*
X164358Y183512D01*
X164358Y185322D02*
X143402Y185322D01*
X164358Y172908D02*
X164358Y167192D01*
X143402Y167192D01*
X143402Y172908D01*
X164358Y172908D01*
X164358Y169002D02*
X143402Y169002D01*
X143402Y170812D02*
X164358Y170812D01*
X164358Y172622D02*
X143402Y172622D01*
X164358Y160208D02*
X164358Y154492D01*
X143402Y154492D01*
X143402Y160208D01*
X164358Y160208D01*
X164358Y156302D02*
X143402Y156302D01*
X143402Y158112D02*
X164358Y158112D01*
X164358Y159922D02*
X143402Y159922D01*
X164358Y147508D02*
X164358Y141792D01*
X143402Y141792D01*
X143402Y147508D01*
X164358Y147508D01*
X164358Y143602D02*
X143402Y143602D01*
X143402Y145412D02*
X164358Y145412D01*
X164358Y147222D02*
X143402Y147222D01*
X164358Y134808D02*
X164358Y129092D01*
X143402Y129092D01*
X143402Y134808D01*
X164358Y134808D01*
X164358Y130902D02*
X143402Y130902D01*
X143402Y132712D02*
X164358Y132712D01*
X164358Y134522D02*
X143402Y134522D01*
X164358Y122108D02*
X164358Y116392D01*
X143402Y116392D01*
X143402Y122108D01*
X164358Y122108D01*
X164358Y118202D02*
X143402Y118202D01*
X143402Y120012D02*
X164358Y120012D01*
X164358Y121822D02*
X143402Y121822D01*
X164358Y109408D02*
X164358Y103692D01*
X143402Y103692D01*
X143402Y109408D01*
X164358Y109408D01*
X164358Y105502D02*
X143402Y105502D01*
X143402Y107312D02*
X164358Y107312D01*
X164358Y109122D02*
X143402Y109122D01*
D10*
X385376Y62954D02*
X385376Y56286D01*
X378708Y56286D01*
X378708Y62954D01*
X385376Y62954D01*
X385376Y58398D02*
X378708Y58398D01*
X378708Y60510D02*
X385376Y60510D01*
X385376Y62622D02*
X378708Y62622D01*
X385376Y71526D02*
X385376Y78194D01*
X385376Y71526D02*
X378708Y71526D01*
X378708Y78194D01*
X385376Y78194D01*
X385376Y73638D02*
X378708Y73638D01*
X378708Y75750D02*
X385376Y75750D01*
X385376Y77862D02*
X378708Y77862D01*
X357924Y62936D02*
X357924Y56268D01*
X351256Y56268D01*
X351256Y62936D01*
X357924Y62936D01*
X357924Y58380D02*
X351256Y58380D01*
X351256Y60492D02*
X357924Y60492D01*
X357924Y62604D02*
X351256Y62604D01*
X357924Y71508D02*
X357924Y78176D01*
X357924Y71508D02*
X351256Y71508D01*
X351256Y78176D01*
X357924Y78176D01*
X357924Y73620D02*
X351256Y73620D01*
X351256Y75732D02*
X357924Y75732D01*
X357924Y77844D02*
X351256Y77844D01*
X324454Y78090D02*
X324454Y71422D01*
X324454Y78090D02*
X331122Y78090D01*
X331122Y71422D01*
X324454Y71422D01*
X324454Y73534D02*
X331122Y73534D01*
X331122Y75646D02*
X324454Y75646D01*
X324454Y77758D02*
X331122Y77758D01*
X324454Y62850D02*
X324454Y56182D01*
X324454Y62850D02*
X331122Y62850D01*
X331122Y56182D01*
X324454Y56182D01*
X324454Y58294D02*
X331122Y58294D01*
X331122Y60406D02*
X324454Y60406D01*
X324454Y62518D02*
X331122Y62518D01*
X126884Y87870D02*
X126884Y94538D01*
X126884Y87870D02*
X120216Y87870D01*
X120216Y94538D01*
X126884Y94538D01*
X126884Y89982D02*
X120216Y89982D01*
X120216Y92094D02*
X126884Y92094D01*
X126884Y94206D02*
X120216Y94206D01*
X126884Y103110D02*
X126884Y109778D01*
X126884Y103110D02*
X120216Y103110D01*
X120216Y109778D01*
X126884Y109778D01*
X126884Y105222D02*
X120216Y105222D01*
X120216Y107334D02*
X126884Y107334D01*
X126884Y109446D02*
X120216Y109446D01*
D18*
X409896Y272764D03*
X409896Y267764D03*
X409896Y262764D03*
X409896Y257764D03*
X409896Y252764D03*
X409896Y247764D03*
X409896Y242764D03*
X409896Y237764D03*
D19*
X442396Y294264D03*
X442396Y211264D03*
D18*
X409896Y232764D03*
M02*
